<svg id="Layer_1" height="512" viewBox="0 0 150 150" width="512" xmlns="http://www.w3.org/2000/svg" data-name="Layer 1"><circle cx="75" cy="75" fill="#21b3a9" r="64"/><path d="m99.55 40.57h-19.87l-10 5.51-10.5-5.51h-19.89a2.93 2.93 0 0 0 -2.93 2.93v56.63a2.93 2.93 0 0 0 2.93 2.93h60.26a2.93 2.93 0 0 0 2.93-2.93v-56.63a2.93 2.93 0 0 0 -2.93-2.93z" fill="#f7be56"/><path d="m79.68 57.76-2.48-1.73-2.68 1.73-2.35-1.73-2.75 1.73-2.64-1.73-2.69 1.73-2.74-1.73-2.2 1.73v-17.2h20.53z" fill="#ebf0f3"/><g fill="#3a556a"><path d="m52.32 79.31-5.34-7.5-5.35 7.5h3.03v18.35h4.64v-18.35z"/><path d="m64.93 79.31-5.34-7.5-5.35 7.5h3.02v18.35h4.65v-18.35z"/><circle cx="100.62" cy="96.41" r="13.02"/></g><path d="m111.65 96.41a11 11 0 1 1 -11-11 11 11 0 0 1 11 11z" fill="#ebf0f3"/><path d="m96.56 97.73v.66h-3.66a1.45 1.45 0 0 1 .08-.47 2.77 2.77 0 0 1 .45-.74 6.83 6.83 0 0 1 .89-.84 7.18 7.18 0 0 0 1.21-1.17 1.33 1.33 0 0 0 .32-.81.91.91 0 0 0 -.29-.68 1 1 0 0 0 -.75-.28 1.06 1.06 0 0 0 -.78.29 1.1 1.1 0 0 0 -.3.82l-.7-.07a1.73 1.73 0 0 1 .54-1.19 1.85 1.85 0 0 1 1.26-.41 1.73 1.73 0 0 1 1.25.44 1.44 1.44 0 0 1 .47 1.09 1.65 1.65 0 0 1 -.14.65 2.49 2.49 0 0 1 -.45.68 11 11 0 0 1 -1 1c-.41.34-.67.58-.79.7a2.2 2.2 0 0 0 -.28.36z"/><path d="m99.46 98.39v-1.33h-2.4v-.62l2.52-3.58h.55v3.58h.75v.62h-.75v1.33zm0-2v-2.39l-1.73 2.49z"/><path d="m101.25 98.48 1.61-5.71h.54l-1.6 5.71z"/><path d="m103.76 93.58v-.65h3.58v.53a7.66 7.66 0 0 0 -1 1.49 9.4 9.4 0 0 0 -.8 1.92 7.64 7.64 0 0 0 -.26 1.52h-.69a6.53 6.53 0 0 1 .25-1.58 8.48 8.48 0 0 1 .66-1.81 7.94 7.94 0 0 1 1-1.45z"/><path d="m107.38 98.41v-2.8h.34v1a.75.75 0 0 1 .61-.28.8.8 0 0 1 .39.09.51.51 0 0 1 .24.24 1.28 1.28 0 0 1 .07.45v1.29h-.34v-1.28a.5.5 0 0 0 -.12-.37.4.4 0 0 0 -.31-.12.6.6 0 0 0 -.29.08l-.19.22a.92.92 0 0 0 -.06.37v1.11z"/></svg>