<svg id="Layer_1" height="512" viewBox="0 0 150 150" width="512" xmlns="http://www.w3.org/2000/svg" data-name="Layer 1"><circle cx="75" cy="75" fill="#21b3a9" r="64"/><path d="m44.76 58.36a6.78 6.78 0 0 0 -2.38-.86 2.29 2.29 0 0 1 -.9-.35l-.22.07a3.72 3.72 0 0 0 -.82.36 3.89 3.89 0 0 0 -.63.43 18.24 18.24 0 0 0 -5.57 8.23 5.15 5.15 0 0 0 .37 4 124.84 124.84 0 0 0 18.39 25.28 123.76 123.76 0 0 0 25 20.4 5.07 5.07 0 0 0 3.93.57 18.2 18.2 0 0 0 8.51-5.14 4.53 4.53 0 0 0 .86-1.37l.37-1a19.53 19.53 0 0 0 -1.41-2.82 16.13 16.13 0 0 0 -3.67-3.75 22.91 22.91 0 0 0 -10.81-4.09 2.16 2.16 0 0 1 -.78-.24c-.34.29-.68.58-1 .85a11.61 11.61 0 0 1 -2.52 1.64c-1.89.78-4-1.25-4-1.25l-8.07-8.32-8.75-9.41s-1.91-2.2-1-4.06a11.87 11.87 0 0 1 1.94-2.6c.36-.41.74-.81 1.11-1.21l-.08-.18c-1.17-3.2-2.34-8.45-4.76-12.08z" fill="#3a556a"/><path d="m91.35 109.94 1.17-3a2.7 2.7 0 0 0 -.69-2.93c-5.34-5-12.51-9-14.09-8-1 .66-2.39 1.92-3.71 3a75 75 0 0 1 17.31 10.99z" fill="#3a556a"/><path d="m52.77 66.38-9.77-9.74-1.78.58a3.72 3.72 0 0 0 -.82.36 74.91 74.91 0 0 1 11.15 17.32c1.09-1.22 2.33-2.44 3-3.38.53-.75-.08-2.89-1.39-5.53z" fill="#3a556a"/><rect fill="#2f4859" height="23.14" rx="1.35" transform="matrix(.707 -.707 .707 .707 -31.14 52.48)" width="8.59" x="43.48" y="52.26"/><path d="m81.35 91.33 14.45 14.45a1.35 1.35 0 0 1 0 1.91l-4.16 4.17a1.36 1.36 0 0 1 -1.91 0l-14.45-14.45a1.35 1.35 0 0 1 0-1.91l4.16-4.17a1.36 1.36 0 0 1 1.91 0z" fill="#2f4859"/><path d="m92.69 33.34a23.3 23.3 0 0 0 -19.32 36.33l-7.87 15.54 13.8-9.51a23.3 23.3 0 1 0 13.39-42.36z" fill="#fcd462"/><g fill="#3a556a"><path d="m86 59.82v1.23h-6.9a2.29 2.29 0 0 1 .15-.89 4.78 4.78 0 0 1 .75-1.39 14.17 14.17 0 0 1 1.68-1.58 14.62 14.62 0 0 0 2.32-2.19 2.64 2.64 0 0 0 .6-1.54 1.7 1.7 0 0 0 -.55-1.29 1.94 1.94 0 0 0 -1.42-.52 2 2 0 0 0 -1.48.55 2.09 2.09 0 0 0 -.56 1.54l-1.32-.13a3.24 3.24 0 0 1 1-2.25 3.5 3.5 0 0 1 2.37-.77 3.29 3.29 0 0 1 2.38.83 2.74 2.74 0 0 1 .88 2.07 3.16 3.16 0 0 1 -.26 1.23 4.61 4.61 0 0 1 -.81 1.28 21.11 21.11 0 0 1 -2 1.84c-.77.65-1.26 1.09-1.48 1.32a4.07 4.07 0 0 0 -.54.69z"/><path d="m91.44 61.05v-2.5h-4.53v-1.17l4.76-6.77h1v6.77h1.41v1.17h-1.36v2.5zm0-3.67v-4.71l-3.27 4.71z"/><path d="m94.83 61.23 3.03-10.8h1.03l-3.02 10.8z"/><path d="m99.58 52v-1.25h6.76v1a14.92 14.92 0 0 0 -2 2.82 17.69 17.69 0 0 0 -1.51 3.62 13.22 13.22 0 0 0 -.49 2.87h-1.34a12.93 12.93 0 0 1 .48-3 16 16 0 0 1 1.33-3.37 14.57 14.57 0 0 1 1.88-2.69z"/></g></svg>