<svg id="Layer_1" height="512" viewBox="0 0 150 150" width="512" xmlns="http://www.w3.org/2000/svg" data-name="Layer 1"><circle cx="75" cy="75" fill="#334d5c" r="64"/><path d="m80.87 72.48-.23-2.55 14.34-1.27.15 1.16z" fill="#d5d6db"/><path d="m69.2 72.48.22-2.55-14.34-1.27-.14 1.16z" fill="#d5d6db"/><path d="m61.44 80.15a68.28 68.28 0 0 1 8.72-12.76c.88-1.29 2.91-2.13 5.15-2.13 2.42 0 4.57 1 5.32 2.41 2.38 2.67 4.1 6.54 5.65 10.73z" fill="#e1e6e9"/><path d="m15.46 76.48 48.72 3.37-1.02 3.98-46.14-5.71z" fill="#d5d6db"/><path d="m52.93 81.35a4.5 4.5 0 1 1 -4.49 4.49 4.49 4.49 0 0 1 4.49-4.49z" fill="#e1e6e9"/><path d="m52.93 83a2.89 2.89 0 1 1 -2.88 2.88 2.89 2.89 0 0 1 2.88-2.88z" fill="#64798a"/><path d="m39.36 80a4.08 4.08 0 1 1 -4.07 4.08 4.08 4.08 0 0 1 4.07-4.08z" fill="#e1e6e9"/><path d="m39.36 81.44a2.62 2.62 0 1 1 -2.61 2.61 2.61 2.61 0 0 1 2.61-2.61z" fill="#64798a"/><path d="m74.5 69.29c-7.81 0-14.14 8.86-14.14 16.67s6.33 11.4 14.14 11.4 14.14-3.59 14.14-11.36-6.33-16.71-14.14-16.71z" fill="#e1e6e9"/><path d="m83.52 77c2 4.35-2.21 7.07-9 7.07s-11-2.72-9-7.07a7.28 7.28 0 0 1 1-1.58c0 2.37 3.36 3.71 8 3.71s8-1.34 8-3.71a7.28 7.28 0 0 1 1 1.58z" fill="#27a2db"/><circle cx="74.5" cy="90.76" fill="#d5d6db" r="2.88"/><path d="m134.54 76.48-48.72 3.37 1.02 3.98 46.14-5.71z" fill="#d5d6db"/><path d="m97.07 81.35a4.5 4.5 0 1 0 4.49 4.49 4.49 4.49 0 0 0 -4.49-4.49z" fill="#e1e6e9"/><path d="m97.07 83a2.89 2.89 0 1 0 2.93 2.84 2.89 2.89 0 0 0 -2.93-2.84z" fill="#64798a"/><path d="m110.64 80a4.08 4.08 0 1 0 4.07 4.08 4.08 4.08 0 0 0 -4.07-4.08z" fill="#e1e6e9"/><path d="m110.64 81.44a2.62 2.62 0 1 0 2.61 2.61 2.61 2.61 0 0 0 -2.61-2.61z" fill="#64798a"/><path d="m76.84 67.04h-2.77l.59-14.4h1.59z" fill="#d5d6db"/><g fill="#e1e6e9"><path d="m74.07 78.56h.93v7.03h-.93z"/><path d="m80.17 76.64h.93v7.03h-.93z" transform="matrix(.928 -.372 .372 .928 -24.02 35.72)"/><path d="m65.13 79.69h7.03v.93h-7.03z" transform="matrix(.372 -.928 .928 .372 -31.28 114.08)"/></g></svg>