<svg id="Layer_1" height="512" viewBox="0 0 150 150" width="512" xmlns="http://www.w3.org/2000/svg" data-name="Layer 1"><circle cx="75" cy="75" fill="#334d5c" r="64"/><g fill="#27a2db"><path d="m79.25 56.53 34.95 20.52v4.71l-32.42-8.44z"/><path d="m70.75 56.53-34.95 20.52v4.71l32.42-8.44z"/><path d="m88.47 108.87-12.02-7.06 1.11 6.07 10.91 3.85z"/><path d="m61.53 108.87 12.02-7.06-1.11 6.07-10.91 3.85z"/></g><path d="m75 33.24c-4.24 0-7.68 10.58-7.68 32.82s3.44 47.71 7.68 47.71 7.68-25.48 7.68-47.71-3.44-32.82-7.68-32.82z" fill="#ebf0f3"/><path d="m75.56 116.76h-1.18l.27-13.65h.63z" fill="#27a2db"/><path d="m79.25 45.86a11.42 11.42 0 0 1 -.06 1.19c-.34-3.25-2.09-5.73-4.19-5.73s-3.84 2.48-4.18 5.73a9.17 9.17 0 0 1 -.07-1.19c0-3.83 1.9-6.93 4.25-6.93s4.25 3.07 4.25 6.93z" fill="#27a2db"/></svg>