<svg id="Layer_1" height="512" viewBox="0 0 150 150" width="512" xmlns="http://www.w3.org/2000/svg" data-name="Layer 1"><circle cx="75" cy="75" fill="#029bc5" r="64"/><path d="m98.57 40h-19.87l-10 5.51-10.53-5.51h-19.86a2.93 2.93 0 0 0 -2.93 2.93v56.59a2.93 2.93 0 0 0 2.93 2.93h60.26a2.93 2.93 0 0 0 2.93-2.93v-56.64a2.93 2.93 0 0 0 -2.93-2.88z" fill="#f7be56"/><path d="m78.7 55.15-2.48-1.74-2.68 1.74-2.35-1.74-2.75 1.74-2.64-1.74-2.69 1.74-2.74-1.74-2.2 1.74v-15.2h20.53z" fill="#ebf0f3"/><path d="m114.62 95.17a14.89 14.89 0 1 1 -14.88-14.89 14.88 14.88 0 0 1 14.88 14.89z" fill="#3a556a"/><path d="m112.35 95.17a12.61 12.61 0 1 1 -12.61-12.61 12.62 12.62 0 0 1 12.61 12.61z" fill="#fff"/><path d="m99.74 85.9-8.31 13.79h16.62z" fill="#e56353"/><path d="m93.5 98.67 6.24-10.37 6.24 10.37z" fill="#d15241"/><path d="m99.15 91.37h1.19v3.88h-1.19z" fill="#ebf0f3"/><path d="m99.74 96a.68.68 0 0 0 -.69.68.69.69 0 0 0 1.38 0 .68.68 0 0 0 -.69-.68z" fill="#ebf0f3"/><g fill="#3a556a"><path d="m52.13 83.87-2.93-4.1-2.93 4.1h1.66v10.05h2.54v-10.05z"/><path d="m59.03 83.87-2.93-4.1-2.92 4.1h1.65v10.05h2.55v-10.05z"/><path d="m63.35 97.54h-21.35v-21.39h21.35zm-20.35-1h19.35v-19.39h-19.35z"/></g></svg>