<svg id="Layer_1" height="512" viewBox="0 0 150 150" width="512" xmlns="http://www.w3.org/2000/svg" data-name="Layer 1"><circle cx="75" cy="75" fill="#334d5c" r="64"/><path d="m104.51 84.92c-1.84-6.92-9.6-13-9.6-13 1.27 6.79-2.12 15.08-2.12 15.08l3.81-1.27s4.24 8.75-6.7 13.64c-9.27 4.13-11.19-2.13-11.56-4.14v-36.41h11a2 2 0 0 0 0-3.93h-11v-5.45a8.77 8.77 0 1 0 -6.68 0v5.45h-11a2 2 0 0 0 0 3.93h11v36.44c-.36 2-2.28 8.28-11.56 4.15-10.94-4.89-6.7-13.64-6.7-13.64l3.81 1.23s-3.39-8.33-2.12-15.11c0 0-7.76 6.07-9.6 13l3.39.71s-2.68 10.45 2.47 15.53 9.95 7.91 18.14 8.9a6.25 6.25 0 0 1 .78.17l4.73 7.24 4.73-7.21a6.25 6.25 0 0 1 .78-.17c8.19-1 13-3.82 18.14-8.9s2.47-15.53 2.47-15.53zm-29.51-48.18a4.6 4.6 0 1 1 -4.6 4.59 4.6 4.6 0 0 1 4.6-4.59z" fill="#fcd462"/></svg>