<svg id="Layer_1" height="512" viewBox="0 0 150 150" width="512" xmlns="http://www.w3.org/2000/svg" data-name="Layer 1"><circle cx="75" cy="75" fill="#334d5c" r="64"/><rect fill="#e1e6e9" height="68.8" rx="4.33" width="49.72" x="50.14" y="45.58"/><path d="m54.97 57.12h40.07v51.37h-40.07z" fill="#ebf0f3"/><path d="m88.33 90.43-9-4v-5.31l-4.33 2.12-4.3-2.12v5.32l-9 4a1.64 1.64 0 0 0 -1 1.32l-.92 9.4h30.43l-.92-9.4a1.62 1.62 0 0 0 -.96-1.33z" fill="#f7be56"/><path d="m90.21 101.16h-30.42l.92-9.41a1.64 1.64 0 0 1 1-1.32l8.52-3.76.51-.23 4.41 1.23 4.19-1.23.78.34 8.25 3.64a1.62 1.62 0 0 1 1 1.32z" fill="#d15241"/><path d="m77 101.15-1.06-10.79.76-1.33-.79-1.37h-1.58l-.8 1.37.75 1.3-1.06 10.82z" fill="#3a556a"/><path d="m81.74 76.46c-.49-.39-.94.43-1.16 1l-.47-6.36-2.34-1.1-2.77-.3h-.07l-2.81.3-2.33 1.11-.43 5.8c-.24-.38-.55-.67-.88-.41-.71.57.19 2.37.66 3s.1 1.62.91 1.19l.86 2.61a2.59 2.59 0 0 0 .87 1.24l1.2 1a2.64 2.64 0 0 0 1.64.57h.82a2.66 2.66 0 0 0 1.68-.6l1.11-.91a2.68 2.68 0 0 0 .84-1.25l.86-2.75c1.12.76.68-.41 1.15-1.05s1.37-2.55.66-3.09z" fill="#fcd462"/><path d="m80.41 78.81h.38s.34-5.13.19-6.75-1.52-1.42-1.52-1.42a2.23 2.23 0 0 0 -2.24-2.23c-2.32-.22-6.54-.11-7.56 2.75s-.23 7.65-.23 7.65l.43-.06s.22-5.41.6-5.82 2.66-.72 4.39-.57 3.51-.52 4.19.38 1.22 3.87 1.26 4.32.11 1.75.11 1.75z" fill="#3a556a"/><path d="m81.44 71.19a6.89 6.89 0 0 0 -6.17-4.53 6.78 6.78 0 0 0 -7 6.77 6.86 6.86 0 0 0 .1 1.12.74.74 0 0 0 .73.62h11.9a.74.74 0 0 0 .73-.62 6.27 6.27 0 0 0 -.29-3.36z" fill="#27a2db"/><path d="m74.89 66.67c-1.91.18-3.44 3.14-3.44 6.77a10.92 10.92 0 0 0 .13 1.73h-.51a10.92 10.92 0 0 1 -.14-1.73c0-3.64 1.75-6.61 3.96-6.77z" fill="#1c75a1"/><path d="m79.23 73.44a10.92 10.92 0 0 1 -.14 1.73h-.51a12.25 12.25 0 0 0 .13-1.73c0-3.63-1.53-6.59-3.45-6.77 2.21.16 3.97 3.13 3.97 6.77z" fill="#1c75a1"/><path d="m81.17 74.63a24.9 24.9 0 0 0 -12.25 0 .29.29 0 0 0 -.2.38l.65 2a.9.9 0 0 0 1 .59 22.52 22.52 0 0 1 9.25 0 .91.91 0 0 0 1-.6l.65-2a.29.29 0 0 0 -.1-.37z" fill="#2d93ba"/><path d="m75.08 66.49c-.54 0-1 .08-1 .18s.43.18 1 .18 1-.08 1-.18-.47-.18-1-.18z" fill="#1c75a1"/><path d="m80.08 86.78v.01l-3.26 3.81-1.71-2.92-1.7 2.92-3.25-3.81.03-.12.51-1.92 4.41 2.92 4.19-2.92z" fill="#e56353"/><path d="m68.45 35.62h13.1v16.02h-13.1z" fill="#44c4a1"/><path d="m75 38.66a3 3 0 1 0 3 3 3 3 0 0 0 -3-3z" fill="#ebf0f3"/></svg>