<svg id="Layer_1" height="512" viewBox="0 0 150 150" width="512" xmlns="http://www.w3.org/2000/svg" data-name="Layer 1"><circle cx="75" cy="75" fill="#21b3a9" r="64"/><path d="m75 101.26-.25-.07a.5.5 0 0 1 -.22-.61l6.64-17.45.35-3.49a.51.51 0 0 1 .55-.45.49.49 0 0 1 .44.54l-.35 3.56v.13l-5.5 14.47 12.15-15.46.15-1.9a.51.51 0 0 1 .54-.46.5.5 0 0 1 .46.54l-.17 2a.52.52 0 0 1 -.1.27l-14.3 18.14a.51.51 0 0 1 -.39.24z" fill="#3a556a"/><path d="m75 101.26a.51.51 0 0 1 -.39-.19l-14.54-18.42a.51.51 0 0 1 -.11-.31v-1.75a.51.51 0 0 1 .5-.5.5.5 0 0 1 .5.5v1.57l12.42 15.73-5.51-14.47v-.13l-.35-3.55a.5.5 0 0 1 .44-.55.5.5 0 0 1 .55.45l.35 3.49 6.64 17.45a.5.5 0 0 1 -.22.61z" fill="#3a556a"/><path d="m85.66 99.83h-7l-3.55 2-3.71-2h-7a1 1 0 0 0 -1 1v20a1 1 0 0 0 1 1h21.26a1 1 0 0 0 1-1v-20a1 1 0 0 0 -1-1z" fill="#fcd462"/><path d="m78.63 105.82-.88-.61-.95.61-.83-.61-.97.61-.93-.61-.96.61-.96-.61-.78.61v-5.99h7.26z" fill="#ebf0f3"/><g fill="#3a556a"><path d="m68.41 116.13-1.22-1.72-1.23 1.72h.69v4.21h1.07v-4.21z"/><path d="m71.31 116.13-1.23-1.72-1.23 1.72h.7v4.21h1.06v-4.21z"/><path d="m75.5 116.28v-1.87h-1.1l-.59.79.6.53-.82 1.15.41-.88-.74-.75.55-.83h-1.4v1.87a1.54 1.54 0 0 0 1.34 1.53v1.42a.78.78 0 0 1 -.75.76h-.2a.17.17 0 0 0 -.17.16.17.17 0 0 0 .17.17h2.31a.17.17 0 0 0 .17-.17.17.17 0 0 0 -.17-.16h-.18a.78.78 0 0 1 -.77-.78v-1.42a1.54 1.54 0 0 0 1.34-1.52z"/></g><path d="m75 28.06a26.37 26.37 0 0 0 -26.37 26.37c0 9.15 4.67 21.06 11.74 28.65h.15a7.32 7.32 0 0 1 7.72 0l.09.08a15.45 15.45 0 0 1 6.59-1.16c2.94 0 5.5.51 6.74 1.26a5.92 5.92 0 0 1 4-1.26 6.44 6.44 0 0 1 3.8 1h.19c7-7.59 11.68-19.47 11.68-28.59a26.37 26.37 0 0 0 -26.33-26.35z" fill="#ebf0f3"/><path d="m75 28.06c-6.73 0-12.18 11.81-12.18 26.37 0 9.07 2.12 20.86 5.34 28.46l.17.26a15.45 15.45 0 0 1 6.59-1.15c2.94 0 5.5.51 6.74 1.26l.09-.13c3.28-7.59 5.43-19.52 5.43-28.68 0-14.58-5.45-26.39-12.18-26.39z" fill="#e56353"/></svg>