<svg id="Layer_1" height="512" viewBox="0 0 150 150" width="512" xmlns="http://www.w3.org/2000/svg" data-name="Layer 1"><circle cx="75" cy="75" fill="#fcd462" r="64"/><path d="m60.11 59.81c-2.29 2.29-12.84-6-18.1-11.21-7.5-7.51-7.2-11-5.63-12.53s5-1.86 12.52 5.64c5.26 5.29 13.51 15.81 11.21 18.1zm-23.11-23.07c-1.77 1.76.29 5.85 5.64 11.2 7.11 7.06 15.62 12.4 16.81 11.21s-4.14-9.7-11.21-16.77c-5.35-5.38-9.43-7.38-11.24-5.64z" fill="#3a556a"/><path d="m113.69 81.38-30.86-30.86a23.07 23.07 0 0 0 -33.2.61c-8.52 9.15-7.86 23.56 1 32.4l30.45 30.47a2.84 2.84 0 0 0 4 0l28.58-28.57a2.85 2.85 0 0 0 .03-4.05zm-51.86-16.88a5.76 5.76 0 0 1 -6.52-1.28c-1.9-2.14-1-4.95.52-7a2.92 2.92 0 0 1 3-1.28 3.21 3.21 0 0 1 .88-.19c2.46-.14 5.19 1.87 5.24 4.44a6.22 6.22 0 0 1 -3.12 5.31z" fill="#ebf0f3"/><g fill="#3a556a"><path d="m76.15 90.44h.94v18.9h-.94z" transform="matrix(.707 -.707 .707 .707 -48.19 83.39)"/><path d="m79.68 87.11h.55v18.9h-.55z" transform="matrix(.707 -.708 .708 .707 -44.87 84.89)"/><path d="m77.49 88.76h1.63v18.9h-1.63z" transform="matrix(.707 -.707 .707 .707 -46.51 84.13)"/><path d="m81 85.59h.94v18.9h-.94z" transform="matrix(.707 -.707 .707 .707 -43.34 85.4)"/><path d="m84.52 82.26h.55v18.9h-.55z" transform="matrix(.708 -.707 .707 .708 -40.01 86.74)"/><path d="m82.34 83.91h1.63v18.9h-1.63z" transform="matrix(.707 -.707 .707 .707 -41.66 86.14)"/><path d="m85.68 80.63h1.51v18.9h-1.51z" transform="matrix(.707 -.707 .707 .707 -38.38 87.47)"/><path d="m91.36 75.26h.88v18.9h-.88z" transform="matrix(.707 -.707 .707 .707 -33.01 89.77)"/><path d="m87.83 77.92h2.62v18.9h-2.62z" transform="matrix(.707 -.707 .707 .707 -35.67 88.62)"/><path d="m93.49 72.82h1.51v18.9h-1.51z" transform="matrix(.707 -.707 .707 .707 -30.57 90.76)"/><path d="m99.17 67.45h.88v18.9h-.88z" transform="matrix(.707 -.707 .707 .707 -25.21 92.91)"/><path d="m95.64 70.11h2.62v18.9h-2.62z" transform="matrix(.707 -.707 .707 .707 -27.86 91.86)"/><path d="m54.85 55.15a6.55 6.55 0 1 0 9.26 0 6.55 6.55 0 0 0 -9.26 0zm7.58 7.58a4.18 4.18 0 1 1 0-5.9 4.17 4.17 0 0 1 0 5.9z"/><path d="m36.44 36 .67.66c1.8-1.65 5.84.41 11.13 5.7 6.95 6.95 12.21 15.29 11.26 16.7l.67.66c2.08-2.42-6.06-12.82-11.27-18-7.41-7.42-10.9-7.22-12.46-5.72z"/></g></svg>