<svg id="Layer_1" height="512" viewBox="0 0 150 150" width="512" xmlns="http://www.w3.org/2000/svg" data-name="Layer 1"><circle cx="75" cy="75" fill="#fe7058" r="64"/><path d="m95.88 39.79h-13.77l-7 3.83-7.27-3.83h-13.72a2 2 0 0 0 -2 2v39.29a2 2 0 0 0 2 2h41.76a2 2 0 0 0 2-2v-39.25a2 2 0 0 0 -2-2.04z" fill="#fcd462"/><path d="m82.11 51.67-1.71-1.2-1.86 1.2-1.63-1.2-1.91 1.2-1.83-1.2-1.86 1.2-1.9-1.2-1.52 1.2v-11.88h14.22z" fill="#ebf0f3"/><path d="m75.14 58.45-2.96-4.14-2.95 4.14h1.67v10.16h2.57v-10.16z" fill="#3a556a"/><path d="m82.11 58.45-2.95-4.14-2.96 4.14h1.67v10.16h2.57v-10.16z" fill="#3a556a"/><path d="m44.73 73 4.47 33a4.87 4.87 0 0 0 4.8 4.21h42a4.87 4.87 0 0 0 4.8-4.21l4.47-33z" fill="#3a556a"/><rect fill="#64798a" height="11.28" rx="1.22" width="71.21" x="39.39" y="65.5"/><g fill="#2f4859"><path d="m59 82.06a2.71 2.71 0 0 0 -2.71 2.71v16.23a2.71 2.71 0 0 0 5.42 0v-16.23a2.71 2.71 0 0 0 -2.71-2.71z"/><path d="m69.67 82.06a2.71 2.71 0 0 0 -2.67 2.71v16.23a2.71 2.71 0 1 0 5.42 0v-16.23a2.71 2.71 0 0 0 -2.75-2.71z"/><path d="m80.33 82.06a2.71 2.71 0 0 0 -2.71 2.71v16.23a2.71 2.71 0 1 0 5.38 0v-16.23a2.71 2.71 0 0 0 -2.67-2.71z"/><path d="m91 82.06a2.71 2.71 0 0 0 -2.71 2.71v16.23a2.71 2.71 0 0 0 5.42 0v-16.23a2.71 2.71 0 0 0 -2.71-2.71z"/></g><path d="m88.46 69.27a2.63 2.63 0 0 0 0 3.72l17.85 17.85a2.62 2.62 0 0 0 3.69-3.71l-17.83-17.86a2.63 2.63 0 0 0 -3.71 0z" fill="#e1e6e9"/><path d="m61.54 69.27a2.63 2.63 0 0 1 0 3.72l-17.85 17.85a2.62 2.62 0 1 1 -3.69-3.71l17.83-17.86a2.63 2.63 0 0 1 3.71 0z" fill="#e1e6e9"/></svg>