<svg id="Layer_1" height="512" viewBox="0 0 150 150" width="512" xmlns="http://www.w3.org/2000/svg" data-name="Layer 1"><circle cx="75" cy="75" fill="#21b3a9" r="64"/><path d="m75 56.2-11.5-8.5-31.9 4.62 9.19 9.15 25.1 1.04z" fill="#ebf0f3"/><path d="m75 56.2 11.5-8.5 31.9 4.62-9.19 9.15-23.04 1.04z" fill="#ebf0f3"/><path d="m40.79 61.47v40.72l34.21 5.27 34.21-5.27v-40.72z" fill="#fcd462"/><path d="m75 56.2-34.21 5.27 34.21 5.27 34.21-5.27z" fill="#3a556a"/><path d="m75 96.91-34.21 5.28 34.21 5.27 34.21-5.27z" fill="#fcd462"/><path d="m57.08 45.6v23.6l7.51 1.28a1.59 1.59 0 0 1 2.76.47l7.65 1.31 17.92-3.06v-23.6z" fill="#ce412d"/><path d="m84.65 44.19s-.68.08-.93.08a5.16 5.16 0 0 1 -1.47-.49l-7.25-1.24-8.08 1.38a1.47 1.47 0 0 1 -1.21.55 1.56 1.56 0 0 1 -.8-.21l-7.83 1.34 17.92 3.06 17.92-3.06z" fill="#e56353"/><path d="m75 66.14-17.92 3.06 7.46 1.27a1.59 1.59 0 0 1 2.81.48l7.65 1.31 17.92-3.06z" fill="#ce412d"/><path d="m75 48.66v23.6l6.83-1.17a1.5 1.5 0 0 1 1.52-1.16 1.47 1.47 0 0 1 1.3.68l8.27-1.41v-23.6z" fill="#d15241"/><path d="m57.08 45.6v23.6l7.4 1.26a1.59 1.59 0 0 1 2.82.48l7.7 1.32v-23.6z" fill="#ce412d"/><path d="m67.42 70.96-3.02-.51v-23.54l17.85-3.13.54.37 1.86.04-17.23 3.16z" fill="#e1e6e9"/><path d="m82.25 43.78-17.85 3.13 3.02.44 17.23-3.16z" fill="#ebf0f3"/><path d="m81.72 71.11 1.67-.29 1.35-.23v-23.59l-17.68-3.1-2.42.41 17.08 3.2z" fill="#ebf0f3"/><path d="m67.06 43.9 17.68 3.1-3.02.51-17.08-3.2z" fill="#e1e6e9"/><path d="m109.21 61.47v40.72l-34.21 5.27v-40.72z" fill="#f7be56"/><path d="m40.79 61.47v40.72l34.21 5.27v-40.72z" fill="#fcd462"/><g fill="#e1e6e9"><path d="m109.21 61.47 9.19 8.39-33.46 6.6-9.94-9.72z"/><path d="m40.79 61.47-9.19 8.39 33.46 6.6 9.94-9.72z"/></g></svg>