<svg id="Layer_1" height="512" viewBox="0 0 150 150" width="512" xmlns="http://www.w3.org/2000/svg" data-name="Layer 1"><circle cx="75" cy="75" fill="#334d5c" r="64"/><path d="m97.22 41.5h-18.84l-9.51 5.23-10-5.23h-18.8a2.78 2.78 0 0 0 -2.78 2.78v53.72a2.79 2.79 0 0 0 2.78 2.78h57.15a2.78 2.78 0 0 0 2.78-2.78v-53.72a2.77 2.77 0 0 0 -2.78-2.78z" fill="#fcd462"/><path d="m78.38 57.85-2.35-1.64-2.54 1.64-2.23-1.64-2.61 1.64-2.51-1.64-2.55 1.64-2.6-1.64-2.08 1.64v-16.35h19.47z" fill="#ebf0f3"/><g fill="#3a556a"><path d="m48.31 87.15-1.88-2.64-1.89 2.64h1.07v6.48h1.64v-6.48z"/><path d="m52.77 87.15-1.89-2.64-1.89 2.64h1.07v6.48h1.64v-6.48z"/><path d="m66.13 87.27v-3.09h-1.82l-1 1.31 1 .87-1.31 1.9.61-1.47-1.22-1.24.91-1.37h-2.3v3.09a2.54 2.54 0 0 0 2.21 2.52v2.35a1.27 1.27 0 0 1 -1.21 1.27h-.29a.28.28 0 0 0 0 .55h3.81a.28.28 0 1 0 0-.55h-.32a1.27 1.27 0 0 1 -1.27-1.27v-2.35a2.54 2.54 0 0 0 2.2-2.52z"/><path d="m78.7 84.88v-.39a.18.18 0 1 0 -.36 0v.39a4.66 4.66 0 0 0 -4.34 4.79c0-.09.26-.18.58-.18s.58.09.58.18c0-.14.37-.25.82-.25a1.12 1.12 0 0 1 .81.21c.11-.24.73-.42 1.5-.45v3.82a.47.47 0 1 1 -.94 0v-.54a.18.18 0 1 0 -.36 0v.54a.83.83 0 1 0 1.66 0v-3.86c.84 0 1.5.26 1.5.53 0-.14.37-.25.82-.25s.83.11.83.25c0-.09.26-.18.58-.18s.58.09.58.18a4.66 4.66 0 0 0 -4.26-4.79z"/><path d="m55.46 95.88h-13.61v-13.62h13.61zm-12.93-.69h12.24v-12.19h-12.24z"/><path d="m70.39 95.88h-13.61v-13.62h13.61zm-12.93-.69h12.25v-12.19h-12.25z"/><path d="m85.33 95.88h-13.62v-13.62h13.62zm-12.93-.69h12.24v-12.19h-12.24z"/></g><path d="m107.01 75.11h-19.71v33.39h25.41v-27.69z" fill="#ebf0f3"/><path d="m90.26 80.45h5.38v5.38h-5.38z" fill="#e56353"/><path d="m90.26 89.11h5.38v5.39h-5.38z" fill="#e56353"/><path d="m90.26 97.78h5.38v5.38h-5.38z" fill="#e56353"/><path d="m97.56 81.68h12.19v.67h-12.19z" fill="#d5d6db"/><path d="m97.56 83.93h12.19v.67h-12.19z" fill="#d5d6db"/><path d="m97.56 90.34h12.19v.67h-12.19z" fill="#d5d6db"/><path d="m97.56 92.59h12.19v.67h-12.19z" fill="#d5d6db"/><path d="m97.56 99.01h12.19v.67h-12.19z" fill="#d5d6db"/><path d="m97.56 101.26h12.19v.67h-12.19z" fill="#d5d6db"/><path d="m92.6 84.74-1.35-1.35.51-.52.84.83 1.84-1.83.52.52z" fill="#ebf0f3"/><path d="m92.6 93.24-1.35-1.35.51-.52.84.83 1.84-1.83.52.52z" fill="#ebf0f3"/><path d="m92.6 101.74-1.35-1.35.51-.52.84.83 1.84-1.83.52.52z" fill="#ebf0f3"/><path d="m107.01 80.81h5.7l-5.7-5.7z" fill="#d5d6db"/></svg>