<svg id="Layer_1" height="512" viewBox="0 0 150 150" width="512" xmlns="http://www.w3.org/2000/svg" data-name="Layer 1"><circle cx="75" cy="75" fill="#21b3a9" r="64"/><path d="m101 74.87h-5.92l-3 1.65-3.08-1.65h-6a.87.87 0 0 0 -.88.88v16.91a.87.87 0 0 0 .88.87h18a.87.87 0 0 0 .87-.87v-16.91a.87.87 0 0 0 -.87-.88z" fill="#fcd462"/><path d="m95.08 79.37-.74-.51-.81.51-.7-.51-.82.51-.79-.51-.8.51-.82-.51-.65.51v-4.5h6.13z" fill="#e1e6e9"/><path d="m85.68 88.55-.98-1.38-.98 1.38h.55v3.37h.85v-3.37z" fill="#3a556a"/><path d="m87.99 88.55-.98-1.38-.98 1.38h.55v3.37h.86v-3.37z" fill="#3a556a"/><path d="m91.62 88.67v-1.5h-.89l-.46.64.47.42-.65.92.29-.71-.59-.6.44-.67h-1.08v1.5a1.23 1.23 0 0 0 1.07 1.23v1.1a.61.61 0 0 1 -.62.61h-.14l-.14.14.14.13h1.85l.13-.13-.13-.14h-.14a.61.61 0 0 1 -.62-.61v-1.1a1.24 1.24 0 0 0 1.07-1.23z" fill="#3a556a"/><path d="m67.07 74.87h-5.94l-3 1.65-3.13-1.65h-5.93a.87.87 0 0 0 -.87.88v16.91a.87.87 0 0 0 .87.87h18a.87.87 0 0 0 .87-.87v-16.91a.87.87 0 0 0 -.87-.88z" fill="#fcd462"/><path d="m61.13 79.37-.74-.51-.8.51-.7-.51-.82.51-.79-.51-.8.51-.82-.51-.66.51v-4.5h6.13z" fill="#e1e6e9"/><path d="m51.74 88.55-.99-1.38-.98 1.38h.56v3.37h.85v-3.37z" fill="#3a556a"/><path d="m54.05 88.55-.98-1.38-.98 1.38h.55v3.37h.86v-3.37z" fill="#3a556a"/><path d="m57.68 88.67v-1.5h-.89l-.47.64.48.42-.66.92.3-.71-.59-.6.44-.67h-1.09v1.5a1.24 1.24 0 0 0 1.07 1.23v1.1a.61.61 0 0 1 -.61.61h-.15l-.13.14.13.13h1.85l.14-.13-.14-.14h-.14a.61.61 0 0 1 -.62-.61v-1.1a1.24 1.24 0 0 0 1.08-1.23z" fill="#3a556a"/><path d="m101 43.5h-5.92l-3 1.65-3.08-1.65h-6a.87.87 0 0 0 -.88.88v16.91a.87.87 0 0 0 .88.87h18a.87.87 0 0 0 .87-.87v-16.91a.87.87 0 0 0 -.87-.88z" fill="#fcd462"/><path d="m95.08 48.01-.74-.52-.81.52-.7-.52-.82.52-.79-.52-.8.52-.82-.52-.65.52v-4.51h6.13z" fill="#e1e6e9"/><path d="m85.68 57.18-.98-1.38-.98 1.38h.55v3.37h.85v-3.37z" fill="#3a556a"/><path d="m87.99 57.18-.98-1.38-.98 1.38h.55v3.37h.86v-3.37z" fill="#3a556a"/><path d="m91.62 57.3v-1.5h-.89l-.46.64.47.42-.65.93.29-.72-.59-.6.44-.67h-1.08v1.5a1.23 1.23 0 0 0 1.07 1.23v1.14a.61.61 0 0 1 -.62.61h-.14l-.14.14.14.13h1.85l.13-.13-.13-.14h-.14a.61.61 0 0 1 -.62-.61v-1.14a1.24 1.24 0 0 0 1.07-1.23z" fill="#3a556a"/><path d="m67.07 43.5h-5.94l-3 1.65-3.13-1.65h-5.93a.87.87 0 0 0 -.87.88v16.91a.87.87 0 0 0 .87.87h18a.87.87 0 0 0 .87-.87v-16.91a.87.87 0 0 0 -.87-.88z" fill="#fcd462"/><path d="m61.13 48.01-.74-.52-.8.52-.7-.52-.82.52-.79-.52-.8.52-.82-.52-.66.52v-4.51h6.13z" fill="#e1e6e9"/><g fill="#3a556a"><path d="m51.74 57.18-.99-1.38-.98 1.38h.56v3.37h.85v-3.37z"/><path d="m54.05 57.18-.98-1.38-.98 1.38h.55v3.37h.86v-3.37z"/><path d="m57.68 57.3v-1.5h-.89l-.47.64.48.42-.66.93.3-.72-.59-.6.44-.67h-1.09v1.5a1.24 1.24 0 0 0 1.07 1.23v1.14a.61.61 0 0 1 -.61.61h-.15l-.13.14.13.13h1.85l.14-.13-.14-.14h-.14a.61.61 0 0 1 -.62-.61v-1.14a1.24 1.24 0 0 0 1.08-1.23z"/><path d="m106.57 37.89v24.17h-29.12v-24.17h-4.9v24.17h-29.12v-24.17h-4.9v74.22h4.9v-12.8h29.12v12.8h4.9v-12.8h29.12v12.8h4.9v-74.22zm-63.14 55.64v-25.7h29.12v25.7zm63.14 0h-29.12v-25.7h29.12z"/></g></svg>