<svg id="Layer_1" height="512" viewBox="0 0 150 150" width="512" xmlns="http://www.w3.org/2000/svg" data-name="Layer 1"><circle cx="75" cy="75" fill="#fe7058" r="64"/><circle cx="75" cy="75" fill="#fe7058" r="64"/><path d="m49.03 107.53h51.94v3.61h-51.94z" fill="#3a556a"/><path d="m71.95 56.14h6.09v45.68h-6.09z" fill="#2f4859"/><rect fill="#3a556a" height="21.04" rx="1.35" width="30.68" x="59.66" y="38.85"/><path d="m62.51 41.7h24.99v15.35h-24.99z" fill="#27a2db"/><rect fill="#64798a" height="8.72" rx="1.01" width="66.11" x="41.94" y="100.53"/><path d="m90.31 68.48h-10.09l-5.1 2.8-5.34-2.8h-10.09a1.48 1.48 0 0 0 -1.49 1.52v28.75a1.48 1.48 0 0 0 1.49 1.49h30.62a1.48 1.48 0 0 0 1.49-1.49v-28.75a1.48 1.48 0 0 0 -1.49-1.52z" fill="#fcd462"/><path d="m80.22 76.9-1.26-.88-1.37.88-1.19-.88-1.4.88-1.34-.88-1.37.88-1.39-.88-1.12.88v-8.42h10.44z" fill="#ebf0f3"/><path d="m88.67 93.6v-2.13h-1.25l-.67.9.68.6-.93 1.31.42-1-.84-.85.62-.94h-1.53v2.11a1.75 1.75 0 0 0 1.51 1.73v1.61a.87.87 0 0 1 -.87.88h-.2a.18.18 0 0 0 -.19.19.18.18 0 0 0 .19.18h2.62a.19.19 0 1 0 0-.37h-.23a.87.87 0 0 1 -.88-.88v-1.61a1.75 1.75 0 0 0 1.55-1.73z" fill="#3a556a"/><path d="m60.24 94.53h4.18v.61h-4.18z" fill="#f7be56"/><path d="m60.24 95.77h7.85v.61h-7.85z" fill="#f7be56"/><path d="m60.24 97.02h6.16v.61h-6.16z" fill="#f7be56"/><path d="m80.16 93.33-1.41-1.98-1.42 1.98h.8v4.86h1.23v-4.86z" fill="#3a556a"/><path d="m83.5 93.33-1.41-1.98-1.42 1.98h.8v4.86h1.23v-4.86z" fill="#3a556a"/><g fill="#ebf0f3"><path d="m67.34 52.35h-.74v-4.72a3.85 3.85 0 0 1 -.7.51 4.57 4.57 0 0 1 -.78.38v-.71a4.66 4.66 0 0 0 1.09-.71 3 3 0 0 0 .65-.81h.48z"/><path d="m69.24 49.38a5.47 5.47 0 0 1 .22-1.73 2.06 2.06 0 0 1 .65-1 1.65 1.65 0 0 1 1.09-.36 1.75 1.75 0 0 1 .85.2 1.64 1.64 0 0 1 .61.56 3.08 3.08 0 0 1 .34.95 6 6 0 0 1 .14 1.43 5.42 5.42 0 0 1 -.14 1.66 2.14 2.14 0 0 1 -.65 1 1.72 1.72 0 0 1 -1.1.35 1.68 1.68 0 0 1 -1.37-.62 4 4 0 0 1 -.64-2.44zm.76 0a3.67 3.67 0 0 0 .35 2 1 1 0 0 0 .85.49 1 1 0 0 0 .86-.49 3.8 3.8 0 0 0 .35-2 3.76 3.76 0 0 0 -.35-2 1 1 0 0 0 -.86-.49.94.94 0 0 0 -.82.43 3.88 3.88 0 0 0 -.38 2.06z"/><path d="m74.33 48v-.84h.85v.84zm0 3.53v-.85h.85v.85z"/><path d="m76.26 49.38a5.78 5.78 0 0 1 .22-1.73 2.14 2.14 0 0 1 .66-1 1.65 1.65 0 0 1 1.09-.36 1.78 1.78 0 0 1 .85.2 1.64 1.64 0 0 1 .61.56 3.38 3.38 0 0 1 .37.9 6 6 0 0 1 .14 1.43 5.73 5.73 0 0 1 -.2 1.71 2.22 2.22 0 0 1 -.65 1 1.72 1.72 0 0 1 -1.1.35 1.67 1.67 0 0 1 -1.37-.62 4 4 0 0 1 -.62-2.44zm.76 0a3.77 3.77 0 0 0 .35 2 1 1 0 0 0 1.72 0 3.82 3.82 0 0 0 .34-2 3.79 3.79 0 0 0 -.34-2 1 1 0 0 0 -.87-.49.93.93 0 0 0 -.81.43 3.76 3.76 0 0 0 -.41 2.06z"/><path d="m81 49.38a5.47 5.47 0 0 1 .22-1.73 2.13 2.13 0 0 1 .65-1 1.67 1.67 0 0 1 1.1-.36 1.81 1.81 0 0 1 .85.2 1.69 1.69 0 0 1 .6.56 3.09 3.09 0 0 1 .38.9 6 6 0 0 1 .13 1.43 5.42 5.42 0 0 1 -.22 1.71 2.14 2.14 0 0 1 -.65 1 1.86 1.86 0 0 1 -2.47-.27 4 4 0 0 1 -.59-2.44zm.76 0a3.77 3.77 0 0 0 .35 2 1 1 0 0 0 1.71 0 3.8 3.8 0 0 0 .35-2 3.76 3.76 0 0 0 -.35-2 1 1 0 0 0 -.86-.49 1 1 0 0 0 -.82.43 3.88 3.88 0 0 0 -.43 2.06z"/></g></svg>