<svg id="Layer_1" height="512" viewBox="0 0 150 150" width="512" xmlns="http://www.w3.org/2000/svg" data-name="Layer 1"><path d="m139 75a64 64 0 1 1 -64-64 64 64 0 0 1 64 64" fill="#334d5c"/><path d="m98.64 112.01h-47.27v-75.16h47.27z" fill="#ebf0f3"/><path d="m65.77 51.77h-9.89v-9.89h9.89z" fill="#d5d6db"/><path d="m64.75 42.9v7.85h-7.85v-7.85z" fill="#27a2db"/><path d="m62.1 42.9h-.76l-4.44 4.44v.76z" fill="#58b6e1"/><path d="m64.75 42.9h-1.59l-6.26 6.27v1.58h.26l7.59-7.59z" fill="#58b6e1"/><path d="m79.95 51.77h-9.9v-9.89h9.9z" fill="#d5d6db"/><path d="m78.92 42.9v7.85h-7.84v-7.85z" fill="#27a2db"/><path d="m76.27 42.9h-.76l-4.43 4.44v.76z" fill="#58b6e1"/><path d="m78.92 42.9h-1.58l-6.26 6.27v1.58h.25l7.59-7.59z" fill="#58b6e1"/><path d="m94.12 51.77h-9.89v-9.89h9.89z" fill="#d5d6db"/><path d="m93.1 42.9v7.85h-7.84v-7.85z" fill="#27a2db"/><path d="m90.45 42.9h-.76l-4.43 4.44v.76z" fill="#58b6e1"/><path d="m93.1 42.9h-1.58l-6.26 6.27v1.58h.25l7.59-7.59z" fill="#58b6e1"/><path d="m65.77 65.37h-9.89v-9.89h9.89z" fill="#d5d6db"/><path d="m64.75 56.5v7.85h-7.85v-7.85z" fill="#27a2db"/><path d="m62.1 56.5h-.76l-4.44 4.44v.76z" fill="#58b6e1"/><path d="m64.75 56.5h-1.59l-6.26 6.27v1.58h.26l7.59-7.59z" fill="#58b6e1"/><path d="m79.95 65.37h-9.9v-9.89h9.9z" fill="#d5d6db"/><path d="m78.92 56.5v7.85h-7.84v-7.85z" fill="#27a2db"/><path d="m76.27 56.5h-.76l-4.43 4.44v.76z" fill="#58b6e1"/><path d="m78.92 56.5h-1.58l-6.26 6.27v1.58h.25l7.59-7.59z" fill="#58b6e1"/><path d="m94.12 65.37h-9.89v-9.89h9.89z" fill="#d5d6db"/><path d="m93.1 56.5v7.85h-7.84v-7.85z" fill="#27a2db"/><path d="m90.45 56.5h-.76l-4.43 4.44v.76z" fill="#58b6e1"/><path d="m93.1 56.5h-1.58l-6.26 6.27v1.58h.25l7.59-7.59z" fill="#58b6e1"/><path d="m65.77 78.97h-9.89v-9.89h9.89z" fill="#d5d6db"/><path d="m64.75 70.1v7.85h-7.85v-7.85z" fill="#27a2db"/><path d="m62.1 70.1h-.76l-4.44 4.45v.75z" fill="#58b6e1"/><path d="m64.75 70.1h-1.59l-6.26 6.27v1.58h.26l7.59-7.59z" fill="#58b6e1"/><path d="m79.95 78.97h-9.9v-9.89h9.9z" fill="#d5d6db"/><path d="m78.92 70.1v7.85h-7.84v-7.85z" fill="#27a2db"/><path d="m76.27 70.1h-.76l-4.43 4.45v.75z" fill="#58b6e1"/><path d="m78.92 70.1h-1.58l-6.26 6.27v1.58h.25l7.59-7.59z" fill="#58b6e1"/><path d="m94.12 78.97h-9.89v-9.89h9.89z" fill="#d5d6db"/><path d="m93.1 70.1v7.85h-7.84v-7.85z" fill="#27a2db"/><path d="m90.45 70.1h-.76l-4.43 4.45v.75z" fill="#58b6e1"/><path d="m93.1 70.1h-1.58l-6.26 6.27v1.58h.25l7.59-7.59z" fill="#58b6e1"/><path d="m65.77 92.57h-9.89v-9.89h9.89z" fill="#d5d6db"/><path d="m64.75 83.7v7.85h-7.85v-7.85z" fill="#27a2db"/><path d="m62.1 83.7h-.76l-4.44 4.44v.76z" fill="#58b6e1"/><path d="m64.75 83.7h-1.59l-6.26 6.27v1.58h.26l7.59-7.59z" fill="#58b6e1"/><path d="m79.95 92.57h-9.9v-9.89h9.9z" fill="#d5d6db"/><path d="m78.92 83.7v7.85h-7.84v-7.85z" fill="#27a2db"/><path d="m76.27 83.7h-.76l-4.43 4.44v.76z" fill="#58b6e1"/><path d="m78.92 83.7h-1.58l-6.26 6.27v1.58h.25l7.59-7.59z" fill="#58b6e1"/><path d="m94.12 92.57h-9.89v-9.89h9.89z" fill="#d5d6db"/><path d="m93.1 83.7v7.85h-7.84v-7.85z" fill="#27a2db"/><path d="m90.45 83.7h-.76l-4.43 4.44v.76z" fill="#58b6e1"/><path d="m93.1 83.7h-1.58l-6.26 6.27v1.58h.25l7.59-7.59z" fill="#58b6e1"/><path d="m65.77 106.17h-9.89v-9.89h9.89z" fill="#d5d6db"/><path d="m64.75 97.3v7.85h-7.85v-7.85z" fill="#27a2db"/><path d="m62.1 97.3h-.76l-4.44 4.45v.75z" fill="#58b6e1"/><path d="m64.75 97.3h-1.59l-6.26 6.27v1.58h.26l7.59-7.59z" fill="#58b6e1"/><path d="m70.05 96.28h9.89v15.73h-9.89z" fill="#3a556a"/><path d="m94.12 106.17h-9.89v-9.89h9.89z" fill="#d5d6db"/><path d="m93.1 97.3v7.85h-7.84v-7.85z" fill="#27a2db"/><path d="m90.45 97.3h-.76l-4.43 4.45v.75z" fill="#58b6e1"/><path d="m93.1 97.3h-1.58l-6.26 6.27v1.58h.25l7.59-7.59z" fill="#58b6e1"/><path d="m43.58 110.45h62.85v2.7h-62.85z" fill="#d5d6db"/></svg>