<svg id="Layer_1" height="512" viewBox="0 0 150 150" width="512" xmlns="http://www.w3.org/2000/svg" data-name="Layer 1"><circle cx="75" cy="75" fill="#89c5cd" r="64"/><path d="m103.06 103.3a19.25 19.25 0 0 0 -4.43-4.53 27.72 27.72 0 0 0 -13-4.93 2.8 2.8 0 0 1 -.94-.29l-1.24 1a14.68 14.68 0 0 1 -3 2c-2.36.95-4.9-1.55-4.9-1.55l-9.78-10-10.55-11.38s-2.31-2.62-1.22-4.9a14.6 14.6 0 0 1 2.34-3.14l1.34-1.45-.1-.22c-2.19-6-4.39-18-12.3-19.32a2.62 2.62 0 0 1 -1.09-.42l-.26.08a4.89 4.89 0 0 0 -1 .44 4.44 4.44 0 0 0 -.76.52 22 22 0 0 0 -6.72 9.93 6.14 6.14 0 0 0 .44 4.77 150.49 150.49 0 0 0 22.2 30.56c11.38 12.53 25.08 21.53 30.17 24.62a6.06 6.06 0 0 0 4.74.68 22 22 0 0 0 10.26-6.2 5.29 5.29 0 0 0 1-1.66l.45-1.17a23.45 23.45 0 0 0 -1.65-3.44z" fill="#2f4859"/><path d="m104.31 107.87 1.41-3.68a3.24 3.24 0 0 0 -.83-3.54c-6.44-6-15.09-10.89-17-9.67-1.25.79-2.88 2.31-4.48 3.6a90.29 90.29 0 0 1 20.89 13.33z" fill="#d5d6db"/><path d="m56.29 65.58c1.32-1.46 2.81-2.93 3.62-4.07 1.31-1.85-3.14-10.73-8.79-17.47a3.26 3.26 0 0 0 -3.49-1l-3.75 1.22a4.89 4.89 0 0 0 -1 .44 90.92 90.92 0 0 1 13.41 20.88z" fill="#d5d6db"/><g fill="#3a556a"><path d="m114.88 74.44h-4a36.46 36.46 0 0 0 -36.41-36.44v-4a40.46 40.46 0 0 1 40.41 40.44z"/><path d="m103.63 74.44h-4a25.19 25.19 0 0 0 -25.16-25.17v-4a29.19 29.19 0 0 1 29.16 29.17z"/><path d="m91.19 74.44h-4a12.74 12.74 0 0 0 -12.72-12.73v-4a16.74 16.74 0 0 1 16.72 16.73z"/></g></svg>