<svg id="Layer_1" height="512" viewBox="0 0 150 150" width="512" xmlns="http://www.w3.org/2000/svg" data-name="Layer 1"><circle cx="75" cy="75" fill="#45b39c" r="64"/><path d="m100.52 39.38h-20l-10.08 5.55-10.56-5.55h-20a3 3 0 0 0 -3 2.95v57a3 3 0 0 0 3 3h60.63a3 3 0 0 0 3-3v-57a3 3 0 0 0 -2.99-2.95z" fill="#fcd462"/><path d="m80.53 62.11-2.49-1.74-2.7 1.74-2.36-1.74-2.77 1.74-2.66-1.74-2.71 1.74-2.76-1.74-2.2 1.74v-22.73h20.65z" fill="#ebf0f3"/><g fill="#3a556a"><path d="m56.14 78.33-2.99-4.2-3 4.2h1.69v10.3h2.61v-10.3z"/><path d="m63.22 78.33-3-4.2-3 4.2h1.69v10.3h2.61v-10.3z"/><path d="m73.46 78.71v-4.58h-2.7l-1.43 1.94 1.46 1.3-2 2.82.91-2.2-1.81-1.83 1.35-2h-3.33v4.58a3.77 3.77 0 0 0 3.27 3.74v3.48a1.89 1.89 0 0 1 -1.88 1.89h-.44a.41.41 0 1 0 0 .81h5.65a.41.41 0 1 0 0-.81h-.43a1.89 1.89 0 0 1 -1.89-1.89v-3.51a3.76 3.76 0 0 0 3.27-3.74z"/><path d="m83.26 75v-.6a.29.29 0 0 0 -.58 0v.6a7.29 7.29 0 0 0 -7 7.28c0-.15.42-.28.94-.28s.94.13.94.28c0-.22.6-.4 1.34-.4s1.2.14 1.31.33v-.06c.19-.36 1.19-.64 2.44-.68v5.79a.78.78 0 0 1 -.77.77.77.77 0 0 1 -.76-.77v-.8a.3.3 0 1 0 -.59 0v.8a1.35 1.35 0 0 0 2.7 0v-5.77c1.38.05 2.44.39 2.44.81 0-.22.6-.4 1.34-.4s1.34.18 1.34.4c0-.15.42-.28.94-.28s.94.13.94.28a7.28 7.28 0 0 0 -6.97-7.3z"/></g><path d="m101.8 88.09a11.27 11.27 0 1 0 11.26 11.27 11.28 11.28 0 0 0 -11.26-11.27z" fill="#e56353"/><path d="m101.8 89.84a9.52 9.52 0 1 0 9.51 9.52 9.52 9.52 0 0 0 -9.51-9.52z" fill="#ebf0f3"/><path d="m107.24 103.03-3.67-3.67 3.67-3.68-1.77-1.77-3.67 3.68-3.68-3.68-1.77 1.77 3.68 3.68-3.68 3.67 1.77 1.77 3.68-3.67 3.67 3.67z" fill="#e56353"/></svg>