<svg id="Layer_1" height="512" viewBox="0 0 150 150" width="512" xmlns="http://www.w3.org/2000/svg" data-name="Layer 1"><circle cx="75" cy="75" fill="#334d5c" r="64"/><path d="m92 31.3h-11.58l-5.84 3.2-6.1-3.2h-11.56a1.71 1.71 0 0 0 -1.71 1.7v33a1.71 1.71 0 0 0 1.71 1.7h35.08a1.7 1.7 0 0 0 1.7-1.7v-33a1.7 1.7 0 0 0 -1.7-1.7z" fill="#fcd462"/><path d="m80.42 42.56-1.44-1.01-1.56 1.01-1.37-1.01-1.6 1.01-1.54-1.01-1.56 1.01-1.6-1.01-1.27 1.01v-11.26h11.94z" fill="#ebf0f3"/><g fill="#3a556a"><path d="m65.17 58.42-1.53-2.14-1.52 2.14h.86v5.23h1.32v-5.23z"/><path d="m68.76 58.42-1.52-2.14-1.53 2.14h.86v5.23h1.33v-5.23z"/><path d="m76.37 58.61v-2.33h-1.37l-.72 1 .74.66-1 1.43.46-1.11-.92-.94.68-1h-1.71v2.33a1.91 1.91 0 0 0 1.66 1.9v1.77a1 1 0 0 1 -1 1h-.19a.21.21 0 1 0 0 .41h2.87a.21.21 0 0 0 .21-.21.2.2 0 0 0 -.21-.2h-.22a1 1 0 0 1 -1-1v-1.81a1.92 1.92 0 0 0 1.72-1.9z"/><path d="m83.61 56.73v-.3l-.15-.15-.15.15v.3a3.71 3.71 0 0 0 -3.56 3.7c0-.07.21-.14.48-.14s.48.07.48.14c0-.11.3-.2.68-.2s.61.07.67.17c.1-.19.6-.33 1.24-.35v2.95a.39.39 0 0 1 -.78 0v-.4l-.15-.15-.15.15v.4a.69.69 0 0 0 1.38 0v-3c.69 0 1.24.2 1.24.41 0-.11.3-.2.68-.2s.67.09.67.2c0-.07.22-.14.48-.14s.48.07.48.14a3.71 3.71 0 0 0 -3.54-3.68z"/><path d="m79.08 55.34h-18.27v9.26h27.28v-9.26zm-9.26 9h-8.76v-8.75h8.76zm9 0h-8.75v-8.75h8.76zm9 0h-8.74v-8.75h8.76z"/></g><path d="m96.9 118.7-2.16-16.1 11.05-14.22-1.41-26a1.65 1.65 0 0 0 -2.25-1.38 6.11 6.11 0 0 0 -3.85 5.41l-.74 16.88-8.82 11.31 1.09-9.07 3.06-5.35a3.8 3.8 0 0 0 -3.22-5.7l-6.94 9.38-3.29 11.27 1.26 23.57z" fill="#fcd462"/><path d="m53.1 118.7 2.16-16.1-11-14.22 1.41-26a1.65 1.65 0 0 1 2.2-1.38 6.11 6.11 0 0 1 3.85 5.41l.74 16.88 8.82 11.31-1.09-9.07-3.06-5.35a3.8 3.8 0 0 1 3.22-5.7l6.94 9.38 3.29 11.27-1.26 23.57z" fill="#fcd462"/></svg>