<svg id="Layer_1" height="512" viewBox="0 0 150 150" width="512" xmlns="http://www.w3.org/2000/svg" data-name="Layer 1"><circle cx="75" cy="75" fill="#2f4859" r="64"/><circle cx="75" cy="75" fill="#2f4859" r="64"/><path d="m90.92 71.43h-10.5l-5.3 2.91-5.54-2.91h-10.5a1.54 1.54 0 0 0 -1.55 1.57v29.93a1.55 1.55 0 0 0 1.55 1.55h31.84a1.55 1.55 0 0 0 1.55-1.55v-29.93a1.54 1.54 0 0 0 -1.55-1.57z" fill="#fcd462"/><path d="m80.42 81.09-1.31-.92-1.42.92-1.23-.92-1.46.92-1.39-.92-1.43.92-1.45-.92-1.15.92v-9.66h10.84z" fill="#ebf0f3"/><path d="m118.31 80.33h-7.67l-3.87 2.13-4-2.13h-7.72a1.12 1.12 0 0 0 -1.13 1.13v21.87a1.13 1.13 0 0 0 1.13 1.13h23.26a1.13 1.13 0 0 0 1.13-1.13v-21.87a1.12 1.12 0 0 0 -1.13-1.13z" fill="#fcd462"/><path d="m110.64 87.38-.95-.66-1.04.66-.91-.66-1.06.66-1.02-.66-1.04.66-1.06-.66-.84.66v-7.05h7.92z" fill="#ebf0f3"/><path d="m99.38 97.88-1.14-1.6-1.13 1.6h.64v3.9h.99v-3.9z" fill="#3a556a"/><path d="m102.06 97.88-1.14-1.6-1.13 1.6h.64v3.9h.99v-3.9z" fill="#3a556a"/><path d="m106.15 98v-1.72h-1l-.54.74.55.49-.76 1.07.34-.83-.68-.7.51-.77h-1.26v1.72a1.44 1.44 0 0 0 1.24 1.42v1.31a.71.71 0 0 1 -.71.72h-.17l-.15.15.15.16h2.14l.16-.16-.16-.15h-.16a.72.72 0 0 1 -.72-.72v-1.29a1.44 1.44 0 0 0 1.22-1.44z" fill="#3a556a"/><path d="m55 80.33h-7.72l-3.87 2.13-4-2.13h-7.72a1.12 1.12 0 0 0 -1.13 1.13v21.87a1.13 1.13 0 0 0 1.13 1.13h23.31a1.13 1.13 0 0 0 1.13-1.13v-21.87a1.12 1.12 0 0 0 -1.13-1.13z" fill="#fcd462"/><path d="m47.28 87.38-.95-.66-1.04.66-.91-.66-1.06.66-1.02-.66-1.04.66-1.06-.66-.84.66v-7.05h7.92z" fill="#ebf0f3"/><path d="m36.02 97.88-1.14-1.6-1.13 1.6h.64v3.9h.99v-3.9z" fill="#3a556a"/><path d="m38.7 97.88-1.14-1.6-1.13 1.6h.64v3.9h.99v-3.9z" fill="#3a556a"/><path d="m42.79 98v-1.72h-1l-.54.74.55.49-.8 1.07.34-.83-.68-.7.51-.77h-1.24v1.72a1.44 1.44 0 0 0 1.24 1.42v1.31a.71.71 0 0 1 -.71.72h-.17l-.15.15.15.16h2.14l.16-.16-.16-.15h-.16a.72.72 0 0 1 -.72-.72v-1.29a1.44 1.44 0 0 0 1.24-1.44z" fill="#3a556a"/><path d="m79.68 58.63v-13.09h-9.36v13.09h-4.17l8.85 8.85 8.85-8.85z" fill="#fe7058"/><g fill="#3a556a"><path d="m64.33 95.76-1.04-1.46-1.04 1.46h.59v3.59h.9v-3.59z"/><path d="m66.8 95.76-1.05-1.46-1.04 1.46h.59v3.59h.91v-3.59z"/><path d="m75.29 95.89v-1.59h-.94l-.49.67.5.45-.7 1 .32-.77-.63-.65.47-.7h-1.16v1.59a1.33 1.33 0 0 0 1.14 1.31v1.21a.65.65 0 0 1 -.65.65h-.15l-.14.15.14.14h2l.15-.14-.15-.15h-.15a.66.66 0 0 1 -.66-.65v-1.21a1.32 1.32 0 0 0 1.1-1.31z"/><path d="m68.59 100.89h-8.13v-8.13h8.13zm-7.88-.25h7.63v-7.64h-7.63z"/><path d="m78.05 100.89h-8.14v-8.13h8.14zm-7.89-.25h7.64v-7.64h-7.64z"/></g></svg>