<svg id="Layer_1" height="512" viewBox="0 0 150 150" width="512" xmlns="http://www.w3.org/2000/svg" data-name="Layer 1"><circle cx="75" cy="75" fill="#21b3a9" r="64"/><path d="m105.8 43.06h-20.31l-10.25 5.63-10.73-5.63h-20.31a3 3 0 0 0 -3 3v57.94a3 3 0 0 0 3 3h61.6a3 3 0 0 0 3-3v-57.95a3 3 0 0 0 -3-2.99z" fill="#fcd462"/><path d="m64.51 43.06v20.78l2.24-1.77 2.8 1.77 2.75-1.77 2.7 1.77 2.82-1.77 2.4 1.77 2.74-1.77 2.53 1.77v-20.78z" fill="#ebf0f3"/><g fill="#3a556a"><path d="m58.07 88.7-2.44-3.43-2.45 3.43h1.38v8.39h2.13v-8.39z"/><path d="m63.83 88.7-2.44-3.43-2.44 3.43h1.38v8.39h2.12v-8.39z"/><path d="m69 101.69h-21v-21h21zm-19.93-1.08h18.87v-18.86h-18.86z"/></g></svg>