<svg id="Layer_1" height="512" viewBox="0 0 150 150" width="512" xmlns="http://www.w3.org/2000/svg" data-name="Layer 1"><circle cx="75" cy="75" fill="#fcd462" r="64"/><path d="m76.66 71.75h19.2v10.88h-19.2z" fill="#44c4a1"/><path d="m77.66 72.74h17.21v8.89h-17.21z" fill="#3ea69b"/><g fill="#44c4a1"><path d="m93.32 72.34h.75v9.72h-.75z"/><path d="m91.84 72.34h.75v9.72h-.75z"/><path d="m90.37 72.34h.75v9.72h-.75z"/><path d="m88.89 72.34h.75v9.72h-.75z"/><path d="m87.41 72.34h.75v9.72h-.75z"/><path d="m85.93 72.34h.75v9.72h-.75z"/><path d="m84.46 72.34h.75v9.72h-.75z"/><path d="m82.98 72.34h.75v9.72h-.75z"/><path d="m81.5 72.34h.75v9.72h-.75z"/><path d="m80.02 72.34h.75v9.72h-.75z"/><path d="m78.54 72.34h.75v9.72h-.75z"/></g><path d="m96.71 71.75h19.2v10.88h-19.2z" fill="#27a2db"/><path d="m97.7 72.74h17.21v8.89h-17.21z" fill="#2d93ba"/><path d="m113.37 72.34h.75v9.72h-.75z" fill="#27a2db"/><path d="m111.89 72.34h.75v9.72h-.75z" fill="#27a2db"/><path d="m110.41 72.34h.75v9.72h-.75z" fill="#27a2db"/><path d="m108.93 72.34h.75v9.72h-.75z" fill="#27a2db"/><path d="m107.45 72.34h.75v9.72h-.75z" fill="#27a2db"/><path d="m105.98 72.34h.75v9.72h-.75z" fill="#27a2db"/><path d="m104.5 72.34h.75v9.72h-.75z" fill="#27a2db"/><path d="m103.02 72.34h.75v9.72h-.75z" fill="#27a2db"/><path d="m101.54 72.34h.75v9.72h-.75z" fill="#27a2db"/><path d="m100.06 72.34h.75v9.72h-.75z" fill="#27a2db"/><path d="m98.59 72.34h.75v9.72h-.75z" fill="#27a2db"/><path d="m86.93 60.87h19.2v10.88h-19.2z" fill="#e56353"/><path d="m87.93 61.86h17.21v8.89h-17.21z" fill="#d15241"/><path d="m103.59 61.46h.75v9.72h-.75z" fill="#e56353"/><path d="m102.11 61.46h.75v9.72h-.75z" fill="#e56353"/><path d="m100.63 61.46h.75v9.72h-.75z" fill="#e56353"/><path d="m99.16 61.46h.75v9.72h-.75z" fill="#e56353"/><path d="m97.68 61.46h.75v9.72h-.75z" fill="#e56353"/><path d="m96.2 61.46h.75v9.72h-.75z" fill="#e56353"/><path d="m94.72 61.46h.75v9.72h-.75z" fill="#e56353"/><path d="m93.25 61.46h.75v9.72h-.75z" fill="#e56353"/><path d="m91.77 61.46h.75v9.72h-.75z" fill="#e56353"/><path d="m90.29 61.46h.75v9.72h-.75z" fill="#e56353"/><path d="m88.81 61.46h.75v9.72h-.75z" fill="#e56353"/><path d="m45.56 49.72h8.39v12.45h-8.39z" fill="#3a556a"/><path d="m45.56 52.86h8.39v2.71h-8.39z" fill="#e56353"/><path d="m36.82 59.82h38.18v24.91h-38.18z" fill="#e1e6e9"/><path d="m58.17 82.14-7-5.76h-25.4v5.76c-.48 7.55 5.23 12.52 11.23 17.37a3.48 3.48 0 0 0 2.19.77h76.9a3.52 3.52 0 0 0 2.82-1.42 26.64 26.64 0 0 0 5.33-16.72z" fill="#3a556a"/><path d="m30.58 93.75a61 61 0 0 0 6.42 5.76 3.5 3.5 0 0 0 2.19.77h76.89a3.51 3.51 0 0 0 2.84-1.44 29.21 29.21 0 0 0 3-5.09z" fill="#709584"/><path d="m44.72 63.75a1.77 1.77 0 0 0 -1.72 1.77v4.48a1.77 1.77 0 0 0 3.54 0v-4.48a1.77 1.77 0 0 0 -1.82-1.77z" fill="#3a556a"/><path d="m52.18 63.75a1.77 1.77 0 0 0 -1.77 1.77v4.48a1.77 1.77 0 1 0 3.59 0v-4.48a1.77 1.77 0 0 0 -1.82-1.77z" fill="#3a556a"/><path d="m59.64 63.75a1.77 1.77 0 0 0 -1.77 1.77v4.48a1.77 1.77 0 1 0 3.54 0v-4.48a1.77 1.77 0 0 0 -1.77-1.77z" fill="#3a556a"/><path d="m67.1 63.75a1.77 1.77 0 0 0 -1.77 1.77v4.48a1.77 1.77 0 1 0 3.54 0v-4.48a1.77 1.77 0 0 0 -1.77-1.77z" fill="#3a556a"/></svg>