<svg id="Layer_1" height="512" viewBox="0 0 150 150" width="512" xmlns="http://www.w3.org/2000/svg" data-name="Layer 1"><circle cx="75" cy="75" fill="#21b3a9" r="64"/><g fill="#fcd462"><path d="m75 56.72-11.03-8.14-30.59 4.43 8.82 8.77 24.06 1z"/><path d="m75 56.72 11.03-8.14 30.59 4.43-8.82 8.77-22.09 1z"/><path d="m42.2 61.78v43.04l32.8 5.06 32.8-5.06v-43.04z"/></g><path d="m75 56.72-32.8 5.06 32.8 5.05 32.8-5.05z" fill="#3a556a"/><path d="m75 99.77-32.8 5.05 32.8 5.06 32.8-5.06z" fill="#fcd462"/><path d="m107.8 61.78v43.04l-32.8 5.06v-43.05z" fill="#f7be56"/><path d="m42.2 61.78v43.04l32.8 5.06v-43.05z" fill="#fcd462"/><path d="m107.8 61.78 8.82 8.04-32.09 6.33-9.53-9.32z" fill="#fcd462"/><path d="m42.2 61.78-8.82 8.04 32.09 6.33 9.53-9.32z" fill="#f7be56"/><path d="m81.73 99.16-1.8-2.97-1.8 3.52 1.02-.15v7.95l1.57-.24v-7.96z" fill="#3a556a"/><path d="m85.98 98.5-1.8-2.96-1.8 3.52 1.02-.16v7.96l1.56-.25v-7.95z" fill="#3a556a"/><path d="m92.22 98.5v-3.22l-1.47.23-.75 1.49.8.79-1.1 2.16.5-1.62-1-1.14.74-1.54-1.82.28v3.22c0 1.35.78 2.34 1.79 2.36v2.49a1.46 1.46 0 0 1 -1 1.49h-.24a.31.31 0 0 0 -.22.32c0 .16.1.27.22.25l3.1-.47a.32.32 0 0 0 .22-.32c0-.16-.1-.27-.22-.26h-.24c-.57.09-1-.43-1-1.17v-2.45a3 3 0 0 0 1.69-2.89z" fill="#3a556a"/><path d="m79.25 53.09v-12.97h-8.5v12.97h-4.31l8.56 10.43 8.56-10.43z" fill="#e56353"/></svg>