<svg id="Layer_1" height="512" viewBox="0 0 150 150" width="512" xmlns="http://www.w3.org/2000/svg" data-name="Layer 1"><circle cx="75" cy="75" fill="#d5d6db" r="64"/><g fill="#3a556a"><path d="m86 79.3-7 7a10.85 10.85 0 1 1 -15.29-15.36l7-7a10.85 10.85 0 1 1 15.29 15.36zm-18.5-4.57a5.49 5.49 0 1 0 7.77 7.77l7-7a5.49 5.49 0 1 0 -7.76-7.76z"/><path d="m109.31 56-7 7a10.85 10.85 0 0 1 -15.31-15.32l7-7a10.85 10.85 0 0 1 15.31 15.32zm-18.54-4.53a5.49 5.49 0 0 0 7.76 7.76l7-7a5.49 5.49 0 0 0 -7.77-7.77z"/><path d="m63 102.32-7 7a10.85 10.85 0 0 1 -15.31-15.32l7-7a10.85 10.85 0 0 1 15.31 15.32zm-18.52-4.57a5.49 5.49 0 0 0 7.77 7.77l7-7a5.49 5.49 0 0 0 -7.76-7.76z"/></g><path d="m95.77 58-16.11 16.13a2.68 2.68 0 0 1 -3.79-3.79l16.13-16.11a2.68 2.68 0 1 1 3.77 3.77z" fill="#64798a"/><path d="m73.88 79.91-16.11 16.09a2.68 2.68 0 0 1 -3.77-3.77l16.09-16.11a2.68 2.68 0 0 1 3.79 3.79z" fill="#64798a"/></svg>