<svg id="Layer_1" height="512" viewBox="0 0 150 150" width="512" xmlns="http://www.w3.org/2000/svg" data-name="Layer 1"><circle cx="75" cy="75" fill="#89c5cd" r="64"/><rect fill="#985b3f" height="73.02" rx="3.94" width="55.03" x="47.49" y="42.71"/><path d="m52.79 48.82h44.41v61.72h-44.41z" fill="#ebf0f3"/><path d="m85.93 40.9h-4.15a1.3 1.3 0 0 1 -1.27-1.07l-.81-4.5a1.3 1.3 0 0 0 -1.27-1.06h-6.86a1.3 1.3 0 0 0 -1.27 1.06l-.81 4.5a1.3 1.3 0 0 1 -1.27 1.07h-4.15a1.29 1.29 0 0 0 -1.29 1.29v7.87a1.29 1.29 0 0 0 1.29 1.29h21.86a1.29 1.29 0 0 0 1.29-1.29v-7.87a1.29 1.29 0 0 0 -1.29-1.29z" fill="#3a556a"/><path d="m57.55 59.21h9.38v9.38h-9.38z" fill="#44c4a1"/><path d="m57.55 75.73h9.38v9.38h-9.38z" fill="#27a2db"/><path d="m57.55 92.24h9.38v9.38h-9.38z" fill="#e56353"/><g fill="#d5d6db"><path d="m70.18 60.86h23.27v1.08h-23.27z"/><path d="m70.18 65.84h23.27v1.08h-23.27z"/><path d="m70.18 77.38h23.27v1.08h-23.27z"/><path d="m70.18 82.36h23.27v1.08h-23.27z"/><path d="m70.18 93.9h23.27v1.08h-23.27z"/><path d="m70.18 98.88h23.27v1.08h-23.27z"/></g><path d="m61.37 66.73-2.35-2.35 1.06-1.06 1.29 1.29 3.02-3.02 1.06 1.06z" fill="#ebf0f3"/><path d="m61.37 82.98-2.35-2.35 1.06-1.06 1.29 1.29 3.02-3.02 1.06 1.06z" fill="#ebf0f3"/><path d="m61.37 99.24-2.35-2.35 1.06-1.07 1.29 1.3 3.02-3.03 1.06 1.07z" fill="#ebf0f3"/></svg>