<svg id="Layer_1" height="512" viewBox="0 0 150 150" width="512" xmlns="http://www.w3.org/2000/svg" data-name="Layer 1"><circle cx="75" cy="75" fill="#21b3a9" r="64"/><path d="m33.05 62.58h77.8v38.21h-77.8z" fill="#ebf0f3"/><g fill="#d5d6db"><path d="m108.25 98.18h-72.59v-33h72.59zm-71.84-.75h71.09v-31.43h-71.09z"/><path d="m38.66 69.1h12.88v1.68h-12.88z"/><path d="m53.42 69.1h4.99v1.68h-4.99z"/><path d="m38.66 73.06h19.01v1.68h-19.01z"/><path d="m60.45 73.06h7.37v1.68h-7.37z"/><path d="m38.66 78.63h65.3v.64h-65.3z"/><path d="m38.66 84.85h65.3v.64h-65.3z"/><path d="m38.66 91.08h65.3v.64h-65.3z"/></g><path d="m76.94 85.1-.97.96-4.8 8.93 8.93-4.8.96-.97z" fill="#fcd462"/><path d="m70.59 67.24h50.81v5.84h-50.81z" fill="#3a556a" transform="matrix(.707 -.707 .707 .707 -21.49 88.43)"/><path d="m74.75 93.06-1.66-1.65-1.92 3.58z" fill="#3a556a"/><path d="m116.05 50.11a3.07 3.07 0 0 0 -4.34 0l-16.32 16.32 4.34 4.33 16.32-16.31a3.08 3.08 0 0 0 0-4.34z" fill="#64798a"/><path d="m98.09 58.35h17.99v1.43h-17.99z" fill="#e1e6e9" transform="matrix(.707 -.707 .707 .707 -10.4 93.02)"/></svg>