<svg id="Layer_1" height="512" viewBox="0 0 150 150" width="512" xmlns="http://www.w3.org/2000/svg" data-name="Layer 1"><circle cx="75" cy="75" fill="#2f4859" r="64"/><path d="m101.36 52.42v-1.86h-19.24v23.51h-1.15-20.38v1.86h21.53v24.38h19.24v-1.87h-17.38v-22.52h12.9v-1.85h-12.9v-21.65z" fill="#44c4a1"/><path d="m72 58.05h-10.77l-5.44 3-5.69-3h-10.78a1.59 1.59 0 0 0 -1.59 1.59v30.72a1.59 1.59 0 0 0 1.59 1.64h32.68a1.59 1.59 0 0 0 1.59-1.59v-30.77a1.59 1.59 0 0 0 -1.59-1.59z" fill="#fcd462"/><path d="m61.23 68.55-1.34-.94-1.46.94-1.27-.94-1.5.94-1.43-.94-1.46.94-1.48-.94-1.19.94v-10.5h11.13z" fill="#ebf0f3"/><g fill="#3a556a"><path d="m44.04 84.16-1.08-1.51-1.08 1.51h.61v3.71h.94v-3.71z"/><path d="m46.58 84.16-1.08-1.51-1.08 1.51h.61v3.71h.94v-3.71z"/><path d="m54.23 84.23v-1.77h-1l-.56.75.56.5-.77 1.09.35-.85-.7-.71.52-.78h-1.32v1.77a1.46 1.46 0 0 0 1.27 1.44v1.33a.73.73 0 0 1 -.73.73h-.17l-.16.16.16.15h2.18l.14-.14-.16-.16h-.17a.73.73 0 0 1 -.67-.74v-1.33a1.46 1.46 0 0 0 1.23-1.44z"/><path d="m61.41 82.86v-.22l-.1-.11-.1.11v.22a2.67 2.67 0 0 0 -2.47 2.74c0-.06.15-.1.33-.1s.34 0 .34.1.21-.15.47-.15a.62.62 0 0 1 .46.13c.07-.14.42-.25.86-.26v2.18a.27.27 0 1 1 -.54 0v-.31l-.1-.11-.11.11v.31a.5.5 0 0 0 .48.51.49.49 0 0 0 .47-.51v-2.2c.49 0 .86.15.86.3 0-.08.21-.15.47-.15s.47.07.47.15.15-.1.34-.1.33 0 .33.1a2.67 2.67 0 0 0 -2.46-2.74z"/><path d="m48.12 89.15h-7.78v-7.79h7.78zm-7.39-.39h7v-7h-7z"/><path d="m56.66 89.15h-7.78v-7.79h7.78zm-7.39-.39h7v-7h-7z"/><path d="m65.21 89.15h-7.79v-7.79h7.79zm-7.4-.39h7v-7h-7z"/></g><path d="m111.46 42.82h-5.52l-2.78 1.53-2.91-1.53h-5.52a.81.81 0 0 0 -.81.81v15.72a.81.81 0 0 0 .81.81h16.73a.81.81 0 0 0 .81-.81v-15.72a.81.81 0 0 0 -.81-.81z" fill="#fcd462"/><path d="m105.94 46.76-.68-.48-.75.48-.65-.48-.77.48-.73-.48-.75.48-.76-.48-.6.48v-3.94h5.69z" fill="#ebf0f3"/><path d="m97.78 55.32-.74-1.03-.73 1.03h.41v2.53h.64v-2.53z" fill="#3a556a"/><path d="m99.52 55.32-.74-1.03-.74 1.03h.42v2.53h.64v-2.53z" fill="#3a556a"/><path d="m100.57 58.73h-5.32v-5.32h5.32zm-5-.27h4.78v-4.78h-4.83z" fill="#3a556a"/><path d="m111.46 66.33h-5.52l-2.78 1.53-2.91-1.53h-5.52a.81.81 0 0 0 -.81.81v15.72a.81.81 0 0 0 .81.81h16.73a.81.81 0 0 0 .81-.81v-15.72a.81.81 0 0 0 -.81-.81z" fill="#fcd462"/><path d="m105.94 70.27-.68-.48-.75.48-.65-.48-.77.48-.73-.48-.75.48-.76-.48-.6.48v-3.94h5.69z" fill="#ebf0f3"/><path d="m100.57 82.24h-5.32v-5.32h5.32zm-5-.27h4.78v-4.78h-4.83z" fill="#3a556a"/><path d="m98.94 78.85v-1.25h-.73l-.4.53.4.35-.54.77.24-.6-.49-.5.37-.55h-.91v1.25a1 1 0 0 0 .89 1v.95a.51.51 0 0 1 -.51.52h-.12l-.11.11.11.11h1.54l.12-.11-.12-.11h-.11a.52.52 0 0 1 -.52-.52v-.95a1 1 0 0 0 .89-1z" fill="#3a556a"/><path d="m111.46 89.84h-5.52l-2.78 1.53-2.91-1.53h-5.52a.81.81 0 0 0 -.81.81v15.72a.81.81 0 0 0 .81.81h16.73a.81.81 0 0 0 .81-.81v-15.72a.81.81 0 0 0 -.81-.81z" fill="#fcd462"/><path d="m105.94 93.78-.68-.48-.75.48-.65-.48-.77.48-.73-.48-.75.48-.76-.48-.6.48v-3.94h5.69z" fill="#ebf0f3"/><path d="m100.57 105.75h-5.32v-5.32h5.32zm-5-.27h4.78v-4.78h-4.83z" fill="#3a556a"/><path d="m98 101.44v-.16l-.07-.07-.07.07v.16a1.84 1.84 0 0 0 -1.71 1.89s.1-.07.23-.07.23 0 .23.07.15-.1.33-.1a.43.43 0 0 1 .32.09c0-.09.29-.17.59-.18v1.51a.19.19 0 0 1 -.19.2.18.18 0 0 1 -.18-.2v-.21l-.07-.07-.08.07v.21a.33.33 0 1 0 .66 0v-1.51c.34 0 .6.11.6.21s.14-.1.32-.1.33 0 .33.1.1-.07.23-.07.23 0 .23.07a1.84 1.84 0 0 0 -1.7-1.91z" fill="#3a556a"/></svg>