<svg id="Layer_1" height="512" viewBox="0 0 150 150" width="512" xmlns="http://www.w3.org/2000/svg" data-name="Layer 1"><circle cx="75" cy="75" fill="#89c5cd" r="64"/><path d="m39.73 60.07a17 17 0 0 0 5.61 0 24.63 24.63 0 0 0 11.22-5.23 2.39 2.39 0 0 1 .76-.42c0-.47.07-1 .12-1.42a12.53 12.53 0 0 1 .62-3.15c.82-2 3.95-2.13 3.95-2.13h12.45l13.74.33s3.11.18 3.89 2.24a12.66 12.66 0 0 1 .55 3.42c0 .59.06 1.18.09 1.76l.21.07c5.17 2.34 14.17 8.39 19.88 4.16a2.19 2.19 0 0 1 .94-.43l.11-.22a4.27 4.27 0 0 0 .34-.9 5.49 5.49 0 0 0 .14-.81 19.58 19.58 0 0 0 -2.14-10.34 5.43 5.43 0 0 0 -3.31-2.68 132.09 132.09 0 0 0 -67.49-.91 5.43 5.43 0 0 0 -3.41 2.59 19.52 19.52 0 0 0 -2.42 10.35 5.17 5.17 0 0 0 .42 1.65l.47 1a19.69 19.69 0 0 0 3.26 1.07z" fill="#3a556a"/><path d="m36.05 58 1.47 3.17a2.86 2.86 0 0 0 2.76 1.66c7.79-.34 16.26-2.83 16.72-4.76.27-1.28.31-3.26.49-5.07a80.05 80.05 0 0 1 -21.49 5z" fill="#ebf0f3"/><path d="m92.64 53.74c.11 1.75.13 3.6.34 4.82.37 2 8.76 4.66 16.54 5.25a2.89 2.89 0 0 0 2.8-1.6l1.55-3.13a4.27 4.27 0 0 0 .34-.9 80.31 80.31 0 0 1 -21.57-4.44z" fill="#ebf0f3"/><path d="m83.07 46.53v8.78h-16.23v-8.78h-4.95v8.78 3.46 6.32h26.12v-6.32-3.46-8.78z" fill="#2f4859"/><path d="m98.27 66.2a7.81 7.81 0 0 0 -6.27-4.72 138.87 138.87 0 0 0 -34.09 0 7.82 7.82 0 0 0 -6.28 4.72c-5.17 12.28-8.53 24.06-7.71 35.09a7.81 7.81 0 0 0 6.41 7.13 140 140 0 0 0 49.24 0 7.82 7.82 0 0 0 6.42-7.13c.82-11.03-2.55-22.81-7.72-35.09z" fill="#3a556a"/><path d="m106 101.29a7.79 7.79 0 0 1 -6.42 7.12 139.48 139.48 0 0 1 -49.24 0 7.79 7.79 0 0 1 -6.41-7.12 48 48 0 0 1 .07-7.85 7.82 7.82 0 0 0 6.32 6.43 140.43 140.43 0 0 0 49.24 0 7.82 7.82 0 0 0 6.33-6.43 48 48 0 0 1 .11 7.85z" fill="#2f4859"/><path d="m75 66.91a15 15 0 1 0 15 15 15 15 0 0 0 -15-15z" fill="#ebf0f3"/><g fill="#3a556a"><circle cx="74.95" cy="81.94" r="8.12"/><path d="m75 67.88a2.45 2.45 0 1 0 2.45 2.44 2.44 2.44 0 0 0 -2.45-2.44z"/><circle cx="74.95" cy="93.55" r="2.45"/><path d="m89 81.94a2.45 2.45 0 1 0 -2.44 2.44 2.45 2.45 0 0 0 2.44-2.44z"/><path d="m65.78 81.94a2.45 2.45 0 1 0 -2.44 2.44 2.45 2.45 0 0 0 2.44-2.44z"/><path d="m84.89 72a2.44 2.44 0 1 0 0 3.45 2.43 2.43 0 0 0 0-3.45z"/><path d="m68.47 88.42a2.45 2.45 0 1 0 0 3.46 2.46 2.46 0 0 0 0-3.46z"/><circle cx="83.16" cy="90.15" r="2.45"/><path d="m68.47 75.45a2.44 2.44 0 1 0 -3.46 0 2.44 2.44 0 0 0 3.46 0z"/></g></svg>