<svg id="Layer_1" height="512" viewBox="0 0 150 150" width="512" xmlns="http://www.w3.org/2000/svg" data-name="Layer 1"><circle cx="75" cy="75" fill="#21b3a9" r="64"/><path d="m42.56 79 32.47-20.46 31.99 21.75.56-.83-32.52-22.12-33.04 20.82z" fill="#2f4859"/><path d="m107.23 80.29-31.99-21.75-32.48 20.46-.53-.84 33.03-20.82 32.53 22.12z" fill="#2f4859"/><path d="m74.89 61.27a4.55 4.55 0 0 1 -1-9v-6a1 1 0 1 1 2 0v6.85a1 1 0 0 1 -1 1 2.57 2.57 0 1 0 2.57 2.57 1 1 0 1 1 2 0 4.56 4.56 0 0 1 -4.57 4.58z" fill="#3a556a"/><path d="m83.85 39.75-3.57-6.18a2.1 2.1 0 0 0 -1.82-1h-7.14a2.12 2.12 0 0 0 -1.83 1l-3.57 6.18a2.14 2.14 0 0 0 0 2.11l3.57 6.14a2.13 2.13 0 0 0 1.83 1.06h7.14a2.11 2.11 0 0 0 1.82-1.06l3.57-6.18a2.1 2.1 0 0 0 0-2.07z" fill="#fcd462"/><path d="m74.89 37.1a3.71 3.71 0 1 0 3.7 3.71 3.7 3.7 0 0 0 -3.7-3.71z" fill="#3a556a"/><path d="m39.9 77.71h70.2v39.77h-70.2" fill="#ebf0f3"/><path d="m43.55 81.36h62.91v32.48h-62.91z" fill="#d5d6db"/><g fill="#ebf0f3"><path d="m100.8 79.88h2.73v35.53h-2.73z"/><path d="m95.4 79.88h2.73v35.53h-2.73z"/><path d="m90 79.88h2.73v35.53h-2.73z"/><path d="m84.6 79.88h2.73v35.53h-2.73z"/><path d="m79.19 79.88h2.73v35.53h-2.73z"/><path d="m73.79 79.88h2.73v35.53h-2.73z"/><path d="m68.39 79.88h2.73v35.53h-2.73z"/><path d="m62.99 79.88h2.73v35.53h-2.73z"/><path d="m57.58 79.88h2.73v35.53h-2.73z"/><path d="m52.18 79.88h2.73v35.53h-2.73z"/><path d="m46.78 79.88h2.73v35.53h-2.73z"/></g></svg>