<svg id="Layer_1" height="512" viewBox="0 0 150 150" width="512" xmlns="http://www.w3.org/2000/svg" data-name="Layer 1"><circle cx="75" cy="75" fill="#fe7058" r="64"/><path d="m91 67.89h-10.56l-5.32 2.93-5.56-2.93h-10.56a1.56 1.56 0 0 0 -1.56 1.56v30a1.56 1.56 0 0 0 1.56 1.55h32a1.56 1.56 0 0 0 1.56-1.56v-30a1.56 1.56 0 0 0 -1.56-1.55z" fill="#fcd462"/><path d="m80.44 79.87-1.31-.92-1.43.92-1.24-.92-1.46.92-1.4-.92-1.43.92-1.45-.92-1.16.92v-11.98h10.88z" fill="#ebf0f3"/><g fill="#3a556a"><path d="m65.42 90.4-2.11-2.96-2.11 2.96h1.19v7.23h1.83v-7.23z"/><path d="m70.39 90.4-2.11-2.96-2.11 2.96h1.19v7.23h1.83v-7.23z"/><path d="m106.52 101h-63a10.18 10.18 0 1 0 0 20.36h63a10.18 10.18 0 1 0 0-20.36z"/></g><path d="m43.48 118.43a7.22 7.22 0 1 1 0-14.44h63a7.22 7.22 0 1 1 0 14.44z" fill="#2f4859"/><path d="m43.72 106.32a4.89 4.89 0 1 0 4.89 4.89 4.89 4.89 0 0 0 -4.89-4.89z" fill="#ebf0f3"/><path d="m43.72 109a2.22 2.22 0 1 0 2.22 2.22 2.22 2.22 0 0 0 -2.22-2.22z" fill="#3a556a"/><path d="m75 106.32a4.89 4.89 0 1 0 4.89 4.89 4.89 4.89 0 0 0 -4.89-4.89z" fill="#ebf0f3"/><path d="m75 109a2.22 2.22 0 1 0 2.21 2.22 2.22 2.22 0 0 0 -2.21-2.22z" fill="#3a556a"/><path d="m106.32 106.32a4.89 4.89 0 1 0 4.89 4.89 4.89 4.89 0 0 0 -4.89-4.89z" fill="#ebf0f3"/><path d="m106.32 109a2.22 2.22 0 1 0 2.21 2.22 2.23 2.23 0 0 0 -2.21-2.22z" fill="#3a556a"/></svg>