<svg id="Layer_1" height="512" viewBox="0 0 150 150" width="512" xmlns="http://www.w3.org/2000/svg" data-name="Layer 1"><circle cx="75" cy="75" fill="#334d5c" r="64"/><path d="m95.31 56h-17l-8.62 4.74-9-4.74h-17.12a2.52 2.52 0 0 0 -2.52 2.52v48.64a2.51 2.51 0 0 0 2.52 2.51h51.74a2.51 2.51 0 0 0 2.52-2.51v-48.67a2.52 2.52 0 0 0 -2.52-2.49z" fill="#fcd462"/><path d="m78.26 70.21-2.13-1.49-2.31 1.49-2.01-1.49-2.37 1.49-2.26-1.49-2.32 1.49-2.35-1.49-1.88 1.49v-14.24h17.63z" fill="#f7be56"/><g fill="#3a556a"><path d="m52.42 95.9-1.96-2.75-1.97 2.75h1.11v6.74h1.71v-6.74z"/><path d="m57.05 95.9-1.96-2.75-1.97 2.75h1.11v6.74h1.71v-6.74z"/><path d="m73.15 96v-3.39h-2l-1 1.41 1.06 1-1.46 2 .66-1.6-1.32-1.33 1-1.48h-2.44v3.39a2.75 2.75 0 0 0 2.35 2.67v2.54a1.37 1.37 0 0 1 -1.37 1.37h-.32a.3.3 0 0 0 0 .6h4.12a.3.3 0 0 0 0-.6h-.32a1.37 1.37 0 0 1 -1.37-1.37v-2.54a2.75 2.75 0 0 0 2.41-2.67z"/><path d="m60.2 105.32h-14.86v-14.86h14.86zm-14-.85h13.15v-13.15h-13.15z"/><path d="m77.83 105.32h-14.83v-14.86h14.83zm-14-.85h13.17v-13.15h-13.18z"/></g><path d="m96.68 49.53a4.5 4.5 0 0 0 3.33 1.9l-5.19 3.43-5.17-1.48-20.21 13.35 1.82.85a8.16 8.16 0 0 0 7.74-.44l10.42-6.43 6.16-4.07 8.48-6a8.1 8.1 0 0 0 .85-.49c3-2 4.2-5.5 2.66-7.83s-5.24-2.63-8.26-.64-4.18 5.51-2.63 7.85zm9.38-6.2c1 1.58.13 4-2 5.45s-4.76 1.3-5.81-.27-.13-4 2-5.44 4.75-1.31 5.81.26z" fill="#e1e6e9"/><path d="m96.68 49.53a4.5 4.5 0 0 0 3.33 1.9l-3.73 2.46 1 1.55 6.78-4.8a8.1 8.1 0 0 0 .85-.49c3-2 4.2-5.5 2.66-7.83s-5.24-2.63-8.26-.64-4.18 5.51-2.63 7.85zm9.38-6.2c1 1.58.13 4-2 5.45s-4.76 1.3-5.81-.27-.13-4 2-5.44 4.75-1.31 5.81.26z" fill="#27a2db"/><path d="m100 71c3 2 6.71 1.71 8.25-.63s.36-5.85-2.66-7.84a8 8 0 0 0 -.85-.48l-8.48-6-6.14-4.05-10.42-6.48a8.17 8.17 0 0 0 -7.76-.44l-1.82.86 20.88 13.75 4.51-1.88 5.19 3.42a4.54 4.54 0 0 0 -3.33 1.91c-1.56 2.34-.37 5.86 2.63 7.86zm.91-1.38c-2.17-1.43-3.07-3.87-2-5.44s3.64-1.7 5.8-.27 3.07 3.86 2 5.44-3.62 1.65-5.78.25z" fill="#e1e6e9"/><path d="m71.94 45.08 20.92 13.83-1.88.78-20.86-13.75z" fill="#ebf0f3"/><path d="m100 71c3 2 6.71 1.71 8.25-.63s.36-5.85-2.66-7.84a8 8 0 0 0 -.85-.48l-6.74-4.83-1 1.55 3.72 2.46a4.54 4.54 0 0 0 -3.33 1.91c-1.58 2.34-.39 5.86 2.61 7.86zm.91-1.38c-2.17-1.43-3.07-3.87-2-5.44s3.64-1.7 5.8-.27 3.07 3.86 2 5.44-3.62 1.65-5.78.25z" fill="#27a2db"/><circle cx="91.87" cy="56.16" fill="#d5d6db" r="1"/></svg>