<svg id="Layer_1" height="512" viewBox="0 0 150 150" width="512" xmlns="http://www.w3.org/2000/svg" data-name="Layer 1"><circle cx="75" cy="75" fill="#334d5c" r="64"/><g fill="#fcd462"><path d="m75 62.2-10.2-7.54-28.3 4.1 8.15 8.11 22.26.93z"/><path d="m75 62.2 10.2-7.54 28.3 4.1-8.15 8.11-20.44.93z"/><path d="m44.65 66.87v39.83l30.35 4.68 30.35-4.68v-39.83z"/></g><path d="m75 62.2-30.35 4.67 30.35 4.68 30.35-4.68z" fill="#3a556a"/><path d="m98 69.67c.07-1.62.13-3.23.25-4.84a1.6 1.6 0 0 1 .51-1.06 42.93 42.93 0 0 0 -.76-5.84 23.32 23.32 0 0 0 -3.8-7.93c-2.06-3-7.11-5.1-8.11-8.69l-.57-.3a24.39 24.39 0 1 0 12.55 29.9c.06-.15.09-.31.14-.46a1.5 1.5 0 0 1 -.21-.78z" fill="#ebf0f3"/><path d="m91 70.1a.38.38 0 0 0 -.22-.17 2.42 2.42 0 0 0 -.35-.12c-.1 0-.15 0-.25 0a.94.94 0 0 1 -.18.19h-.21c-.11-.08-.07-.13-.12-.21s-.2-.16-.31-.23l-.19-.14a.62.62 0 0 0 -.27 0c-.16 0-.31 0-.47 0h-.51a1.48 1.48 0 0 1 -.47 0c-.17 0-.28-.21-.41-.32l-.18-.12a1.17 1.17 0 0 1 -.28-.17.39.39 0 0 1 -.08-.35 1.81 1.81 0 0 0 0-.57c0-.11-.09-.29-.21-.31a1.71 1.71 0 0 0 -.32 0h-.54c-.22-.08-.32-.39-.42-.58s-.11-.27-.21-.33h-.21a5 5 0 0 0 -.67 0 .41.41 0 0 1 -.34-.07l-.14-.15-.16-.19-.11-.26-.17-.17a.72.72 0 0 0 -.35-.27 3 3 0 0 0 -.85 0 1.71 1.71 0 0 1 -.6 0c-.11-.06-.12-.24-.25-.27a.89.89 0 0 0 -.5.13 1.32 1.32 0 0 1 -.56 0 1 1 0 0 1 -.48-.1c-.13-.07-.22-.17-.38-.18s-.44 0-.66 0h-.22a1.29 1.29 0 0 0 -.44 0l-.18.12h-.1l-.19.15a1 1 0 0 0 -.29.12c-.14.1-.17.26-.36.3h-.19l-.19.09h-.29-.24a3.74 3.74 0 0 1 -.49-.32l-.37-.22a1.62 1.62 0 0 0 -.35-.21h-.19a.61.61 0 0 1 -.27-.13 3.7 3.7 0 0 0 -.47-.29c-.15-.06-.29-.12-.34-.28s-.08-.27-.12-.4a1 1 0 0 1 -.1-.27v-.29c0-.19.48-.45.08-.52h-.36a.78.78 0 0 0 -.34 0c-.16.07-.3.2-.47.26a1.46 1.46 0 0 1 -.42 0 .59.59 0 0 1 -.26 0 .41.41 0 0 1 -.24-.39.77.77 0 0 1 .13-.59 1.89 1.89 0 0 1 .37-.32c.14-.12.27-.25.42-.37s.17-.12.17-.25 0-.27-.1-.4-.26-.08-.42-.08-.5-.06-.67.08l-.11.2a1.23 1.23 0 0 1 -.12.26c-.08.13-.1.27-.19.39s-.16.24-.37.26a3.05 3.05 0 0 1 -.43 0 1.61 1.61 0 0 1 -.49 0 1.51 1.51 0 0 1 -.47-.3.78.78 0 0 1 -.27-.48c0-.27 0-.55 0-.82a5.74 5.74 0 0 1 0-.72 2.45 2.45 0 0 0 0-.27v-.22a1 1 0 0 1 .43-.37.83.83 0 0 1 .36-.13h.36a2.21 2.21 0 0 0 .55-.18h.13l.15-.09a1.48 1.48 0 0 1 .47 0c.25 0 .52-.29.72-.44a1.82 1.82 0 0 1 .38-.29c.15-.08.32-.09.45-.22a.39.39 0 0 1 .33-.15.2.2 0 0 1 .19.14l.07.29.15.13c.16.15.08.44.19.62l.18.21.14.14a.85.85 0 0 0 .32 0h.36a1.93 1.93 0 0 0 .34 0c.19 0 .22-.28.31-.42a.57.57 0 0 0 .11-.38c0-.14 0-.28 0-.41a.42.42 0 0 0 -.11-.34 1.12 1.12 0 0 1 -.25-.4c0-.11.11-.33.24-.35a.4.4 0 0 0 .25-.09.81.81 0 0 0 .18-.26 4.4 4.4 0 0 1 .3-.45c.07-.11.13-.27.27-.32s.38 0 .52-.18a1.89 1.89 0 0 0 .25-.49c0-.17 0-.34.06-.5l.06-.12v-.18a.44.44 0 0 1 .21-.32c.24-.14.54 0 .77-.14l.11-.08.11-.13a.75.75 0 0 0 0-.3v-.27c0-.12 0-.24 0-.36s-.09-.26.06-.31a1.35 1.35 0 0 1 .45 0 .88.88 0 0 1 .28 0 1.67 1.67 0 0 0 .49.08c.16 0 .4.06.54 0l.19-.17.09-.16a.5.5 0 0 0 0-.32.88.88 0 0 0 -.56-.4c-.2 0-.4 0-.6 0a.77.77 0 0 1 -.45-.18c-.23-.19-.21-.48-.24-.77 0-.13 0-.23.1-.32a1 1 0 0 1 .68-.14 1.24 1.24 0 0 1 .43 0l.14.11h.1c.16.05.18.16.18.31a3.33 3.33 0 0 0 0 .63c0 .27.41.49.66.55a.74.74 0 0 0 .39 0 1.56 1.56 0 0 0 .39-.34c.09-.11.06-.14.1-.26a.72.72 0 0 0 .06-.36.62.62 0 0 0 -.27-.33l-.12-.02c-.12 0-.22 0-.34-.06s-.18-.21-.31-.28-.21-.06-.21-.19.17-.35.23-.43.13-.13.14-.24l-.12-.27a.74.74 0 0 0 -.33-.09 1.64 1.64 0 0 0 -.32 0h-.49-.31c-.08-.06 0-.18 0-.28v-.2-.17l-.21-.19a6.22 6.22 0 0 1 -.64-.51c-.12-.13-.2-.26-.4-.26a.45.45 0 0 0 -.36.19c-.08.12-.07.3-.23.32h-.42c-.22 0-.17-.23-.18-.39a.52.52 0 0 1 .17-.42l.16-.15a.67.67 0 0 1 .31 0c.18 0 .14-.12.14-.26s0-.26 0-.39a.62.62 0 0 0 -.27-.47c-.17-.13-.43-.08-.63-.08h-.3a1.79 1.79 0 0 1 -.28-.2.92.92 0 0 1 -.28-.31 3.78 3.78 0 0 0 -.17-.35l-.13-.2c0-.09 0-.15 0-.24s-.37-.13-.56-.14c0-.23.29-.23.42-.29a1 1 0 0 1 .32-.15 2.42 2.42 0 0 1 .38 0 2.34 2.34 0 0 1 .7.06.54.54 0 0 1 .28.21c.12.13.19.39.38.43h.2l.19.14a6.25 6.25 0 0 0 .58.57c.16.13.34 0 .5.14l.21.27c.07.09.09.22.16.31l.14.1a1.62 1.62 0 0 1 .55.33l.16.22.06.21a.74.74 0 0 0 .5.33h.23c.08 0 .1.11.21.06l.2-.2v-.11-.18-.19l-.07-.1a.66.66 0 0 0 -.24-.17l-.22-.07-.2-.25c.15-.18.36-.18.55-.28a.51.51 0 0 0 .21-.32 2.66 2.66 0 0 0 0-.63 4.89 4.89 0 0 1 0-.54c0-.16.06-.29-.06-.42a1.77 1.77 0 0 0 -.62-.41l-.14-.06-.12-.11c-.12-.07-.25 0-.36-.06a.74.74 0 0 0 -.29 0 1.12 1.12 0 0 1 -.7-.33 1 1 0 0 0 -.76-.2h-.79c-.25 0-.5 0-.74 0s-.44.11-.66.12-.43 0-.64 0a1.13 1.13 0 0 0 -.53.19.68.68 0 0 1 -.37.06h-.23a1.32 1.32 0 0 0 -.68.38l-.21.14-.43.19-.18.12a1.7 1.7 0 0 0 -.24.44 1.08 1.08 0 0 0 -.19.57v.15l-.11.1a.91.91 0 0 1 -.61.11c-.15-.07-.09-.53-.06-.66.23-.07.44 0 .59-.22a.25.25 0 0 0 0-.26.87.87 0 0 0 -.35-.28c-.15-.07-.31-.09-.47-.16l-.2-.12a1 1 0 0 0 -.5 0 1 1 0 0 0 -.37.29 2.27 2.27 0 0 0 -.22.32l-.07.28a.38.38 0 0 1 -.25.08 1.58 1.58 0 0 0 -.42.09l-.16.06-.09-.11-.15-.12h-.85a.73.73 0 0 1 -.41-.07 2.93 2.93 0 0 1 -.38-.41 2.24 2.24 0 0 1 -.33-.43 1.1 1.1 0 0 1 -.08-.57v-.18c0-.1 0-.14.12-.2a1 1 0 0 1 .79-.2h.92a1.33 1.33 0 0 1 .4 0 1.6 1.6 0 0 0 .48.11h.49a1.12 1.12 0 0 0 .36-.09c.24-.08.49-.05.74-.11s.42-.22.65-.27l.33-.1a2.2 2.2 0 0 1 .85-.07.7.7 0 0 0 .29 0l.23-.13.15-.09c.09-.09.31-.05.42-.05h.2c.14 0 .22-.18.32-.28s.11-.3.11-.48 0-.47-.13-.59h-.09l-.15-.07a.52.52 0 0 0 -.33 0h-.89a3.77 3.77 0 0 0 -1 .21 5.44 5.44 0 0 1 -1.4.07h-1.19a2.32 2.32 0 0 0 -.53 0 2.8 2.8 0 0 0 -.67.28 4.48 4.48 0 0 1 -.58.29 2.48 2.48 0 0 1 -.27 0c-.12 0-.19.12-.3.15a.66.66 0 0 0 -.3.07c-.13.08-.24.2-.36.29l-.18.15-.14.22a2.1 2.1 0 0 1 -.24.27 2 2 0 0 1 -.44.27l-.29.11a4.23 4.23 0 0 1 -.42.22h-.18l-.22.06a3 3 0 0 1 -.42 0l-.22.09h-.13a1.68 1.68 0 0 0 -.45 0 2.87 2.87 0 0 0 -.48.28c-.11.07-.22.11-.33.19s-.28.26-.44.37a1.4 1.4 0 0 0 -.36.28l-.08.11-.15.12a.52.52 0 0 0 -.08.37c0 .1 0 .21.08.25h.48.27c.2.1.06.3-.08.36l-.49.24c-.18.09-.39.14-.57.24a.7.7 0 0 1 -.23.11.26.26 0 0 0 -.23.12c-.2.32.18.58.46.61a4 4 0 0 0 .6 0c.43 0 .73-.32 1.06-.56a.74.74 0 0 1 .48-.12c.15 0 .4 0 .5.09a.75.75 0 0 1 0 .62 1.64 1.64 0 0 1 -.21.25.43.43 0 0 0 0 .25.59.59 0 0 1 -.16.39c-.09.11-.23.2-.27.33a1.77 1.77 0 0 0 0 .46 3.63 3.63 0 0 0 .1.42 2.29 2.29 0 0 1 0 .37v.43s-.1.28-.11.43a1.12 1.12 0 0 1 -.05.36c0 .13-.13.24-.19.37a3.22 3.22 0 0 1 -.23.5 2 2 0 0 1 -.31.34c-.1.09-.23.14-.34.23s-.27.31-.4.45-.1.48-.11.72a1.23 1.23 0 0 0 0 .38v.14a.63.63 0 0 1 .09.32 2.46 2.46 0 0 0 .12.76 1.83 1.83 0 0 0 .26.36c.17.18.35.34.33.61a1.53 1.53 0 0 1 -.11.42l-.09.13c-.13.11-.12.14-.12.32v.64a.64.64 0 0 0 .07.33l.06.15c0 .13.1.13.19.22l.15.21c.07.11.21.19.26.31s0 .17.05.25a1.09 1.09 0 0 0 .23.29l.19.19v.06a.58.58 0 0 0 .26.23.52.52 0 0 0 .3 0h.17l.07.19v.18l.16.1.09.14c.07.1 0 .1.19.09a.73.73 0 0 1 .41.06c.12.08 0 .23.08.34a1.69 1.69 0 0 1 0 .45 2.06 2.06 0 0 0 0 .56v.35a2.68 2.68 0 0 0 .07.27 1.59 1.59 0 0 0 .26.32c.1.13.13.1.27.15l.19.15.27.11c.11.08.2.2.31.28a2.54 2.54 0 0 0 .34.23l.22.09a2.13 2.13 0 0 1 .35.14l.21.19a2.11 2.11 0 0 0 .35.26l.22.15.2.19.26.09a1.47 1.47 0 0 0 .28.08h.26a3.69 3.69 0 0 0 .47 0 1 1 0 0 1 .52 0l.25.12.08.31c.07.2.28.33.4.51s.09.13.21.13h.15a1 1 0 0 0 .49 0l.16-.11c.14 0 .17.13.26.2a.28.28 0 0 0 .25.06.34.34 0 0 1 .28.11.38.38 0 0 1 .13.24.21.21 0 0 0 .21.18c.21 0 .52-.11.56.2a.5.5 0 0 0 .38.44h.23a.9.9 0 0 1 .33.09 2.83 2.83 0 0 1 .31.11c.11.07.18.16.29.22a1 1 0 0 0 .37.12 5.47 5.47 0 0 0 .57 0h.37a.65.65 0 0 1 .42.11 12.87 12.87 0 0 1 -1.15 2.21l-.2-.09-.15.12-.21.16c-.12.06-.19.08-.25.2a.68.68 0 0 0 -.06.35v.73a.78.78 0 0 1 0 .34l-.09.21-.13.22c-.11.14-.2.22-.2.4v.28a1.17 1.17 0 0 0 0 .56 2.44 2.44 0 0 0 .35.37l.24.19c.09.08.19.13.28.21s.23.23.36.34a3.55 3.55 0 0 1 .31.23 1.86 1.86 0 0 0 .23.26l.18.13.06.14v.19c.13.19.27.36.38.56a1.45 1.45 0 0 0 .3.4c.11.1.2.21.3.32s.21.26.34.3h.11l.2.11a1.23 1.23 0 0 1 .35.29.46.46 0 0 1 .12.35v.49a1.05 1.05 0 0 1 -.24.83l-.15.27-.14.16c-.22.24-.37.52-.57.78v.14a1.68 1.68 0 0 1 -.12.38 1.9 1.9 0 0 0 -.14.4.53.53 0 0 1 -.07.31c-.13.19-.1.44-.21.64a1.77 1.77 0 0 0 -.19.33 2.85 2.85 0 0 0 -.26.76v.29.36.17c0 .12-.11.2-.16.3s-.07.23-.11.34l-.15.29v.1a1.58 1.58 0 0 1 -.16.35 1.77 1.77 0 0 0 0 .69 2.34 2.34 0 0 1 0 .26v.3.2.08a1.14 1.14 0 0 0 0 .45 2.9 2.9 0 0 0 0 .51.26.26 0 0 0 .17.22 2 2 0 0 0 .37.16 1.32 1.32 0 0 0 .44 0h.22a.51.51 0 0 0 .27 0 3.5 3.5 0 0 0 .35-.23.71.71 0 0 0 .23-.37 2.44 2.44 0 0 1 .14-.28.74.74 0 0 0 .14-.28.53.53 0 0 1 .21-.43l-.71.46c0-.11.21-.19.28-.27l.2-.25.26-.15.08-.27c0-.09 0-.13 0-.2l.1-.11.06-.15c0-.14.06-.16.21-.19l.22-.09c0-.1 0-.15.12-.16s.18 0 .28 0 .11-.46.38-.55a1 1 0 0 1 .34 0h.28l.12-.14.15-.14a1.33 1.33 0 0 0 .45-.62c.21 0 .23.29.47.28s.2-.14.24-.29l.11-.44c.17-.18.45.31.6 0a.9.9 0 0 0 0-.4 1 1 0 0 1 .06-.48l.1-.06c.16-.16.1-.2.39-.06l.33.22.23.15c.13 0 .17-.06.23-.16l.16-.25.07-.15.12-.09c.12-.06.15-.19.19-.32a.46.46 0 0 1 .15-.28 3.88 3.88 0 0 1 .26-.31 1 1 0 0 1 .41-.15c.18 0 .21-.24.24-.42a1 1 0 0 1 0-.29l.08-.17a.29.29 0 0 1 .29-.24.45.45 0 0 0 .28-.13l.16-.18a2.9 2.9 0 0 1 .19-.34l.27-.21c.09-.09.19-.15.28-.23l.23-.24a.63.63 0 0 1 .5-.15 1 1 0 0 0 .61-.23c.13-.08.23-.12.36-.19s.11-.11.17-.2l.15-.24a2.09 2.09 0 0 0 .08-.34v-.41c0-.17.1-.22.18-.38a.37.37 0 0 0 0-.23v-.29a1 1 0 0 1 .23-.33l.11-.18.15-.21a.6.6 0 0 0 .04-.38v-.21a.56.56 0 0 1 .18-.25 3.45 3.45 0 0 0 .28-.26v-.2a.65.65 0 0 1 .14-.48 1.28 1.28 0 0 1 .24-.22 1.07 1.07 0 0 0 .25-.27c.11-.13.22-.24.32-.38l.1-.11a.71.71 0 0 0 0-.35c0-.26 0-.52 0-.78a.79.79 0 0 0 -.01-.39z" fill="#27a2db"/><path d="m85.52 41c0 .14 0 .28.06.38a2.8 2.8 0 0 1 0 .71c0 .36-.14 1 .12 1.28s.92.05 1.23.44a5.21 5.21 0 0 1 .33.79 1.92 1.92 0 0 0 .5.65 1.72 1.72 0 0 1 .34.48c.19.3.3.24.61.36a.91.91 0 0 1 .73.87c.05.43.24 1 .73 1.1s.91-.08 1.35 0a.73.73 0 0 1 .43.21c.17.2 0 .29 0 .53s.24.39.34.61.07.6.2.91a3.51 3.51 0 0 0 .92 1.29 4.78 4.78 0 0 1 1 1.27 2.42 2.42 0 0 1 0 1.48 2.55 2.55 0 0 1 -.15.54c-.14.28-.65.53-.65.85a2.21 2.21 0 0 0 .52.94c.29.34.78.55.92 1a3.49 3.49 0 0 1 .06.65 2.19 2.19 0 0 0 .9 1.18c.15.14.4.28.5.47a1.79 1.79 0 0 1 .06 1 6.25 6.25 0 0 0 0 1.14c.1.46.56.46.72.94a4.68 4.68 0 0 1 0 1.24c0 .76-.12 1.48-.12 2.24a12 12 0 0 0 .08 2.4 4.68 4.68 0 0 0 .69 1.9l.07.09a24.42 24.42 0 0 0 -12.49-29.94z" fill="#27a2db"/><path d="m75 71.55-30.35-4.68v39.83l30.35 4.68 30.35-4.68v-39.83z" fill="#fcd462"/><path d="m105.35 66.87v39.83l-30.35 4.68v-39.83z" fill="#f7be56"/><path d="m44.65 66.87v39.83l30.35 4.68v-39.83z" fill="#fcd462"/><path d="m105.35 66.87 8.15 7.44-29.69 5.86-8.81-8.62z" fill="#fcd462"/><path d="m44.65 66.87-8.15 7.44 29.69 5.86 8.81-8.62z" fill="#f7be56"/><path d="m83.2 96.89-2.65-4.37-2.65 5.19 1.5-.23v11.71l2.3-.36v-11.71z" fill="#3a556a"/><path d="m89.45 95.93-2.65-4.37-2.65 5.18 1.5-.23v11.71l2.3-.36v-11.7z" fill="#3a556a"/></svg>