<svg id="Layer_1" height="512" viewBox="0 0 150 150" width="512" xmlns="http://www.w3.org/2000/svg" data-name="Layer 1"><circle cx="75" cy="75" fill="#45b39c" r="64"/><path d="m70.75 55.36h36.65v3.62h-36.65z" fill="#e1e6e9" transform="matrix(.852 -.523 .523 .852 -16.74 55)"/><path d="m60.41 60.5h36.65v6.03h-36.65z" fill="#3a556a" transform="matrix(.852 -.523 .523 .852 -21.59 50.52)"/><path d="m76.54 75.28-9.87-11.71a2.11 2.11 0 0 0 -1.61-.74h-15.49a2.1 2.1 0 0 0 -2.1 2.1v25.74h29.53v-14a2.11 2.11 0 0 0 -.46-1.39z" fill="#fcd462"/><path d="m64.26 65.35h-13.65v14.68h22.87v-3.28z" fill="#ebf0f3"/><path d="m79.87 95.1h-35.22a6.34 6.34 0 1 0 0 12.68h35.22a6.34 6.34 0 0 0 0-12.68z" fill="#3a556a"/><path d="m44.65 105.16a3.72 3.72 0 0 1 0-7.44h35.22a3.72 3.72 0 0 1 0 7.44z" fill="#2f4859"/><path d="m78.24 95.1h-32a2.22 2.22 0 1 1 0-4.43h32a2.22 2.22 0 0 1 0 4.43z" fill="#f7be56"/><path d="m44.89 98.58a2.87 2.87 0 1 0 2.86 2.86 2.86 2.86 0 0 0 -2.86-2.86z" fill="#e1e6e9"/><circle cx="44.89" cy="101.44" fill="#3a556a" r="1.53"/><path d="m62.05 98.58a2.87 2.87 0 1 0 2.86 2.86 2.86 2.86 0 0 0 -2.86-2.86z" fill="#e1e6e9"/><path d="m62.05 99.92a1.53 1.53 0 1 0 1.52 1.52 1.52 1.52 0 0 0 -1.52-1.52z" fill="#3a556a"/><path d="m79.21 98.58a2.87 2.87 0 1 0 2.87 2.86 2.87 2.87 0 0 0 -2.87-2.86z" fill="#e1e6e9"/><circle cx="79.21" cy="101.44" fill="#3a556a" r="1.53"/><path d="m107.38 45.59v16.16h-3.5v-16.16h-.66v16.82h4.81v-16.82z" fill="#2f4859"/><path d="m105.63 78.21a3 3 0 0 1 -.65-5.9v-3.92a.65.65 0 0 1 1.3 0v4.5a.65.65 0 0 1 -.65.65 1.69 1.69 0 1 0 1.69 1.68.65.65 0 0 1 1.3 0 3 3 0 0 1 -2.99 2.99z" fill="#3a556a"/><path d="m111.51 64.1-2.34-4a1.39 1.39 0 0 0 -1.2-.69h-4.68a1.38 1.38 0 0 0 -1.2.69l-2.34 4a1.41 1.41 0 0 0 0 1.38l2.34 4.06a1.4 1.4 0 0 0 1.2.69h4.71a1.41 1.41 0 0 0 1.2-.69l2.34-4.06a1.41 1.41 0 0 0 -.03-1.38z" fill="#e56353"/><circle cx="105.63" cy="64.79" fill="#3a556a" r="2.43"/><path d="m105.63 42.22a4.16 4.16 0 1 0 4.16 4.15 4.15 4.15 0 0 0 -4.16-4.15z" fill="#3a556a"/><path d="m105.63 44.29a2.08 2.08 0 1 0 2.08 2.08 2.08 2.08 0 0 0 -2.08-2.08z" fill="#ebf0f3"/></svg>