<svg id="Layer_1" height="512" viewBox="0 0 150 150" width="512" xmlns="http://www.w3.org/2000/svg" data-name="Layer 1"><circle cx="75" cy="75" fill="#029bc5" r="64"/><path d="m96.86 80.45-21.8-23.7a.57.57 0 0 0 -.42-.19.48.48 0 0 0 -.43.18l-22 23.05-.8-.77 22-23a1.82 1.82 0 0 1 1.24-.52 1.71 1.71 0 0 1 1.22.55l21.8 23.7z" fill="#3a556a"/><path d="m97.21 77.14h-14.64l-7.4 4.07-7.74-4.07h-14.64a2.16 2.16 0 0 0 -2.16 2.16v41.75a2.16 2.16 0 0 0 2.16 2.16h44.42a2.16 2.16 0 0 0 2.16-2.16v-41.75a2.16 2.16 0 0 0 -2.16-2.16z" fill="#fcd462"/><path d="m82.56 88.09-1.82-1.28-1.98 1.28-1.73-1.28-2.03 1.28-1.95-1.28-1.98 1.28-2.02-1.28-1.61 1.28v-10.95h15.12z" fill="#ebf0f3"/><g fill="#3a556a"><path d="m57.77 114.15-1.28-1.79-1.28 1.79h.73v4.38h1.11v-4.38z"/><path d="m60.78 114.15-1.28-1.79-1.27 1.79h.72v4.38h1.11v-4.38z"/><path d="m67.16 114.31v-2h-1.16l-.61.82.62.55-.86 1.21.39-.94-.77-.78.57-.86h-1.4v2a1.61 1.61 0 0 0 1.39 1.59v1.48a.8.8 0 0 1 -.8.81h-.19a.17.17 0 1 0 0 .34h2.41a.17.17 0 1 0 0-.34h-.18a.81.81 0 0 1 -.81-.81v-1.48a1.61 1.61 0 0 0 1.4-1.59z"/><path d="m73.23 112.73v-.25l-.13-.12-.12.12v.25a3.12 3.12 0 0 0 -3 3.11c0-.07.18-.12.4-.12s.41 0 .41.12c0-.1.25-.17.57-.17a.8.8 0 0 1 .56.14c.08-.15.5-.27 1-.29v2.48a.33.33 0 0 1 -.66 0v-.34l-.12-.13-.12.13v.34a.56.56 0 0 0 .57.57.57.57 0 0 0 .58-.57v-2.47c.58 0 1 .17 1 .35 0-.1.26-.17.57-.17s.57.07.57.17c0-.07.18-.12.41-.12s.4 0 .4.12a3.11 3.11 0 0 0 -2.89-3.15z"/><path d="m69.43 111.56h-15.31v7.77h22.88v-7.77zm-7.76 7.56h-7.35v-7.35h7.35zm7.55 0h-7.34v-7.35h7.34zm7.55 0h-7.34v-7.35h7.34z"/><path d="m82 50.47c-3.67 1.69-2 7.3-5.34 7.7-3.7.43-4.79-1.44-4.79-3.76s3.16-4.08 4.35-5.58a3.51 3.51 0 0 0 .69-3.07l.09-1.57h-3.46l.12 2.32c-.69 1.88-2.07.94-5.26 4.45s-1.19 10.46 5.2 11.34a7.41 7.41 0 0 0 8.65-7.52c-.07-1.58.3-2.18.63-2.4a1.06 1.06 0 0 0 .5-.85v-.18a1 1 0 0 0 -1.38-.88z"/></g><path d="m84.57 29.84-2.26-2.26a2.66 2.66 0 0 0 -1.9-.79h-10.67a2.65 2.65 0 0 0 -1.9.79c-.87.86-1.55 1.55-2.41 2.41a2.7 2.7 0 0 0 -.79 1.9v8a2.72 2.72 0 0 0 .79 1.9l2.26 2.26a2.7 2.7 0 0 0 1.9.79h10.82a2.7 2.7 0 0 0 1.9-.79c.8-.81 1.45-1.46 2.26-2.26a2.72 2.72 0 0 0 .79-1.9v-8.2a2.7 2.7 0 0 0 -.79-1.85z" fill="#fcd462"/><path d="m75 30.57a5.57 5.57 0 1 0 5.57 5.57 5.57 5.57 0 0 0 -5.57-5.57z" fill="#f7be56"/></svg>