<svg id="Layer_1" height="512" viewBox="0 0 150 150" width="512" xmlns="http://www.w3.org/2000/svg" data-name="Layer 1"><circle cx="75" cy="75" fill="#e05b49" r="64"/><path d="m48.48 47.28h-5.48l-2.78 1.53-2.91-1.53h-5.54a.82.82 0 0 0 -.82.81v15.71a.82.82 0 0 0 .82.82h16.71a.82.82 0 0 0 .81-.82v-15.71a.81.81 0 0 0 -.81-.81z" fill="#f7be56"/><path d="m42.97 52.05-.69-.48-.74.48-.65-.48-.77.48-.73-.48-.74.48-.76-.48-.61.48v-4.77h5.69z" fill="#ebf0f3"/><path d="m35.38 58.02-1.48-2.07-1.48 2.07h.84v5.1h1.29v-5.1z" fill="#3a556a"/><path d="m38.88 58.02-1.48-2.07-1.49 2.07h.84v5.1h1.29v-5.1z" fill="#3a556a"/><path d="m92.67 43.56h1.85v5.18h-1.85z" fill="#e1e6e9" transform="matrix(.97 -.244 .244 .97 -8.44 24.27)"/><path d="m104.59 106.91a16.14 16.14 0 1 1 16.15-16.14 16.16 16.16 0 0 1 -16.15 16.14zm0-29.77a13.63 13.63 0 1 0 13.63 13.63 13.64 13.64 0 0 0 -13.63-13.63z" fill="#3a556a"/><path d="m104.59 105.34a14.58 14.58 0 1 1 14.58-14.57 14.59 14.59 0 0 1 -14.58 14.57zm0-26.87a12.3 12.3 0 1 0 12.3 12.3 12.3 12.3 0 0 0 -12.3-12.3z" fill="#e1e6e9"/><path d="m118.09 90.51h-12.22l11.29-4.67-.2-.47-11.29 4.67 8.64-8.63-.36-.36-8.63 8.64 4.67-11.29-.47-.2-4.67 11.29v-12.22h-.51v12.22l-4.67-11.29-.47.2 4.67 11.29-8.64-8.64-.35.36 8.64 8.63-11.29-4.67-.2.47 11.29 4.67h-12.22v.51h12.22l-11.29 4.67.2.47 11.29-4.67-8.64 8.64.35.35 8.64-8.63-4.67 11.28.47.2 4.67-11.29v12.22h.51v-12.22l4.67 11.29.47-.2-4.67-11.28 8.63 8.63.36-.35-8.64-8.64 11.29 4.67.2-.47-11.29-4.67h12.22z" fill="#e1e6e9"/><circle cx="104.59" cy="90.77" fill="#e1e6e9" r="2.4"/><path d="m49.78 106.91a16.14 16.14 0 1 1 16.14-16.14 16.16 16.16 0 0 1 -16.14 16.14zm0-29.77a13.63 13.63 0 1 0 13.63 13.63 13.64 13.64 0 0 0 -13.63-13.63z" fill="#3a556a"/><path d="m49.78 105.34a14.58 14.58 0 1 1 14.58-14.57 14.59 14.59 0 0 1 -14.58 14.57zm0-26.87a12.3 12.3 0 1 0 12.3 12.3 12.3 12.3 0 0 0 -12.3-12.3z" fill="#e1e6e9"/><path d="m63.27 90.51h-12.21l11.29-4.67-.2-.47-11.29 4.67 8.64-8.63-.35-.36-8.64 8.64 4.67-11.29-.47-.2-4.67 11.29v-12.22h-.51v12.22l-4.68-11.29-.46.2 4.67 11.29-8.64-8.64-.36.36 8.64 8.63-11.28-4.67-.2.47 11.29 4.67h-12.22v.51h12.22l-11.29 4.67.2.47 11.28-4.67-8.64 8.64.36.35 8.64-8.63-4.67 11.28.46.2 4.68-11.29v12.22h.51v-12.22l4.67 11.29.47-.2-4.67-11.28 8.64 8.63.35-.35-8.64-8.64 11.29 4.67.2-.47-11.29-4.67h12.21z" fill="#e1e6e9"/><circle cx="49.78" cy="90.77" fill="#e1e6e9" r="2.4"/><g fill="#3a556a"><path d="m105.58 90.52-10.36-42.24-2 .49 10.39 42.23a1 1 0 0 0 1 .77h.25a1 1 0 0 0 .72-1.25z"/><path d="m79 91.58h-29.22a.81.81 0 0 1 -.66-.34.82.82 0 0 1 -.11-.73l8.32-25.45a.8.8 0 0 1 .72-.56l39.69-2.29a.8.8 0 0 1 .75.41.81.81 0 0 1 0 .86l-18.83 27.74a.81.81 0 0 1 -.66.36zm-28.09-1.58h27.64l17.63-26-37.48 2.09z"/><path d="m79 91.58a.81.81 0 0 1 -.63-.3l-20.9-25.45a.72.72 0 0 1 -.15-.27l-2-6.37a.82.82 0 0 1 1.56-.48l1.94 6.21 20.79 25.33a.81.81 0 0 1 -.11 1.15.82.82 0 0 1 -.5.18z"/><path d="m84.62 52.71a.81.81 0 0 1 -.8-.72l-.4-3.33a3.81 3.81 0 0 1 3-4.14l7-1.41a.82.82 0 0 1 .33 1.6l-7 1.41a2.15 2.15 0 0 0 -1.75 2.35l.39 3.33a.8.8 0 0 1 -.71.9z"/></g><path d="m58.16 58.82a44.81 44.81 0 0 0 4.68-.21c2-.27.53-1.54-2.34-2s-8.46-2.94-9.9-.16 0 3.55 7.56 2.37z" fill="#e1e6e9"/><path d="m30.36 64.7v-4.54h-1.09v6.66h29.04v-2.12z" fill="#3a556a"/><path d="m49.29 65.76h.98v25.18h-.98z" fill="#3a556a"/><path d="m78.67 95-29.85-2.65a1.54 1.54 0 0 1 -1.39-1.79 1.53 1.53 0 0 1 1.25-1.25l30.13-4.58.06.4-30.12 4.58a1.13 1.13 0 0 0 -.92.92 1.16 1.16 0 0 0 .22.88 1.13 1.13 0 0 0 .81.43l29.84 2.63z" fill="#3a556a"/><path d="m78.84 84.4a5.61 5.61 0 1 0 5.61 5.6 5.61 5.61 0 0 0 -5.61-5.6zm-3.12 6.87a1.27 1.27 0 1 1 1.28-1.27 1.27 1.27 0 0 1 -1.28 1.27zm3.12 3.13a1.27 1.27 0 1 1 1.27-1.27 1.26 1.26 0 0 1 -1.27 1.27zm0-6.26a1.27 1.27 0 0 1 0-2.53 1.27 1.27 0 1 1 0 2.53zm3.16 3.13a1.27 1.27 0 1 1 1.23-1.27 1.27 1.27 0 0 1 -1.23 1.27z" fill="#e1e6e9"/><path d="m79 89.31a.63.63 0 0 0 -.63.63v9.44h1.26v-9.44a.63.63 0 0 0 -.63-.63z" fill="#3a556a"/><path d="m81.7 99.77h-5.7a.7.7 0 1 1 0-1.39h5.7a.7.7 0 0 1 0 1.39z" fill="#3a556a"/><path d="m79 89.67a.32.32 0 1 0 .32.32.32.32 0 0 0 -.32-.32z" fill="#64798a"/><path d="m50.28 87.75a2.9 2.9 0 1 0 2.9 2.9 2.9 2.9 0 0 0 -2.9-2.9z" fill="#64798a"/></svg>