<svg id="Layer_1" height="512" viewBox="0 0 150 150" width="512" xmlns="http://www.w3.org/2000/svg" data-name="Layer 1"><circle cx="75" cy="75" fill="#029bc5" r="64"/><rect fill="#ebf0f3" height="60.67" rx="3.28" width="63.58" x="43.21" y="46.66"/><path d="m103.52 46.66h-57a3.27 3.27 0 0 0 -3.27 3.28v10.42h63.58v-10.42a3.27 3.27 0 0 0 -3.31-3.28z" fill="#fe7058"/><rect fill="#ebf0f3" height="33.95" rx="2.21" width="50.19" x="49.91" y="66.39"/><path d="m97.23 65.73h-44.46a2.86 2.86 0 0 0 -2.86 2.86v29.54a2.87 2.87 0 0 0 2.86 2.87h44.46a2.87 2.87 0 0 0 2.86-2.86v-29.55a2.86 2.86 0 0 0 -2.86-2.86zm-38.95 34.6h-5.51a2.21 2.21 0 0 1 -2.21-2.2v-4.07h7.72zm0-6.93h-7.72v-6.26h7.72zm0-6.91h-7.72v-6.26h7.72zm0-6.92h-7.72v-6.26h7.72zm0-6.91h-7.72v-4.07a2.2 2.2 0 0 1 2.21-2.2h5.51zm8.2 27.67h-7.54v-6.27h7.54zm0-6.93h-7.54v-6.26h7.54zm0-6.91h-7.54v-6.26h7.54zm0-6.92h-7.54v-6.26h7.54zm0-6.91h-7.54v-6.27h7.54zm8.19 27.67h-7.54v-6.27h7.54zm0-6.93h-7.54v-6.26h7.54zm0-6.91h-7.54v-6.26h7.54zm0-6.92h-7.54v-6.26h7.54zm0-6.91h-7.54v-6.27h7.54zm8.2 27.67h-7.54v-6.27h7.54zm0-6.93h-7.54v-6.26h7.54zm0-6.91h-7.54v-6.26h7.54zm0-6.92h-7.54v-6.26h7.54zm0-6.91h-7.54v-6.27h7.54zm8.19 27.67h-7.54v-6.27h7.54zm0-6.93h-7.54v-6.26h7.54zm0-6.91h-7.54v-6.26h7.54zm0-6.92h-7.54v-6.26h7.54zm0-6.91h-7.54v-6.27h7.54zm8.38 25.47a2.21 2.21 0 0 1 -2.21 2.2h-5.52v-6.27h7.73zm0-4.73h-7.73v-6.26h7.73zm0-6.91h-7.73v-6.26h7.73zm0-6.92h-7.73v-6.26h7.73zm0-6.91h-7.73v-6.27h5.52a2.2 2.2 0 0 1 2.21 2.2z" fill="#709584"/><circle cx="54.25" cy="52.15" fill="#2f4859" r="2.28"/><path d="m54.25 42.67a1.41 1.41 0 0 0 -1.41 1.41v8a1.41 1.41 0 0 0 2.82 0v-8a1.41 1.41 0 0 0 -1.41-1.41z" fill="#3a556a"/><circle cx="64.62" cy="52.15" fill="#2f4859" r="2.28"/><path d="m64.62 42.67a1.41 1.41 0 0 0 -1.41 1.41v8a1.41 1.41 0 1 0 2.82 0v-8a1.41 1.41 0 0 0 -1.41-1.41z" fill="#3a556a"/><circle cx="75" cy="52.15" fill="#2f4859" r="2.28"/><path d="m75 42.67a1.41 1.41 0 0 0 -1.41 1.41v8a1.41 1.41 0 0 0 2.82 0v-8a1.41 1.41 0 0 0 -1.41-1.41z" fill="#3a556a"/><circle cx="85.38" cy="52.15" fill="#2f4859" r="2.28"/><path d="m85.38 42.67a1.41 1.41 0 0 0 -1.38 1.41v8a1.41 1.41 0 0 0 2.82 0v-8a1.41 1.41 0 0 0 -1.44-1.41z" fill="#3a556a"/><circle cx="95.75" cy="52.15" fill="#2f4859" r="2.28"/><path d="m95.75 42.67a1.41 1.41 0 0 0 -1.41 1.41v8a1.41 1.41 0 0 0 2.82 0v-8a1.41 1.41 0 0 0 -1.41-1.41z" fill="#3a556a"/></svg>