<svg id="Layer_1" height="512" viewBox="0 0 150 150" width="512" xmlns="http://www.w3.org/2000/svg" data-name="Layer 1"><circle cx="75" cy="75" fill="#fe7058" r="64"/><path d="m96.55 42.23h-17.67l-8.88 4.9-9.34-4.9h-17.66a2.61 2.61 0 0 0 -2.61 2.61v50.36a2.6 2.6 0 0 0 2.61 2.6h53.55a2.59 2.59 0 0 0 2.6-2.6v-50.36a2.6 2.6 0 0 0 -2.6-2.61z" fill="#fcd462"/><path d="m78.88 54.76-2.2-1.54-2.39 1.54-2.08-1.54-2.45 1.54-2.35-1.54-2.39 1.54-2.44-1.54-1.95 1.54v-12.53h18.25z" fill="#ebf0f3"/><path d="m57.85 82v-3.72h-2.19l-1.16 1.57 1.18 1.05-1.63 2.29.74-1.78-1.47-1.48 1.09-1.65h-2.69v3.72a3.07 3.07 0 0 0 2.66 3v2.82a1.53 1.53 0 0 1 -1.53 1.53h-.36a.33.33 0 0 0 -.33.33.33.33 0 0 0 .33.33h4.59a.33.33 0 0 0 .33-.33.33.33 0 0 0 -.33-.33h-.36a1.53 1.53 0 0 1 -1.53-1.53v-2.82a3.07 3.07 0 0 0 2.66-3z" fill="#3a556a"/><path d="m63.66 93h-17.75v-17.71h17.75zm-17.14-.61h16.53v-16.5h-16.53z" fill="#3a556a"/><path d="m45.91 64.5h19.1v2.39h-19.1z" fill="#f7be56"/><path d="m45.91 69.48h10.98v2.39h-10.98z" fill="#f7be56"/><path d="m100.89 93.42a2.14 2.14 0 0 1 0-3.78c3.8-2.13 6.58-8 6.71-12.25h-19.3c.12 4.28 2.9 10.12 6.71 12.25a2.15 2.15 0 0 1 0 3.78c-3.81 2.12-6.59 8-6.71 12.25h19.3c-.13-4.29-2.91-10.13-6.71-12.25z" fill="#ebf0f3"/><path d="m95.87 88.09a4 4 0 0 1 2 3.44v8.59h.13c0-.11 0-8.48 0-8.59a4 4 0 0 1 2-3.44 11.47 11.47 0 0 0 4.24-5h-12.62a11.43 11.43 0 0 0 4.25 5z" fill="#27a2db"/><path d="m92 99.24a16.63 16.63 0 0 0 -1.73 4.66h15.33a16.59 16.59 0 0 0 -1.72-4.66z" fill="#27a2db"/><g fill="#3a556a"><path d="m108.19 75.29h-20.48a1.45 1.45 0 1 0 0 2.9h20.48a1.45 1.45 0 1 0 0-2.9z"/><path d="m108.19 104.86h-20.48a1.46 1.46 0 1 0 0 2.91h20.48a1.46 1.46 0 0 0 0-2.91z"/></g></svg>