<svg id="Layer_1" height="512" viewBox="0 0 150 150" width="512" xmlns="http://www.w3.org/2000/svg" data-name="Layer 1"><circle cx="75" cy="75" fill="#fe7058" r="64"/><path d="m74.08 66.9 3.33 15.81 14.21 7.05 2.31-2.94 2.43-3.79-13.29-17.11z" fill="#fcd462"/><path d="m94.41 87.07-2-1.91-22.69-23.22-15.4-8.29-12.77 16.73 9.11 13.25 20.78 19.25a3.71 3.71 0 0 0 .27.29l1.29 1.19 1.25 1.15.83.75a3.49 3.49 0 0 0 5.4-4.26 3.52 3.52 0 0 0 4.41-.67 3.48 3.48 0 0 0 .46-4 3.49 3.49 0 0 0 4.87-4.65 3.5 3.5 0 0 0 4.13-5.61z" fill="#f7be56"/><path d="m75.54 97.69a3.47 3.47 0 0 0 -4-.46 3.48 3.48 0 0 0 -4.64-4.87 3.49 3.49 0 0 0 -4.65-4.87 3.5 3.5 0 0 0 -5.61-4.13l-3.04 3.43a3.49 3.49 0 0 0 4.26 5.4 3.49 3.49 0 0 0 4.65 4.87 3.48 3.48 0 0 0 4.64 4.87 3.5 3.5 0 0 0 5.61 4.13l3.06-3.43a3.49 3.49 0 0 0 -.28-4.94z" fill="#fcd462"/><path d="m33.48 49.65h28.82v22.76h-28.82z" fill="#2f4859" transform="matrix(.7 -.714 .714 .7 -29.22 52.55)"/><path d="m85.2 61.76-10.09-2.26a5.07 5.07 0 0 0 -5.29 2.06l-6.82 9.83a1.7 1.7 0 0 0 .93 2.61 8.47 8.47 0 0 0 8.58-2.31l2.7-2.87 18.72 18 6.07-6.35 7.68-12.92-9.6-16.85z" fill="#fcd462"/><path d="m90.96 47.93h22.76v28.82h-22.76z" fill="#2f4859" transform="matrix(.766 -.642 .642 .766 -16.14 80.31)"/></svg>