<svg id="Layer_1" height="512" viewBox="0 0 150 150" width="512" xmlns="http://www.w3.org/2000/svg" data-name="Layer 1"><circle cx="75" cy="75" fill="#3a556a" r="64"/><path d="m75.37 102.89v-19.64l-.48-.21v-10.11l-8.17 4.03-8.17-4.03v10.11l-.09.04v19.81z" fill="#f7be56"/><path d="m94.21 96.68a9.17 9.17 0 0 0 -5.43-7.5l-13.89-6.18v-1.68l-8.17 7.38-8.17-7.38v1.68l-13.9 6.14a9.16 9.16 0 0 0 -5.42 7.5l-1.4 14.36h57.78z" fill="#d15241"/><path d="m81.17 60.22c-1-.83-2 .92-2.47 2.07l-1-13.52-5-2.37-5.94-.55h-.14l-6 .55-5 2.37-.91 12.32c-.5-.81-1.16-1.43-1.87-.87-1.5 1.2.41 5 1.41 6.39s.21 3.44 1.94 2.54l1.82 5.53a5.55 5.55 0 0 0 1.99 2.65l2.56 2a5.57 5.57 0 0 0 3.44 1.24h1.75a5.68 5.68 0 0 0 3.57-1.28l2.36-2a5.61 5.61 0 0 0 1.79-2.66l1.82-5.84c2.39 1.62 1.45-.87 2.45-2.23s2.93-5.14 1.43-6.34z" fill="#fcd462"/><path d="m78.35 65.21h.81s.72-10.9.4-14.34-3.23-3-3.23-3 .16-4.26-4.77-4.74-13.91-.26-16.09 5.87-.47 16.21-.47 16.21l.93-.12s.45-11.5 1.26-12.38 5.67-1.52 9.34-1.2 7.47-1.12 8.93.8 2.58 8.24 2.66 9.2.23 3.7.23 3.7z" fill="#3a556a"/><path d="m80.53 49a14.64 14.64 0 0 0 -13.12-9.63 14.41 14.41 0 0 0 -14.82 14.4 13.33 13.33 0 0 0 .21 2.38 1.58 1.58 0 0 0 1.56 1.31h25.28a1.58 1.58 0 0 0 1.56-1.3 13.5 13.5 0 0 0 -.67-7.16z" fill="#27a2db"/><path d="m66.61 39.39c-4.08.38-7.33 6.68-7.33 14.4a24.42 24.42 0 0 0 .27 3.68h-1.08a22 22 0 0 1 -.3-3.68c0-7.74 3.74-14.06 8.44-14.4z" fill="#1c75a1"/><path d="m75.83 53.79a22 22 0 0 1 -.3 3.68h-1.08a27.34 27.34 0 0 0 .27-3.68c0-7.72-3.25-14-7.33-14.4 4.69.34 8.44 6.66 8.44 14.4z" fill="#1c75a1"/><path d="m80 56.33a52.93 52.93 0 0 0 -26.05 0 .62.62 0 0 0 -.43.8l1.38 4.24a1.92 1.92 0 0 0 2.23 1.25 47.63 47.63 0 0 1 19.68 0 1.92 1.92 0 0 0 2.19-1.26l1.39-4.23a.63.63 0 0 0 -.39-.8z" fill="#2d93ba"/><ellipse cx="67" cy="39.39" fill="#1c75a1" rx="2.06" ry=".39"/><path d="m58.55 79.84 5.84 6.75-2.4 6.16-5.23-8.92z" fill="#e56353"/><path d="m74.89 79.84-5.84 6.75 2.4 6.16 5.23-8.92z" fill="#e56353"/><path d="m110.77 81h-8.69l-4.8 2.38-5.06-2.38h-10.4a1.41 1.41 0 0 0 -1.41 1.41v27.2a1.41 1.41 0 0 0 1.41 1.39h29a1.41 1.41 0 0 0 1.4-1.41v-27.21a1.41 1.41 0 0 0 -1.45-1.38z" fill="#fcd462"/><path d="m102.08 91.82-1.19-.83-1.29.83-1.13-.83-1.32.83-1.27-.83-1.29.83-1.32-.83-1.05.83v-10.85h9.86z" fill="#ebf0f3"/><g fill="#3a556a"><path d="m104.19 99.66-2.05-2.87-2.05 2.87h1.16v7.04h1.78v-7.04z"/><path d="m109.03 99.66-2.05-2.87-2.05 2.87h1.15v7.04h1.79v-7.04z"/></g></svg>