<svg id="Layer_1" height="512" viewBox="0 0 150 150" width="512" xmlns="http://www.w3.org/2000/svg" data-name="Layer 1"><circle cx="75" cy="75" fill="#21b3a9" r="64"/><path d="m69.79 101.77v-18.42l-.45-.2v-9.49l-7.66 3.79-7.66-3.79v9.49l-.09.04v18.58z" fill="#f7be56"/><path d="m87.46 95.94a8.57 8.57 0 0 0 -5.09-7l-13-5.76v-1.64l-7.66 6.92-7.71-6.92v1.61l-13 5.76a8.61 8.61 0 0 0 -5.09 7l-1.31 13.43h54.2z" fill="#d5d6db"/><path d="m75.23 61.75c-1-.78-1.86.86-2.32 1.94l-.91-12.69-4.65-2.22-5.57-.51h-.14l-5.64.51-4.62 2.22-.85 11.56c-.48-.76-1.09-1.34-1.75-.81-1.41 1.13.38 4.72 1.31 6s.21 3.23 1.82 2.38l1.71 5.19a5.22 5.22 0 0 0 1.73 2.48l2.41 1.9a5.24 5.24 0 0 0 3.24 1.13h1.65a5.28 5.28 0 0 0 3.35-1.2l2.21-1.82a5.23 5.23 0 0 0 1.68-2.5l1.71-5.48c2.24 1.52 1.36-.82 2.3-2.09s2.74-4.86 1.33-5.99z" fill="#fcd462"/><path d="m72.58 66.43h.76s.66-10.23.38-13.43-3-2.83-3-2.83.15-4-4.47-4.45-13-.22-15.09 5.48-.46 15.26-.46 15.26l.87-.11s.43-10.83 1.15-11.65 5.32-1.43 8.76-1.13 7-1 8.38.75 2.42 7.73 2.5 8.63.22 3.48.22 3.48z" fill="#3a556a"/><path d="m63.71 86.07-1.94 1.96h-.18l-1.96-1.97-1.08.76 1.5 1.49v21.06h1.36.18.18.32 1.22v-21.06l1.49-1.49z" fill="#e1e6e9"/><path d="m54.02 80.14 5.63 5.93-2.41 6.19-4.91-8.37z" fill="#ebf0f3"/><path d="m69.34 80.14-5.63 5.93 2.4 6.19 4.91-8.37z" fill="#ebf0f3"/><path d="m49.24 60.42s12.64-2.9 25.6.14v-.79l-5.76-1.77-7-.82-5 .44-5.08 1.25z" fill="#ce412d"/><path d="m73.06 46.05a3.28 3.28 0 0 0 -2.25-2.71l-8-2.55a3.25 3.25 0 0 0 -2 0l-7.91 2.55a3.28 3.28 0 0 0 -2.24 2.66l-1.79 13.77a36.51 36.51 0 0 1 26 0z" fill="#e56353"/><path d="m74.84 60.56a35.57 35.57 0 0 0 -26 0 .72.72 0 0 1 -.92-.39.72.72 0 0 1 .4-.94 37.06 37.06 0 0 1 27 0 .71.71 0 0 1 .4.94.72.72 0 0 1 -.88.39z" fill="#d15241"/><path d="m97.6 48.25c-9.84 0-17.82 7.29-17.82 16.29a15.53 15.53 0 0 0 4.93 11.24l-4.93 9 9.49-5.82a19.15 19.15 0 0 0 8.33 1.89c9.84 0 17.82-7.29 17.82-16.29s-7.98-16.31-17.82-16.31z" fill="#3a556a"/><path d="m97.6 55.36a6.28 6.28 0 0 0 -6.27 6.28c0 3.46 6.27 12 6.27 12.08s6.27-8.62 6.27-12.08a6.28 6.28 0 0 0 -6.27-6.28z" fill="#e56353"/><path d="m97.6 57.14a4.32 4.32 0 1 0 4.32 4.32 4.31 4.31 0 0 0 -4.32-4.32z" fill="#ebf0f3"/></svg>