<svg id="Layer_1" height="512" viewBox="0 0 150 150" width="512" xmlns="http://www.w3.org/2000/svg" data-name="Layer 1"><circle cx="75" cy="75" fill="#fcd462" r="64"/><path d="m64.49 59.46h42.92v28.86h-42.92z" fill="#21b3a9"/><path d="m61.58 86.41h45.82v8.29h-45.82z" fill="#3a556a"/><path d="m62.94 68.67h-7.94a5.35 5.35 0 0 0 -3 .9c-.52.35-1.16.79-1.88 1.31l-.07.05a2.4 2.4 0 0 1 0 1.38 8.92 8.92 0 0 1 -5.1 5.39l-.73.31c.24-.1.23-.09 0 0a4.55 4.55 0 0 1 -2.47.74h-.11l-.18.21-.35.42s-7.75 2.1-8.77 10.32v.08 3.52a1.4 1.4 0 0 0 1.4 1.39h30.75v-24.48a1.54 1.54 0 0 0 -1.55-1.54z" fill="#e56353"/><path d="m54.39 71.79-7.02 7.83h14.21v-7.83z" fill="#ebf0f3"/><path d="m50.13 70.88a49.13 49.13 0 0 0 -8.72 8.12h4.17l6.87-7.73z" fill="#ebf0f3"/><path d="m44.72 92.44-4.06-2.77s-5.14.06-8.37.06v3.57a1.41 1.41 0 0 0 1.43 1.39h31.58v-2.25z" fill="#3a556a"/><path d="m52.45 94.69h-14.67a7.34 7.34 0 0 1 14.67 0z" fill="#2f4859"/><path d="m45.11 89.52a5.18 5.18 0 1 0 5.17 5.17 5.17 5.17 0 0 0 -5.17-5.17z" fill="#3a556a"/><circle cx="45.11" cy="94.69" fill="#ebf0f3" r="2.69"/><path d="m95.5 94.69h-14.67a7.34 7.34 0 0 1 14.67 0z" fill="#2f4859"/><path d="m88.16 89.52a5.18 5.18 0 1 0 5.17 5.17 5.17 5.17 0 0 0 -5.17-5.17z" fill="#3a556a"/><path d="m88.16 92a2.69 2.69 0 1 0 2.69 2.68 2.69 2.69 0 0 0 -2.69-2.68z" fill="#ebf0f3"/><path d="m105 50.13a12.77 12.77 0 1 0 12.73 12.77 12.77 12.77 0 0 0 -12.73-12.77z" fill="#3a556a"/><path d="m105 52.54a10.36 10.36 0 1 0 10.32 10.36 10.36 10.36 0 0 0 -10.32-10.36z" fill="#ebf0f3"/><g fill="#3a556a"><path d="m104.87 53.03h.18v1.27h-.18z"/><path d="m104.87 71.5h.18v1.27h-.18z"/><path d="m113.56 62.81h1.27v.18h-1.27z"/><path d="m95.08 62.81h1.27v.18h-1.27z"/><path d="m111.1 56.88-.12-.12.9-.91.12.13z"/><path d="m98.04 69.94-.13-.12.9-.9.13.13z"/><path d="m110.98 69.05.12-.13.9.9-.12.12z"/><path d="m97.91 55.98.13-.13.9.91-.13.12z"/><path d="m101.33 53.73h.18v1.27h-.18z" transform="matrix(.924 -.383 .383 .924 -13.09 43)"/><path d="m108.4 70.8h.18v1.27h-.18z" transform="matrix(.924 -.383 .383 .924 -19.09 47.01)"/><path d="m112.86 59.28h1.27v.18h-1.27z" transform="matrix(.924 -.383 .383 .924 -14.08 48)"/><path d="m95.79 66.34h1.27v.18h-1.27z" transform="matrix(.924 -.383 .383 .924 -18.09 42.01)"/><path d="m107.86 54.28h1.27v.18h-1.27z" transform="matrix(.383 -.924 .924 .383 16.71 133.76)"/><path d="m100.79 71.34h1.27v.18h-1.27z" transform="matrix(.383 -.924 .924 .383 -3.41 137.76)"/><path d="m113.4 65.8h.18v1.27h-.18z" transform="matrix(.38 -.92 .92 .38 8.73 145.93)"/><path d="m96.33 58.73h.18v1.27h-.18z" transform="matrix(.383 -.924 .924 .383 4.65 125.69)"/><path d="m105.47 56.83-.51-1.61-.51 1.61h.25l-.25 8.59h1.02l-.26-8.59z"/><path d="m109.17 63.5 1.61-.51-1.61-.51v.25l-6.28-.25v1.02l6.28-.26z"/></g><path d="m105 61.63a1.27 1.27 0 1 0 1.27 1.27 1.27 1.27 0 0 0 -1.27-1.27z" fill="#e56353"/><path d="m105 62.09a.81.81 0 1 0 .81.81.81.81 0 0 0 -.81-.81z" fill="#3a556a"/></svg>