<svg id="Layer_1" height="512" viewBox="0 0 150 150" width="512" xmlns="http://www.w3.org/2000/svg" data-name="Layer 1"><circle cx="75" cy="75" fill="#334d5c" r="64"/><path d="m75 34.34a27.85 27.85 0 0 0 -27.85 27.85c0 15.39 27.35 53.16 27.85 53.47s27.85-38.08 27.85-53.47a27.85 27.85 0 0 0 -27.85-27.85z" fill="#fe7058"/><path d="m75 43.24a18.51 18.51 0 1 0 18.51 18.51 18.51 18.51 0 0 0 -18.51-18.51z" fill="#ebf0f3"/><path d="m84.09 52.32h-6l-3 1.66-3.19-1.66h-6a.88.88 0 0 0 -.88.89v17.08a.87.87 0 0 0 .88.88h18.19a.87.87 0 0 0 .88-.88v-17.08a.88.88 0 0 0 -.88-.89z" fill="#f7be56"/><path d="m78.1 57.51-.75-.52-.81.52-.71-.52-.83.52-.8-.52-.81.52-.83-.52-.66.52v-5.19h6.2z" fill="#e2a442"/><g fill="#3a556a"><path d="m74.71 62.45-1.61-2.26-1.61 2.26h.91v5.54h1.4v-5.54z"/><path d="m78.51 62.45-1.61-2.26-1.61 2.26h.91v5.54h1.4v-5.54z"/></g></svg>