<svg id="Layer_1" height="512" viewBox="0 0 150 150" width="512" xmlns="http://www.w3.org/2000/svg" data-name="Layer 1"><circle cx="75" cy="75" fill="#fe7058" r="64"/><path d="m79.13 87.5v-14.69l-.36-.16v-7.56l-6.11 3.02-6.11-3.02v7.56l-.07.03v14.82z" fill="#f7be56"/><path d="m93.21 82.85a6.86 6.86 0 0 0 -4-5.61l-10.44-4.59v-1.28l-6.11 5.51-6.11-5.51v1.28l-10.39 4.59a6.85 6.85 0 0 0 -4.06 5.61l-1.05 19.15h43.21z" fill="#d5d6db"/><path d="m83.46 55.59c-.78-.63-1.48.68-1.84 1.55l-.75-10.14-3.71-1.77-4.45-.41h-.11l-4.44.41-3.71 1.77-.68 9.22c-.38-.61-.87-1.07-1.4-.65-1.12.9.3 3.76 1.05 4.78s.16 2.57 1.45 1.89l1.36 4.14a4.2 4.2 0 0 0 1.39 2l1.91 1.51a4.18 4.18 0 0 0 2.6.91h1.31a4.18 4.18 0 0 0 2.67-1l1.77-1.45a4.16 4.16 0 0 0 1.33-2l1.37-4.35c1.78 1.21 1.08-.65 1.83-1.66s2.18-3.85 1.05-4.75z" fill="#fcd462"/><path d="m81.35 59.32h.65s.54-8.15.3-10.73a2.16 2.16 0 0 0 -2.42-2.25 3.55 3.55 0 0 0 -3.57-3.55c-3.68-.36-10.39-.18-12 4.37s-.37 12.16-.37 12.16l.69-.09s.34-8.6.94-9.26 4.25-1.14 7-.9 5.59-.84 6.68.6 1.93 6.16 2 6.88.1 2.77.1 2.77z" fill="#3a556a"/><path d="m74.28 74.98-1.55 1.56h-.14l-1.56-1.57-.86.6 1.19 1.2v25.2h2.6v-25.2l1.19-1.2z" fill="#e1e6e9"/><path d="m66.55 70.25 4.49 4.73-1.92 4.93-3.91-6.67z" fill="#ebf0f3"/><path d="m78.77 70.25-4.49 4.73 1.91 4.93 3.92-6.67z" fill="#ebf0f3"/><path d="m62.74 54.53a50.84 50.84 0 0 1 20.41.11v-.64l-4.6-1.4-5.55-.6-4 .35-4.06 1z" fill="#1c75a1"/><path d="m81.73 43.07a2.62 2.62 0 0 0 -1.79-2.15l-6.4-2a2.54 2.54 0 0 0 -1.59 0l-6.29 2a2.62 2.62 0 0 0 -1.79 2.15l-1.42 10.93a29.14 29.14 0 0 1 20.71 0z" fill="#27a2db"/><path d="m83.15 54.64a28.42 28.42 0 0 0 -20.69 0 .58.58 0 0 1 -.74-.31.58.58 0 0 1 .31-.76 29.55 29.55 0 0 1 21.54 0 .58.58 0 0 1 .32.76.58.58 0 0 1 -.74.31z" fill="#2d93ba"/><path d="m104.18 78.78h-7.37l-3.72 2-3.9-2h-7.37a1.08 1.08 0 0 0 -1.09 1.08v21a1.08 1.08 0 0 0 1.09 1.14h22.36a1.09 1.09 0 0 0 1.09-1.09v-21a1.08 1.08 0 0 0 -1.09-1.13z" fill="#fcd462"/><path d="m96.81 84.93-.92-.64-1 .64-.87-.64-1.02.64-.98-.64-1 .64-1.02-.64-.81.64v-6.15h7.62z" fill="#f7be56"/><g fill="#3a556a"><path d="m85.64 96.03-.85-1.19-.85 1.19h.48v2.92h.74v-2.92z"/><path d="m87.64 96.03-.85-1.19-.85 1.19h.48v2.92h.74v-2.92z"/><path d="m94.6 96.05v-1.44h-.85l-.45.61.46.41-.63.89.28-.69-.57-.58.43-.64h-1v1.44a1.19 1.19 0 0 0 1 1.18v1.1a.58.58 0 0 1 -.59.59h-.14l-.13.13.13.13h1.76l.13-.13-.13-.13h-.13a.59.59 0 0 1 -.6-.59v-1.1a1.19 1.19 0 0 0 1.03-1.18z"/><path d="m89 100.11h-6.42v-6.43h6.42zm-6-.37h5.69v-5.69h-5.69z"/><path d="m96.62 100.11h-6.42v-6.43h6.42zm-6.05-.37h5.68v-5.69h-5.68z"/><path d="m118.43 68.29 4.19-2.29 1.89 3.39-10 5.59-5.59-10 3.34-1.98 2.4 4.3a28.3 28.3 0 0 0 -29.38-32.12l-.49-3.85a32.18 32.18 0 0 1 33.64 37z"/><path d="m31.57 81.71-4.19 2.34-1.89-3.39 10-5.59 5.59 10-3.34 1.93-2.4-4.3a28.3 28.3 0 0 0 29.38 32.13l.49 3.85a32.18 32.18 0 0 1 -33.64-37z"/></g></svg>