<svg id="Layer_1" height="512" viewBox="0 0 150 150" width="512" xmlns="http://www.w3.org/2000/svg" data-name="Layer 1"><circle cx="75" cy="75" fill="#334d5c" r="64"/><path d="m113.39 52-4.62 2.77a39.37 39.37 0 0 1 -33.77 59.58 38.89 38.89 0 0 1 -23.66-7.9h6.66v-5.39h-16v16h5.39v-6.81a44.74 44.74 0 0 0 66-58.23z" fill="#e56353"/><path d="m75 35.65a39.1 39.1 0 0 1 23.65 7.9h-6.85v5.39h16v-15.94h-5.39v6.68a44.74 44.74 0 0 0 -66.49 57.11l4.7-2.62a39.37 39.37 0 0 1 34.38-58.52z" fill="#44c4a1"/><path d="m94.74 54.19h-12.49l-6.31 3.47-6.61-3.47h-12.49a1.84 1.84 0 0 0 -1.84 1.81v35.66a1.85 1.85 0 0 0 1.85 1.84h37.9a1.84 1.84 0 0 0 1.84-1.84v-35.66a1.84 1.84 0 0 0 -1.85-1.81z" fill="#fcd462"/><path d="m82.25 64.33-1.56-1.09-1.69 1.09-1.48-1.09-1.73 1.09-1.66-1.09-1.69 1.09-1.73-1.09-1.38 1.09v-10.14h12.92z" fill="#ebf0f3"/><g fill="#3a556a"><path d="m61.08 85.77-1.09-1.53-1.09 1.53h.62v3.74h.95v-3.74z"/><path d="m63.65 85.77-1.09-1.53-1.08 1.53h.61v3.74h.95v-3.74z"/><path d="m69.1 85.9v-1.66h-1l-.53.7.53.47-.72 1 .32-.8-.63-.61.49-.73h-1.21v1.63a1.37 1.37 0 0 0 1.19 1.36v1.27a.68.68 0 0 1 -.69.68h-.15l-.15.15.15.15h2l.15-.15-.15-.15h-.16a.67.67 0 0 1 -.68-.68v-1.27a1.37 1.37 0 0 0 1.24-1.36z"/><path d="m74.28 84.56v-.22l-.11-.1-.11.1v.22a2.65 2.65 0 0 0 -2.54 2.65c0-.06.15-.1.34-.1s.34 0 .34.1.22-.15.49-.15.44 0 .48.12c.07-.13.44-.23.89-.25v2.07a.28.28 0 1 1 -.55 0v-.29l-.11-.11-.11.11v.29a.49.49 0 0 0 .49.49.5.5 0 0 0 .5-.49v-2.09c.49 0 .88.15.88.3 0-.08.22-.15.49-.15s.48.07.48.15.16-.1.35-.1.34 0 .34.1a2.65 2.65 0 0 0 -2.54-2.65z"/><path d="m71 83.56h-13v6.63h19.48v-6.63zm-6.59 6.44h-6.26v-6.26h6.26zm6.45 0h-6.27v-6.26h6.27zm6.44 0h-6.3v-6.26h6.3z"/></g><path d="m68.71 71.76h14.15v1.57h-14.15z" fill="#f7be56"/><path d="m68.71 75.31h14.15v1.57h-14.15z" fill="#f7be56"/></svg>