<svg id="Layer_1" height="512" viewBox="0 0 150 150" width="512" xmlns="http://www.w3.org/2000/svg" data-name="Layer 1"><circle cx="75" cy="75" fill="#fe7058" r="64"/><path d="m75.2 31.74a3.86 3.86 0 0 0 -3.86 3.87v77.58h7.73v-77.58a3.87 3.87 0 0 0 -3.87-3.87z" fill="#fcd462"/><g fill="#f7be56"><path d="m117.6 49.27-6.43-6.18a1.59 1.59 0 0 0 -1.09-.44h-44.25a1.58 1.58 0 0 0 -1.58 1.58v12.35a1.58 1.58 0 0 0 1.58 1.58h44.25a1.59 1.59 0 0 0 1.09-.44l6.43-6.18a1.57 1.57 0 0 0 0-2.27z"/><path d="m32.4 73.21 6.43 6.18a1.61 1.61 0 0 0 1.09.44h44.25a1.58 1.58 0 0 0 1.58-1.58v-12.35a1.58 1.58 0 0 0 -1.58-1.58h-44.25a1.61 1.61 0 0 0 -1.09.44l-6.43 6.18a1.57 1.57 0 0 0 0 2.27z"/><path d="m60.9 109.26h28.02v4.86h-28.02z"/></g><path d="m54.69 113.43h40.44v4.83h-40.44z" fill="#fcd462"/></svg>