<svg id="Layer_1" height="512" viewBox="0 0 150 150" width="512" xmlns="http://www.w3.org/2000/svg" data-name="Layer 1"><circle cx="75" cy="75" fill="#2f4859" r="64"/><path d="m99.59 43.84h-19.93l-10.06 5.53-10.53-5.53h-19.93a2.94 2.94 0 0 0 -2.94 2.94v56.82a2.94 2.94 0 0 0 2.94 2.94h60.45a2.94 2.94 0 0 0 2.94-2.94v-56.82a2.94 2.94 0 0 0 -2.94-2.94z" fill="#fcd462"/><path d="m79.66 58.97-2.48-1.73-2.7 1.73-2.35-1.73-2.77 1.73-2.64-1.73-2.7 1.73-2.75-1.73-2.2 1.73v-15.13h20.59z" fill="#f7be56"/><g fill="#3a556a"><path d="m48.09 89.79-3.3-4.62-3.3 4.62h1.86v11.33h2.87v-11.33z"/><path d="m55.87 89.79-3.3-4.62-3.3 4.62h1.86v11.33h2.87v-11.33z"/><path d="m68 90.21v-5h-3l-1.5 2.09 1.6 1.43-2.2 3.1 1-2.41-2-2 1.48-2.23h-3.64v5a4.16 4.16 0 0 0 3.6 4.12v3.82a2.08 2.08 0 0 1 -2.08 2.08h-.48a.45.45 0 1 0 0 .89h6.22a.45.45 0 1 0 0-.89h-.48a2.08 2.08 0 0 1 -2.08-2.08v-3.8a4.16 4.16 0 0 0 3.56-4.12z"/></g><path d="m84.11 46.6-2.36 2.4-.48 11.38 18.31 18.28 14.22-14.22-18.31-18.31zm2.65 5a1.52 1.52 0 1 1 0-2.15 1.51 1.51 0 0 1 0 2.16z" fill="#27a2db"/><path d="m89.8 51.31h15.16v21.86h-15.16z" fill="#ebf0f3" transform="matrix(.707 -.707 .707 .707 -15.48 87.09)"/><path d="m85.68 50.91a.38.38 0 0 1 -.26-.11l-6.71-6.7a.39.39 0 0 1 0-.53.37.37 0 0 1 .53 0l6.76 6.7a.39.39 0 0 1 0 .53.4.4 0 0 1 -.32.11z" fill="#ebf0f3"/><path d="m95.55 56.7a3 3 0 0 1 1.61-.88 1.75 1.75 0 0 1 1.59.56 2 2 0 0 1 .61 1.53 3.34 3.34 0 0 1 -2.7 2.69 2 2 0 0 1 -1.53-.6 1.9 1.9 0 0 1 -.57-1.5 2.86 2.86 0 0 1 .99-1.8zm2.64.28a.89.89 0 0 0 -.79-.25 2.42 2.42 0 0 0 -1.2.79 2.2 2.2 0 0 0 -.72 1.14.89.89 0 0 0 .25.79.91.91 0 0 0 .8.25 2.39 2.39 0 0 0 1.2-.78 2.25 2.25 0 0 0 .72-1.15.9.9 0 0 0 -.26-.77zm-6.64 6.65 11-3.47.68.68-11 3.49zm4.83 1.11a2.93 2.93 0 0 1 1.62-.89 1.78 1.78 0 0 1 1.59.57 2 2 0 0 1 .61 1.58 3.37 3.37 0 0 1 -2.7 2.69 2 2 0 0 1 -1.5-.64 1.86 1.86 0 0 1 -.57-1.51 2.86 2.86 0 0 1 .95-1.8zm2.62.26a.89.89 0 0 0 -.8-.25 2.39 2.39 0 0 0 -1.2.78 2.2 2.2 0 0 0 -.72 1.14.91.91 0 0 0 .25.79.9.9 0 0 0 .8.26 2.39 2.39 0 0 0 1.2-.78 2.22 2.22 0 0 0 .73-1.15.93.93 0 0 0 -.26-.79z" fill="#3a556a"/></svg>