<svg id="Layer_1" height="512" viewBox="0 0 150 150" width="512" xmlns="http://www.w3.org/2000/svg" data-name="Layer 1"><path d="m139 75a64 64 0 1 1 -64-64 64 64 0 0 1 64 64" fill="#334d5c"/><path d="m112.58 48.07h-75.94a3 3 0 0 0 -3 3v38.93a3 3 0 0 0 3 3h75.94a3 3 0 0 0 3-3v-39a3 3 0 0 0 -3-3" fill="#44c4a1"/><path d="m106.18 51.53h-63.18a5 5 0 0 1 -5 5v28a5 5 0 0 1 5 5h63.15a5 5 0 0 1 5-5v-28a5 5 0 0 1 -5-5" fill="#ebf0f3"/><path d="m46.09 85.5a9 9 0 0 0 -4.09-4.06v-21.85a9.06 9.06 0 0 0 4.06-4.06h57a9.16 9.16 0 0 0 4.06 4.06v21.85a9.06 9.06 0 0 0 -4.06 4.06h-57" fill="#44c4a1"/><path d="m74.61 58.89a11.62 11.62 0 1 0 11.62 11.62 11.62 11.62 0 0 0 -11.62-11.62z" fill="#ebf0f3"/><path d="m96.4 65.84a4.68 4.68 0 1 0 4.68 4.67 4.68 4.68 0 0 0 -4.68-4.67z" fill="#ebf0f3"/><path d="m52.82 65.84a4.68 4.68 0 1 0 4.67 4.67 4.67 4.67 0 0 0 -4.67-4.67z" fill="#ebf0f3"/><path d="m115.43 73.82h-23a.89.89 0 0 0 -.89.89v3.84a.89.89 0 0 0 .89.89h23a.89.89 0 0 0 .89-.89v-3.84a.89.89 0 0 0 -.89-.89" fill="#fcd462"/><g fill="#f7be56"><path d="m116.32 74.71v3.83a.89.89 0 0 1 -.89.9h-23a.87.87 0 0 1 -.77-.46.86.86 0 0 0 .36.08h23a.89.89 0 0 0 .89-.89v-3.84a.83.83 0 0 0 -.12-.44.91.91 0 0 1 .53.82"/><path d="m92.75 74.38a.41.41 0 0 0 -.41.41v3.68a.41.41 0 0 0 .82 0v-3.68a.41.41 0 0 0 -.41-.41"/><path d="m94.35 74.38a.41.41 0 0 0 -.41.41v3.68a.41.41 0 0 0 .41.41.42.42 0 0 0 .41-.41v-3.68a.41.41 0 0 0 -.41-.41"/><path d="m96 74.38a.41.41 0 0 0 -.42.41v3.68a.42.42 0 0 0 .83 0v-3.68a.41.41 0 0 0 -.41-.41"/><path d="m97.54 74.38a.41.41 0 0 0 -.41.41v3.68a.42.42 0 0 0 .41.41.41.41 0 0 0 .41-.41v-3.68a.41.41 0 0 0 -.41-.41"/><path d="m99.14 74.38a.41.41 0 0 0 -.41.41v3.68a.41.41 0 0 0 .82 0v-3.68a.41.41 0 0 0 -.41-.41z"/><path d="m100.74 74.38a.41.41 0 0 0 -.41.41v3.68a.41.41 0 0 0 .41.41.42.42 0 0 0 .41-.41v-3.68a.41.41 0 0 0 -.41-.41z"/><path d="m102.34 74.38a.41.41 0 0 0 -.41.41v3.68a.41.41 0 0 0 .41.41.42.42 0 0 0 .41-.41v-3.68a.41.41 0 0 0 -.41-.41z"/><path d="m103.93 74.38a.41.41 0 0 0 -.41.41v3.68a.42.42 0 0 0 .41.41.41.41 0 0 0 .41-.41v-3.68a.41.41 0 0 0 -.41-.41z"/><path d="m105.53 74.38a.41.41 0 0 0 -.41.41v3.68a.41.41 0 0 0 .82 0v-3.68a.41.41 0 0 0 -.41-.41z"/><path d="m107.13 74.38a.41.41 0 0 0 -.41.41v3.68a.41.41 0 1 0 .82 0v-3.68a.41.41 0 0 0 -.41-.41z"/><path d="m108.73 74.38a.41.41 0 0 0 -.41.41v3.68a.41.41 0 0 0 .41.41.42.42 0 0 0 .41-.41v-3.68a.41.41 0 0 0 -.41-.41z"/><path d="m110.33 74.38a.41.41 0 0 0 -.42.41v3.68a.42.42 0 0 0 .83 0v-3.68a.41.41 0 0 0 -.41-.41z"/><path d="m111.92 74.38a.41.41 0 0 0 -.41.41v3.68a.42.42 0 0 0 .41.41.41.41 0 0 0 .41-.41v-3.68a.41.41 0 0 0 -.41-.41z"/><path d="m113.52 74.38a.41.41 0 0 0 -.41.41v3.68a.41.41 0 1 0 .82 0v-3.68a.41.41 0 0 0 -.41-.41z"/><path d="m115.12 74.38a.41.41 0 0 0 -.41.41v3.68a.41.41 0 0 0 .41.41.42.42 0 0 0 .41-.41v-3.68a.41.41 0 0 0 -.41-.41z"/></g><path d="m115.43 79.44h-23a.89.89 0 0 0 -.89.89v3.84a.89.89 0 0 0 .89.89h23a.89.89 0 0 0 .89-.89v-3.84a.89.89 0 0 0 -.89-.89" fill="#fcd462"/><path d="m116.32 80.33v3.84a.89.89 0 0 1 -.89.89h-23a.88.88 0 0 1 -.77-.45.86.86 0 0 0 .36.08h23a.89.89 0 0 0 .89-.9v-3.79a.83.83 0 0 0 -.12-.44.88.88 0 0 1 .53.81" fill="#f7be56"/><path d="m92.75 80a.41.41 0 0 0 -.41.41v3.68a.41.41 0 0 0 .82 0v-3.68a.41.41 0 0 0 -.41-.41" fill="#f7be56"/><path d="m94.35 80a.41.41 0 0 0 -.41.41v3.68a.41.41 0 0 0 .41.41.41.41 0 0 0 .41-.41v-3.68a.41.41 0 0 0 -.41-.41" fill="#f7be56"/><path d="m96 80a.41.41 0 0 0 -.42.41v3.68a.42.42 0 0 0 .83 0v-3.68a.41.41 0 0 0 -.41-.41" fill="#f7be56"/><path d="m97.54 80a.41.41 0 0 0 -.41.41v3.68a.41.41 0 0 0 .41.41.41.41 0 0 0 .41-.41v-3.68a.41.41 0 0 0 -.41-.41" fill="#f7be56"/><path d="m99.14 80a.41.41 0 0 0 -.41.41v3.68a.41.41 0 0 0 .82 0v-3.68a.41.41 0 0 0 -.41-.41" fill="#f7be56"/><path d="m100.74 80a.41.41 0 0 0 -.41.41v3.68a.41.41 0 0 0 .41.41.41.41 0 0 0 .41-.41v-3.68a.41.41 0 0 0 -.41-.41" fill="#f7be56"/><path d="m102.34 80a.41.41 0 0 0 -.41.41v3.68a.41.41 0 0 0 .41.41.41.41 0 0 0 .41-.41v-3.68a.41.41 0 0 0 -.41-.41" fill="#f7be56"/><path d="m103.93 80a.41.41 0 0 0 -.41.41v3.68a.41.41 0 0 0 .41.41.41.41 0 0 0 .41-.41v-3.68a.41.41 0 0 0 -.41-.41z" fill="#f7be56"/><path d="m105.53 80a.41.41 0 0 0 -.41.41v3.68a.41.41 0 0 0 .82 0v-3.68a.41.41 0 0 0 -.41-.41z" fill="#f7be56"/><path d="m107.13 80a.41.41 0 0 0 -.41.41v3.68a.41.41 0 1 0 .82 0v-3.68a.41.41 0 0 0 -.41-.41z" fill="#f7be56"/><path d="m108.73 80a.41.41 0 0 0 -.41.41v3.68a.41.41 0 0 0 .41.41.41.41 0 0 0 .41-.41v-3.68a.41.41 0 0 0 -.41-.41z" fill="#f7be56"/><path d="m110.33 80a.41.41 0 0 0 -.42.41v3.68a.42.42 0 0 0 .83 0v-3.68a.41.41 0 0 0 -.41-.41z" fill="#f7be56"/><path d="m111.92 80a.41.41 0 0 0 -.41.41v3.68a.41.41 0 0 0 .41.41.41.41 0 0 0 .41-.41v-3.68a.41.41 0 0 0 -.41-.41z" fill="#f7be56"/><path d="m113.52 80a.41.41 0 0 0 -.41.41v3.68a.41.41 0 1 0 .82 0v-3.68a.41.41 0 0 0 -.41-.41z" fill="#f7be56"/><path d="m115.12 80a.41.41 0 0 0 -.41.41v3.68a.41.41 0 0 0 .41.41.41.41 0 0 0 .41-.41v-3.68a.41.41 0 0 0 -.41-.41z" fill="#f7be56"/><path d="m115.43 85.06h-23a.89.89 0 0 0 -.89.89v3.84a.89.89 0 0 0 .89.9h23a.89.89 0 0 0 .89-.9v-3.79a.89.89 0 0 0 -.89-.89" fill="#fcd462"/><path d="m116.32 86v3.84a.89.89 0 0 1 -.89.9h-23a.89.89 0 0 1 -.77-.46.86.86 0 0 0 .36.08h23a.89.89 0 0 0 .89-.89v-3.89a.83.83 0 0 0 -.12-.44.89.89 0 0 1 .53.81" fill="#f7be56"/><path d="m92.75 85.62a.41.41 0 0 0 -.41.41v3.68a.41.41 0 1 0 .82 0v-3.71a.41.41 0 0 0 -.41-.41" fill="#f7be56"/><path d="m94.35 85.62a.41.41 0 0 0 -.41.41v3.68a.41.41 0 0 0 .41.42.42.42 0 0 0 .41-.42v-3.71a.42.42 0 0 0 -.41-.41" fill="#f7be56"/><path d="m96 85.62a.42.42 0 0 0 -.42.41v3.68a.42.42 0 1 0 .83 0v-3.71a.42.42 0 0 0 -.41-.41" fill="#f7be56"/><path d="m97.54 85.62a.42.42 0 0 0 -.41.41v3.68a.42.42 0 0 0 .41.42.41.41 0 0 0 .41-.42v-3.71a.41.41 0 0 0 -.41-.41" fill="#f7be56"/><path d="m99.14 85.62a.41.41 0 0 0 -.41.41v3.68a.41.41 0 1 0 .82 0v-3.71a.41.41 0 0 0 -.41-.41" fill="#f7be56"/><path d="m100.74 85.62a.41.41 0 0 0 -.41.41v3.68a.41.41 0 0 0 .41.42.42.42 0 0 0 .41-.42v-3.71a.42.42 0 0 0 -.41-.41" fill="#f7be56"/><path d="m102.34 85.62a.41.41 0 0 0 -.41.41v3.68a.41.41 0 0 0 .41.42.42.42 0 0 0 .41-.42v-3.71a.42.42 0 0 0 -.41-.41" fill="#f7be56"/><path d="m103.93 85.62a.42.42 0 0 0 -.41.41v3.68a.42.42 0 0 0 .41.42.41.41 0 0 0 .41-.42v-3.71a.41.41 0 0 0 -.41-.38z" fill="#f7be56"/><path d="m105.53 85.62a.41.41 0 0 0 -.41.41v3.68a.41.41 0 1 0 .82 0v-3.71a.41.41 0 0 0 -.41-.38z" fill="#f7be56"/><path d="m107.13 85.62a.41.41 0 0 0 -.41.41v3.68a.41.41 0 1 0 .82 0v-3.71a.41.41 0 0 0 -.41-.38z" fill="#f7be56"/><path d="m108.73 85.62a.41.41 0 0 0 -.41.41v3.68a.41.41 0 0 0 .41.42.42.42 0 0 0 .41-.42v-3.71a.42.42 0 0 0 -.41-.38z" fill="#f7be56"/><path d="m110.33 85.62a.42.42 0 0 0 -.42.41v3.68a.42.42 0 1 0 .83 0v-3.71a.42.42 0 0 0 -.41-.38z" fill="#f7be56"/><path d="m111.92 85.62a.42.42 0 0 0 -.41.41v3.68a.42.42 0 0 0 .41.42.41.41 0 0 0 .41-.42v-3.71a.41.41 0 0 0 -.41-.38z" fill="#f7be56"/><path d="m113.52 85.62a.41.41 0 0 0 -.41.41v3.68a.41.41 0 1 0 .82 0v-3.71a.41.41 0 0 0 -.41-.38z" fill="#f7be56"/><path d="m115.12 85.62a.41.41 0 0 0 -.41.41v3.68a.41.41 0 0 0 .41.42.42.42 0 0 0 .41-.42v-3.71a.42.42 0 0 0 -.41-.38z" fill="#f7be56"/><path d="m115.43 90.69h-23a.89.89 0 0 0 -.89.89v3.84a.89.89 0 0 0 .89.89h23a.89.89 0 0 0 .89-.89v-3.84a.89.89 0 0 0 -.89-.89" fill="#fcd462"/><path d="m116.32 91.58v3.84a.89.89 0 0 1 -.89.89h-23a.87.87 0 0 1 -.77-.46.73.73 0 0 0 .36.08h23a.89.89 0 0 0 .89-.89v-3.84a.83.83 0 0 0 -.12-.44.91.91 0 0 1 .53.82" fill="#f7be56"/><path d="m92.75 91.25a.41.41 0 0 0 -.41.41v3.68a.41.41 0 0 0 .82 0v-3.68a.41.41 0 0 0 -.41-.41" fill="#f7be56"/><path d="m94.35 91.25a.41.41 0 0 0 -.41.41v3.68a.41.41 0 0 0 .41.41.42.42 0 0 0 .41-.41v-3.68a.41.41 0 0 0 -.41-.41" fill="#f7be56"/><path d="m96 91.25a.41.41 0 0 0 -.42.41v3.68a.42.42 0 0 0 .83 0v-3.68a.41.41 0 0 0 -.41-.41" fill="#f7be56"/><path d="m97.54 91.25a.41.41 0 0 0 -.41.41v3.68a.42.42 0 0 0 .41.41.41.41 0 0 0 .41-.41v-3.68a.41.41 0 0 0 -.41-.41" fill="#f7be56"/><path d="m99.14 91.25a.41.41 0 0 0 -.41.41v3.68a.41.41 0 0 0 .82 0v-3.68a.41.41 0 0 0 -.41-.41" fill="#f7be56"/><path d="m100.74 91.25a.41.41 0 0 0 -.41.41v3.68a.41.41 0 0 0 .41.41.42.42 0 0 0 .41-.41v-3.68a.41.41 0 0 0 -.41-.41" fill="#f7be56"/><path d="m102.34 91.25a.41.41 0 0 0 -.41.41v3.68a.41.41 0 0 0 .41.41.42.42 0 0 0 .41-.41v-3.68a.41.41 0 0 0 -.41-.41" fill="#f7be56"/><path d="m103.93 91.25a.41.41 0 0 0 -.41.41v3.68a.42.42 0 0 0 .41.41.41.41 0 0 0 .41-.41v-3.68a.41.41 0 0 0 -.41-.41z" fill="#f7be56"/><path d="m105.53 91.25a.41.41 0 0 0 -.41.41v3.68a.41.41 0 0 0 .82 0v-3.68a.41.41 0 0 0 -.41-.41z" fill="#f7be56"/><path d="m107.13 91.25a.41.41 0 0 0 -.41.41v3.68a.41.41 0 1 0 .82 0v-3.68a.41.41 0 0 0 -.41-.41z" fill="#f7be56"/><path d="m108.73 91.25a.41.41 0 0 0 -.41.41v3.68a.41.41 0 0 0 .41.41.42.42 0 0 0 .41-.41v-3.68a.41.41 0 0 0 -.41-.41z" fill="#f7be56"/><path d="m110.33 91.25a.41.41 0 0 0 -.42.41v3.68a.42.42 0 0 0 .83 0v-3.68a.41.41 0 0 0 -.41-.41z" fill="#f7be56"/><path d="m111.92 91.25a.41.41 0 0 0 -.41.41v3.68a.42.42 0 0 0 .41.41.41.41 0 0 0 .41-.41v-3.68a.41.41 0 0 0 -.41-.41z" fill="#f7be56"/><path d="m113.52 91.25a.41.41 0 0 0 -.41.41v3.68a.41.41 0 1 0 .82 0v-3.68a.41.41 0 0 0 -.41-.41z" fill="#f7be56"/><path d="m115.12 91.25a.41.41 0 0 0 -.41.41v3.68a.41.41 0 0 0 .41.41.42.42 0 0 0 .41-.41v-3.68a.41.41 0 0 0 -.41-.41z" fill="#f7be56"/><path d="m115.43 96.31h-23a.89.89 0 0 0 -.89.89v3.8a.89.89 0 0 0 .89.89h23a.89.89 0 0 0 .89-.89v-3.8a.89.89 0 0 0 -.89-.89" fill="#fcd462"/><path d="m116.32 97.2v3.8a.89.89 0 0 1 -.89.89h-23a.88.88 0 0 1 -.77-.45.86.86 0 0 0 .36.08h23a.89.89 0 0 0 .89-.9v-3.79a.83.83 0 0 0 -.12-.44.89.89 0 0 1 .53.81" fill="#f7be56"/><path d="m92.75 96.87a.41.41 0 0 0 -.41.41v3.72a.41.41 0 0 0 .82 0v-3.72a.41.41 0 0 0 -.41-.41" fill="#f7be56"/><path d="m94.35 96.87a.41.41 0 0 0 -.41.41v3.72a.41.41 0 0 0 .41.41.41.41 0 0 0 .41-.41v-3.72a.41.41 0 0 0 -.41-.41" fill="#f7be56"/><path d="m96 96.87a.41.41 0 0 0 -.42.41v3.72a.42.42 0 0 0 .83 0v-3.72a.41.41 0 0 0 -.41-.41" fill="#f7be56"/><path d="m97.54 96.87a.41.41 0 0 0 -.41.41v3.72a.41.41 0 0 0 .41.41.41.41 0 0 0 .46-.41v-3.72a.41.41 0 0 0 -.41-.41" fill="#f7be56"/><path d="m99.14 96.87a.41.41 0 0 0 -.41.41v3.72a.41.41 0 0 0 .82 0v-3.72a.41.41 0 0 0 -.41-.41" fill="#f7be56"/><path d="m100.74 96.87a.41.41 0 0 0 -.41.41v3.72a.41.41 0 0 0 .41.41.41.41 0 0 0 .41-.41v-3.72a.41.41 0 0 0 -.41-.41" fill="#f7be56"/><path d="m102.34 96.87a.41.41 0 0 0 -.41.41v3.72a.41.41 0 0 0 .41.41.41.41 0 0 0 .41-.41v-3.72a.41.41 0 0 0 -.41-.41" fill="#f7be56"/><path d="m103.93 96.87a.41.41 0 0 0 -.41.41v3.72a.41.41 0 0 0 .41.41.41.41 0 0 0 .41-.41v-3.72a.41.41 0 0 0 -.41-.41z" fill="#f7be56"/><path d="m105.53 96.87a.41.41 0 0 0 -.41.41v3.72a.41.41 0 0 0 .82 0v-3.72a.41.41 0 0 0 -.41-.41z" fill="#f7be56"/><path d="m107.13 96.87a.41.41 0 0 0 -.41.41v3.72a.41.41 0 0 0 .82 0v-3.72a.41.41 0 0 0 -.41-.41z" fill="#f7be56"/><path d="m108.73 96.87a.41.41 0 0 0 -.41.41v3.72a.41.41 0 0 0 .41.41.41.41 0 0 0 .41-.41v-3.72a.41.41 0 0 0 -.41-.41z" fill="#f7be56"/><path d="m110.33 96.87a.41.41 0 0 0 -.42.41v3.72a.42.42 0 0 0 .83 0v-3.72a.41.41 0 0 0 -.41-.41z" fill="#f7be56"/><path d="m111.92 96.87a.41.41 0 0 0 -.41.41v3.72a.41.41 0 0 0 .41.41.41.41 0 0 0 .41-.41v-3.72a.41.41 0 0 0 -.41-.41z" fill="#f7be56"/><path d="m113.52 96.87a.41.41 0 0 0 -.41.41v3.72a.41.41 0 0 0 .82 0v-3.72a.41.41 0 0 0 -.41-.41z" fill="#f7be56"/><path d="m115.12 96.87a.41.41 0 0 0 -.41.41v3.72a.41.41 0 0 0 .41.41.41.41 0 0 0 .41-.41v-3.72a.41.41 0 0 0 -.41-.41z" fill="#f7be56"/><path d="m91.55 93h-11.24a11.52 11.52 0 0 0 11.24 9h.7a.89.89 0 0 1 -.7-.87v-3.93a.89.89 0 0 1 .89-.89h-.13a.89.89 0 0 1 -.76-.88z" fill="#3a5463"/><path d="m91.55 89.5h-11.49v.9a11.35 11.35 0 0 0 .25 2.6h11.24v-1.42a.89.89 0 0 1 .89-.89.89.89 0 0 1 -.89-.9z" fill="#49b99e"/><path d="m91.67 85.5h-10.56a11.43 11.43 0 0 0 -1 4h11.44v-3.5a.87.87 0 0 1 .12-.45" fill="#d7dee3"/><path d="m91.55 78.88a11.55 11.55 0 0 0 -10.44 6.62h10.56a.9.9 0 0 1 .77-.44.89.89 0 0 1 -.89-.89v-3.84a.89.89 0 0 1 .89-.89.9.9 0 0 1 -.83-.56z" fill="#49b99e"/><path d="m91.61 78.88a.9.9 0 0 0 .83.56.87.87 0 0 1 -.77-.46.86.86 0 0 0 .36.08h1.59a12 12 0 0 0 -2-.18" fill="#e5c668"/><path d="m91.67 79a.87.87 0 0 0 .77.46h2.67a12 12 0 0 0 -1.49-.38h-1.62a.86.86 0 0 1 -.36-.08" fill="#e1b45e"/><path d="m92.75 84.5a.41.41 0 0 1 -.41-.41v-3.68a.41.41 0 0 1 .82 0v3.68a.41.41 0 0 1 -.41.41m1.6 0a.41.41 0 0 1 -.41-.41v-3.68a.41.41 0 0 1 .41-.41.41.41 0 0 1 .41.41v3.68a.41.41 0 0 1 -.41.41m1.6 0a.41.41 0 0 1 -.42-.41v-3.68a.42.42 0 0 1 .83 0v3.68a.41.41 0 0 1 -.41.41m-.84-5.06h-2.67a.89.89 0 0 0 -.89.89v3.84a.89.89 0 0 0 .89.89.88.88 0 0 1 -.77-.45.86.86 0 0 0 .36.08h9.53c-.13-.23-.27-.45-.41-.67v.07a.41.41 0 0 1 -.41.41.41.41 0 0 1 -.41-.41v-1.15c-.25-.29-.51-.57-.78-.83v2a.41.41 0 0 1 -.82 0v-2.7q-.37-.3-.78-.57v3.27a.41.41 0 0 1 -.41.41.41.41 0 0 1 -.41-.41v-3.7s0-.06 0-.09a11.85 11.85 0 0 0 -2-.88" fill="#e5c668"/><path d="m91.67 84.61a.88.88 0 0 0 .77.45h9.32l-.2-.37h-9.56a.86.86 0 0 1 -.36-.08" fill="#e1b45e"/><path d="m92.75 80a.41.41 0 0 0 -.41.41v3.68a.41.41 0 0 0 .82 0v-3.68a.41.41 0 0 0 -.41-.41" fill="#e1b45e"/><path d="m94.35 80a.41.41 0 0 0 -.41.41v3.68a.41.41 0 0 0 .41.41.41.41 0 0 0 .41-.41v-3.68a.41.41 0 0 0 -.41-.41" fill="#e1b45e"/><path d="m96 80a.41.41 0 0 0 -.42.41v3.68a.42.42 0 0 0 .83 0v-3.68a.41.41 0 0 0 -.41-.41" fill="#e1b45e"/><path d="m97.14 80.32s0 .06 0 .09v3.68a.41.41 0 0 0 .41.41.41.41 0 0 0 .41-.41v-3.27c-.26-.18-.53-.34-.81-.5" fill="#e1b45e"/><path d="m98.73 81.39v2.7a.41.41 0 0 0 .82 0v-2c-.26-.25-.53-.49-.82-.72" fill="#e1b45e"/><path d="m100.33 82.94v1.15a.41.41 0 0 0 .41.41.41.41 0 0 0 .41-.41v-.09a11 11 0 0 0 -.82-1.08" fill="#e1b45e"/><path d="m92.75 90.13a.41.41 0 0 1 -.41-.42v-3.71a.41.41 0 0 1 .82 0v3.68a.41.41 0 0 1 -.41.42m1.6 0a.41.41 0 0 1 -.41-.42v-3.68a.41.41 0 0 1 .41-.41.42.42 0 0 1 .41.41v3.68a.42.42 0 0 1 -.41.42m1.6 0a.42.42 0 0 1 -.42-.42v-3.68a.42.42 0 0 1 .83 0v3.68a.42.42 0 0 1 -.41.42m1.59 0a.42.42 0 0 1 -.41-.42v-3.68a.42.42 0 0 1 .41-.41.41.41 0 0 1 .46.41v3.68a.41.41 0 0 1 -.41.42m1.6 0a.41.41 0 0 1 -.41-.42v-3.68a.41.41 0 0 1 .82 0v3.68a.41.41 0 0 1 -.41.42m1.6 0a.41.41 0 0 1 -.41-.42v-3.68a.41.41 0 0 1 .41-.41.42.42 0 0 1 .41.41v3.68a.42.42 0 0 1 -.41.42m1-5.07h-9.35a.9.9 0 0 0 -.77.44.87.87 0 0 0 -.12.45v3.84a.89.89 0 0 0 .89.9.89.89 0 0 1 -.77-.46.86.86 0 0 0 .36.08h11a11.58 11.58 0 0 0 -.32-2.65v2a.42.42 0 0 1 -.41.42.41.41 0 0 1 -.41-.42v-3.63a.42.42 0 0 1 .15-.32c-.1-.22-.2-.44-.31-.65" fill="#e5c668"/><path d="m91.67 90.23a.89.89 0 0 0 .77.46h10.63c0-.1 0-.19 0-.29v-.09h-11.07a.86.86 0 0 1 -.36-.08" fill="#e1b45e"/><path d="m92.75 85.62a.41.41 0 0 0 -.41.41v3.68a.41.41 0 1 0 .82 0v-3.71a.41.41 0 0 0 -.41-.41" fill="#e1b45e"/><path d="m94.35 85.62a.41.41 0 0 0 -.41.41v3.68a.41.41 0 0 0 .41.42.42.42 0 0 0 .41-.42v-3.71a.42.42 0 0 0 -.41-.41" fill="#e1b45e"/><path d="m96 85.62a.42.42 0 0 0 -.42.41v3.68a.42.42 0 1 0 .83 0v-3.71a.42.42 0 0 0 -.41-.41" fill="#e1b45e"/><path d="m97.54 85.62a.42.42 0 0 0 -.41.41v3.68a.42.42 0 0 0 .41.42.41.41 0 0 0 .41-.42v-3.71a.41.41 0 0 0 -.41-.41" fill="#e1b45e"/><path d="m99.14 85.62a.41.41 0 0 0 -.41.41v3.68a.41.41 0 1 0 .82 0v-3.71a.41.41 0 0 0 -.41-.41" fill="#e1b45e"/><path d="m100.74 85.62a.41.41 0 0 0 -.41.41v3.68a.41.41 0 0 0 .41.42.42.42 0 0 0 .41-.42v-3.71a.42.42 0 0 0 -.41-.41" fill="#e1b45e"/><path d="m102.08 85.71a.42.42 0 0 0 -.15.32v3.68a.41.41 0 0 0 .41.42.42.42 0 0 0 .41-.42v-2a12.13 12.13 0 0 0 -.67-2" fill="#e1b45e"/><path d="m92.85 95.76a.41.41 0 0 1 -.41-.41v-3.69a.41.41 0 0 1 .82 0v3.68a.41.41 0 0 1 -.41.41m1.6 0a.41.41 0 0 1 -.41-.41v-3.68a.41.41 0 0 1 .41-.41.41.41 0 0 1 .41.41v3.68a.42.42 0 0 1 -.41.41m1.6 0a.42.42 0 0 1 -.42-.41v-3.68a.42.42 0 0 1 .83 0v3.68a.42.42 0 0 1 -.41.41m1.59 0a.42.42 0 0 1 -.41-.41v-3.68a.41.41 0 0 1 .41-.41.41.41 0 0 1 .41.41v3.68a.41.41 0 0 1 -.41.41m1.6 0a.41.41 0 0 1 -.41-.41v-3.68a.41.41 0 0 1 .82 0v3.68a.41.41 0 0 1 -.41.41m1.6 0a.41.41 0 0 1 -.41-.41v-3.68a.41.41 0 0 1 .41-.41.41.41 0 0 1 .41.41v3.68a.42.42 0 0 1 -.41.41m2.33-5.06h-10.73a.89.89 0 0 0 -.89.89v3.84a.89.89 0 0 0 .76.88.88.88 0 0 1 -.64-.45.73.73 0 0 0 .36.08h9.64c.09-.17.18-.34.26-.52v-3.75a.41.41 0 0 1 .41-.41.41.41 0 0 1 .41.41v1.49a11.84 11.84 0 0 0 .32-2.46" fill="#e5c668"/><path d="m91.67 95.85a.88.88 0 0 0 .64.45h9.14l.22-.38h-9.67a.73.73 0 0 1 -.36-.08" fill="#e1b45e"/><path d="m92.75 91.25a.41.41 0 0 0 -.41.41v3.68a.41.41 0 0 0 .82 0v-3.68a.41.41 0 0 0 -.41-.41" fill="#e1b45e"/><path d="m94.35 91.25a.41.41 0 0 0 -.41.41v3.68a.41.41 0 0 0 .41.41.42.42 0 0 0 .41-.41v-3.68a.41.41 0 0 0 -.41-.41" fill="#e1b45e"/><path d="m96 91.25a.41.41 0 0 0 -.42.41v3.68a.42.42 0 0 0 .83 0v-3.68a.41.41 0 0 0 -.41-.41" fill="#e1b45e"/><path d="m97.54 91.25a.41.41 0 0 0 -.41.41v3.68a.42.42 0 0 0 .41.41.41.41 0 0 0 .41-.41v-3.68a.41.41 0 0 0 -.41-.41" fill="#e1b45e"/><path d="m99.14 91.25a.41.41 0 0 0 -.41.41v3.68a.41.41 0 0 0 .82 0v-3.68a.41.41 0 0 0 -.41-.41" fill="#e1b45e"/><path d="m100.74 91.25a.41.41 0 0 0 -.41.41v3.68a.41.41 0 0 0 .41.41.42.42 0 0 0 .41-.41v-3.68a.41.41 0 0 0 -.41-.41" fill="#e1b45e"/><path d="m102.34 91.25a.41.41 0 0 0 -.41.41v3.75a11.48 11.48 0 0 0 .82-2.26v-1.49a.41.41 0 0 0 -.41-.41" fill="#e1b45e"/><path d="m92.75 101.37a.41.41 0 0 1 -.41-.41v-3.68a.41.41 0 0 1 .82 0v3.72a.41.41 0 0 1 -.41.41m1.6 0a.41.41 0 0 1 -.41-.41v-3.72a.41.41 0 0 1 .41-.41.41.41 0 0 1 .41.41v3.72a.41.41 0 0 1 -.41.41m7.1-5.06h-9a.89.89 0 0 0 -.89.89v3.76a.89.89 0 0 0 .7.87.85.85 0 0 1 -.58-.43.86.86 0 0 0 .36.08h2.45a11.4 11.4 0 0 0 1.13-.36.41.41 0 0 1 -.08-.24v-3.64a.42.42 0 0 1 .83 0v3.61c.26-.13.52-.26.77-.4v-3.21a.41.41 0 0 1 .41-.41.41.41 0 0 1 .41.41v2.72q.4-.27.78-.57v-2.15a.41.41 0 0 1 .82 0v1.42c.27-.26.53-.54.78-.83v-.59a.41.41 0 0 1 .41-.41.41.41 0 0 1 .25.13c.15-.22.29-.44.43-.67" fill="#e5c668"/><path d="m91.67 101.48a.85.85 0 0 0 .58.43 11 11 0 0 0 2.23-.35h-2.48a.86.86 0 0 1 -.36-.08" fill="#e1b45e"/><path d="m92.75 96.87a.41.41 0 0 0 -.41.41v3.72a.41.41 0 0 0 .82 0v-3.72a.41.41 0 0 0 -.41-.41" fill="#e1b45e"/><path d="m94.35 96.87a.41.41 0 0 0 -.41.41v3.72a.41.41 0 0 0 .41.41.41.41 0 0 0 .41-.41v-3.72a.41.41 0 0 0 -.41-.41" fill="#e1b45e"/><path d="m96 96.87a.41.41 0 0 0 -.42.41v3.72a.41.41 0 0 0 .08.24l.75-.31v-3.65a.41.41 0 0 0 -.41-.41" fill="#e1b45e"/><path d="m97.54 96.87a.41.41 0 0 0 -.41.41v3.21a8.54 8.54 0 0 0 .87-.49v-2.72a.41.41 0 0 0 -.41-.41" fill="#e1b45e"/><path d="m99.14 96.87a.41.41 0 0 0 -.41.41v2.14c.29-.23.56-.47.82-.72v-1.42a.41.41 0 0 0 -.41-.41" fill="#e1b45e"/><path d="m100.74 96.87a.41.41 0 0 0 -.41.41v.59c.24-.28.47-.58.69-.89a.41.41 0 0 0 -.28-.11" fill="#e1b45e"/><path d="m90.12 78.88a11.53 11.53 0 1 0 11.52 11.52 11.53 11.53 0 0 0 -11.52-11.52z" fill="#fcd462"/><path d="m90.12 81.84a8.57 8.57 0 1 0 8.56 8.56 8.56 8.56 0 0 0 -8.56-8.56z" fill="#f7be56"/><path d="m93.59 91.14a2.94 2.94 0 0 0 -1.26-1 9.9 9.9 0 0 0 -1.61-.5v-3.1a2.22 2.22 0 0 1 1.07.43 2 2 0 0 1 .68 1.39l1.23-.09a2.92 2.92 0 0 0 -.48-1.54 2.71 2.71 0 0 0 -1.27-1 4.72 4.72 0 0 0 -1.23-.3v-1.8h-1.2v1.79a4.71 4.71 0 0 0 -1.27.29 2.59 2.59 0 0 0 -1.22 1 2.48 2.48 0 0 0 -.42 1.38 2.25 2.25 0 0 0 .39 1.18 2.65 2.65 0 0 0 1 .9 7.3 7.3 0 0 0 1.53.52v3.52a3.59 3.59 0 0 1 -.68-.21 2.15 2.15 0 0 1 -1-.76 2.7 2.7 0 0 1 -.41-1.2l-1.21.11a3.22 3.22 0 0 0 .53 1.75 3.17 3.17 0 0 0 1.41 1.16 5.08 5.08 0 0 0 1.34.31v1.82h1.2v-1.78a4.34 4.34 0 0 0 1.55-.35 2.89 2.89 0 0 0 1.29-1.06 2.64 2.64 0 0 0 .45-1.47 2.42 2.42 0 0 0 -.41-1.39zm-4.07-1.78a3.56 3.56 0 0 1 -1.29-.53 1.12 1.12 0 0 1 -.38-.86 1.29 1.29 0 0 1 .54-1 2.13 2.13 0 0 1 1.13-.39zm3 4.11a1.94 1.94 0 0 1 -.84.6 3.75 3.75 0 0 1 -.92.19v-3.26a8.07 8.07 0 0 1 .89.27 1.92 1.92 0 0 1 .88.57 1.32 1.32 0 0 1 .26.8 1.45 1.45 0 0 1 -.31.83z" fill="#fcd462"/><path d="m90.12 79.44a.17.17 0 0 0 -.17.16v1.58a.18.18 0 0 0 .17.17.17.17 0 0 0 .16-.17v-1.58a.16.16 0 0 0 -.16-.16z" fill="#f7be56"/><path d="m90.12 99.46a.18.18 0 0 0 -.17.17v1.58a.17.17 0 0 0 .17.16.16.16 0 0 0 .16-.16v-1.58a.17.17 0 0 0 -.16-.17z" fill="#f7be56"/><path d="m101.08 90.4a.16.16 0 0 0 -.16-.16h-1.58a.17.17 0 0 0 -.17.16.17.17 0 0 0 .17.17h1.58a.16.16 0 0 0 .16-.17z" fill="#f7be56"/><path d="m81.06 90.4a.17.17 0 0 0 -.17-.16h-1.58a.16.16 0 0 0 -.16.16.16.16 0 0 0 .16.17h1.58a.17.17 0 0 0 .17-.17z" fill="#f7be56"/><path d="m97.87 82.65h-.23l-1.12 1.12v.23h.23l1.12-1.12z" fill="#f7be56"/><path d="m83.71 96.81h-.23l-1.12 1.12v.23h.23l1.12-1.12z" fill="#f7be56"/><path d="m97.87 98.16v-.23l-1.12-1.12h-.23v.23l1.12 1.12z" fill="#f7be56"/><path d="m83.71 84v-.23l-1.12-1.12h-.23v.23l1.12 1.12z" fill="#f7be56"/><path d="m85.92 80.27-.09.22.61 1.46.21.09.09-.22-.6-1.46z" fill="#f7be56"/><path d="m93.58 98.77-.09.22.61 1.46.21.09.09-.22-.6-1.46z" fill="#f7be56"/><path d="m100.25 86.21-.22-.09-1.46.6-.09.22.22.09 1.46-.61z" fill="#f7be56"/><path d="m81.75 93.87-.22-.09-1.46.61-.09.21.22.09 1.46-.6z" fill="#f7be56"/><path d="m94.31 80.27-.21.09-.61 1.46.09.22.22-.09.6-1.46z" fill="#f7be56"/><path d="m86.65 98.77-.21.09-.61 1.46.09.22.22-.09.6-1.46z" fill="#f7be56"/><path d="m100.25 94.6-.09-.21-1.46-.61-.22.09.09.22 1.46.6z" fill="#f7be56"/><path d="m81.75 86.94-.09-.22-1.46-.6-.22.09.09.21 1.46.61z" fill="#f7be56"/><path d="m78.08 71.25a3 3 0 0 0 -1.25-1 10.7 10.7 0 0 0 -1.62-.49v-3.1a2.17 2.17 0 0 1 1.07.42 2 2 0 0 1 .68 1.4l1.24-.09a3.08 3.08 0 0 0 -.48-1.54 2.81 2.81 0 0 0 -1.28-1 4.62 4.62 0 0 0 -1.23-.29v-1.84h-1.21v1.8a4.36 4.36 0 0 0 -1.27.29 2.59 2.59 0 0 0 -1.22 1 2.48 2.48 0 0 0 -.42 1.38 2.27 2.27 0 0 0 .34 1.21 2.67 2.67 0 0 0 1 .91 7.94 7.94 0 0 0 1.57.49v3.51a3 3 0 0 1 -.68-.2 2.28 2.28 0 0 1 -1-.76 2.58 2.58 0 0 1 -.4-1.2l-1.22.1a3.4 3.4 0 0 0 .56 1.75 3.17 3.17 0 0 0 1.41 1.16 5.08 5.08 0 0 0 1.34.31v1.83h1.2v-1.78a4.29 4.29 0 0 0 1.55-.35 2.9 2.9 0 0 0 1.24-1.07 2.64 2.64 0 0 0 .45-1.47 2.41 2.41 0 0 0 -.37-1.38zm-4.08-1.78a3.74 3.74 0 0 1 -1.29-.53 1.14 1.14 0 0 1 -.38-.87 1.29 1.29 0 0 1 .54-1 2.21 2.21 0 0 1 1.13-.4zm3 4.1a1.87 1.87 0 0 1 -.84.61 3.66 3.66 0 0 1 -.92.18v-3.26c.42.11.73.2.89.26a2 2 0 0 1 .88.58 1.24 1.24 0 0 1 .26.8 1.4 1.4 0 0 1 -.27.83z" fill="#44c4a1"/></svg>