<svg id="Layer_1" height="512" viewBox="0 0 150 150" width="512" xmlns="http://www.w3.org/2000/svg" data-name="Layer 1"><circle cx="75" cy="75" fill="#fe7058" r="64"/><path d="m97 59.79-10.61 1.92-4.81 3.91-6.12-1.92-10.58 1.92a1.59 1.59 0 0 0 -1.28 1.84l5.48 30.16a1.58 1.58 0 0 0 1.85 1.27l32.07-5.83a1.57 1.57 0 0 0 1.27-1.84l-5.46-30.15a1.6 1.6 0 0 0 -1.81-1.28z" fill="#fcd462"/><path d="m87.99 70.54-1.49-.68-1.26 1.18-1.41-.7-1.3 1.19-1.58-.67-1.26 1.19-1.63-.66-1 1.13-1.6-8.82 10.93-1.99z" fill="#ebf0f3"/><g fill="#3a556a"><path d="m73.33 92.03-1.5-1.46-.9 1.9.68-.12.75 4.12 1.04-.19-.75-4.12z"/><path d="m76.16 91.52-1.5-1.46-.9 1.9.68-.13.75 4.12 1.04-.18-.75-4.13z"/><path d="m80.29 90.92-.29-1.83-1.08.2-.43.88.68.41-.6 1.28.2-1-.86-.6.39-.91-1.32.24.33 1.83a1.53 1.53 0 0 0 1.58 1.26l.26 1.4a.78.78 0 0 1 -.62.89h-.18l-.13.19.19.14 2.23-.3.13-.2-.19-.13h-.18a.76.76 0 0 1 -.89-.62l-.25-1.39a1.53 1.53 0 0 0 1.03-1.74z"/><path d="m84 88.73v-.23l-.14-.1-.1.14v.23a3 3 0 0 0 -2.27 3.43c0-.06.15-.14.36-.18s.39 0 .4 0 .21-.2.5-.25a.8.8 0 0 1 .55 0c0-.16.43-.35.93-.45l.24 1.37.06.36.11.56a.32.32 0 0 1 -.25.36.32.32 0 0 1 -.39-.17v-.32l-.14-.1-.1.14.06.32a.55.55 0 0 0 1.08-.2l-.17-.91-.25-1.36c.55-.09 1 0 1 .14 0-.09.22-.2.51-.25s.55 0 .57.06c0-.06.14-.14.35-.18s.39 0 .4 0a3 3 0 0 0 -3.31-2.41z"/></g><path d="m109.21 94.33a2 2 0 0 0 -2.3-1.65l-16.35 2.63-24.94-16.81-6-31.88a2 2 0 0 0 -1.18-1.47l-14.88-6.37a2 2 0 1 0 -1.56 3.68l13.89 5.95 10 53a2 2 0 0 0 2 1.63h.32l39.4-6.33a2 2 0 0 0 1.6-2.38zm-50.79-49.18-14.86-6.37m23.1 45.22 18.12 12.24-15.34 2.47z" fill="#27a2db"/><path d="m68.41 91.89a9.75 9.75 0 1 0 9.75 9.74 9.75 9.75 0 0 0 -9.75-9.74z" fill="#3a556a"/><circle cx="68.41" cy="101.63" fill="#e1e6e9" r="4.81"/><path d="m57.18 44.62-13.62-5.84a2 2 0 1 0 -1.56 3.68l13.31 5.7a34.79 34.79 0 0 1 1.87-3.54z" fill="#3a556a"/><path d="m56.88 44.49-13.32-5.71" fill="#3a556a"/></svg>