<svg id="Layer_1" height="512" viewBox="0 0 150 150" width="512" xmlns="http://www.w3.org/2000/svg" data-name="Layer 1"><circle cx="75" cy="75" fill="#2f4859" r="64"/><path d="m68.32 35.72a24.26 24.26 0 0 0 -24.26 24.28v54h48.51v-54a24.26 24.26 0 0 0 -24.25-24.28z" fill="#dc8744"/><path d="m68.32 38.77a21.23 21.23 0 0 0 -21.21 21.23v51h42.42v-51a21.23 21.23 0 0 0 -21.21-21.23z" fill="#c67239"/><g fill="#dc8744"><path d="m86.42 58.55h-36.21a18.16 18.16 0 0 1 36.21 0z"/><path d="m50.15 61.49h36.32v14.44h-36.32z"/><path d="m50.15 78.86h36.32v13.54h-36.32z"/><path d="m50.15 95.34h36.32v12.6h-36.32z"/></g><circle cx="53.69" cy="85.63" fill="#3a556a" r="1.92"/><path d="m104.75 89h-8l-4 2.23-4.33-2.23h-8a1.18 1.18 0 0 0 -1.18 1.19v22.89a1.18 1.18 0 0 0 1.18 1.19h24.36a1.19 1.19 0 0 0 1.19-1.19v-22.88a1.19 1.19 0 0 0 -1.22-1.2z" fill="#fcd462"/><path d="m96.72 95.71-1-.7-1.09.7-.94-.7-1.12.7-1.07-.7-1.08.7-1.11-.7-.89.7v-6.7h8.3z" fill="#ebf0f3"/><path d="m83.44 108.34-1.2-1.69-1.21 1.69h.68v4.14h1.05v-4.14z" fill="#3a556a"/><path d="m86.28 108.34-1.2-1.69-1.21 1.69h.69v4.14h1.04v-4.14z" fill="#3a556a"/><path d="m90.4 108.49v-1.84h-1.08l-.58.78.59.52-.81 1.13.36-.88-.72-.73.54-.82h-1.33v1.84a1.52 1.52 0 0 0 1.31 1.51v1.39a.76.76 0 0 1 -.76.76h-.17a.18.18 0 0 0 -.17.17l.17.16h2.25l.16-.16a.17.17 0 0 0 -.16-.17h-.18a.76.76 0 0 1 -.75-.76v-1.39a1.52 1.52 0 0 0 1.33-1.51z" fill="#3a556a"/></svg>