<svg id="Layer_1" height="512" viewBox="0 0 150 150" width="512" xmlns="http://www.w3.org/2000/svg" data-name="Layer 1"><circle cx="75" cy="75" fill="#21b3a9" r="64"/><path d="m106.73 90.28-21.5-9.5v-12.66l-10.23 5.05-10.23-5v12.61l-21.49 9.5a3.83 3.83 0 0 0 -2.28 3.14l-2.19 22.37h72.37l-2.18-22.37a3.87 3.87 0 0 0 -2.27-3.14z" fill="#f7be56"/><path d="m111.19 115.8h-72.38l2.19-22.38a3.91 3.91 0 0 1 2.28-3.15l20.27-9 1.22-.54 10.5 2.92 10-2.92 1.85.81 19.64 8.67a3.89 3.89 0 0 1 2.24 3.21z" fill="#e1e6e9"/><g fill="#fcd462"><path d="m87.1 42.8-5.44-2.6-6.52-.6h-.14l-6.52.6-5.48 2.6-1.22 16.7 3.85 11.73a6.18 6.18 0 0 0 2 2.9l2.81 2.23a6.16 6.16 0 0 0 3.82 1.33h1.92a6.13 6.13 0 0 0 3.91-1.41l2.59-2.13a6.12 6.12 0 0 0 2-2.92l3.66-11.73z"/><path d="m87.83 58.63s1.43-4.58 3.08-3.26-.44 5.52-1.54 7-.08 4.22-2.69 2.44"/><path d="m63.05 58.63s-1.43-4.58-3.05-3.26.44 5.52 1.54 7 .07 4.22 2.69 2.44"/></g><path d="m87.81 58.63h.89s.8-12 .44-15.73-3.54-3.32-3.54-3.32.17-4.67-5.24-5.2-15.25-.26-17.65 6.41-.53 17.84-.53 17.84l1.24-.46s.27-12.29 1.16-13.26 5.94 1.7 10 2.05 8.42-4.59 10.04-2.48 2.84 9 2.93 10.09.26 4.06.26 4.06z" fill="#3a556a"/><path d="m77.17 83.68h-3.77l-1.89 3.26 1.89 3.27h3.77l1.88-3.27z" fill="#e56353"/><path d="m87.09 81.59v.02l-7.75 9.06-4.07-6.95-4.05 6.95-7.75-9.06.08-.29 1.22-4.57 10.5 6.95 9.97-6.95z" fill="#ebf0f3"/><path d="m79.76 115.79h-9l2.59-26.29h3.82z" fill="#e56353"/></svg>