<svg id="Layer_1" height="512" viewBox="0 0 150 150" width="512" xmlns="http://www.w3.org/2000/svg" data-name="Layer 1"><circle cx="75" cy="75" fill="#709584" r="64"/><path d="m94 41.44h-18.47l-9.3 5.11-9.74-5.11h-18.42a2.72 2.72 0 0 0 -2.72 2.72v52.52a2.72 2.72 0 0 0 2.72 2.72h55.93a2.72 2.72 0 0 0 2.72-2.72v-52.52a2.72 2.72 0 0 0 -2.72-2.72z" fill="#fcd462"/><path d="m75.53 58.39-2.3-1.61-2.49 1.61-2.18-1.61-2.55 1.61-2.45-1.61-2.5 1.61-2.54-1.61-2.03 1.61v-16.95h19.04z" fill="#ebf0f3"/><path d="m44.39 86.73-2.24-3.14-2.24 3.14h1.27v7.67h1.94v-7.67z" fill="#3a556a"/><path d="m49.66 86.73-2.24-3.14-2.23 3.14h1.26v7.67h1.94v-7.67z" fill="#3a556a"/><path d="m57.17 87v-3.41h-2l-1.08 1.41 1.09 1-1.49 2.11.67-1.64-1.36-1.36 1-1.52h-2.46v3.41a2.82 2.82 0 0 0 2.46 2.8v2.59a1.41 1.41 0 0 1 -1.4 1.41h-.33a.3.3 0 0 0 0 .6h4.22a.3.3 0 0 0 0-.6h-.33a1.41 1.41 0 0 1 -1.41-1.41v-2.59a2.82 2.82 0 0 0 2.42-2.8z" fill="#3a556a"/><path d="m64.24 84.25v-.44a.22.22 0 0 0 -.44 0v.44a5.44 5.44 0 0 0 -5.22 5.43c0-.11.32-.2.71-.2s.7.09.7.2c0-.16.45-.29 1-.29a1.42 1.42 0 0 1 1 .24c.15-.27.89-.48 1.82-.51v4.28a.57.57 0 0 1 -.57.57.58.58 0 0 1 -.57-.57v-.6a.22.22 0 0 0 -.22-.22.21.21 0 0 0 -.21.22v.6a1 1 0 0 0 2 0v-4.32c1 0 1.82.29 1.82.6 0-.16.44-.29 1-.29s1 .13 1 .29c0-.11.32-.2.71-.2s.7.09.7.2a5.44 5.44 0 0 0 -5.23-5.43z" fill="#3a556a"/><path d="m95.09 69.44a19.56 19.56 0 1 0 19.56 19.56 19.56 19.56 0 0 0 -19.56-19.56z" fill="#fe7058"/><path d="m95.09 73.13a15.87 15.87 0 1 0 15.91 15.87 15.87 15.87 0 0 0 -15.91-15.87z" fill="#ebf0f3"/><g fill="#3a556a"><path d="m94.76 73.97h.66v1.32h-.66z"/><path d="m94.76 102.7h.66v1.32h-.66z"/><path d="m108.79 88.67h1.32v.66h-1.32z"/><path d="m80.06 88.67h1.32v.66h-1.32z"/><path d="m104.59 78.51h1.32v.66h-1.32z" transform="matrix(.707 -.707 .707 .707 -24.91 97.58)"/><path d="m84.27 98.83h1.32v.66h-1.32z" transform="matrix(.707 -.707 .707 .707 -45.25 89.16)"/><path d="m104.92 98.5h.66v1.32h-.66z" transform="matrix(.707 -.707 .707 .707 -39.29 103.46)"/><path d="m84.6 78.18h.66v1.32h-.66z" transform="matrix(.707 -.707 .707 .707 -30.87 83.15)"/><path d="m96 92.68h-1.83l.48-13.84h.88z"/><path d="m91.94 89.91v-1.83l14 .48v.88z"/></g><path d="m95.09 87.05a2 2 0 1 0 2 2 2 2 0 0 0 -2-2z" fill="#d5d6db"/><path d="m95.09 87.93a1.07 1.07 0 1 0 1.07 1.07 1.07 1.07 0 0 0 -1.07-1.07z" fill="#3a556a"/></svg>