<svg id="Layer_1" height="512" viewBox="0 0 150 150" width="512" xmlns="http://www.w3.org/2000/svg" data-name="Layer 1"><circle cx="75" cy="75" fill="#fe7058" r="64"/><path d="m31.8 49.4h50.19v43.05h-50.19z" fill="#44c4a1"/><path d="m31.8 84.89h52.47v9.81h-52.47z" fill="#fcd462"/><path d="m31.8 90.18h52.47v4.52h-52.47z" fill="#64798a"/><path d="m96.34 88.8a5.9 5.9 0 1 0 5.9 5.9 5.91 5.91 0 0 0 -5.9-5.9z" fill="#3a556a"/><path d="m119.15 81.46v10.66a2.59 2.59 0 0 1 -2.59 2.58h-34.56v-33.92h16.83a3.94 3.94 0 0 1 3.49 2.13l6.5 11.93 8.87 4.3a2.58 2.58 0 0 1 1.46 2.32z" fill="#fcd462"/><path d="m104.24 74.69-5.17-10.04h-13.94v10.04z" fill="#f7be56"/><path d="m85.65 74.17v-9h13.1l4.63 9z" fill="#27a2db"/><path d="m104.17 87.05h-19.04v-12.36h.52v11.83h18v-11.83h.52z" fill="#f7be56"/><path d="m103.58 94.7h-14.47a7.24 7.24 0 1 1 14.47 0z" fill="#2f4859"/><path d="m96.34 88.8a5.9 5.9 0 1 0 5.9 5.9 5.91 5.91 0 0 0 -5.9-5.9z" fill="#3a556a"/><circle cx="96.34" cy="94.7" fill="#ebf0f3" r="3.24"/><path d="m59 94.7h-14.5a7.24 7.24 0 1 1 14.5 0z" fill="#2f4859"/><path d="m51.74 88.8a5.9 5.9 0 1 0 5.9 5.9 5.9 5.9 0 0 0 -5.9-5.9z" fill="#3a556a"/><circle cx="51.74" cy="94.7" fill="#ebf0f3" r="3.24"/><path d="m118.72 89.12h-2.94a.69.69 0 0 0 -.69.69v4.19a.69.69 0 0 0 .69.69h2.94a1.61 1.61 0 0 0 1.62-1.62v-2.32a1.62 1.62 0 0 0 -1.62-1.63z" fill="#3a556a"/><path d="m36.1 90.18h-5.19a1.25 1.25 0 0 0 -1.25 1.26v2a1.25 1.25 0 0 0 1.25 1.25h5.19a.62.62 0 0 0 .62-.62v-3.26a.63.63 0 0 0 -.62-.63z" fill="#3a556a"/><path d="m69.21 67.31-8.8-6.53v3.7h-15.84v5.66h15.84v3.7z" fill="#ebf0f3"/></svg>