<svg id="Layer_1" height="512" viewBox="0 0 150 150" width="512" xmlns="http://www.w3.org/2000/svg" data-name="Layer 1"><path d="m139 75a64 64 0 1 1 -64-64 64 64 0 0 1 64 64" fill="#fe7058"/><path d="m101 43.56h-20l-10.07 5.54-10.56-5.54h-20a3 3 0 0 0 -3 2.95v57a3 3 0 0 0 3 3h60.63a3 3 0 0 0 2.95-3v-57a3 3 0 0 0 -2.95-2.95" fill="#fcd462"/><path d="m81.02 60.24-2.49-1.74-2.7 1.74-2.36-1.74-2.78 1.74-2.65-1.74-2.71 1.74-2.76-1.74-2.2 1.74v-16.68h20.65z" fill="#ebf0f3"/><g fill="#3a556a"><path d="m48.44 92.44-3-4.2-3 4.2h1.69v10.29h2.61v-10.29z"/><path d="m55.51 92.44-3-4.2-3 4.2h1.7v10.29h2.6v-10.29z"/><path d="m65.76 92.81v-4.57h-2.7l-1.44 1.93 1.46 1.3-2 2.82.92-2.19-1.81-1.84 1.35-2h-3.34v4.57a3.79 3.79 0 0 0 3.28 3.75v3.42a1.89 1.89 0 0 1 -1.89 1.89h-.44a.4.4 0 0 0 -.4.41.41.41 0 0 0 .4.41h5.66a.41.41 0 0 0 .4-.41.4.4 0 0 0 -.4-.41h-.44a1.89 1.89 0 0 1 -1.89-1.89v-3.44a3.79 3.79 0 0 0 3.28-3.75z"/></g><path d="m78.47 70.82h-15.19v-2.23h15.19z" fill="#f7be56"/><path d="m85.14 75.35h-28.53v-2.23h28.53z" fill="#f7be56"/><path d="m82.07 79.89h-22.38v-2.24h22.38z" fill="#f7be56"/><path d="m100.82 90.14-2.43 2.42-6.86-6.86 2.43-2.42z" fill="#e1e6e9"/><path d="m74.54 70.82h-2.32a12.48 12.48 0 0 0 -.64 2.3h2.6a2.54 2.54 0 0 1 -.12-.78 2.64 2.64 0 0 1 .48-1.52m8.87-7.67a12 12 0 0 0 -8.48 3.52 11.71 11.71 0 0 0 -1.56 1.92h5.1v1.79a2.65 2.65 0 0 1 .86 2 2.88 2.88 0 0 1 -.11.78h5.93v2.23h-2.48a1.43 1.43 0 0 1 -2.63 0h-8.63a11.83 11.83 0 0 0 .26 2.3h10.4v2.24h-9.69a11.78 11.78 0 0 0 2.55 3.75 12 12 0 1 0 8.48-20.49" fill="#f8db86"/><path d="m78.47 68.59h-5.1a11.78 11.78 0 0 0 -1.15 2.23h2.32a2.64 2.64 0 0 1 3.93-.44z" fill="#f4cb7d"/><path d="m85.15 73.12h-5.93a2.64 2.64 0 0 1 -5 0h-2.6a12.89 12.89 0 0 0 -.17 2.23h8.55a1.47 1.47 0 0 1 -.11-.56 1.43 1.43 0 0 1 2.86 0 1.31 1.31 0 0 1 -.12.56h2.48v-2.23" fill="#f4cb7d"/><path d="m82.07 77.65h-10.4a12.13 12.13 0 0 0 .71 2.24h9.69z" fill="#f4cb7d"/><path d="m73.44 65.18a14.1 14.1 0 1 0 19.94 0 14.11 14.11 0 0 0 -19.94 0m18.46 18.46a12 12 0 1 1 0-17 12 12 0 0 1 0 17" fill="#3a556a"/><path d="m100.29 84.18h5.57v21.28h-5.57z" fill="#2f4859" transform="matrix(.707 -.707 .707 .707 -36.86 100.66)"/><path d="m78.47 70.38v.44h-3.93a2.64 2.64 0 0 0 -.48 1.52 2.54 2.54 0 0 0 .12.78h5a2.88 2.88 0 0 0 .11-.78 2.65 2.65 0 0 0 -.86-2" fill="#fae4a4"/><path d="m76.7 69.7a2.64 2.64 0 0 0 -2.16 1.12h3.93v-.44a2.65 2.65 0 0 0 -1.77-.68" fill="#f7d89e"/><path d="m79.22 73.12h-5a2.64 2.64 0 0 0 5 0" fill="#f7d89e"/><path d="m82.67 75.35h-2.67a1.43 1.43 0 0 0 2.63 0" fill="#fae4a4"/><path d="m81.36 73.36a1.43 1.43 0 0 0 -1.43 1.43 1.47 1.47 0 0 0 .11.56h2.63a1.31 1.31 0 0 0 .12-.56 1.43 1.43 0 0 0 -1.43-1.43" fill="#f7d89e"/></svg>