<svg id="Layer_1" height="512" viewBox="0 0 150 150" width="512" xmlns="http://www.w3.org/2000/svg" data-name="Layer 1"><circle cx="75" cy="75" fill="#334d5c" r="64"/><path d="m97 45.52h-25.86l1 23.39h24.86a2.21 2.21 0 0 0 2.22-2.21v-19a2.22 2.22 0 0 0 -2.22-2.18z" fill="#d15241"/><path d="m80.77 62-11-1.11v6.28l11-1.72a1.73 1.73 0 1 0 0-3.45z" fill="#b74337"/><path d="m83.41 65.47h-11.94a1.72 1.72 0 0 0 0 3.44h11.94a1.72 1.72 0 0 0 0-3.44z" fill="#d15241"/><path d="m79.67 38.63h-27v23.37h28.08a1.86 1.86 0 0 1 1.75 1.73v-22.27a2.83 2.83 0 0 0 -2.83-2.83z" fill="#e56353"/><path d="m52.66 34a1.89 1.89 0 0 0 -1.89 1.89v78.18a1.89 1.89 0 0 0 3.78 0v-78.16a1.89 1.89 0 0 0 -1.89-1.91z" fill="#fcd462"/></svg>