<svg id="Layer_1" height="512" viewBox="0 0 150 150" width="512" xmlns="http://www.w3.org/2000/svg" data-name="Layer 1"><circle cx="75" cy="75" fill="#d5d6db" r="64"/><path d="m75 115.23a125.56 125.56 0 0 1 -21.16-1.58c-8.53-1.54-9.52-3.47-9.52-4.79s1-3.26 9.52-4.8a125.56 125.56 0 0 1 21.16-1.58 125.56 125.56 0 0 1 21.16 1.58c8.53 1.54 9.52 3.48 9.52 4.8s-1 3.25-9.52 4.79a125.56 125.56 0 0 1 -21.16 1.58zm0-10.7a125.14 125.14 0 0 0 -20.45 1.47c-6.46 1.13-8.13 2.46-8.21 2.84.08.37 1.75 1.71 8.21 2.84a125.25 125.25 0 0 0 20.45 1.5 125.25 125.25 0 0 0 20.45-1.48c6.46-1.13 8.13-2.47 8.21-2.85-.08-.37-1.75-1.7-8.21-2.83a125.14 125.14 0 0 0 -20.45-1.49z" fill="#1c75a1"/><path d="m75 94a125.56 125.56 0 0 1 -21.16-1.58c-8.53-1.54-9.52-3.47-9.52-4.79s1-3.25 9.52-4.79a125.46 125.46 0 0 1 21.16-1.62 125.46 125.46 0 0 1 21.16 1.59c8.53 1.54 9.52 3.47 9.52 4.79s-1 3.25-9.52 4.79a125.56 125.56 0 0 1 -21.16 1.61zm0-10.7a125.14 125.14 0 0 0 -20.45 1.49c-6.46 1.13-8.13 2.47-8.21 2.85.08.36 1.75 1.7 8.21 2.83a125.25 125.25 0 0 0 20.45 1.45 125.25 125.25 0 0 0 20.45-1.48c6.46-1.13 8.13-2.47 8.21-2.85-.08-.36-1.75-1.7-8.21-2.83a125.14 125.14 0 0 0 -20.45-1.49z" fill="#1c75a1"/><path d="m75 67.75a125.56 125.56 0 0 1 -21.16-1.58c-8.53-1.54-9.52-3.47-9.52-4.79s1-3.25 9.52-4.79a125.46 125.46 0 0 1 21.16-1.59 125.46 125.46 0 0 1 21.16 1.59c8.53 1.54 9.52 3.47 9.52 4.79s-1 3.25-9.52 4.79a125.56 125.56 0 0 1 -21.16 1.58zm0-10.7a125.14 125.14 0 0 0 -20.45 1.49c-6.46 1.13-8.13 2.47-8.21 2.85.08.36 1.75 1.7 8.21 2.83a125.14 125.14 0 0 0 20.45 1.49 125.14 125.14 0 0 0 20.45-1.49c6.46-1.13 8.13-2.47 8.21-2.85-.08-.36-1.75-1.7-8.21-2.83a125.14 125.14 0 0 0 -20.45-1.49z" fill="#1c75a1"/><path d="m103.66 41.43c-4.72-5.56-23.58-5-28.66-4.74-5.08-.26-23.94-.82-28.66 4.74v67.34s-1.15 5.07 27.38 5.62h2.54c28.53-.55 27.38-5.62 27.38-5.62z" fill="#2d93ba"/><path d="m103.66 41.2c0 .52-.43 1-1.24 1.49-3.58 2.09-14.5 3.62-27.42 3.62s-23.84-1.53-27.42-3.62c-.81-.47-1.24-1-1.24-1.49 0-2.82 12.83-5.1 28.66-5.1s28.66 2.28 28.66 5.1z" fill="#27a2db"/><g fill="#1c75a1"><path d="m103.65 61.34c-.08.38-1.75 1.72-8.21 2.85a125.14 125.14 0 0 1 -20.44 1.52 125.14 125.14 0 0 1 -20.45-1.49c-6.46-1.13-8.13-2.47-8.21-2.83h-2c0 1.32 1 3.25 9.52 4.79a125.56 125.56 0 0 0 21.14 1.57 125.56 125.56 0 0 0 21.16-1.58c8.53-1.54 9.52-3.47 9.52-4.79z"/><path d="m103.65 87.56c-.08.38-1.75 1.72-8.21 2.85a125.25 125.25 0 0 1 -20.44 1.51 125.25 125.25 0 0 1 -20.45-1.48c-6.46-1.13-8.13-2.47-8.21-2.83h-2c0 1.32 1 3.25 9.52 4.79a125.56 125.56 0 0 0 21.14 1.6 125.56 125.56 0 0 0 21.16-1.58c8.53-1.54 9.52-3.47 9.52-4.79z"/><path d="m103.65 108.82c-.08.38-1.75 1.72-8.21 2.85a125.25 125.25 0 0 1 -20.44 1.51 125.25 125.25 0 0 1 -20.45-1.48c-6.46-1.13-8.13-2.47-8.21-2.84h-2c0 1.32 1 3.25 9.52 4.79a125.56 125.56 0 0 0 21.14 1.58 125.56 125.56 0 0 0 21.16-1.58c8.53-1.54 9.52-3.47 9.52-4.79z"/><path d="m75 46.93a123.09 123.09 0 0 1 -20.44-1.51c-8.24-1.47-9.2-3.31-9.2-4.57s1-3.1 9.2-4.57a122 122 0 0 1 20.44-1.51 122 122 0 0 1 20.44 1.51c8.24 1.47 9.2 3.31 9.2 4.57s-1 3.1-9.2 4.57a123.09 123.09 0 0 1 -20.44 1.51zm0-10.21a123 123 0 0 0 -19.75 1.42c-6.25 1.08-7.86 2.35-7.93 2.72s1.68 1.62 7.93 2.7a123 123 0 0 0 19.75 1.44 123 123 0 0 0 19.75-1.42c6.25-1.08 7.86-2.36 7.93-2.72s-1.68-1.62-7.93-2.7a123 123 0 0 0 -19.75-1.44z"/><path d="m94.58 41.2c0 .52-1 .93-2.18.93s-2.17-.41-2.17-.93 1-.92 2.17-.92 2.18.41 2.18.92z"/></g><circle cx="75" cy="79.5" fill="#ebf0f3" r="8.66"/><path d="m75 73.11c0 .15-4 7.2-4 9.19a4 4 0 0 0 7.94 0c.06-1.99-3.94-9.19-3.94-9.19z" fill="#27a2db"/></svg>