<svg id="Layer_1" height="512" viewBox="0 0 150 150" width="512" xmlns="http://www.w3.org/2000/svg" data-name="Layer 1"><circle cx="75" cy="75" fill="#21b3a9" r="64"/><path d="m108.56 44.05h-12.76l-6.44 3.53-6.73-3.53h-12.76a1.88 1.88 0 0 0 -1.87 1.88v36.36a1.88 1.88 0 0 0 1.88 1.88h38.69a1.89 1.89 0 0 0 1.88-1.88v-36.36a1.88 1.88 0 0 0 -1.89-1.88z" fill="#fcd462"/><path d="m95.8 54.69-1.59-1.11-1.72 1.11-1.51-1.11-1.77 1.11-1.69-1.11-1.73 1.11-1.76-1.11-1.4 1.11v-10.64h13.17z" fill="#ebf0f3"/><path d="m94.07 65.77v-5.89h-3.47l-1.84 2.49 1.87 1.63-2.58 3.62 1.16-2.81-2.32-2.36 1.73-2.61h-4.26v5.89a4.86 4.86 0 0 0 4.21 4.81v4.47a2.43 2.43 0 0 1 -2.43 2.43h-.56a.52.52 0 1 0 0 1h7.27a.52.52 0 0 0 0-1h-.56a2.43 2.43 0 0 1 -2.43-2.43v-4.43a4.86 4.86 0 0 0 4.21-4.81z" fill="#3a556a"/><g fill="#f7be56"><path d="m70.57 76.95h5.28v.78h-5.28z"/><path d="m70.57 78.52h9.92v.78h-9.92z"/><path d="m70.57 80.1h7.78v.78h-7.78z"/></g><path d="m54.38 103.29 14.62-2.4 14.39 5.11 27.18-6.48a1.4 1.4 0 0 0 .55-2.21 5.21 5.21 0 0 0 -5.39-1.63l-20.46 2.3-11.5-4.05 8.63 1.59 5.13 1a3.24 3.24 0 0 0 3.72-4.14l-9.43-3-11-2.77-20.82 3.61z" fill="#fcd462"/><path d="m41.33 86.54h19.32v17h-19.32z" fill="#ebf0f3"/><path d="m38.55 85.38h19.32v19.32h-19.32z" fill="#3a556a"/></svg>