<svg id="Layer_1" height="512" viewBox="0 0 150 150" width="512" xmlns="http://www.w3.org/2000/svg" data-name="Layer 1"><circle cx="75" cy="75" fill="#fcd462" r="64"/><path d="m69.21 26.55h2v17.32h-2z" fill="#2f4859"/><path d="m78.78 26.55h2v17.32h-2z" fill="#2f4859"/><path d="m73.19 43.04h3.62v16.08h-3.62z" fill="#2f4859"/><path d="m82.07 111.18c-3.78 1.73-2.06 7.51-5.49 7.92-3.81.45-4.94-1.48-4.94-3.86s3.26-4.21 4.49-5.75a3.61 3.61 0 0 0 .7-3.16l.07-4h-3.55l.13 4.74c-.71 1.93-2.13 1-5.42 4.58s-1.22 10.77 5.36 11.67 9-4.83 8.9-7.74c-.07-1.63.3-2.25.64-2.47a1 1 0 0 0 .52-.87v-.18a1 1 0 0 0 -1.41-.88z" fill="#3a556a"/><path d="m75.85 84.22v-.22l-.85.11-.85-.11v.22l-12.37 1.66v4.32a1.89 1.89 0 0 0 .87 1.6l7 4.57v6.24a1.22 1.22 0 0 0 1.22 1.22h8.22a1.22 1.22 0 0 0 1.22-1.22v-6.24l7-4.57a1.89 1.89 0 0 0 .87-1.6v-4.32z" fill="#2f4859"/><path d="m85.48 57.62a1.63 1.63 0 0 0 -1.57-1.18h-17.82a1.63 1.63 0 0 0 -1.57 1.18l-2.76 9.5h26.48z" fill="#3a556a"/><rect fill="#27a2db" height="25.38" rx="2.38" width="35.65" x="57.17" y="64.25"/><path d="m60.54 68.67h28.92v16.52h-28.92z" fill="#ebf0f3"/><path d="m63.89 71.8h22.22v10.27h-22.22z" fill="#3a556a"/><g fill="#ebf0f3"><path d="m69.81 76.86c0 1.76-.65 2.72-1.79 2.72s-1.69-.94-1.71-2.65.75-2.68 1.8-2.68 1.7.97 1.7 2.61zm-2.8.08c0 1.34.41 2.1 1 2.1s1.06-.83 1.06-2.15-.33-2.1-1.05-2.1-1.02.75-1.02 2.15z"/><path d="m73.89 76.86c0 1.76-.65 2.72-1.79 2.72s-1.7-.94-1.71-2.65.74-2.68 1.79-2.68 1.71.97 1.71 2.61zm-2.8.08c0 1.34.41 2.1 1 2.1s1-.83 1-2.15-.32-2.1-1-2.1-1 .75-1 2.15z"/><path d="m74.59 75.52a.48.48 0 1 1 1 0 .48.48 0 1 1 -1 0zm0 2.8a.48.48 0 1 1 1 0 .48.48 0 1 1 -1 0z"/><path d="m79.61 76.86c0 1.76-.65 2.72-1.79 2.72s-1.69-.94-1.71-2.65.75-2.68 1.79-2.68 1.71.97 1.71 2.61zm-2.8.08c0 1.34.41 2.1 1 2.1s1-.83 1-2.15-.32-2.1-1-2.1-1 .75-1 2.15z"/><path d="m83.69 76.86c0 1.76-.65 2.72-1.8 2.72s-1.69-.94-1.7-2.65.74-2.68 1.79-2.68 1.71.97 1.71 2.61zm-2.81.08c0 1.34.42 2.1 1.05 2.1s1.07-.83 1.07-2.15-.33-2.1-1-2.1-1.12.75-1.12 2.15z"/></g><circle cx="75" cy="44.49" fill="#3a556a" r="8.77"/><circle cx="75" cy="44.49" fill="#ebf0f3" r="4.66"/></svg>