<svg id="Layer_1" height="512" viewBox="0 0 150 150" width="512" xmlns="http://www.w3.org/2000/svg" data-name="Layer 1"><circle cx="75" cy="75" fill="#334d5c" r="64"/><path d="m112.07 53.8h-74.14a2.26 2.26 0 0 0 -2.26 2.25v48.57a2.26 2.26 0 0 0 2.26 2.26h74.14a2.26 2.26 0 0 0 2.26-2.26v-48.57a2.26 2.26 0 0 0 -2.26-2.25zm-28.79 7.56h-16.56v-2.13h16.56z" fill="#ebf0f3"/><path d="m38.33 65.78h73.35v38.45h-73.35z" fill="#d5d6db"/><path d="m42.51 70.57h23.24v28.87h-23.24z" fill="#27a2db"/><path d="m59 79.41.47 7.46-11.04-.27.9-8.07z" fill="#3a556a"/><path d="m56.5 84.68v-2.94l-2.37 1.17-2.37-1.17v2.94l-1.42.63v7.49h7.88v-7.37z" fill="#f7be56"/><path d="m57.26 85-.33-.14-.43-.19a3.14 3.14 0 0 1 -4.68.06l-.06-.06-.28.12-.48.21v7.8h6.22z" fill="#ebf0f3"/><path d="m62.52 97.06h-16.78l.51-9.45a.88.88 0 0 1 .53-.73l4.7-2.08-.13.15 2.83 7.84 2.7-8v.11l4.56 2a.89.89 0 0 1 .52.73z" fill="#e56353"/><path d="m56.5 84.37-2.31 8.43 2.75-3.34-.1-1.22.83-.61v-2.44z" fill="#d15241"/><path d="m51.76 84.26 2.43 8.54-2.8-3.34.1-1.22-.84-.61v-2.44z" fill="#d15241"/><path d="m57.62 81.1s-1.16 2.26-3.31 2.31-3.24-1.92-3.58-3.51a7 7 0 0 1 .46-3.68c.07-.07 1-1.83 1-1.9a10.09 10.09 0 0 1 1.18-.67c.09 0 1.73 1 2.36 1.32a7.08 7.08 0 0 1 2 2c.07.34.53 1.78.53 1.91s-.64 2.22-.64 2.22z" fill="#fcd462"/><path d="m58.73 77.73c-.56-3-3.44-5.68-5.6-4.51 0 0-.76-.62-1.46.56s-1.84 1.91-2.28 4.4.16 4 2.37 4.88v-.93c-.19-.21-1.19-1.49-.55-3.95a10.68 10.68 0 0 1 1.9-4.06 8.1 8.1 0 0 0 3.89 2.88 4.56 4.56 0 0 1 -.49 5.46v1c.16-.13 2-1.59 2.23-2.24s.55-.53-.01-3.49z" fill="#3a556a"/><path d="m69.19 43.12h11.62v17.12h-11.62z" fill="#27a2db"/><g fill="#ebf0f3"><path d="m70.88 71.07h37.61v1.88h-37.61z"/><path d="m70.88 77.59h37.61v1.88h-37.61z"/><path d="m70.88 84.12h37.61v1.88h-37.61z"/><path d="m70.88 90.65h37.61v1.88h-37.61z"/><path d="m70.88 97.18h37.61v1.88h-37.61z"/></g><circle cx="75" cy="48.95" fill="#3a556a" r="2.73"/></svg>