<svg id="Layer_1" height="512" viewBox="0 0 150 150" width="512" xmlns="http://www.w3.org/2000/svg" data-name="Layer 1"><circle cx="75" cy="75" fill="#334d5c" r="64"/><path d="m43.54 44.62h9.81v7.52h-9.81z" fill="#ebf0f3"/><path d="m88.21 62.23h-2v-12.11a3.5 3.5 0 0 0 -3.5-3.5h-9a3.5 3.5 0 0 0 -3.5 3.5v8.8h-2v-8.8a5.5 5.5 0 0 1 5.5-5.5h9a5.51 5.51 0 0 1 5.5 5.5z" fill="#e1e6e9"/><path d="m92.11 48.16h8.76v13.11h-8.76z" fill="#e1e6e9"/><path d="m92.11 55.77h8.76v2.11h-8.76z" fill="#e56353"/><path d="m92.11 51.29h8.76v2.11h-8.76z" fill="#e56353"/><path d="m83.52 63.27h26.03v40.22h-26.03z" fill="#d5d6db"/><path d="m77.19 71.1h-15.93v-10.8a8 8 0 0 1 15.93 0z" fill="#fcd462"/><path d="m42.39 50.77h12.29v52.72h-12.29z" fill="#e1e6e9"/><path d="m42.39 52.34h12.29v3.06h-12.29z" fill="#d5d6db"/><path d="m48.78 68.42h48.77v35.08h-48.77z" fill="#ebf0f3"/><path d="m73.17 81.81h24.39v21.68h-24.39z" fill="#27a2db"/><g fill="#3a556a"><path d="m56.08 73.12h4.68v4.67h-4.68z"/><path d="m65.91 73.12h4.68v4.67h-4.68z"/><path d="m75.75 73.12h4.68v4.67h-4.68z"/><path d="m85.59 73.12h4.68v4.67h-4.68z"/><path d="m78.09 93.07h7.5v10.42h-7.5z"/></g><path d="m40.58 50.77h15.92v2.73h-15.92z" fill="#e1e6e9"/><path d="m81.69 60.82h29.6v2.84h-29.6z" fill="#27a2db"/><path d="m52.61 92.65h8.15v10.84h-8.15z" fill="#64798a"/><path d="m37.39 102.14h75.21v3.23h-75.21z" fill="#ebf0f3"/></svg>