<svg id="Layer_1" height="512" viewBox="0 0 150 150" width="512" xmlns="http://www.w3.org/2000/svg" data-name="Layer 1"><circle cx="75" cy="75" fill="#45b39c" r="64"/><path d="m109.46 68.33-34.46-32.93-34.46 32.93v46.27h68.92z" fill="#e5aa4a"/><path d="m51.88 110.12h46.23v-60.26h-.01v-1.98l-1.78 1.81-1.78-1.81-1.78 1.81-1.78-1.81-1.77 1.81-1.78-1.81-1.78 1.81-1.78-1.81-1.78 1.81-1.78-1.81-1.78 1.81-1.78-1.81-1.75 1.79-1.76-1.79-1.78 1.81-1.78-1.81-1.78 1.81-1.78-1.81-1.78 1.81-1.78-1.81-1.77 1.81-1.78-1.81-1.78 1.81-1.78-1.81-1.78 1.81-1.78-1.81v1.98h-.01z" fill="#ebf0f3"/><g fill="#d5d6db"><path d="m58.91 92.89h33.51v2.04h-33.51z"/><path d="m58.91 85.71h33.51v2.04h-33.51z"/><path d="m58.91 78.54h33.51v2.04h-33.51z"/><path d="m58.91 71.36h33.51v2.04h-33.51z"/><path d="m75.66 64.18h16.76v2.04h-16.76z"/><path d="m75.66 57h16.76v2.04h-16.76z"/></g><path d="m69.29 62.34a2.85 2.85 0 0 0 -1.18-.93 10.09 10.09 0 0 0 -1.55-.47v-2.94a2 2 0 0 1 1 .41 1.89 1.89 0 0 1 .64 1.31l1.16-.09a2.72 2.72 0 0 0 -.36-1.41 2.63 2.63 0 0 0 -1.2-1 4.32 4.32 0 0 0 -1.24-.22v-1.88h-1v1.88a4.27 4.27 0 0 0 -1.22.27 2.37 2.37 0 0 0 -1.15.92 2.32 2.32 0 0 0 -.39 1.29 2 2 0 0 0 .32 1.14 2.55 2.55 0 0 0 1 .85 7.68 7.68 0 0 0 1.47.49v3.3a3.59 3.59 0 0 1 -.68-.21 2 2 0 0 1 -.91-.71 2.44 2.44 0 0 1 -.38-1.12l-1.14.1a3 3 0 0 0 1.73 2.68 5.29 5.29 0 0 0 1.3.3v1.87h1v-1.82a4.17 4.17 0 0 0 1.54-.35 2.77 2.77 0 0 0 1.2-1 2.48 2.48 0 0 0 .42-1.38 2.31 2.31 0 0 0 -.38-1.28zm-5-2.16a1 1 0 0 1 -.36-.81 1.22 1.22 0 0 1 .5-1 2.13 2.13 0 0 1 1.1-.38v2.66a3.48 3.48 0 0 1 -1.26-.47zm4 4.34a1.78 1.78 0 0 1 -.79.57 3.5 3.5 0 0 1 -.9.18v-3.08c.41.11.71.2.87.26a2 2 0 0 1 .83.54 1.24 1.24 0 0 1 .24.75 1.3 1.3 0 0 1 -.29.78z" fill="#44c4a1"/><path d="m74.07 91.46 35.39 23.14v-46.27z" fill="#fcd462"/><path d="m75.93 91.46-35.39 23.14v-46.27z" fill="#fcd462"/><path d="m40.54 114.6 34.46-23.71 34.46 23.71z" fill="#f7be56"/></svg>