<svg id="Layer_1" height="512" viewBox="0 0 150 150" width="512" xmlns="http://www.w3.org/2000/svg" data-name="Layer 1"><circle cx="75" cy="75" fill="#fcd462" r="64"/><path d="m75 90.5c-16.89 0-30.63-11.84-30.63-26.39s13.74-26.39 30.63-26.39 30.63 11.84 30.63 26.39-13.74 26.39-30.63 26.39zm0-45.34c-12.79 0-23.19 8.5-23.19 19s10.4 19 23.19 19 23.19-8.5 23.19-19-10.4-19-23.19-19z" fill="#3a556a"/><path d="m60.29 112.28h29.4a14.26 14.26 0 0 0 11.41-5.73 29 29 0 0 0 5.82-17.38c0-16.68-14.29-30.17-31.92-30.17s-31.92 13.49-31.92 30.17a29 29 0 0 0 6.23 17.91 13.88 13.88 0 0 0 10.98 5.2z" fill="#3a556a"/><path d="m106.91 89.17a28.84 28.84 0 0 1 -5.82 17.38 14.22 14.22 0 0 1 -11.4 5.73h-29.4a13.91 13.91 0 0 1 -11-5.2 28.88 28.88 0 0 1 -4.29-7.5 14 14 0 0 0 9.92 4h29.42a14.24 14.24 0 0 0 11.42-5.74 29 29 0 0 0 5.82-17.37 28.69 28.69 0 0 0 -2-10.58 29.14 29.14 0 0 1 7.33 19.28z" fill="#2f4859"/><ellipse cx="75" cy="84.27" fill="#2f4859" rx="15.19" ry="12.48"/><g fill="#64798a"><path d="m66.07 89.16v-9.77h1.29v4.84l4.85-4.84h1.75l-4.1 3.96 4.28 5.81h-1.7l-3.48-4.94-1.6 1.55v3.39z"/><path d="m79.79 85.33v-1.15h4.14v3.62a7 7 0 0 1 -2 1.14 5.77 5.77 0 0 1 -2.08.39 5.6 5.6 0 0 1 -2.62-.62 4.11 4.11 0 0 1 -1.77-1.78 5.64 5.64 0 0 1 -.6-2.61 6.13 6.13 0 0 1 .59-2.66 4 4 0 0 1 1.72-1.84 5.4 5.4 0 0 1 2.58-.6 5.08 5.08 0 0 1 1.91.35 3.15 3.15 0 0 1 1.35 1 4.32 4.32 0 0 1 .74 1.6l-1.17.32a3.55 3.55 0 0 0 -.55-1.17 2.15 2.15 0 0 0 -.93-.68 3.42 3.42 0 0 0 -1.35-.26 4 4 0 0 0 -1.53.27 2.86 2.86 0 0 0 -1 .71 3.41 3.41 0 0 0 -.62 1 5.07 5.07 0 0 0 -.37 2 4.8 4.8 0 0 0 .45 2.19 2.89 2.89 0 0 0 1.32 1.18 4 4 0 0 0 1.82.43 4.79 4.79 0 0 0 2.86-1v-1.83z"/></g></svg>