<svg id="Layer_1" height="512" viewBox="0 0 150 150" width="512" xmlns="http://www.w3.org/2000/svg" data-name="Layer 1"><circle cx="75" cy="75" fill="#d5d6db" r="64"/><path d="m112.56 100.46-8.56-15.31h-58l-8.25 14.76-1 .36v1.87c0 .86.71 1.48 2 1.48h72.58c1.28 0 2-.6 2-1.44v-1.92z" fill="#64798a"/><path d="m102.28 46.38h-54.56a1.72 1.72 0 0 0 -1.72 1.71v36.08h58v-36.08a1.72 1.72 0 0 0 -1.72-1.71z" fill="#3a556a"/><path d="m49.21 49.58h51.59v29.45h-51.59z" fill="#27a2db"/><path d="m46 83.28-9.07 16.2c-.69 1.24.09 2.27 1.77 2.27h72.58c1.68 0 2.46-1 1.77-2.27l-9.05-16.2z" fill="#2f4859"/><path d="m99.88 85.45h-49.48a2.36 2.36 0 0 0 -2 .94l-2.06 4.26c-.3.62.23 1.13 1.19 1.13h55.3c1 0 1.49-.51 1.18-1.13l-2.08-4.26a2.38 2.38 0 0 0 -2.05-.94z" fill="#64798a"/><path d="m83.17 93.43h-16c-1 0-1.88.55-2 1.24l-.42 2.67c-.12.77.65 1.41 1.73 1.41h17.4c1.07 0 1.84-.64 1.71-1.41l-.42-2.67a1.94 1.94 0 0 0 -2-1.24z" fill="#64798a"/><path d="m83.71 55.88h-5.71l-2.9 1.59-3-1.59h-5.81a.85.85 0 0 0 -.85.85v16.37a.85.85 0 0 0 .85.85h17.42a.85.85 0 0 0 .85-.85v-16.37a.85.85 0 0 0 -.85-.85z" fill="#fcd462"/><path d="m77.97 60.54-.72-.5-.78.5-.67-.5-.8.5-.76-.5-.78.5-.79-.5-.64.5v-4.66h5.94z" fill="#ebf0f3"/><g fill="#3a556a"><path d="m68.87 69.12-.95-1.33-.95 1.33h.54v3.26h.82v-3.26z"/><path d="m71.11 69.12-.95-1.33-.95 1.33h.54v3.26h.82v-3.26z"/></g></svg>