<svg id="Layer_1" height="512" viewBox="0 0 150 150" width="512" xmlns="http://www.w3.org/2000/svg" data-name="Layer 1"><circle cx="75" cy="75" fill="#21b3a9" r="64"/><path d="m120.43 84.62h-4.77l-2.41 1.38-2.53-1.33h-4.72a.7.7 0 0 0 -.7.71v13.56a.7.7 0 0 0 .7.7h14.48a.7.7 0 0 0 .71-.7v-13.61a.71.71 0 0 0 -.76-.71z" fill="#fcd462"/><path d="m115.66 88.62-.6-.42-.64.42-.57-.42-.66.42-.63-.42-.65.42-.66-.42-.53.42v-4h4.94z" fill="#ebf0f3"/><g fill="#3a556a"><path d="m107.76 96.05-.71-1-.72 1h.41v2.46h.62v-2.46z"/><path d="m109.45 96.05-.71-1-.72 1h.41v2.46h.62v-2.46z"/><path d="m111.9 96.14v-1.09h-.64l-.35.46.35.31-.48.68.22-.5-.43-.44.32-.48h-.79v1.09a.91.91 0 0 0 .78.9v.83a.45.45 0 0 1 -.45.45h-.11l-.09.1.09.09h1.35l.1-.09-.1-.1h-.1a.45.45 0 0 1 -.45-.45v-.9a.91.91 0 0 0 .78-.86z"/></g><path d="m92.99 95.53h11.65v3.05h-11.65z" fill="#2f4859"/><path d="m105.23 99.64v-48.52h-2.89v48.52 2.77h2.89 19.49v-2.77z" fill="#2f4859"/><path d="m58.95 83.74v-10.17h-4.33v12.68h1.98v1.39h8.89v-3.9z" fill="#3a556a"/><path d="m54.48 89.15-1.87-.06 1.26-44.9h27.46l.28.41a103.69 103.69 0 0 1 14.84 44.09l-1.86.17a102.42 102.42 0 0 0 -14.26-42.8h-24.64z" fill="#3a556a"/><path d="m95.6 86.25c-10.47-3.08-14.6 5.49-14.6 5.49h-7.86l-4.3-4.21a4.47 4.47 0 0 0 -3.13-1.27h-10.71v-8.56a1.59 1.59 0 0 0 -1.58-1.59h-15.69a3.14 3.14 0 0 0 -3.13 3l-.32 7.6a11.26 11.26 0 0 0 -9 10.73h8.55l-.2 4.71c0-1.37 51.17 1.1 51.17 1.1l3.1-.09 10.61-4.78v-8.29a4 4 0 0 0 -2.91-3.84z" fill="#fe7058"/><path d="m36.52 89.68a8.07 8.07 0 1 0 8.06 8.06 8.06 8.06 0 0 0 -8.06-8.06z" fill="#3a556a"/><path d="m101.4 97.74a8.07 8.07 0 1 1 -8.06-8.06 8.06 8.06 0 0 1 8.06 8.06z" fill="#3a556a"/><path d="m97.09 97.74a3.76 3.76 0 1 1 -3.75-3.74 3.75 3.75 0 0 1 3.75 3.74z" fill="#ebf0f3"/><path d="m40.27 97.74a3.75 3.75 0 1 1 -3.75-3.74 3.75 3.75 0 0 1 3.75 3.74z" fill="#ebf0f3"/></svg>