<svg id="Layer_1" height="512" viewBox="0 0 150 150" width="512" xmlns="http://www.w3.org/2000/svg" data-name="Layer 1"><circle cx="75" cy="75" fill="#d5d6db" r="64"/><rect fill="#3a556a" height="88.61" rx="4.44" width="58.01" x="45.99" y="30.69"/><path d="m49.38 42.18h51.23v63.5h-51.23z" fill="#89c5cd"/><path d="m67.11 35.57h15.77v1.85h-15.77z" fill="#474c5b"/><path d="m75 108.61a3.67 3.67 0 1 0 3.67 3.67 3.67 3.67 0 0 0 -3.67-3.67z" fill="#2f4859"/><path d="m100.62 63.67v-4.6h-30.06v12.78h-9.52l.2-29.66-2.76-.02-.22 32.44h12.3v31.06h4.6v-19.06h25.46v-2.76h-25.46v-20.18z" fill="#3a556a"/><g fill="#ebf0f3"><path d="m98.32 60.91h2.3v.92h-2.3z"/><path d="m93.69 61.83h-4.64v-.92h4.64zm-9.27 0h-4.63v-.92h4.63z"/><path d="m73.32 63.67h-.92v-2.76h2.76v.92h-1.84z"/><path d="m73.32 99h-.92v-4.45h.92zm0-8.82h-.92v-4.45h.92zm0-8.82h-.92v-4.45h.92zm0-8.82h-.92v-4.46h.92z"/><path d="m72.4 103.37h.92v2.3h-.92z"/></g><path d="m93.58 71.92c0 3.36-6.1 12-6.1 12s-6.09-8.64-6.09-12a6.1 6.1 0 0 1 12.19 0z" fill="#e56353"/><path d="m87.48 67.71a4 4 0 1 0 4 4 4 4 0 0 0 -4-4z" fill="#ebf0f3"/></svg>