<svg id="Layer_1" height="512" viewBox="0 0 150 150" width="512" xmlns="http://www.w3.org/2000/svg" data-name="Layer 1"><circle cx="75" cy="75" fill="#e05b49" r="64"/><path d="m60.38 82.44v7h55.43a1.37 1.37 0 0 0 1.37-1.44v-5.6z" fill="#2f4859"/><path d="m117.38 53.12h-54.72a2.29 2.29 0 0 0 -2.28 2.29v10.89h-3.38v17.41h60.43a2.29 2.29 0 0 0 2.29-2.28v-26a2.3 2.3 0 0 0 -2.34-2.31z" fill="#fcd462"/><path d="m46.92 91.91-13.52-2.5v-7.57h15.83z" fill="#2f4859"/><path d="m60.39 66.3v23.59a2 2 0 0 1 -2 2h-11.47a12 12 0 0 0 -.92-5.12l-.12-.27a6.93 6.93 0 0 0 -3.4-3.4l-.24-.1a8.79 8.79 0 0 0 -1.52-.44s-4.2-1.66-7.35 3.59l-1.74.09.54-5.86a2.44 2.44 0 0 1 1.83-2.17l7.5-1.85a2.43 2.43 0 0 0 1.62-1.29l3.7-7.41a2.49 2.49 0 0 1 2.21-1.36z" fill="#27a2db"/><path d="m56 69.11h-7a.69.69 0 0 0 -.65.52l-1.45 6.05a.67.67 0 0 0 .65.83h8.45a.67.67 0 0 0 .67-.67v-6a.67.67 0 0 0 -.67-.73z" fill="#ebf0f3"/><path d="m39.7 84.27a6.31 6.31 0 1 0 6.3 6.3 6.3 6.3 0 0 0 -6.3-6.3z" fill="#3a556a"/><path d="m39.7 87.34a3.24 3.24 0 1 0 3.23 3.23 3.23 3.23 0 0 0 -3.23-3.23z" fill="#ebf0f3"/><path d="m95.08 84.27a6.31 6.31 0 1 0 6.31 6.3 6.3 6.3 0 0 0 -6.31-6.3z" fill="#3a556a"/><path d="m95.08 87.34a3.24 3.24 0 1 0 3.23 3.23 3.23 3.23 0 0 0 -3.23-3.23z" fill="#ebf0f3"/><path d="m31.48 85.11-1 1a.56.56 0 0 0 -.15.37v2.71a.53.53 0 0 0 .52.52h2.55a.52.52 0 0 0 .51-.44l.17-3.72a.52.52 0 0 0 -.51-.61h-1.72a.5.5 0 0 0 -.37.17z" fill="#64798a"/><rect fill="#e1e6e9" height="6.1" rx="1.21" width="16.73" x="64.15" y="85.81"/><path d="m56.55 67.94h-7.64a1.71 1.71 0 0 0 -1.59 1.11l-5.08 13.95.25.11 5.09-14a1.4 1.4 0 0 1 1.33-.93h7.64a1.42 1.42 0 0 1 1.45 1.44v15.47a1.42 1.42 0 0 1 -1.42 1.41h-10.69l.12.27h10.54a1.68 1.68 0 0 0 1.68-1.68v-15.47a1.68 1.68 0 0 0 -1.68-1.68z" fill="#2d93ba"/><rect fill="#3a556a" height="3.92" rx=".39" width="1.79" x="55.42" y="79.79"/></svg>