<svg id="Layer_1" height="512" viewBox="0 0 150 150" width="512" xmlns="http://www.w3.org/2000/svg" data-name="Layer 1"><circle cx="75" cy="75" fill="#fe7058" r="64"/><path d="m88.29 68.56h-4.87l-2.42 1.35-2.57-1.35h-4.91a.72.72 0 0 0 -.72.72v13.88a.72.72 0 0 0 .72.72h14.77a.72.72 0 0 0 .72-.72v-13.88a.72.72 0 0 0 -.72-.72z" fill="#fcd462"/><path d="m83.42 73.04-.61-.43-.65.43-.58-.43-.67.43-.65-.43-.66.43-.67-.43-.54.43v-4.48h5.03z" fill="#ebf0f3"/><g fill="#3a556a"><path d="m75.96 79.84-.49-.68-.48.68h.27v1.67h.43v-1.67z"/><path d="m77.1 79.84-.48-.68-.49.68h.28v1.67h.42v-1.67z"/><path d="m81 79.9v-.74h-.43l-.23.32.23.21-.32.45.14-.35-.29-.3.22-.33h-.54v.74a.62.62 0 0 0 .53.61v.56a.31.31 0 0 1 -.3.31h-.01l-.07.06.07.07h.91l.07-.07-.07-.06h-.07a.31.31 0 0 1 -.31-.31v-.56a.62.62 0 0 0 .47-.61z"/><path d="m77.93 82.22h-3.77v-3.77h3.77zm-3.65-.11h3.54v-3.55h-3.54z"/><path d="m82.32 82.22h-3.77v-3.77h3.77zm-3.66-.11h3.54v-3.55h-3.54z"/></g><path d="m105.53 68.56h-4.87l-2.46 1.35-2.57-1.35h-4.87a.72.72 0 0 0 -.72.72v13.88a.72.72 0 0 0 .72.72h14.77a.72.72 0 0 0 .72-.72v-13.88a.72.72 0 0 0 -.72-.72z" fill="#fcd462"/><path d="m100.66 73.04-.6-.43-.66.43-.58-.43-.67.43-.65-.43-.66.43-.67-.43-.54.43v-4.48h5.03z" fill="#ebf0f3"/><path d="m93.2 79.84-.49-.68-.48.68h.27v1.67h.42v-1.67z" fill="#3a556a"/><path d="m94.34 79.84-.48-.68-.49.68h.28v1.67h.42v-1.67z" fill="#3a556a"/><path d="m98.28 79.9v-.74h-.43l-.24.32.24.21-.32.45.14-.35-.29-.3.22-.33h-.54v.74a.62.62 0 0 0 .53.61v.56a.31.31 0 0 1 -.3.31h-.07l-.07.06.07.07h.91l.06-.07-.06-.06h-.07a.31.31 0 0 1 -.31-.31v-.56a.62.62 0 0 0 .53-.61z" fill="#3a556a"/><path d="m95.17 82.22h-3.77v-3.77h3.77zm-3.65-.11h3.54v-3.55h-3.54z" fill="#3a556a"/><path d="m99.56 82.22h-3.77v-3.77h3.77zm-3.66-.11h3.54v-3.55h-3.54z" fill="#3a556a"/><path d="m97 53.24h-4.92l-2.45 1.35-2.58-1.35h-4.87a.72.72 0 0 0 -.72.72v13.88a.73.73 0 0 0 .72.72h14.82a.72.72 0 0 0 .72-.72v-13.84a.72.72 0 0 0 -.72-.76z" fill="#f7be56"/><path d="m92.08 57.72-.6-.43-.66.43-.58-.43-.67.43-.65-.43-.66.43-.67-.43-.54.43v-4.48h5.03z" fill="#ebf0f3"/><path d="m84.62 64.52-.48-.68-.49.68h.28v1.67h.42v-1.67z" fill="#3a556a"/><path d="m85.77 64.52-.49-.68-.48.68h.27v1.67h.42v-1.67z" fill="#3a556a"/><path d="m89.71 64.58v-.74h-.44l-.23.32.23.21-.32.45.14-.35-.29-.3.22-.33h-.54v.74a.62.62 0 0 0 .53.61v.56a.29.29 0 0 1 -.3.3h-.07l-.07.07.07.07h.91l.07-.07-.07-.07h-.07a.29.29 0 0 1 -.3-.3v-.56a.62.62 0 0 0 .53-.61z" fill="#3a556a"/><path d="m86.6 66.9h-3.78v-3.77h3.78zm-3.66-.11h3.54v-3.55h-3.54z" fill="#3a556a"/><path d="m91 66.9h-3.79v-3.77h3.79zm-3.66-.11h3.55v-3.55h-3.57z" fill="#3a556a"/><path d="m117.38 77.79h-51.08v12.78h51.08a1.43 1.43 0 0 0 1.42-1.42v-10a1.42 1.42 0 0 0 -1.42-1.36z" fill="#27a2db"/><path d="m57.7 63.13-8.42 9.39h17.02v-9.39z" fill="#ebf0f3"/><path d="m67.94 59.39h-9.52a6.41 6.41 0 0 0 -3.58 1.08c-.62.42-1.39.94-2.25 1.57l-.06.05a59.11 59.11 0 0 0 -10.17 9.41l-.22.25-.41.5s-9.29 2.52-10.51 12.37v.1 4.18a1.67 1.67 0 0 0 1.67 1.67h36.9v-29.33a1.85 1.85 0 0 0 -1.85-1.85z" fill="#27a2db"/><path d="m50.21 87.87h-4.09l-4.88-3.32s-6.15.07-10 .07v4.28a1.69 1.69 0 0 0 1.71 1.67h17.3z" fill="#3a556a"/><path d="m55.37 90.57h-17.58a8.79 8.79 0 0 1 17.58 0z" fill="#2f4859"/><path d="m46.58 84.37a6.2 6.2 0 1 0 6.2 6.2 6.2 6.2 0 0 0 -6.2-6.2z" fill="#3a556a"/><path d="m46.58 87.35a3.22 3.22 0 1 0 3.22 3.22 3.22 3.22 0 0 0 -3.22-3.22z" fill="#ebf0f3"/><path d="m55.9 61.84a47.31 47.31 0 0 0 -10.9 10.67h21.3v-10.67z" fill="#ebf0f3"/><path d="m105.06 86.55v4h12.32a1.43 1.43 0 0 0 1.42-1.42v-2.6z" fill="#3a556a"/><path d="m106.93 90.57h-17.57a8.79 8.79 0 0 1 17.57 0z" fill="#2f4859"/><path d="m98.15 84.37a6.2 6.2 0 1 0 6.19 6.2 6.19 6.19 0 0 0 -6.19-6.2z" fill="#3a556a"/><circle cx="98.15" cy="90.57" fill="#ebf0f3" r="3.22"/></svg>