<svg id="Layer_1" height="512" viewBox="0 0 150 150" width="512" xmlns="http://www.w3.org/2000/svg" data-name="Layer 1"><circle cx="75" cy="75" fill="#21b3a9" r="64"/><path d="m86.85 73.85-10.17-10.17v-12.18h-3.35v12.18l-10.18 10.18a1.1 1.1 0 0 0 -.21 1.25l3.13 6.46a1.43 1.43 0 0 0 1.63.8 1.41 1.41 0 0 0 .91-2l-2.61-5.37 9-9 9 9-2.2 4.92a1.35 1.35 0 0 0 .88 1.9 1.42 1.42 0 0 0 1.64-.76l2.68-6a1.12 1.12 0 0 0 -.15-1.21z" fill="#3a556a"/><path d="m75 60.83a3.78 3.78 0 1 0 3.78 3.78 3.78 3.78 0 0 0 -3.78-3.78z" fill="#e1e6e9"/><path d="m75 62.37a2.24 2.24 0 1 0 2.24 2.24 2.24 2.24 0 0 0 -2.24-2.24z" fill="#27a2db"/><path d="m85.86 44.38-4.35-7.52a2.49 2.49 0 0 0 -2.17-1.26h-8.68a2.51 2.51 0 0 0 -2.17 1.26l-4.34 7.52a2.48 2.48 0 0 0 0 2.5l4.34 7.52a2.5 2.5 0 0 0 2.17 1.25h8.68a2.48 2.48 0 0 0 2.17-1.25l4.35-7.52a2.53 2.53 0 0 0 0-2.5z" fill="#64798a"/><path d="m84.4 46-4.34 7.52a.83.83 0 0 1 -.72.42h-8.68a.81.81 0 0 1 -.71-.42l-.68-1.17-1.76-3-1.22-2.1-.69-1.25a.87.87 0 0 1 0-.83l4.4-7.48a.82.82 0 0 1 .71-.41h8.68a.84.84 0 0 1 .72.41l.68 1.18 1.76 3.05 1.16 2.08.69 1.19a.82.82 0 0 1 0 .81z" fill="#3a556a"/><path d="m75.42 37.28-7.91 12.06-1.21-2.1 6.53-9.96z" fill="#fcd462"/><path d="m80.74 38.87-9.92 15.13h-.16a.81.81 0 0 1 -.71-.42l-.68-1.17 9.92-15.11h.15a.84.84 0 0 1 .72.41z" fill="#fcd462"/><path d="m83.71 44.02-6.54 9.96h-2.59l7.92-12.06z" fill="#fcd462"/><path d="m60.05 85.36h-5.55l-2.8 1.54-2.93-1.54h-5.54a.82.82 0 0 0 -.82.82v15.82a.81.81 0 0 0 .82.81h16.82a.82.82 0 0 0 .82-.81v-15.82a.82.82 0 0 0 -.82-.82z" fill="#fcd462"/><path d="m54.5 91.67-.69-.48-.75.48-.65-.48-.77.48-.74-.48-.75.48-.77-.48-.61.48v-6.31h5.73z" fill="#ebf0f3"/><g fill="#3a556a"><path d="m45.72 98.15-.92-1.28-.92 1.28h.52v3.16h.8v-3.16z"/><path d="m47.88 98.15-.92-1.28-.91 1.28h.51v3.16h.8v-3.16z"/><path d="m51 98.27v-1.4h-.83l-.44.59.45.4-.62.86.28-.67-.55-.56.41-.62h-1v1.4a1.14 1.14 0 0 0 1 1.14v1.07a.58.58 0 0 1 -.58.58h-.12l-.13.12.13.12h1.73l.12-.12-.12-.12h-.14a.58.58 0 0 1 -.58-.58v-1.07a1.15 1.15 0 0 0 .99-1.14z"/><path d="m53.87 97.14v-.14l-.09-.09-.09.09v.18a2.22 2.22 0 0 0 -2.14 2.23c0-.05.12-.09.28-.09s.29 0 .29.09.19-.12.41-.12a.62.62 0 0 1 .4.09c.06-.11.37-.2.75-.21v1.77a.24.24 0 1 1 -.47 0v-.25l-.09-.08-.09.08v.25a.42.42 0 0 0 .83 0v-1.82c.42 0 .74.12.74.25 0-.07.19-.12.41-.12s.41 0 .41.12.13-.09.29-.09.29 0 .29.09a2.22 2.22 0 0 0 -2.13-2.23z"/></g><path d="m83.41 85.36h-5.54l-2.8 1.54-2.94-1.54h-5.54a.82.82 0 0 0 -.82.82v15.82a.82.82 0 0 0 .82.81h16.82a.82.82 0 0 0 .82-.81v-15.82a.82.82 0 0 0 -.82-.82z" fill="#fcd462"/><path d="m77.87 91.67-.7-.48-.75.48-.65-.48-.77.48-.74-.48-.75.48-.76-.48-.62.48v-6.31h5.74z" fill="#ebf0f3"/><path d="m69.08 98.15-.92-1.28-.92 1.28h.52v3.16h.8v-3.16z" fill="#3a556a"/><path d="m71.24 98.15-.91-1.28-.92 1.28h.52v3.16h.79v-3.16z" fill="#3a556a"/><path d="m74.33 98.27v-1.4h-.83l-.44.59.45.4-.61.86.27-.67-.55-.56.41-.62h-1.03v1.4a1.14 1.14 0 0 0 1 1.14v1.07a.58.58 0 0 1 -.58.58h-.13l-.13.12.13.12h1.71l.12-.12-.12-.12h-.13a.58.58 0 0 1 -.58-.58v-1.07a1.15 1.15 0 0 0 1.04-1.14z" fill="#3a556a"/><path d="m77.23 97.14v-.14l-.09-.09-.09.09v.18a2.22 2.22 0 0 0 -2.14 2.23c0-.05.13-.09.29-.09s.29 0 .29.09.18-.12.41-.12a.64.64 0 0 1 .4.09c.06-.11.37-.2.75-.21v1.77a.23.23 0 0 1 -.23.24.24.24 0 0 1 -.24-.24v-.25l-.09-.08-.09.08v.25a.42.42 0 0 0 .83 0v-1.82c.42 0 .75.12.75.25 0-.07.18-.12.41-.12s.41 0 .41.12.12-.09.28-.09.29 0 .29.09a2.22 2.22 0 0 0 -2.14-2.23z" fill="#3a556a"/><path d="m106.77 85.36h-5.54l-2.8 1.54-2.93-1.54h-5.5a.82.82 0 0 0 -.82.82v15.82a.82.82 0 0 0 .82.81h16.82a.81.81 0 0 0 .82-.81v-15.82a.82.82 0 0 0 -.87-.82z" fill="#fcd462"/><path d="m101.23 91.67-.69-.48-.75.48-.66-.48-.77.48-.73-.48-.76.48-.76-.48-.61.48v-6.31h5.73z" fill="#ebf0f3"/><path d="m92.44 98.15-.92-1.28-.92 1.28h.52v3.16h.8v-3.16z" fill="#3a556a"/><path d="m94.61 98.15-.92-1.28-.92 1.28h.52v3.16h.8v-3.16z" fill="#3a556a"/><path d="m97.69 98.27v-1.4h-.82l-.44.59.44.4-.61.86.28-.67-.54-.56.41-.62h-1v1.4a1.15 1.15 0 0 0 1 1.14v1.07a.58.58 0 0 1 -.58.58h-.13l-.12.12.12.12h1.7l.13-.12-.13-.12h-.13a.58.58 0 0 1 -.58-.58v-1.07a1.15 1.15 0 0 0 1-1.14z" fill="#3a556a"/><path d="m100.59 97.14v-.14l-.09-.09-.09.09v.18a2.22 2.22 0 0 0 -2.14 2.23c0-.05.13-.09.29-.09s.29 0 .29.09.18-.12.41-.12a.64.64 0 0 1 .4.09c0-.11.36-.2.74-.21v1.77a.23.23 0 1 1 -.46 0v-.25l-.09-.08-.09.08v.25a.41.41 0 1 0 .82 0v-1.82c.42 0 .75.12.75.25 0-.07.18-.12.41-.12s.41 0 .41.12.13-.09.29-.09.29 0 .29.09a2.23 2.23 0 0 0 -2.14-2.23z" fill="#3a556a"/><path d="m108.15 102.81h-66.3a5.8 5.8 0 0 0 0 11.59h66.3a5.8 5.8 0 0 0 0-11.59z" fill="#64798a"/><path d="m41.85 112.59a4 4 0 0 1 0-8h66.3a4 4 0 0 1 0 8z" fill="#3a556a"/><path d="m42.14 105.91a2.7 2.7 0 1 0 2.69 2.7 2.7 2.7 0 0 0 -2.69-2.7z" fill="#ebf0f3"/><path d="m42.14 107.27a1.34 1.34 0 1 0 1.33 1.34 1.33 1.33 0 0 0 -1.33-1.34z" fill="#3a556a"/><path d="m76.27 105.91a2.7 2.7 0 1 0 2.69 2.7 2.7 2.7 0 0 0 -2.69-2.7z" fill="#ebf0f3"/><path d="m76.27 107.27a1.34 1.34 0 1 0 1.33 1.34 1.34 1.34 0 0 0 -1.33-1.34z" fill="#3a556a"/><path d="m107.7 105.91a2.7 2.7 0 1 0 2.69 2.7 2.7 2.7 0 0 0 -2.69-2.7z" fill="#ebf0f3"/><path d="m107.7 107.27a1.34 1.34 0 1 0 1.33 1.34 1.33 1.33 0 0 0 -1.33-1.34z" fill="#3a556a"/></svg>