<svg id="Layer_1" height="512" viewBox="0 0 150 150" width="512" xmlns="http://www.w3.org/2000/svg" data-name="Layer 1"><circle cx="75" cy="75" fill="#fcd462" r="64"/><path d="m65.95 89.47h5.74v15.88h-5.74z" fill="#2f4859"/><path d="m80.22 89.47h5.74v15.88h-5.74z" fill="#2f4859"/><path d="m54.77 101.87h40.45v4.8h-40.45z" fill="#3a556a"/><rect fill="#3a556a" height="50.91" rx="2.54" width="70.92" x="39.54" y="43.33"/><path d="m43.54 47.33h62.92v38.18h-62.92z" fill="#27a2db"/><path d="m75.79 88.09a1.87 1.87 0 1 0 1.87 1.91 1.86 1.86 0 0 0 -1.87-1.91z" fill="#2f4859"/><path d="m70.9 54.14c-.49-.11-.66.14-1.11.32s-1 0-1.53-.09c-.33-.06-.56-.16-.89-.23a5.08 5.08 0 0 0 -1 0 6 6 0 0 0 -2.58.19 2.21 2.21 0 0 1 -1.22.17c-.55 0-.57.14-1 .5a.66.66 0 0 1 -.67.23c-.17-.06-.21-.29-.44-.28s-.7.56-.92.77c-.46-.16-.39-.61-1-.43a1.72 1.72 0 0 0 -.58.36 8.48 8.48 0 0 1 -.74.48c-.33.22-.46.41-.94.35a5.25 5.25 0 0 0 -.69-.13c-.25 0-.5 0-.75 0a19.57 19.57 0 0 1 -2.3-.1 1.29 1.29 0 0 0 -1.11.28c-.1.11-.14.27-.27.37a2.9 2.9 0 0 1 -.57.25c-.49.26-.64.75-1.2.87-.25.06-.6 0-.57.35s.57.33.8.33.31-.13.51-.24a2.59 2.59 0 0 1 .54-.11c.32-.1.24-.22.47-.34.48-.24.77 0 1.06.41a2 2 0 0 1 .31 1.08 4.31 4.31 0 0 1 0 .88c-.06.35-.36.39-.51.7s0 .75 0 1.11c0 .19-.14.27-.11.45s.23.4.31.59c.16.45.08.89.53 1.23.13.09.35.1.44.26s0 .42 0 .59a1.13 1.13 0 0 0 .14.45 3.82 3.82 0 0 0 .25.6c.17.24.28.17.55.2.47 0 .95.15 1.44.18.18.23 0 .6.1.87s.18.2.34.29a2.74 2.74 0 0 1 1 .64c.13.18.2.47.43.56s.32 0 .39 0c.28.18 0 .72-.15.87 0 .29-.17.43-.18.71a2.66 2.66 0 0 0 0 .63 2.21 2.21 0 0 0 .24.54c.11.21.17.43.26.63a3 3 0 0 0 1.02 1.22c.21.12.34.13.49.38a1.58 1.58 0 0 1 .14.92 5.8 5.8 0 0 0 0 .59c0 .39.2.51.33.85.2.5-.16 1-.12 1.45a7.5 7.5 0 0 0 .41 1.4c.08.25.1.48.2.73a3.33 3.33 0 0 0 .35.77c.3.44.54.94 1.08 1.14.16.06.58.15.7 0a2 2 0 0 0 0-.76l-.07.18c-.3-.29-.71-.47-.77-.91s0-.69 0-1a2.94 2.94 0 0 1 0-1c.1-.39.58-.55.81-.87a2.83 2.83 0 0 1 .32-.37c.15-.17.16-.37.28-.51s.3-.2.37-.44 0-.42 0-.61.16-.3.21-.48a.62.62 0 0 1 .38-.54c.51-.3.88-.33 1-.93 0-.2.09-.4.13-.59a4.43 4.43 0 0 1 .3-.62 2.64 2.64 0 0 0 .11-1.19c-.06-.31-.52-.63-.83-.72a5.69 5.69 0 0 1 -.7-.12c-.21-.09-.24-.22-.43-.32s-.37 0-.53-.22a2.89 2.89 0 0 1 -.16-.61c-.11-.32-.09-.29-.39-.4a3.49 3.49 0 0 1 -.39-.19 4.51 4.51 0 0 1 -.44-.22 4.44 4.44 0 0 0 -.7-.28c-.15 0-.3-.13-.44-.19a1.8 1.8 0 0 0 -.72-.16 3.49 3.49 0 0 0 -1.29-.09c-.3.11-.06.19-.24.4a1 1 0 0 1 -.8 0 1.57 1.57 0 0 1 -.36-.52c0-.2.2-.36.12-.55-.17-.38-1 0-1.16-.38.2-.2.64-.43.48-.78s-.58-.23-.74 0 0 .24-.22.34a1.34 1.34 0 0 1 -.49 0 .71.71 0 0 1 -.59-.62 1 1 0 0 1 0-.48c.08-.28.14-.16.33-.32s.19-.45.37-.62a1.74 1.74 0 0 1 .91-.23c.45 0 .85-.11 1.14.25s.44.77 1 .71a.63.63 0 0 0 0-.31c-.3-.16-.05-.81.14-1s.35-.27.44-.49.11-.42.34-.63a4.13 4.13 0 0 0 .55-.47c.09-.1.17-.34.26-.42s.39-.07.6-.06c.81 0 .14-.72.8-.86.24 0 .42.15.62.1s.09-.38 0-.57c-.09-.44 0-.21.3-.28s.35-.37.64-.26c.47.17 0 1.07.71.84s-.25-.61-.28-.89c0-.11.15-.25.17-.37a.54.54 0 0 0 -.1-.41c-.06-.08-.17-.1-.23-.2l-.08-.36c-.07-.2-.22-.69-.47-.62s-.2.57-.36.73c-.43-.19.1-1.31-.67-1.07-.37.12-.25.4-.46.68-.08.11-.26.15-.32.26s0 .32 0 .43-.14.18-.2.3-.06.28-.11.42c-.15.46-.68.92-.79.19a1.48 1.48 0 0 1 0-.42l.12-.35c-.09-.29-.35 0-.55-.08s-.19-.2-.32-.36-.23-.21-.29-.36c-.26-.64.37-.49.78-.55.08 0 .16-.12.25-.13a1.37 1.37 0 0 1 .34.07 1.39 1.39 0 0 0 .45 0c.19-.07.22-.24.32-.38s.12-.18.41-.3.4-.35.63-.53c.46-.36.45.09.51.45s.12.75.33.89.56 0 .68-.24l.11-.37c.09-.11.23 0 .31-.13.28-.3-.13-.39-.32-.66s-.06-.25-.13-.38-.3-.19-.36-.4a.64.64 0 0 1 .23-.59c.23-.25.33-.19.67-.23a.68.68 0 0 1 .51.06c.2.1.22.33.39.43s.55.17.72.35a1.44 1.44 0 0 1 .31.85c-.07.25-.29.25-.4.44a1.51 1.51 0 0 0 -.06.92.52.52 0 0 0 .76.34c.12-.07.22-.36.32-.47.24-.28.54-.29.85-.46a5.94 5.94 0 0 0 .61-.49c.38-.27.89-.32 1.23-.58.13-.1.24-.23.37-.33s.29-.1.56-.2c.47-.18.34-.68.66-.93.1-.09.31 0 .34-.21s-.15-.14-.32-.18z" fill="#ebf0f3"/><path d="m76.23 77.17c.67 0 .62 0 .84-.56.07-.19.18-.61.25-.76s.27-.31.51-.56.3-.8.55-1.19a7.53 7.53 0 0 0 .84-1.22c.43-1-.31-1.87.25-2.87.39-.71 2.12-1.34 1.73-2.28-.57 0-1 .33-1.16-.35s0-1 .69-1 1.37.19 1.78-.3.22-.94.32-1.45c.33.2.29.45.52.68a2.32 2.32 0 0 0 1.15.69c.41 0 .53-.16.86.22s.2.35.21.74a1.62 1.62 0 0 0 .37 1.33c.13.12.44.38.63.3s-.21-1.33-.28-1.55c.49-.3 1-.19 1.33-.54s.16-.92.79-.7.25.86.44 1.3.81.71.8 1.29c0 .26-.36.6-.31.88s.2.25.45.45c.41.36.59.87 1 1.19a9.24 9.24 0 0 0 1 .69c.46.24.89.09 1.37.3a7.23 7.23 0 0 0 1.12.53c.39.11.43-.3.5.3s-.56.7-.88.9a13.2 13.2 0 0 1 -1.13.82c-.49.25-.71.36-.76.92-.1 1 .24 2.25 1.54 1.9.47-.12.68-.88 1.27-.47.25.18.27.53.42.76a1.26 1.26 0 0 0 1 .61c.36.07 1.05.36 1.35 0 .15-.19.06-.49.17-.7s.58-.57.77-.87.3-.36.29-.69c0-.73-.7-1.26-.74-2 0-.59.14-1.55-.65-1.72 0 .53.65 2-.43 2-.54 0-.76-1-.8-1.4s.18-.76-.38-.87c-.29 0-.52.13-.78.12a2.26 2.26 0 0 1 -1.48-.61c-.51-.69.39-.54.84-.65.19 0 .18-.24.49-.21s.65.35.92.51a3.89 3.89 0 0 0 2 .7c.18 0 .88.09 1-.06.32-.37-.34-.53-.52-.58-.54-.14-.92 0-1.26-.55s-.1-.54-.6-.7c-.33-.11-.37 0-.6-.23l-.1-.38c-.13-.14-.34 0-.49-.14a1.18 1.18 0 0 1 -.52-.65c-.09-.24-.11-.48-.21-.73-.22-.54-.62-1.08-1.29-.81s-.42 1-.53 1.42c-.06.24 0 .46-.23.65-.42.39-.86-.19-.91-.58s.15-1 .1-1.44c0-.27-.2-.66-.09-.94.19-.49.59-.24 1-.43a1 1 0 0 0 .65-1.63c-.23-.44-1-1.07-.48-1.64s1.11.59 1.47.82c.53.34 1.84.26 1.54-.76-.49-.06-1.1.11-1.49-.26a2.19 2.19 0 0 1 .44-1.83c.21-.28.37-.3.12-.63-.38-.5-1.34-.12-1.8-.43a.68.68 0 0 1 -.23-.8c.29-.6.82.07 1.28 0 .26-.06.46-.46.79-.54s.55.14.84 0c.25.39-.08 1 .2 1.37a4.48 4.48 0 0 0 1.08.66.88.88 0 0 0 .2-.51.75.75 0 0 1 -.29-1c.28-.5 1.1-.52.67-1.24s-1.84-.81-2.49-1.15a2.22 2.22 0 0 0 -1.22-.25c-.39 0-.78.25-1.12.26s-.36-.16-.56-.19-.51.08-.74 0-.31-.28-.52-.33a3.33 3.33 0 0 0 -.77.05 12.72 12.72 0 0 1 -2.9.15c-.61-.11-.71-.46-1.29-.5a7 7 0 0 0 -1.72.11 10.26 10.26 0 0 0 -1.33.43 6.1 6.1 0 0 1 -1.72.33 5.11 5.11 0 0 0 -1.82.48 1.33 1.33 0 0 1 -1.4.07c-.17-.08-.33-.35-.47-.41a4.15 4.15 0 0 0 -1.41-.08 2.16 2.16 0 0 0 -1.26.28c-.33.19-.3.29-.5.57s-.54.61-.77.94c-.39.53-.17.75-.23 1.35-.14 1.24-1-.47-1.35-.51-1.54-.14-.1 2.19-.16 2.63s-.66.53-1 .85a1.32 1.32 0 0 0 -.43 1 1.17 1.17 0 0 1 -.46 1 1.73 1.73 0 0 0 -.62.8 4.05 4.05 0 0 0 0 2.46c.26.76 1 1.88 1.88 1.77.57-.08 1.13-.47 1.77-.35.85.17.81.76.93 1.39.09.48.54.61.54 1 0 .21-.24.44-.27.66s.06.34.11.59a4.79 4.79 0 0 0 .16.84c.09.2.41.35.49.53a3 3 0 0 1 0 1.15c0 .26-.18.37-.13.62s.38.47.53.68.86 1.57.93.74z" fill="#ebf0f3"/><path d="m100.69 49.67h-15.68v12.68h5.75l1.91 7.81 2.22-7.81h5.8z" fill="#e56353"/><path d="m96.27 52.34h-2.27l-1.13.66-1.19-.62h-2.26a.33.33 0 0 0 -.33.33v6.44a.33.33 0 0 0 .33.33h6.85a.33.33 0 0 0 .34-.33v-6.48a.34.34 0 0 0 -.34-.33z" fill="#fcd462"/><path d="m94.01 54.03-.28-.2-.3.2-.27-.2-.31.2-.3-.2-.31.2-.31-.2-.25.2v-1.69h2.33z" fill="#ebf0f3"/><g fill="#3a556a"><path d="m90.96 57.41-.27-.38-.27.38h.15v.94h.24v-.94z"/><path d="m91.6 57.41-.27-.38-.27.38h.15v.94h.24v-.94z"/><path d="m92.18 58.86h-2.34v-2.34h2.34zm-2.18-.12h2.1v-2.1h-2.1z"/></g></svg>