<svg id="Layer_1" height="512" viewBox="0 0 150 150" width="512" xmlns="http://www.w3.org/2000/svg" data-name="Layer 1"><circle cx="75" cy="75" fill="#2f4859" r="64"/><path d="m106.51 51.3h-1.71-59.89-1.71l-2.89 47.1.38 4.25 2.31 2.17 1.91.64v.17l1.15.21h57.59 1.15v-.38l1.91-.64 2.31-2.17.96-2.7z" fill="#ebf0f3"/><path d="m40.65 99.91a5.56 5.56 0 0 1 5.41-5.41v-50.34a6.12 6.12 0 0 0 -6.12 6.12v49.43a6.13 6.13 0 0 0 6.12 6.13s-5.75-1.41-5.41-5.93z" fill="#d5d6db"/><path d="m109.35 99.91a5.56 5.56 0 0 0 -5.41-5.41v-50.34a6.12 6.12 0 0 1 6.12 6.12v49.43a6.13 6.13 0 0 1 -6.12 6.13s5.75-1.41 5.41-5.93z" fill="#d5d6db"/><path d="m71.5 64.52c-.54-.12-.73.15-1.23.36s-1.08 0-1.69-.11c-.37-.06-.63-.17-1-.24a4.82 4.82 0 0 0 -1.14-.06 6.66 6.66 0 0 0 -2.86.22 2.48 2.48 0 0 1 -1.35.19c-.6 0-.63.16-1.08.56a.76.76 0 0 1 -.75.24c-.18-.06-.23-.32-.49-.31s-.77.62-1 .86c-.5-.17-.43-.68-1.07-.47a2 2 0 0 0 -.64.39 7 7 0 0 1 -.81.53c-.37.24-.51.46-1 .39a6.53 6.53 0 0 0 -.77-.14c-.28 0-.55 0-.83 0a21.41 21.41 0 0 1 -2.54-.1 1.44 1.44 0 0 0 -1.24.31c-.11.12-.15.3-.3.41a3.55 3.55 0 0 1 -.63.28c-.54.28-.71.82-1.32 1-.28.07-.67 0-.64.39 0 .26.63.36.89.36s.34-.15.57-.26a3.19 3.19 0 0 1 .59-.13c.35-.11.27-.24.52-.37.53-.26.86 0 1.17.45a2.27 2.27 0 0 1 .35 1.2 5.24 5.24 0 0 1 0 1c-.07.39-.4.44-.56.78s0 .83 0 1.23c0 .2-.15.29-.12.5s.26.44.34.65c.18.49.09 1 .59 1.36.15.1.39.12.49.28s0 .48 0 .66a1.18 1.18 0 0 0 .16.5 6.11 6.11 0 0 0 .27.66c.2.27.32.19.61.22.53.06 1.06.17 1.6.21.2.25 0 .66.11 1s.2.22.38.32a3.15 3.15 0 0 1 1.14.71c.14.2.22.52.47.62s.36 0 .43 0c.32.2 0 .8-.16 1 0 .32-.19.47-.2.79a2.66 2.66 0 0 0 0 .69 2.41 2.41 0 0 0 .27.61c.11.22.19.47.29.69a3.31 3.31 0 0 0 1 1.36c.23.14.37.15.54.42a1.69 1.69 0 0 1 .15 1v.66c0 .43.22.57.36.94.23.56-.17 1-.13 1.6a7.48 7.48 0 0 0 .46 1.55c.09.28.1.54.21.81a3.88 3.88 0 0 0 .4.85c.32.49.59 1 1.19 1.26.18.07.64.18.77 0a2.11 2.11 0 0 0 0-.83l-.08.2c-.34-.32-.79-.52-.86-1s0-.77 0-1.14a3.63 3.63 0 0 1 0-1.09c.11-.43.65-.6.9-1a4.79 4.79 0 0 1 .36-.41c.16-.18.17-.41.3-.57s.34-.22.41-.48 0-.46 0-.68.18-.33.23-.53.09-.4.42-.59c.57-.34 1-.37 1.13-1 .06-.22.1-.44.15-.65s.23-.42.33-.69a3 3 0 0 0 .11-1.31c-.06-.35-.56-.7-.91-.8a6.92 6.92 0 0 1 -.77-.14c-.24-.1-.27-.24-.48-.36s-.42 0-.59-.24a3.38 3.38 0 0 1 -.2-.66c-.12-.36-.09-.33-.43-.45a4.25 4.25 0 0 1 -.43-.21c-.19-.09-.3-.14-.49-.25a4.22 4.22 0 0 0 -.78-.3l-.48-.21a2 2 0 0 0 -.8-.19 4 4 0 0 0 -1.43-.09c-.34.12-.06.21-.27.44a1.15 1.15 0 0 1 -.88 0 2.19 2.19 0 0 1 -.4-.59c-.06-.22.23-.39.13-.6-.19-.43-1.07 0-1.27-.42.21-.23.69-.47.53-.87s-.65-.25-.82.06 0 .26-.25.37a1.4 1.4 0 0 1 -.54 0 .8.8 0 0 1 -.66-.69 1.06 1.06 0 0 1 0-.53c.09-.31.15-.18.37-.36s.21-.49.4-.69a2 2 0 0 1 1-.25c.49 0 .94-.12 1.26.28s.49.85 1.13.79a.6.6 0 0 0 0-.35c-.32-.18-.05-.9.16-1.1s.39-.29.49-.54.12-.46.38-.69a6.09 6.09 0 0 0 .61-.53c.09-.11.18-.37.28-.45s.44-.08.66-.08c.9 0 .16-.8.9-.95.25-.05.46.17.68.12s.1-.42.06-.64c-.11-.48-.05-.23.32-.31s.39-.41.72-.29c.51.19-.06 1.19.78.93s-.27-.67-.31-1c0-.13.17-.28.19-.42a.58.58 0 0 0 -.11-.44c-.06-.1-.19-.11-.25-.23l-.1-.39c-.07-.22-.24-.78-.51-.69s-.23.63-.4.81c-.48-.22.1-1.45-.75-1.19-.4.13-.27.45-.5.75-.1.12-.29.17-.36.29s0 .35 0 .48-.16.2-.22.33a3.45 3.45 0 0 0 -.12.46c-.17.52-.76 1-.88.21a1.77 1.77 0 0 1 0-.46l.14-.39c-.11-.32-.39 0-.62-.09s-.2-.22-.35-.4-.25-.22-.32-.39c-.29-.72.42-.55.87-.61.08 0 .17-.14.28-.15a1.76 1.76 0 0 1 .37.08 1.71 1.71 0 0 0 .5 0c.21-.07.24-.26.35-.41.23-.32.13-.21.45-.34s.44-.38.7-.59c.51-.4.5.1.57.5.05.25.13.83.36 1a.57.57 0 0 0 .76-.27l.12-.41c.1-.12.25 0 .34-.14.32-.33-.14-.44-.35-.74s-.07-.27-.14-.42-.34-.2-.41-.44a.73.73 0 0 1 .25-.65c.26-.27.37-.21.75-.25a.74.74 0 0 1 .57.06c.22.11.24.37.42.48s.61.19.8.39a1.44 1.44 0 0 1 .34.94c-.07.28-.31.28-.43.48a1.61 1.61 0 0 0 -.07 1 .57.57 0 0 0 .84.38c.13-.08.25-.4.35-.52.28-.31.6-.32 1-.51s.43-.38.67-.54c.42-.3 1-.36 1.36-.64.15-.11.27-.26.42-.38s.32-.1.62-.22c.52-.19.38-.75.72-1 .12-.09.34 0 .38-.23s-.26-.31-.44-.36z" fill="#27a2db"/><path d="m77.41 90c.74 0 .68 0 .92-.62.08-.21.2-.67.28-.84s.3-.34.57-.62.33-.88.61-1.32a8.71 8.71 0 0 0 .93-1.35c.47-1.09-.35-2.07.27-3.18.44-.77 2.35-1.47 1.91-2.52-.63 0-1.1.37-1.28-.38s0-1.11.76-1.12 1.52.2 2-.33.24-1 .35-1.61c.37.22.32.5.58.75a2.6 2.6 0 0 0 1.27.72c.46.06.59-.18 1 .24s.22.39.22.83 0 1 .42 1.47c.14.13.48.41.69.33.36-.14-.23-1.47-.3-1.72.53-.33 1.09-.21 1.47-.59s.17-1 .87-.78.28 1 .49 1.44.89.79.89 1.43c0 .29-.41.66-.35 1s.22.28.5.5c.46.39.66 1 1.16 1.32a11.29 11.29 0 0 0 1.14.76c.51.27 1 .1 1.52.33a7.58 7.58 0 0 0 1.25.59c.42.12.46-.33.55.33s-.62.78-1 1-.77.68-1.25.92-.78.4-.85 1c-.11 1.12.27 2.49 1.71 2.11.53-.14.76-1 1.41-.53.28.2.29.59.47.85a1.42 1.42 0 0 0 1.13.67c.41.08 1.17.4 1.5 0 .17-.21.06-.54.19-.77s.64-.63.85-1 .33-.39.32-.76c0-.8-.77-1.39-.82-2.25 0-.66.16-1.73-.71-1.91 0 .59.71 2.25-.48 2.24-.61 0-.85-1-.89-1.55s.2-.83-.42-1c-.33-.07-.58.14-.86.12a2.39 2.39 0 0 1 -1.64-.67c-.56-.77.43-.6.92-.72.21-.06.21-.26.55-.23s.72.39 1 .56a4.15 4.15 0 0 0 2.21.77c.2 0 1 .1 1.11 0 .36-.42-.37-.59-.58-.65-.59-.15-1-.06-1.39-.61s-.11-.6-.67-.78c-.36-.11-.4 0-.65-.25-.09-.09 0-.32-.12-.42s-.38 0-.54-.16a1.22 1.22 0 0 1 -.58-.71c-.1-.27-.12-.54-.23-.82-.24-.59-.69-1.19-1.44-.9s-.46 1.07-.58 1.58c-.06.27 0 .52-.25.72-.47.43-1-.21-1-.64s.17-1.06.12-1.6c0-.29-.23-.72-.11-1 .21-.55.66-.27 1.1-.48a1.11 1.11 0 0 0 .6-1.68c-.25-.49-1.12-1.19-.52-1.82s1.23.65 1.63.91c.58.37 2 .28 1.7-.85-.54-.06-1.22.12-1.65-.28a2.42 2.42 0 0 1 .49-2c.23-.31.41-.33.13-.69-.42-.56-1.48-.14-2-.48a.75.75 0 0 1 -.25-.89c.32-.67.89.08 1.4 0 .29-.07.52-.52.89-.6s.6.15.92 0c.28.43-.08 1.1.23 1.51a4.61 4.61 0 0 0 1.19.73 1 1 0 0 0 .22-.56.85.85 0 0 1 -.32-1.12c.31-.55 1.22-.57.75-1.36s-2-.9-2.76-1.27a2.38 2.38 0 0 0 -1.36-.28c-.43 0-.86.28-1.23.29s-.41-.19-.63-.22-.56.09-.82 0-.34-.31-.57-.36a3.48 3.48 0 0 0 -.85.06 14.32 14.32 0 0 1 -3.21.16c-.68-.12-.79-.51-1.44-.55a7.57 7.57 0 0 0 -1.9.12 10.94 10.94 0 0 0 -1.47.48 7 7 0 0 1 -1.9.36 5.69 5.69 0 0 0 -2 .53 1.49 1.49 0 0 1 -1.55.08c-.19-.09-.37-.39-.53-.45a4.45 4.45 0 0 0 -1.55-.09 2.38 2.38 0 0 0 -1.4.31c-.36.2-.34.32-.55.62s-.6.69-.86 1c-.43.59-.18.83-.25 1.49-.16 1.37-1.11-.52-1.5-.55-1.7-.17-.11 2.41-.17 2.9s-.74.59-1.08.94a1.41 1.41 0 0 0 -.48 1.14 1.33 1.33 0 0 1 -.51 1.17 1.91 1.91 0 0 0 -.69.88 4.47 4.47 0 0 0 0 2.73c.28.84 1.15 2.08 2.09 2 .62-.09 1.24-.52 2-.38.93.18.89.84 1 1.54.1.53.6.67.6 1.15 0 .24-.27.49-.3.73s.06.38.12.65a5 5 0 0 0 .18.94c.11.22.46.38.55.58a3.44 3.44 0 0 1 0 1.28c0 .28-.2.4-.15.68s.42.52.59.75.86 1.51.95.58z" fill="#27a2db"/><path d="m71.93 54.12a7 7 0 0 0 -7 7c0 3.86 6.81 14.65 7 14.65 0 0 7-10.79 7-14.65a7 7 0 0 0 -7-7z" fill="#e56353"/><path d="m71.93 56.36a4.67 4.67 0 1 0 4.67 4.64 4.67 4.67 0 0 0 -4.67-4.64z" fill="#ebf0f3"/></svg>