<svg id="Layer_1" height="512" viewBox="0 0 150 150" width="512" xmlns="http://www.w3.org/2000/svg" data-name="Layer 1"><circle cx="75" cy="75" fill="#89c5cd" r="64"/><path d="m70.61 87.2v-15.76l-.38-.17v-8.11l-6.56 3.24-6.54-3.24v8.11l-.08.04v15.89z" fill="#f7be56"/><path d="m85.72 82.21a7.35 7.35 0 0 0 -4.35-6l-11.14-4.94a8.24 8.24 0 0 1 -13.1 0l-11.13 4.93a7.35 7.35 0 0 0 -4.35 6l-1.15 11.49h46.35z" fill="#fe7058"/><path d="m75.26 53c-.83-.67-1.59.74-2 1.66l-.8-10.84-4-1.9-4.77-.44h-.11l-4.77.44-4 1.9-.73 9.88c-.4-.65-.93-1.15-1.5-.7-1.2 1 .33 4 1.13 5.13s.17 2.76 1.56 2l1.45 4.44a4.5 4.5 0 0 0 1.49 2.12l2 1.63a4.5 4.5 0 0 0 2.79 1h1.41a4.48 4.48 0 0 0 2.86-1l1.89-1.55a4.49 4.49 0 0 0 1.44-2.14l1.46-4.69c1.91 1.31 1.16-.7 2-1.78s2.41-4.22 1.2-5.16z" fill="#fcd462"/><path d="m73 57h.65s.58-8.75.32-11.51-2.59-2.42-2.59-2.42.13-3.42-3.83-3.8-11.15-.2-12.9 4.68-.39 13-.39 13l.74-.1s.36-9.23 1-9.93 4.55-1.22 7.5-1 6-.89 7.16.65 2.07 6.61 2.14 7.38.2 3.05.2 3.05z" fill="#3a556a"/><path d="m74.75 44a11.73 11.73 0 0 0 -10.52-7.72 11.56 11.56 0 0 0 -11.89 11.53 10.94 10.94 0 0 0 .17 1.91 1.27 1.27 0 0 0 1.25 1.05h20.24a1.27 1.27 0 0 0 1.25-1.05 10.79 10.79 0 0 0 -.5-5.72z" fill="#ebf0f3"/><path d="m63.58 36.27c-3.26.3-5.87 5.35-5.87 11.54a20.08 20.08 0 0 0 .21 2.95h-.86a17.62 17.62 0 0 1 -.24-2.95c0-6.21 3-11.27 6.76-11.54z" fill="#d5d6db"/><path d="m71 47.81a17.62 17.62 0 0 1 -.24 2.95h-.86a21.56 21.56 0 0 0 .21-2.95c0-6.19-2.61-11.24-5.87-11.54 3.76.27 6.76 5.33 6.76 11.54z" fill="#d5d6db"/><path d="m74.28 49.85a42.45 42.45 0 0 0 -20.89 0 .5.5 0 0 0 -.34.65l1.11 3.39a1.52 1.52 0 0 0 1.79 1 38.48 38.48 0 0 1 15.78 0 1.53 1.53 0 0 0 1.79-1l1.11-3.4a.5.5 0 0 0 -.35-.64z" fill="#d5d6db"/><path d="m63.9 36c-.91 0-1.65.14-1.65.31s.74.31 1.65.31 1.65-.14 1.65-.31-.74-.31-1.65-.31z" fill="#64798a"/><path d="m87 111.48h-46.65a1.28 1.28 0 0 0 0 2.56h46.65a1.28 1.28 0 0 0 0-2.56z" fill="#2f4859"/><path d="m87 81.45h-46.68a1.63 1.63 0 0 0 -1.62 1.8l3 27.38a1.63 1.63 0 0 0 1.62 1.45h40.68a1.63 1.63 0 0 0 1.62-1.45l3-27.38a1.63 1.63 0 0 0 -1.62-1.8z" fill="#3a556a"/><path d="m95.87 42.08c-8.52 0-15.43 5.43-15.43 12.13 0 3.69 2.09 7 5.39 9.21l-3.2 7.19 7.12-5.25a19 19 0 0 0 6.12 1c8.53 0 15.44-5.43 15.44-12.14s-6.91-12.14-15.44-12.14z" fill="#fe7058"/><path d="m101.71 47.29h-3.85l-1.94 1.06-2-1.06h-3.92a.57.57 0 0 0 -.57.56v11a.58.58 0 0 0 .57.57h11.67a.57.57 0 0 0 .56-.57v-11a.56.56 0 0 0 -.52-.56z" fill="#fcd462"/><path d="m97.86 51.66-.48-.33-.52.33-.45-.33-.53.33-.52-.33-.52.33-.53-.33-.42.33v-4.37h3.97z" fill="#ebf0f3"/><g fill="#3a556a"><path d="m91.77 56.16-.64-.9-.63.9h.36v2.18h.55v-2.18z"/><path d="m93.27 56.16-.64-.9-.63.9h.36v2.18h.55v-2.18z"/><path d="m95.41 56.24v-1h-.57l-.31.41.31.28-.42.6.19-.47-.39-.39.29-.43h-.7v1a.8.8 0 0 0 .69.79v.74a.4.4 0 0 1 -.4.4h-.1l-.09.08.09.09h1.2l.08-.09-.08-.08h-.09a.4.4 0 0 1 -.41-.4v-.77a.8.8 0 0 0 .71-.76z"/><path d="m97.42 55.45v-.12l-.06-.07-.06.07v.12a1.55 1.55 0 0 0 -1.49 1.55s.09-.06.2-.06.2 0 .2.06.13-.09.29-.09.25 0 .27.07c0-.08.25-.14.52-.14v1.22l-.17.17-.12-.18v-.17l-.06-.06-.06.06v.17a.29.29 0 1 0 .57 0v-1.22c.29 0 .52.08.52.17s.13-.09.28-.09.29 0 .29.09.09-.06.2-.06.2 0 .2.06a1.55 1.55 0 0 0 -1.52-1.55z"/></g></svg>