<svg id="Layer_1" height="512" viewBox="0 0 150 150" width="512" xmlns="http://www.w3.org/2000/svg" data-name="Layer 1"><circle cx="75" cy="75" fill="#d5d6db" r="64"/><circle cx="75" cy="75" fill="#3a556a" r="43.62"/><circle cx="75" cy="75" fill="#2f4859" r="34.81"/><path d="m56.3 70.23-9-2.91a28.28 28.28 0 0 0 -1 7.69 28.71 28.71 0 0 0 8.42 20.34l6.71-6.72a19.28 19.28 0 0 1 -5-18.4z" fill="#fcd462"/><path d="m48 65 9.06 2.91a19.28 19.28 0 0 1 16.7-12.15v-9.54a28.82 28.82 0 0 0 -25.76 18.78z" fill="#27a2db"/><path d="m93 68 9-2.89a28.81 28.81 0 0 0 -25.77-18.89v9.51a19.31 19.31 0 0 1 16.77 12.27z" fill="#44c4a1"/><path d="m102.79 67.46-9.06 2.91a19.33 19.33 0 0 1 -6 19.14l6.73 6.73a28.85 28.85 0 0 0 8.34-28.78z" fill="#fe7058"/><path d="m75 61.43-3.64 26.45h7.28z" fill="#d5d6db"/><path d="m75 75.11a5 5 0 1 0 5 5 5 5 0 0 0 -5-5z" fill="#ebf0f3"/><circle cx="75" cy="80.07" fill="#e56353" r="2.69"/></svg>