<svg id="Layer_1" height="512" viewBox="0 0 150 150" width="512" xmlns="http://www.w3.org/2000/svg" data-name="Layer 1"><circle cx="75" cy="75" fill="#d5d6db" r="64"/><path d="m64.4 91.44h21.19v11.6h-21.19z" fill="#2f4859"/><path d="m39.4 44.58h71.2v48.42h-71.2z" fill="#3a556a"/><path d="m43.4 48.58h63.2v40.42h-63.2z" fill="#27a2db"/><path d="m56.18 101.8h37.63v3.62h-37.63z" fill="#3a556a"/><g fill="#ebf0f3"><path d="m55.21 54.13h9.63v9.63h-9.63z"/><path d="m55.21 72.27h9.63v9.63h-9.63z"/><path d="m67.61 55.99h28.41v1.67h-28.41z"/><path d="m67.61 60.23h14.2v1.67h-14.2z"/><path d="m67.61 74.13h28.41v1.67h-28.41z"/><path d="m67.61 78.38h14.2v1.67h-14.2z"/></g><path d="m59.22 61.65-2.35-2.35.7-.71 1.65 1.65 3.31-3.31.71.7z" fill="#3a556a"/><path d="m59.22 79.7-2.35-2.36.7-.7 1.65 1.64 3.31-3.31.71.71z" fill="#3a556a"/></svg>