<svg id="Layer_1" height="512" viewBox="0 0 150 150" width="512" xmlns="http://www.w3.org/2000/svg" data-name="Layer 1"><circle cx="75" cy="75" fill="#334d5c" r="64"/><path d="m49.42 102.56v-13.71h24.91v13.71h1.59v-13.71h24.92v13.71h1.59v-15.3h-26.51v-12.61h-1.59v12.61h-26.5v15.3z" fill="#44c4a1"/><path d="m95.71 58.12a20.59 20.59 0 1 1 -20.58-20.59 20.58 20.58 0 0 1 20.58 20.59z" fill="#ededed"/><path d="m90.88 70.77c2.18-2.42 3.29-6.81 3.46-10a26.82 26.82 0 0 0 -1.47-10.85.84.84 0 0 1 .6-1.15 21.41 21.41 0 0 0 -1.79-2.89 20.59 20.59 0 1 0 -7.37 30.68c.34-.17.68-.35 1-.54a19.93 19.93 0 0 0 2.37-1.58 20.61 20.61 0 0 0 2.15-1.92c.2-.19.38-.39.56-.59l.24-.28a1 1 0 0 1 .25-.88z" fill="#ededed"/><path d="m95.72 58.12a20.5 20.5 0 0 1 -5.32 13.8h-.07a.43.43 0 0 0 -.36.26c-.06.11-.08.22-.13.33a20.61 20.61 0 0 1 -2.15 1.92h-.18c-.24 0-.28.13-.39.31a1.3 1.3 0 0 1 -.57.49 4.3 4.3 0 0 1 -.84.21c-.18 0-.26 0-.32.24a1.28 1.28 0 0 0 -.07.35c-.33.19-.67.37-1 .54 0-.49.33-.89.35-1.38a1.93 1.93 0 0 1 0-.34c0-.13.1-.16.15-.27s.13-.42 0-.53-.37-.14-.41-.4v-.21a1.83 1.83 0 0 0 -.06-.74.5.5 0 0 0 -.5-.28c-.19 0-.36.13-.54.06s-.15-.14-.24-.18h-.24c-.24 0-.48 0-.72 0a1.86 1.86 0 0 1 -.51-.15c-.26-.08-.32-.2-.46-.39s-.24-.27-.34-.42l-.13-.14-.09-.27c-.08-.15-.27-.2-.33-.37a1.11 1.11 0 0 1 0-.48c0-.13.12-.33.06-.45s-.28-.08-.39-.08a.47.47 0 0 0 -.46.28.74.74 0 0 0 -.17.42 1.13 1.13 0 0 0 0 .41c0 .17.23.21.32.36s0 .39.12.57a1 1 0 0 1 .08.42c0 .34.37.41.66.4.11 0 .43-.06.52.06s0 .44 0 .57a1.37 1.37 0 0 1 0 .35.81.81 0 0 1 -.29.39 1.7 1.7 0 0 1 -.59.43 1.54 1.54 0 0 1 -.58.23 4.21 4.21 0 0 0 -.6.11 5.74 5.74 0 0 0 -.71.09 3.12 3.12 0 0 1 -.43.15 2.62 2.62 0 0 1 -.28 0 4.45 4.45 0 0 1 -.73 0 2.91 2.91 0 0 1 -.3-.17 1.32 1.32 0 0 0 -.33-.08 2.34 2.34 0 0 0 -.7 0 1.06 1.06 0 0 1 -.78.05c-.11-.06-.09-.08-.15-.18l-.17-.19c-.07-.06-.23-.19-.23-.28l.09-.17c.1-.16.23-.32.33-.49a1.86 1.86 0 0 0 .38-.74 1.31 1.31 0 0 0 0-.56 4.41 4.41 0 0 1 -.06-1.09 1.57 1.57 0 0 1 0-.65c.05-.12.16-.2.18-.34a3.61 3.61 0 0 0 0-.87c0-.22.1-.69-.15-.77s-.59.22-.57.54a5.38 5.38 0 0 1 -.12.7 2.07 2.07 0 0 1 0 .61c-.07.19-.26.27-.35.43a1.18 1.18 0 0 0 0 .56 1.3 1.3 0 0 1 -.11.58 2.85 2.85 0 0 0 -.26.56 4.78 4.78 0 0 0 0 1 1.4 1.4 0 0 1 -.24.94c-.12.15-.18.18 0 .31a5.07 5.07 0 0 0 .84.42c.2.08.43.15.62.25a1.54 1.54 0 0 0 .53.14c.25.06.49.14.73.22s.39 0 .43.11a.7.7 0 0 1 -.63.31 2.6 2.6 0 0 0 -.73.18 2 2 0 0 0 -.5.31 1 1 0 0 1 -.71.28 2.35 2.35 0 0 0 -.83.08 3.58 3.58 0 0 1 -1 .29 7.51 7.51 0 0 0 -1.5 0 5.61 5.61 0 0 1 -1.29.09c-.12 0-.23 0-.34 0a2 2 0 0 0 -.94.07l-.12.07a20.56 20.56 0 0 1 -8.8-6.45 1.2 1.2 0 0 0 .36-.35 1 1 0 0 0 .09-.3c.05-.2.16-.32.15-.54a3.48 3.48 0 0 0 -.12-.56c0-.17 0-.59.13-.71s.33-.05.46-.07a1.59 1.59 0 0 0 .37-.18c.31-.18.29-.37.18-.67a4 4 0 0 1 -.11-.47 1.8 1.8 0 0 0 -.3-.5 2.67 2.67 0 0 1 -.27-.78.77.77 0 0 0 -.15-.36l-.16-.11a1.85 1.85 0 0 1 -.31-.57 2.24 2.24 0 0 0 -.35-.55c-.21-.22-.41-.44-.61-.67s-.28-.26-.4-.4-.13-.29-.21-.41a1.41 1.41 0 0 1 -.27-.37 5.28 5.28 0 0 1 -.45-1.2 11.81 11.81 0 0 1 0-1.19 4.65 4.65 0 0 1 .08-.74 1.77 1.77 0 0 1 .18-.45l.12-.21a4 4 0 0 1 0-.49.85.85 0 0 1 .24-.29c.15-.16.35-.33.48-.5a2.62 2.62 0 0 0 .22-.52 1 1 0 0 1 .48-.38.66.66 0 0 1 .44-.12.83.83 0 0 0 .64-.27 1.41 1.41 0 0 0 .31-.34l.14-.25a.9.9 0 0 1 .55-.34 3.5 3.5 0 0 0 .56 0l.46-.08h.69a2.07 2.07 0 0 1 .61 0 11.09 11.09 0 0 0 1.53.7c.3.06.61 0 .91.09a.78.78 0 0 0 .37 0 .73.73 0 0 1 .61 0l.24.19c.09.07.2.09.28.15a1.76 1.76 0 0 1 .38.39c.16.22.33.42.49.63a4.08 4.08 0 0 0 .28.44c.12.13.34.15.48.26s.19.37.42.43a3.39 3.39 0 0 1 .43.11c.14 0 .31.06.4.19s.17.51.39.72.72.63.61 1.08-.4.68-.5 1.05a.76.76 0 0 0 0 .42c0 .09.08.16.1.26a3.24 3.24 0 0 0 0 .44 2.82 2.82 0 0 0 .21.38c.11.2.21.41.32.62a.85.85 0 0 0 .57.46c.19 0 .31-.11.51 0a.71.71 0 0 1 .38.28v.52a1.62 1.62 0 0 0 .16.61 1.23 1.23 0 0 0 .66.5 2.17 2.17 0 0 1 .54.16 1.41 1.41 0 0 1 .31.56c.13.26.41.31.63.46a1.08 1.08 0 0 0 .47.28 4.13 4.13 0 0 0 .93 0c.2 0 .38-.15.57-.19s.46-.12.52-.36a1.31 1.31 0 0 0 0-.59c0-.15-.24-.18-.36-.25a2 2 0 0 0 -.55-.25 1.35 1.35 0 0 1 -.28 0 2.57 2.57 0 0 1 -.63-.52.67.67 0 0 1 -.26-.53 1.06 1.06 0 0 1 0-.56 2.92 2.92 0 0 1 .84.07 4 4 0 0 0 .83.12.86.86 0 0 0 .73-.25c.18-.25 0-.66.3-.84a5.67 5.67 0 0 1 .65 1c.16.32.28.6.64.7.17 0 1 .13.93-.24 0-.13-.28-.25-.35-.33a1.84 1.84 0 0 1 -.41-.87c0-.27-.15-.27-.36-.43s-.21-.29-.36-.41a1.34 1.34 0 0 1 -.41-.51c-.08-.18 0-.53-.16-.66s-.36-.06-.48-.06a.43.43 0 0 0 -.41.13 1.67 1.67 0 0 1 -.47.33c-.12.13-.07.34-.07.5a.88.88 0 0 1 0 .51 1.17 1.17 0 0 1 -.9.41c-.24 0-.23-.23-.32-.4s-.17-.25-.26-.38a.62.62 0 0 0 -.53-.29.18.18 0 0 0 -.08.25v.09c0 .12-.46.35-.48.35-.18.07-.38.14-.43-.08v-.26a.72.72 0 0 1 .29-.64c.23-.19.39-.28.42-.61a2.89 2.89 0 0 1 .11-.82c0-.1.07-.21.09-.31a6.49 6.49 0 0 0 0-.77c0-.17.07-.56-.12-.67h-.18l-.12.12c-.09.11-.06.2-.23.25s-.49.12-.61 0v-.21-.46a1.35 1.35 0 0 0 0-.53c-.19-.29-.64 0-.83-.22s0-.39-.15-.55-.26-.4-.46-.37l-.16.09a.74.74 0 0 1 -.33 0l-.17-.08a1.08 1.08 0 0 0 -.36 0h-.73c-.24 0-.46.11-.7.12s-.39-.19-.55-.47-.36-.34-.49-.55-.32-.55-.46-.85a2.33 2.33 0 0 1 -.28-.65c-.06-.32.39-.19.58-.28s.38-.33.58-.41a2 2 0 0 1 .59-.07c.17 0 .49-.08.65 0l.1.19c.08.17.21.3.28.49s.14.34.19.52a.59.59 0 0 0 .33.36.78.78 0 0 0 .64-.12 1.54 1.54 0 0 0 .43-.33c.08-.12 0-.22.06-.35a.58.58 0 0 1 .13-.31c.1-.18.22-.61.51-.53s.32.25.45.33.29.24.46.36a2.63 2.63 0 0 0 .38.3 1.52 1.52 0 0 0 .6 0c.25 0 .45-.16.66 0a1.28 1.28 0 0 0 .47.29 2.53 2.53 0 0 0 .38.07c.2 0 .18 0 .27-.11s.17-.27.39-.31a.63.63 0 0 1 .53.12 4.07 4.07 0 0 1 -.31.53.25.25 0 0 0 0 .3c.07.18.22.35.28.55a.68.68 0 0 1 .06.35.48.48 0 0 0 .19.43 1.66 1.66 0 0 0 .5.38c.23.09.39 0 .58-.13s.4-.52.76-.51.68.11.89-.06.11-.38.14-.57a4.05 4.05 0 0 0 0-.48c0-.36.3-.46.6-.55.45-.15 1-.32 1.06-.84a2 2 0 0 0 -1.32.13 4.92 4.92 0 0 0 -.73.64 1 1 0 0 1 -.44.29l-.36.16c-.18.12-.32.33-.56.35h-.43c-.77 0-.17-.77-.14-1.16s0-.37-.25-.4-.51-.09-.53-.32.24-.28.36-.38.36-.44.57-.61c.37-.29.93-.18 1.38-.18.29 0 .55-.06.83-.06h1.44a1.4 1.4 0 0 0 .3.15 1.78 1.78 0 0 0 .46 0 2.69 2.69 0 0 1 .57 0c.21 0 .21.17.18.36s0 .25-.07.37a.38.38 0 0 0 .19.24 3.19 3.19 0 0 1 .35.55l.19.14a3.3 3.3 0 0 1 .35.28c.14.13.25.27.45.29s.69 0 1 0a1.62 1.62 0 0 0 .44 0l.18-.19a2.35 2.35 0 0 1 .32-.23c.27-.31 0-.83.3-1.12.26.18 0 .5 0 .69a3.1 3.1 0 0 0 0 .43.8.8 0 0 0 .26.46c.11.13.36.38.56.26s.19-.42.25-.57a2 2 0 0 1 .3-.48 6.23 6.23 0 0 0 .8-1c.11-.2.07-.45.17-.64a1.24 1.24 0 0 0 .17-.27 3.84 3.84 0 0 0 0-.83 1 1 0 0 1 0-.35 3.58 3.58 0 0 1 .24-.72c.3.06.47.33.76.38a3 3 0 0 0 .6 0h.27a1 1 0 0 0 .19-.51c0-.21 0-.44 0-.64s0-.37 0-.54a.91.91 0 0 1 .16-.45c.09-.11.22-.17.26-.31a2.9 2.9 0 0 0 0-.78.49.49 0 0 0 -.17-.35l-.3-.16c-.13-.13-.08-.34-.08-.51v-.53a20.5 20.5 0 0 1 4.07 12.31z" fill="#4da0dc"/><path d="m90.47 44.88a1.75 1.75 0 0 0 -.28-.13h-.22c-.1 0-.13-.09-.18-.17s-.29-.23-.29-.41v-.27l.12-.22c-.07-.13-.44-.06-.55 0a.64.64 0 0 1 -.33.07 1 1 0 0 1 -.43-.33l-.18-.24c-.13-.07-.29-.08-.42-.15a1.22 1.22 0 0 1 -.45-.36c-.06-.09-.12-.19-.19-.28a1.78 1.78 0 0 0 -.38-.28l-.2-.19a1.65 1.65 0 0 0 -.49-.21 1 1 0 0 1 -.28-.18 1.13 1.13 0 0 0 -.36-.19 2.55 2.55 0 0 1 -.57-.29l-.2-.12a2.44 2.44 0 0 1 -.41-.24l-.3-.2c-.09-.07-.16-.09-.2-.19l-.11-.3h-.18a.67.67 0 0 1 -.25-.25.48.48 0 0 0 -.22-.15l-.29-.17c-.16-.1-.16-.24-.21-.41v-.18a20.54 20.54 0 0 0 -7.25-1.32 20.83 20.83 0 0 0 -3.38.28c-.07.07-.14.11-.16.21s0 .2 0 .29l-.11.27-.24.06-.23.15-.21.15-.07.25a.48.48 0 0 1 -.12.26c-.1.11-.07.24 0 .38a1.33 1.33 0 0 0 .23.38l.08.15.06.08c.13.08.29 0 .41.11l.16.14.16.07c.11.07.16.25.24.36s0 .21 0 .34.22.28.43.29.23 0 .33 0l.13.11.12.15v.1l-.07.32-.15.06-.34.17c-.06.09 0 .2.06.28a.35.35 0 0 0 .28.23h.22l.16-.13h.2l.15-.06.09-.11h.49v.36c-.07.09-.13.09-.13.21s.09.31.17.5a1.19 1.19 0 0 1 -.79.15.55.55 0 0 0 -.28.07v.22a2.2 2.2 0 0 0 .24.38l.18.15a1.84 1.84 0 0 0 .47 0 3.38 3.38 0 0 1 .55 0c.13 0 .33.09.43 0l.11-.17h.18a.27.27 0 0 0 .26-.08c.16-.14.37-.06.54-.13l.17-.08a.83.83 0 0 1 .27 0 .94.94 0 0 0 .41 0l.13-.07h.2.23a1.09 1.09 0 0 0 .4-.12c.12-.09.1-.26.09-.4v-.17l-.09-.19h1s.55-.27.42-.52l-.19-.2a.91.91 0 0 0 -.33 0 .9.9 0 0 1 -.4 0c-.15-.1-.21-.3-.41-.33a.93.93 0 0 1 -.39-.12l-.17-.17v-.17a.57.57 0 0 1 .3-.21.7.7 0 0 1 .25 0h.26l.13-.11c.12-.12.48-.07.64-.06a3.27 3.27 0 0 0 .44 0h.17c.09 0 .15.09.21.14s.11.09.2.07a1 1 0 0 1 .3 0c.12 0 .14.16.2.25a1 1 0 0 0 .19.21.49.49 0 0 1 .21.43c-.19.1-.51.13-.62.31a.57.57 0 0 0 -.08.36c0 .28.41.31.64.3a1.61 1.61 0 0 1 .38 0c.11 0 .14.13.21.21a.4.4 0 0 0 .3.15 1 1 0 0 1 -.9.53 1.1 1.1 0 0 1 -.57-.08.65.65 0 0 1 -.26-.2l-.13-.08h-.3l-.12.09c-.09.06-.21.07-.26.18a.88.88 0 0 0 -.06.36c0 .25.13.33.35.35a3 3 0 0 0 .43.09h.13a5 5 0 0 1 .55 0 2 2 0 0 1 .26.11 1.42 1.42 0 0 0 .36 0 .77.77 0 0 1 .33.06.58.58 0 0 0 .26 0h2.06l.1.24v.18.21a2.14 2.14 0 0 1 .08-.07c0 .15 0 .17-.11.29s-.2.1-.29.16a.56.56 0 0 1 -.26.12h-.26c-.2 0-.4 0-.6 0a1.28 1.28 0 0 1 -.33-.06.87.87 0 0 0 -.32-.06 1.08 1.08 0 0 1 -.4-.11 1.23 1.23 0 0 0 -.42-.14.34.34 0 0 1 -.21-.08l-.12-.09-.1-.1c-.12-.06-.23.05-.31.14s-.23.27-.36.4l-.19.13h-.28a1.22 1.22 0 0 1 -.29-.17.52.52 0 0 0 -.33-.12h-1.04c-.1 0-.17.22-.2.31a.85.85 0 0 0 .34.79l.13.1.21.06c.14.09.13.28.31.32s.63 0 .74.28v.17l.13.2c.08.1.07.21.14.32s.32.3.47.46a.73.73 0 0 0 .35.21 3.69 3.69 0 0 0 .88 0h.56 2.48c.1 0 .18 0 .26-.05a.74.74 0 0 0 .19-.36v-.23a.59.59 0 0 0 -.1-.26 1.49 1.49 0 0 1 0-.56.43.43 0 0 1 .08-.31l.06-.09c.08-.1.2-.12.3-.19s.1-.17.1-.29v-.61c0-.15.14-.21.11-.37l-.09-.21-.15-.05c-.11 0-.25-.16-.26-.29s.1-.29.11-.41v-.25c0-.11 0-.23 0-.35s-.29-.3-.47-.44l-.2-.24c0-.1.1-.21.17-.26a.4.4 0 0 1 .31-.08.69.69 0 0 1 .32 0c.26.14.16.55.16.79a1.09 1.09 0 0 0 0 .36l.2.22a.42.42 0 0 0 .26.14 1.41 1.41 0 0 0 .29 0c.13 0 .22-.06.22-.19a.39.39 0 0 0 -.17-.32.8.8 0 0 1 -.26-.29.73.73 0 0 1 0-.39v-.28h.31a.75.75 0 0 1 .36.07l.16.17c.14.1.36.05.53 0a.62.62 0 0 1 .49.26.6.6 0 0 1 .2.27 1.45 1.45 0 0 0 .4.55c.15.15.23.34.38.5h.24s.21 0 .3.18l.15.2.08.12c.12.06.27-.14.32-.23a.44.44 0 0 0 .08-.29v-.27c.08-.2.46-.18.62-.17s.25 0 .29-.05-.1-.07-.2-.1z" fill="#4da0dc"/><path d="m54.64 56a.2.2 0 0 0 .3-.09 3.37 3.37 0 0 1 .19-.32.66.66 0 0 1 .63-.26h.24c.08 0 .11.09.2.11a2.42 2.42 0 0 0 .71 0 .71.71 0 0 0 .42-.36 1.94 1.94 0 0 0 .32-.7 1.71 1.71 0 0 0 0-.45 1.19 1.19 0 0 1 .11-.45 1.24 1.24 0 0 0 .09-.33 1.13 1.13 0 0 1 0-.45l.16-.24c.06-.12.14-.25.19-.37v-.14a.77.77 0 0 0 .1-.25v-.26c0-.1.08-.2.09-.3v-.14a4 4 0 0 1 .29-1 .79.79 0 0 1 .23-.35 1.52 1.52 0 0 0 .3-.32c.07-.14.08-.31.14-.45a.89.89 0 0 1 .26-.35 1.13 1.13 0 0 0 .23-.34 1.28 1.28 0 0 1 .3-.36 1.3 1.3 0 0 0 .29-.33 1.27 1.27 0 0 0 .06-.28 2.61 2.61 0 0 0 .06-.27 1.21 1.21 0 0 1 .17-.46c.06-.12 0-.29.13-.38a2.31 2.31 0 0 1 .39-.31c.14-.1.25-.23.38-.34a1.55 1.55 0 0 0 .24-.27c.08-.13.18-.24.27-.36s.09-.24.19-.31.3 0 .35-.13v-.09l.07-.14c.07-.2 0-.42.09-.63a1 1 0 0 1 .12-.28c.06-.09.19-.15.22-.26v-.18l.05-.19a.63.63 0 0 1 .1-.29l.15-.21a1.78 1.78 0 0 0 .17-.3 1 1 0 0 0 .12-.38v-.22c0-.1.19-.15.27-.22s.18-.19.28-.28a1.63 1.63 0 0 0 .3-.34 20.61 20.61 0 0 0 -9.97 15.62z" fill="#4da0dc"/><path d="m56.1 96.74h-5l-2.53 1.38-2.64-1.38h-5a.74.74 0 0 0 -.74.73v14.26a.74.74 0 0 0 .74.74h15.17a.74.74 0 0 0 .74-.74v-14.26a.74.74 0 0 0 -.74-.73z" fill="#fcd462"/><path d="m51.1 102.42-.63-.43-.67.43-.59-.43-.7.43-.66-.43-.68.43-.69-.43-.55.43v-5.68h5.17z" fill="#ebf0f3"/><g fill="#3a556a"><path d="m44.34 107.98-.6-.85-.6.85h.34v2.06h.53v-2.06z"/><path d="m45.77 107.98-.61-.85-.6.85h.34v2.06h.52v-2.06z"/><path d="m47 111.17h-5.13v-5.17h5.13zm-4.91-.26h4.64v-4.64h-4.6z"/><path d="m48.51 106.25h6.79v.49h-6.79z"/><path d="m48.51 107.74h6.79v.49h-6.79z"/><path d="m51.71 109.23h3.6v.49h-3.6z"/></g><path d="m82.71 96.74h-5l-2.51 1.38-2.6-1.38h-5a.73.73 0 0 0 -.74.73v14.18a.73.73 0 0 0 .74.73h15.11a.73.73 0 0 0 .74-.73v-14.18a.73.73 0 0 0 -.74-.73z" fill="#fcd462"/><path d="m77.74 100.89-.62-.44-.67.44-.59-.44-.69.44-.66-.44-.67.44-.69-.44-.55.44v-4.15h5.14z" fill="#ebf0f3"/><path d="m69.59 108.66-.74-1.05-.75 1.05h.42v2.56h.65v-2.56z" fill="#3a556a"/><path d="m71.35 108.66-.74-1.05-.75 1.05h.42v2.56h.65v-2.56z" fill="#3a556a"/><path d="m73.9 108.75v-1.14h-.67l-.35.48.36.32-.5.71.22-.55-.44-.46.33-.5h-.85v1.14a.93.93 0 0 0 .81.93v.87a.47.47 0 0 1 -.47.47h-.11l-.1.1.1.1h1.41l.1-.1-.1-.1h-.11a.47.47 0 0 1 -.47-.47v-.87a.93.93 0 0 0 .84-.93z" fill="#3a556a"/><path d="m109.08 96.48h-4.94l-2.5 1.38-2.64-1.38h-5a.73.73 0 0 0 -.73.73v14.1a.73.73 0 0 0 .73.73h15a.73.73 0 0 0 .73-.73v-14.1a.73.73 0 0 0 -.65-.73z" fill="#fcd462"/><path d="m104.14 101.3-.62-.43-.67.43-.58-.43-.69.43-.66-.43-.67.43-.68-.43-.54.43v-4.82h5.11z" fill="#ebf0f3"/><path d="m97.61 108.08-.65-.91-.65.91h.37v2.24h.56v-2.24z" fill="#3a556a"/><path d="m99.15 108.08-.65-.91-.65.91h.36v2.24h.57v-2.24z" fill="#3a556a"/><path d="m102.4 108.16v-1h-.58l-.32.42.32.28-.44.61.2-.47-.39-.4.29-.44h-.72v1a.83.83 0 0 0 .71.82v.75a.41.41 0 0 1 -.41.41h-.06l-.09.09.09.09h1.23l.08-.09-.08-.09h-.1a.41.41 0 0 1 -.41-.41v-.73a.83.83 0 0 0 .68-.84z" fill="#3a556a"/><path d="m105.5 107.36v-.13l-.07-.06-.06.06v.13a1.58 1.58 0 0 0 -1.52 1.58s.09-.06.2-.06.21 0 .21.06.13-.08.29-.08.26 0 .28.07c0-.08.26-.14.53-.15v1.22a.16.16 0 0 1 -.17.16.16.16 0 0 1 -.19-.16v-.18l-.07-.06-.06.06v.18a.3.3 0 0 0 .59 0v-1.26c.3 0 .53.08.53.17s.13-.08.29-.08.29 0 .29.08.09-.06.2-.06.21 0 .21.06a1.59 1.59 0 0 0 -1.48-1.55z" fill="#3a556a"/><path d="m103.56 106.76h-7.81v4h11.66v-4zm-4 3.86h-3.7v-3.75h3.74zm3.85 0h-3.7v-3.75h3.74zm3.86 0h-3.75v-3.75h3.75z" fill="#3a556a"/></svg>