<svg id="Layer_1" height="512" viewBox="0 0 150 150" width="512" xmlns="http://www.w3.org/2000/svg" data-name="Layer 1"><circle cx="75" cy="75" fill="#029bc5" r="64"/><rect fill="#ebf0f3" height="64.4" rx="5.95" width="70.45" x="39.78" y="58.55"/><path d="m104.28 58.55h-58.56a6 6 0 0 0 -5.94 6v8.08h70.44v-8.13a6 6 0 0 0 -5.94-5.95z" fill="#3a556a"/><g fill="#ebf0f3"><path d="m99 63.29a2.46 2.46 0 1 0 2.46 2.46 2.46 2.46 0 0 0 -2.46-2.46z"/><path d="m89.26 63.29a2.46 2.46 0 1 0 2.46 2.46 2.46 2.46 0 0 0 -2.46-2.46z"/><circle cx="79.49" cy="65.75" r="2.46"/></g><path d="m87.08 83.68h-8.42l-4.25 2.32-4.41-2.32h-8.45a1.24 1.24 0 0 0 -1.24 1.24v24a1.24 1.24 0 0 0 1.24 1.24h25.53a1.24 1.24 0 0 0 1.24-1.24v-24a1.24 1.24 0 0 0 -1.24-1.24z" fill="#fcd462"/><path d="m78.66 90.96-1.05-.73-1.14.73-.99-.73-1.17.73-1.12-.73-1.13.73-1.17-.73-.92.73v-7.28h8.69z" fill="#f7be56"/><path d="m67.07 100.09-2.26-3.17-2.27 3.17h1.28v7.77h1.97v-7.77z" fill="#3a556a"/><path d="m72.41 100.09-2.26-3.17-2.27 3.17h1.28v7.77h1.97v-7.77z" fill="#3a556a"/></svg>