<svg id="Layer_1" height="512" viewBox="0 0 150 150" width="512" xmlns="http://www.w3.org/2000/svg" data-name="Layer 1"><circle cx="75" cy="75" fill="#334d5c" r="64"/><path d="m43.03 36.71h63.94v33.75h-63.94z" fill="#44c4a1"/><path d="m47 40.68h56v25.81h-56z" fill="#ebf0f3"/><path d="m48.32 42h53.35v23.16h-53.35z" fill="#44c4a1"/><g fill="#ebf0f3"><circle cx="75" cy="53.58" r="7.22"/><circle cx="92.45" cy="53.58" r="3.04"/><circle cx="57.55" cy="53.58" r="3.04"/></g><path d="m93.12 67.76a3.11 3.11 0 0 0 -3.12 3.11v-1.61a3.11 3.11 0 0 0 -6.22 0v-.41a3.11 3.11 0 0 0 -6.22 0v-15.74a3.11 3.11 0 0 0 -6.22 0v31.49l-3.14-1.72.21-1.81a6.68 6.68 0 0 0 -2.33-5.86 12.05 12.05 0 0 0 -1-.78 1.25 1.25 0 0 0 -1.85.51c-.9 2-2.6 6.71-3.32 8.74a1.72 1.72 0 0 0 .32 1.71c2.61 3 15 19.34 15 19.73h18.61l2.39-14.5v-19.75a3.11 3.11 0 0 0 -3.11-3.11z" fill="#fcd462"/><path d="m69.07 100.01h27.16v13.28h-27.16z" fill="#e56353"/></svg>