<svg id="Layer_1" height="512" viewBox="0 0 150 150" width="512" xmlns="http://www.w3.org/2000/svg" data-name="Layer 1"><circle cx="75" cy="75" fill="#fe7058" r="64"/><rect fill="#2f4859" height="74.61" rx="5.62" width="44.97" x="52.51" y="37.69"/><rect fill="#3a556a" height="70.29" rx="3.46" width="40.65" x="54.67" y="39.85"/><path d="m55.83 49.04h38.35v51.92h-38.35z" fill="#27a2db"/><path d="m79.9 43.13h-9.8a1.12 1.12 0 1 0 0 2.23h9.8a1.12 1.12 0 1 0 0-2.23z" fill="#2f4859"/><path d="m75.71 103a2.72 2.72 0 1 0 2.71 2.72 2.72 2.72 0 0 0 -2.71-2.72z" fill="#2f4859"/><path d="m94.17 49h-38.34l-9.71 10v2.58a5.78 5.78 0 0 0 11.55 0 5.78 5.78 0 0 0 11.55 0 5.78 5.78 0 0 0 11.56 0 5.78 5.78 0 0 0 11.55 0 5.78 5.78 0 0 0 11.55 0v-2.52z" fill="#f7be56"/><path d="m57.67 59.05h-11.55l9.71-10.01h7.66z" fill="#fcd462"/><path d="m69.22 59.05h-11.55l5.82-10.01h7.68z" fill="#ebf0f3"/><path d="m80.78 59.05h-11.56l1.95-10.01h7.66z" fill="#fcd462"/><path d="m92.33 59.05h-11.55l-1.95-10.01h7.67z" fill="#ebf0f3"/><path d="m103.88 59.05h-11.55l-5.83-10.01h7.67z" fill="#fcd462"/><path d="m46.12 59.06v2.58a5.78 5.78 0 0 0 11.55 0v-2.58z" fill="#f7be56"/><path d="m57.67 59.06v2.58a5.78 5.78 0 0 0 11.55 0v-2.58z" fill="#e1e6e9"/><path d="m69.22 59.06v2.58a5.78 5.78 0 0 0 11.56 0v-2.58z" fill="#f7be56"/><path d="m80.78 59.06v2.58a5.78 5.78 0 0 0 11.55 0v-2.58z" fill="#e1e6e9"/><path d="m92.33 59.06v2.58a5.78 5.78 0 0 0 11.55 0v-2.58z" fill="#f7be56"/><path d="m82.89 75h-5.2l-2.63 1.44-2.75-1.44h-5.2a.76.76 0 0 0 -.77.77v14.84a.77.77 0 0 0 .77.77h15.78a.77.77 0 0 0 .77-.77v-14.84a.76.76 0 0 0 -.77-.77z" fill="#fcd462"/><path d="m77.69 79.51-.65-.46-.7.46-.62-.46-.72.46-.69-.46-.71.46-.71-.46-.58.46v-4.51h5.38z" fill="#ebf0f3"/><g fill="#3a556a"><path d="m69.67 86.67-.86-1.21-.87 1.21h.49v2.96h.75v-2.96z"/><path d="m71.7 86.67-.86-1.21-.86 1.21h.48v2.96h.75v-2.96z"/><path d="m74.59 86.78v-1.32h-.77l-.41.56.42.37-.58.81.26-.63-.51-.57.39-.58h-.95v1.32a1.07 1.07 0 0 0 .94 1.07v1a.55.55 0 0 1 -.55.54h-.13l-.12.12.12.12h1.62l.12-.12-.12-.12h-.12a.54.54 0 0 1 -.54-.54v-1a1.07 1.07 0 0 0 .93-1.03z"/></g></svg>