<svg id="Layer_1" height="512" viewBox="0 0 150 150" width="512" xmlns="http://www.w3.org/2000/svg" data-name="Layer 1"><circle cx="75" cy="75" fill="#21b3a9" r="64"/><path d="m111.24 38.1h-20l-10.08 5.55-10.57-5.55h-20a3 3 0 0 0 -3 2.95v56.95a3 3 0 0 0 3 2.95h60.63a3 3 0 0 0 3-2.95v-57a3 3 0 0 0 -2.98-2.9z" fill="#fcd462"/><path d="m91.25 54.78-2.49-1.74-2.7 1.74-2.37-1.74-2.77 1.74-2.65-1.74-2.71 1.74-2.76-1.74-2.21 1.74v-16.68h20.66z" fill="#ebf0f3"/><path d="m60.08 84.47-3-4.2-3 4.2h1.7v10.29h2.61v-10.29z" fill="#3a556a"/><path d="m67.15 84.47-2.99-4.2-3 4.2h1.69v10.29h2.61v-10.29z" fill="#3a556a"/><g fill="#f7be56"><path d="m87.31 82.37h20.45v2.13h-20.45z"/><path d="m87.31 87.51h20.45v2.13h-20.45z"/><path d="m87.31 92.66h20.45v2.13h-20.45z"/></g><path d="m114.19 107.65-5.27-4.25v3.12h-56v-3.12l-5.26 4.25 5.26 4.25v-3.12h56v3.12z" fill="#3a556a"/><path d="m40.06 100.99 4.25-5.27h-3.12v-52.36h3.12l-4.25-5.26-4.25 5.26h3.12v52.36h-3.12z" fill="#3a556a"/></svg>