<svg id="Layer_1" height="512" viewBox="0 0 150 150" width="512" xmlns="http://www.w3.org/2000/svg" data-name="Layer 1"><circle cx="75" cy="75" fill="#fe7058" r="64"/><path d="m97.43 51.73h-14.79l-7.47 4.11-7.81-4.11h-14.79a2.19 2.19 0 0 0 -2.19 2.19v42.16a2.19 2.19 0 0 0 2.19 2.19h44.86a2.19 2.19 0 0 0 2.19-2.19v-42.16a2.19 2.19 0 0 0 -2.19-2.19z" fill="#fcd462"/><path d="m82.64 64.08-1.84-1.29-2 1.29-1.75-1.29-2.05 1.29-1.97-1.29-2 1.29-2.04-1.29-1.63 1.29v-12.35h15.28z" fill="#ebf0f3"/><g fill="#3a556a"><path d="m58.59 89.5-1.03-1.43-1.02 1.43h.58v3.52h.89v-3.52z"/><path d="m61 89.5-1.02-1.43-1.03 1.43h.58v3.52h.89v-3.52z"/><path d="m71 89.55v-1.69h-1l-.53.72.54.48-.74 1 .33-.81-.6-.64.5-.75h-1.27v1.69a1.4 1.4 0 0 0 1.21 1.39v1.29a.69.69 0 0 1 -.69.69h-.17l-.15.16.15.15h2.1l.15-.15-.15-.16h-.16a.69.69 0 0 1 -.7-.69v-1.29a1.4 1.4 0 0 0 1.18-1.39z"/><path d="m80.6 88.22v-.22l-.11-.11-.11.11v.21a2.67 2.67 0 0 0 -2.55 2.66c0-.06.16-.1.35-.1s.34 0 .34.1.22-.15.49-.15a.69.69 0 0 1 .48.12c.07-.13.44-.23.89-.25v2.11a.28.28 0 1 1 -.55 0v-.3l-.11-.11-.11.11v.29a.5.5 0 1 0 1 0v-2.11c.5 0 .89.15.89.3 0-.08.21-.15.48-.15s.49.07.49.15.15-.1.35-.1.34 0 .34.1a2.66 2.66 0 0 0 -2.56-2.66z"/><path d="m58.77 95.28a4.74 4.74 0 1 1 4.74-4.74 4.74 4.74 0 0 1 -4.74 4.74zm0-9a4.3 4.3 0 1 0 4.3 4.29 4.3 4.3 0 0 0 -4.3-4.32z"/><path d="m69.63 95.28a4.74 4.74 0 1 1 4.74-4.74 4.74 4.74 0 0 1 -4.74 4.74zm0-9a4.3 4.3 0 1 0 4.3 4.29 4.3 4.3 0 0 0 -4.3-4.32z"/><path d="m80.49 95.28a4.74 4.74 0 1 1 4.74-4.74 4.74 4.74 0 0 1 -4.74 4.74zm0-9a4.3 4.3 0 1 0 4.3 4.29 4.3 4.3 0 0 0 -4.3-4.32z"/></g><path d="m113.67 83.71 10.17-8.71-10.17-8.71v4.86h-10.61v7.7h10.61z" fill="#e1e6e9"/><path d="m36.33 66.29-10.17 8.71 10.17 8.71v-4.86h10.61v-7.7h-10.61z" fill="#e1e6e9"/><path d="m66.29 112.64 8.71 10.16 8.71-10.16h-4.86v-10.62h-7.7v10.62z" fill="#e1e6e9"/><path d="m83.71 37.36-8.71-10.16-8.71 10.16h4.86v10.62h7.7v-10.62z" fill="#e1e6e9"/></svg>