<svg id="Layer_1" height="512" viewBox="0 0 150 150" width="512" xmlns="http://www.w3.org/2000/svg" data-name="Layer 1"><circle cx="75" cy="75" fill="#45b39c" r="64"/><path d="m96.44 50.84h-18.44l-9.28 5.16-9.72-5.16h-18.44a2.72 2.72 0 0 0 -2.72 2.72v52.52a2.72 2.72 0 0 0 2.72 2.72h55.88a2.72 2.72 0 0 0 2.72-2.72v-52.52a2.72 2.72 0 0 0 -2.72-2.72z" fill="#fcd462"/><path d="m78.02 66.79-2.3-1.61-2.49 1.61-2.18-1.61-2.55 1.61-2.45-1.61-2.5 1.61-2.54-1.61-2.03 1.61v-15.95h19.04z" fill="#ebf0f3"/><g fill="#3a556a"><path d="m48.83 93.32-3.05-4.27-3.05 4.27h1.73v10.47h2.65v-10.47z"/><path d="m56.02 93.32-3.05-4.27-3.05 4.27h1.73v10.47h2.65v-10.47z"/><path d="m66.27 93.7v-4.65h-2.74l-1.46 2 1.48 1.32-2 2.87.88-2.24-1.83-1.89 1.4-2.06h-3.41v4.65a3.85 3.85 0 0 0 3.33 3.81v3.49a1.92 1.92 0 0 1 -1.92 2h-.44a.42.42 0 1 0 0 .83h5.75a.42.42 0 0 0 0-.83h-.45a1.92 1.92 0 0 1 -1.92-2v-3.49a3.85 3.85 0 0 0 3.33-3.81z"/><path d="m75.91 89.94v-.6a.3.3 0 0 0 -.3-.29.29.29 0 0 0 -.3.29v.6a7.42 7.42 0 0 0 -7.12 7.41c0-.16.43-.28 1-.28s1 .12 1 .28c0-.22.61-.4 1.36-.4a1.94 1.94 0 0 1 1.34.33v-.06c.19-.37 1.21-.66 2.48-.69v5.88a.78.78 0 0 1 -1.56 0v-.81a.3.3 0 1 0 -.59 0v.81a1.38 1.38 0 1 0 2.75 0v-5.88c1.39 0 2.48.4 2.48.82 0-.22.6-.4 1.36-.4s1.35.18 1.35.4c0-.16.43-.28 1-.28s1 .12 1 .28a7.42 7.42 0 0 0 -7.25-7.41z"/><path d="m112.16 43.15v15.39a1.94 1.94 0 0 1 -2 1.94h-27.6a1.94 1.94 0 0 1 -2-1.94v-15.39a2 2 0 0 1 2-1.95h27.65a2 2 0 0 1 1.95 1.95z"/></g><path d="m94.74 43.77c-.26-.06-.36.07-.6.18s-.53 0-.83-.06-.31-.08-.49-.12a2.6 2.6 0 0 0 -.56 0 3.27 3.27 0 0 0 -1.4.1 1.24 1.24 0 0 1 -.66.1c-.3 0-.31.07-.53.27a.38.38 0 0 1 -.37.12c-.09 0-.11-.16-.24-.15s-.38.3-.5.42c-.24-.09-.21-.33-.52-.23a.89.89 0 0 0 -.31.19 4.53 4.53 0 0 1 -.4.26c-.18.12-.25.22-.51.19a2.32 2.32 0 0 0 -.38-.07l-.44.03c-.42 0-.83 0-1.25 0a.68.68 0 0 0 -.6.15l-.15.2a1.73 1.73 0 0 1 -.31.14c-.26.13-.34.4-.65.47-.13 0-.33 0-.31.19s.31.18.44.18.16-.07.27-.13l.3-.06c.17-.06.13-.12.25-.18s.42 0 .58.21a1.22 1.22 0 0 1 .17.59 3.84 3.84 0 0 1 0 .48c0 .19-.2.22-.28.38s0 .41 0 .6-.08.15-.06.25.13.21.16.32 0 .48.29.66l.25.15v.32a.62.62 0 0 0 .08.24l.13.33c.1.13.16.09.3.11s.52.08.79.1c.09.12 0 .32 0 .47s.1.11.18.16a1.48 1.48 0 0 1 .56.34c.08.1.11.26.24.31h.21c.15.1 0 .39-.08.48s-.09.23-.1.38a1.29 1.29 0 0 0 0 .34 1.36 1.36 0 0 0 .13.3c.06.11.09.23.14.34a1.64 1.64 0 0 0 .49.67c.11.07.18.07.26.2a.79.79 0 0 1 .08.5v.33c0 .21.11.27.18.46s-.09.51-.06.78a3.39 3.39 0 0 0 .22.77c0 .13 0 .26.1.39a2.3 2.3 0 0 0 .2.42c.16.24.29.51.59.62h.37v-.41.1c-.17-.16-.39-.25-.42-.49s0-.38 0-.57a1.89 1.89 0 0 1 0-.53c.06-.21.32-.29.44-.47l.18-.2.15-.28c.08-.1.16-.11.2-.24s0-.22 0-.33.08-.16.11-.26 0-.2.2-.29.48-.18.56-.51a3 3 0 0 0 .07-.32c0-.14.12-.2.17-.33a1.43 1.43 0 0 0 0-.65c0-.17-.28-.34-.45-.39s-.25 0-.37-.07-.14-.12-.24-.17-.2 0-.29-.12l-.1-.33c0-.17 0-.16-.21-.22l-.21-.1-.24-.12a1.58 1.58 0 0 0 -.38-.15l-.24-.11a1.24 1.24 0 0 0 -.39-.09 2.05 2.05 0 0 0 -.7 0c-.17.06 0 .1-.13.22h-.44l-.19-.29c0-.11.11-.19.06-.3s-.53 0-.62-.2c.1-.11.34-.23.26-.43s-.32-.12-.41 0 0 .13-.12.18h-.26a.4.4 0 0 1 -.33-.34v-.26c0-.15.07-.09.18-.18s.1-.24.2-.33a.9.9 0 0 1 .49-.13c.25 0 .47-.06.62.14s.24.41.56.38v-.17c-.16-.08 0-.44.07-.53s.2-.15.25-.27 0-.23.18-.34a1.87 1.87 0 0 0 .3-.26l.14-.22c.08-.07.21 0 .32 0 .44 0 .08-.39.44-.46.13 0 .23.08.33.05s.06-.2 0-.31 0-.12.16-.15.2-.2.36-.15 0 .59.38.46-.13-.33-.15-.48l.09-.2v-.22l-.13-.11v-.2c0-.11-.12-.38-.26-.33s-.11.31-.19.39c-.24-.1 0-.71-.37-.58-.2.06-.13.22-.25.37l-.17.14v.24l-.1.16-.06.22c-.09.26-.37.5-.43.11v-.23l.06-.19c0-.16-.19 0-.3 0s-.1-.11-.17-.2l-.1-.31c-.14-.35.2-.27.43-.3l.13-.08h.19.24c.1 0 .12-.13.17-.21s.07-.1.22-.16.22-.19.35-.29.24 0 .28.24.06.41.18.49.3 0 .36-.14l.07-.2.16-.06c.16-.17-.07-.22-.17-.37l-.07-.2c-.05-.11-.16-.1-.2-.22a.36.36 0 0 1 .13-.32c.12-.13.18-.1.36-.12a.34.34 0 0 1 .28 0c.11.05.12.18.21.23s.3.1.39.19a.74.74 0 0 1 .17.46c0 .14-.15.14-.21.24a.78.78 0 0 0 0 .5.28.28 0 0 0 .41.19l.18-.26c.13-.15.29-.15.46-.25a4.19 4.19 0 0 0 .33-.26c.21-.15.48-.18.67-.32l.2-.18c.13-.1.16 0 .31-.11s.18-.37.35-.51.17 0 .19-.11-.16-.08-.25-.1z" fill="#64798a"/><path d="m97.64 56.28c.36 0 .33 0 .45-.3 0-.1.1-.33.14-.42s.15-.16.28-.3.16-.43.3-.65a3.84 3.84 0 0 0 .45-.66c.24-.54-.17-1 .14-1.56.21-.38 1.15-.72.93-1.24-.3 0-.54.19-.62-.18s0-.55.37-.55.74.1 1-.17.12-.51.17-.79c.18.11.16.25.28.37a1.31 1.31 0 0 0 .63.36c.22 0 .29-.09.47.11s.11.2.11.41a.89.89 0 0 0 .21.72c.06.07.23.21.33.17s-.11-.73-.14-.85c.26-.16.53-.1.72-.29s.08-.5.42-.38.14.46.25.71.43.38.43.69c0 .15-.2.33-.17.48s.11.14.24.25.33.47.57.65.37.26.57.37.48.05.74.16a3.44 3.44 0 0 0 .61.29c.21.06.23-.16.27.16s-.3.38-.48.49-.38.33-.61.45-.39.19-.42.5c0 .55.13 1.22.84 1 .26-.06.37-.48.69-.26.14.1.15.29.23.42a.71.71 0 0 0 .56.33c.2 0 .57.2.73 0s0-.27.1-.38.31-.31.41-.48.17-.19.16-.37c0-.39-.38-.68-.4-1.11s.08-.84-.35-.93c0 .29.35 1.1-.24 1.1-.29 0-.41-.51-.43-.76s.09-.41-.21-.47-.28.07-.42.06a1.22 1.22 0 0 1 -.81-.33c-.27-.37.22-.29.46-.35s.1-.13.27-.12.35.2.5.28a2 2 0 0 0 1.08.38h.54s-.18-.29-.28-.31c-.29-.08-.5 0-.68-.31s-.06-.29-.33-.38-.2 0-.32-.12l-.06-.21-.26-.07a.65.65 0 0 1 -.29-.35c0-.13-.06-.27-.11-.4-.12-.3-.34-.59-.7-.45s-.23.53-.29.78 0 .25-.12.35-.47-.1-.5-.31.08-.52.06-.79-.12-.35-.06-.5.33-.14.54-.24a.54.54 0 0 0 .3-.82c-.12-.25-.55-.59-.26-.9s.61.32.8.45 1 .14.84-.42c-.27 0-.6.06-.81-.14a1.14 1.14 0 0 1 .24-1c.11-.15.2-.16.06-.34s-.73-.07-1-.23a.38.38 0 0 1 -.12-.44c.16-.33.44 0 .69 0s.26-.25.43-.29.3.07.46 0c.14.22 0 .54.11.75l.58.35a.47.47 0 0 0 .12-.27.41.41 0 0 1 -.16-.55c.15-.27.59-.28.36-.67s-1-.44-1.35-.62a1.2 1.2 0 0 0 -.67-.14c-.21 0-.42.14-.6.14s-.2-.09-.31-.1-.28 0-.4 0-.17-.15-.28-.18a3 3 0 0 0 -.42 0 6.34 6.34 0 0 1 -1.57.08c-.34 0-.39-.25-.71-.27a4.12 4.12 0 0 0 -.93.06 5.07 5.07 0 0 0 -.72.24 3.2 3.2 0 0 1 -.94.17 3 3 0 0 0 -1 .26.74.74 0 0 1 -.76.05c-.09-.05-.18-.2-.26-.23a2.14 2.14 0 0 0 -.76 0 1.2 1.2 0 0 0 -.68.15c-.18.1-.17.16-.27.31s-.3.33-.43.51-.08.41-.12.73c-.08.68-.54-.25-.73-.27-.84-.08-.06 1.19-.09 1.42s-.36.29-.53.47a.74.74 0 0 0 -.24.56.64.64 0 0 1 -.25.57.88.88 0 0 0 -.33.43 2.12 2.12 0 0 0 0 1.34c.14.41.56 1 1 1 .31 0 .61-.26 1-.19s.44.41.51.76.29.32.29.56-.13.24-.15.36 0 .19.06.32a2.49 2.49 0 0 0 .09.46c0 .11.22.18.27.28a1.9 1.9 0 0 1 0 .63c0 .14-.1.2-.07.33s.2.26.28.37.44.71.48.26z" fill="#64798a"/><rect fill="#fcd462" height="5.76" rx=".81" width="5.76" x="83.3" y="43.72"/><path d="m89.05 45.01v-.33h-1.94v4.8h.33v-1.37h1.61v-.33h-1.61v-1.13h1.61v-.33h-1.61v-1.31z" fill="#f7be56"/><path d="m84.92 45.12h-1.62v.33h1.62v1.17h-1.62v.33h1.62v1.25h-1.62v.33h1.95v-4.81h-.33z" fill="#f7be56"/><path d="m86.18 55.71h3.58v1.34h-3.58z" fill="#e1e6e9"/><path d="m91.7 55.71h3.58v1.34h-3.58z" fill="#e1e6e9"/><path d="m97.22 55.71h3.58v1.34h-3.58z" fill="#e1e6e9"/><path d="m102.74 55.71h3.58v1.34h-3.58z" fill="#e1e6e9"/></svg>