<svg id="Layer_1" height="512" viewBox="0 0 150 150" width="512" xmlns="http://www.w3.org/2000/svg" data-name="Layer 1"><circle cx="75" cy="75" fill="#89c5cd" r="64"/><path d="m109.38 48.25h-68.76a2.11 2.11 0 0 0 -2.12 2.11v48h73v-48a2.11 2.11 0 0 0 -2.12-2.11z" fill="#3a556a"/><path d="m43.29 53.03h63.43v38.56h-63.43z" fill="#fe7058"/><path d="m32.09 96v2a3.75 3.75 0 0 0 3.75 3.75h78.32a3.75 3.75 0 0 0 3.75-3.75v-2z" fill="#2f4859"/><path d="m58.69 64.23h32.63v12.8h-32.63z" fill="#e1e6e9"/><g fill="#2f4859"><path d="m66.61 74v-6.76h2.56a6.81 6.81 0 0 1 1 .06 2 2 0 0 1 .83.32 1.64 1.64 0 0 1 .55.66 2 2 0 0 1 .21.92 2.13 2.13 0 0 1 -.55 1.47 2.67 2.67 0 0 1 -2 .6h-1.7v2.73zm.9-3.56h1.75a1.82 1.82 0 0 0 1.24-.33 1.13 1.13 0 0 0 .37-.91 1.19 1.19 0 0 0 -.22-.73 1 1 0 0 0 -.56-.4 4 4 0 0 0 -.84-.06h-1.74z"/><path d="m71.49 74 2.61-6.79h1l2.75 6.79h-1l-.85-2h-2.81l-.74 2zm2-2.79h2.31l-.71-1.88c-.22-.57-.38-1-.49-1.41a7.62 7.62 0 0 1 -.36 1.3z"/><path d="m79.78 74v-2.84l-2.62-3.92h1.09l1.34 2.05c.25.38.48.76.7 1.15.2-.36.45-.76.74-1.2l1.31-2h1l-2.71 3.92v2.84z"/><path d="m98.24 74.14-12.38-2.56 2.57 12.38 2.34-3.54 6.18 6.19 3.94-3.94-6.18-6.19z"/></g></svg>