<svg id="Layer_1" height="512" viewBox="0 0 150 150" width="512" xmlns="http://www.w3.org/2000/svg" data-name="Layer 1"><circle cx="75" cy="75" fill="#fe7058" r="64"/><path d="m97.32 41.9h-18.53l-9.36 5.1-9.79-5.1h-18.54a2.73 2.73 0 0 0 -2.73 2.73v52.84a2.73 2.73 0 0 0 2.73 2.73h56.22a2.73 2.73 0 0 0 2.73-2.73v-52.84a2.73 2.73 0 0 0 -2.73-2.73z" fill="#fcd462"/><path d="m78.79 62.97-2.32-1.62-2.5 1.62-2.19-1.62-2.57 1.62-2.46-1.62-2.51 1.62-2.56-1.62-2.04 1.62v-21.07h19.15z" fill="#ebf0f3"/><g fill="#3a556a"><path d="m49.43 84.63-3.07-4.3-3.07 4.3h1.74v10.53h2.66v-10.53z"/><path d="m56.66 84.63-3.07-4.3-3.07 4.3h1.74v10.53h2.66v-10.53z"/><path d="m68 85v-4.67h-2.78l-1.46 2 1.49 1.33-2 2.88.92-2.24-1.85-1.87 1.38-2.08h-3.44v4.65a3.86 3.86 0 0 0 3.34 3.83v3.57a1.92 1.92 0 0 1 -1.93 1.93h-.44a.42.42 0 1 0 0 .83h5.77a.42.42 0 1 0 0-.83h-.44a1.92 1.92 0 0 1 -1.93-1.93v-3.56a3.86 3.86 0 0 0 3.37-3.84z"/><path d="m98.69 82.22a12.94 12.94 0 1 0 12.94 12.94 12.94 12.94 0 0 0 -12.94-12.94z"/></g><path d="m98.69 84.52a10.64 10.64 0 1 0 10.64 10.64 10.64 10.64 0 0 0 -10.64-10.64z" fill="#e1e6e9"/><path d="m101.77 96.24h-6.13v-4.38a3.07 3.07 0 0 1 6.13 0zm-5.2-.93h4.27v-3.45a2.14 2.14 0 1 0 -4.27 0z" fill="#3a556a"/><rect fill="#e56353" height="7.14" rx=".67" width="8.39" x="94.49" y="93.85"/><path d="m99.46 96.88a.77.77 0 1 0 -1.11.68l-.15 1.31h1l-.2-1.31a.77.77 0 0 0 .46-.68z" fill="#3a556a"/></svg>