<svg id="Layer_1" height="512" viewBox="0 0 150 150" width="512" xmlns="http://www.w3.org/2000/svg" data-name="Layer 1"><circle cx="75" cy="75" fill="#89c5cd" r="64"/><path d="m75 40.19a1.4 1.4 0 0 0 -1.4 1.4v50.74h2.8v-50.74a1.4 1.4 0 0 0 -1.4-1.4z" fill="#2f4859"/><path d="m73.6 91.93v11.4a3.68 3.68 0 0 1 -7.36 0v-3.87a1.4 1.4 0 1 0 -2.8 0v3.87a6.48 6.48 0 0 0 13 0v-11.4z" fill="#2f4859"/><path d="m40 79.4a35 35 0 0 1 70.06 0c0-.73-2-1.33-4.54-1.33s-4.53.6-4.53 1.33c0-1-2.88-1.89-6.42-1.89s-6.43.85-6.43 1.89c0-2.14-5.91-3.9-13.21-3.9-6.6 0-12 1.43-13 3.3l-.11.27c-.55-.89-3.16-1.56-6.3-1.56-3.55 0-6.43.85-6.43 1.89 0-.73-2-1.33-4.54-1.33s-4.55.6-4.55 1.33z" fill="#3a556a"/><path d="m49 79.4c0-19.33 11.62-35 26-35s26 15.68 26 35c0-1-2.88-1.89-6.42-1.89s-6.43.85-6.43 1.89c0-2.14-5.91-3.9-13.21-3.9-6.6 0-12 1.43-13 3.3l-.11.27c-.55-.89-3.16-1.56-6.3-1.56-3.62 0-6.53.85-6.53 1.89z" fill="#64798a"/><path d="m88.12 79.4c0-2.14-5.91-3.9-13.21-3.9-6.6 0-12 1.43-13 3.3.09-19.05 5.91-34.41 13.09-34.41s13.12 15.68 13.12 35.01z" fill="#3a556a"/></svg>