<svg id="Layer_1" height="512" viewBox="0 0 150 150" width="512" xmlns="http://www.w3.org/2000/svg" data-name="Layer 1"><circle cx="75" cy="75" fill="#fcd462" r="64"/><path d="m101.82 55.06v35.17h-58.8v-19.8-9.95l.6-2.5 2.22-2.4 6-.52h31.08z" fill="#2f4859"/><path d="m56.22 66.44-9.67-1.31-2.46-1.8-2.09-2.85v43.87a6.56 6.56 0 0 0 6.55 6.55h58.4a1.12 1.12 0 0 0 1.13-1.13v-43.86z" fill="#3a556a"/><path d="m106.91 67h-58.4a6.56 6.56 0 0 1 0-13.11h52.18a1.13 1.13 0 0 1 0 2.26h-52.18a4.3 4.3 0 0 0 0 8.59h58.4a1.13 1.13 0 1 1 0 2.26z" fill="#64798a"/><path d="m88.1 83.54a5.9 5.9 0 1 0 0 11.8h19.9v-11.8z" fill="#64798a"/><circle cx="88.09" cy="89.44" fill="#3a556a" r="3.08"/><path d="m100.75 66.65 5.66-5.65a2 2 0 0 0 0-2.82l-18.51-18.5a2 2 0 0 0 -2.81 0l-27 27z" fill="#44c4a1"/><path d="m97.47 66.65 4.26-4.26a3.36 3.36 0 0 1 0-4.75l-13.28-13.28a3.36 3.36 0 0 1 -4.75 0l-22.3 22.29z" fill="#ebf0f3"/><path d="m93.67 66.65 4.71-4.71a6 6 0 0 1 0-3.85l-10.38-10.38a6 6 0 0 1 -3.85 0l-19 18.94z" fill="#44c4a1"/><path d="m85.33 66.65a7.79 7.79 0 0 0 -15.21 0z" fill="#ebf0f3"/><circle cx="88.07" cy="58.02" fill="#ebf0f3" r="3.14"/><path d="m74.79 66.65h1.79l-.4-.4a1.52 1.52 0 0 1 .71-.31 1.31 1.31 0 0 1 1 .35l.54-.64a2 2 0 0 0 -1-.5 1.88 1.88 0 0 0 -1.09.12 3 3 0 0 0 -.73.45l-.86-.86-.57.57.86.85c-.04.12-.16.25-.25.37z" fill="#44c4a1"/><path d="m106.91 64.78h-58.4a4.3 4.3 0 0 1 0-8.59h12.77v-2.26h-12.77a6.56 6.56 0 0 0 0 13.11h58.4a1.13 1.13 0 1 0 0-2.26z" fill="#64798a"/></svg>