<svg id="Layer_1" height="512" viewBox="0 0 150 150" width="512" xmlns="http://www.w3.org/2000/svg" data-name="Layer 1"><circle cx="75" cy="75" fill="#709584" r="64"/><path d="m39.27 39.27h71.47v71.47h-71.47z" fill="#ebf0f3"/><path d="m43.64 43.13h13.48v13.49h-13.48z" fill="#3a556a"/><path d="m45.31 44.8h10.14v10.14h-10.14z" fill="#ebf0f3"/><path d="m48.06 47.55h4.65v4.65h-4.65z" fill="#3a556a"/><path d="m92.87 43.13h13.48v13.49h-13.48z" fill="#3a556a"/><path d="m94.55 44.8h10.14v10.14h-10.14z" fill="#ebf0f3"/><path d="m97.29 47.55h4.65v4.65h-4.65z" fill="#3a556a"/><path d="m43.64 93.39h13.48v13.49h-13.48z" fill="#3a556a"/><path d="m45.31 95.06h10.14v10.14h-10.14z" fill="#ebf0f3"/><path d="m48.06 97.81h4.65v4.65h-4.65z" fill="#3a556a"/><path d="m92.87 93.39h13.48v13.49h-13.48z" fill="#3a556a"/><path d="m94.55 95.06h10.14v10.14h-10.14z" fill="#ebf0f3"/><g fill="#3a556a"><path d="m97.29 97.81h4.65v4.65h-4.65z"/><path d="m60.1 51.5h3.44v3.44h-3.44z"/><path d="m58.38 61.94h3.44v3.44h-3.44z"/><path d="m58.83 72.87h3.44v3.44h-3.44z"/><path d="m43.6 80.72h3.44v3.44h-3.44z"/><path d="m74.53 71.15h3.44v3.44h-3.44z"/><path d="m70.27 78.72h3.44v3.44h-3.44z"/><path d="m68.12 87.72h3.44v3.44h-3.44z"/><path d="m68.69 65.38h3.44v3.44h-3.44z"/><path d="m60.1 43.51h3.44v3.44h-3.44z"/><path d="m48.67 76.3h3.44v3.44h-3.44z"/><path d="m63.53 46.95h3.44v3.44h-3.44z"/><path d="m77.33 54.34h2.34v3.44h-2.34z"/><path d="m83.23 67.51h2.34v3.44h-2.34z"/><path d="m91.7 70.73h2.34v3.44h-2.34z"/><path d="m87.11 96.69h2.34v3.44h-2.34z"/><path d="m86.56 46.95h3.44v8.86h-3.44z"/><path d="m74.53 48.67h3.44v3.44h-3.44z"/><path d="m83.12 54.89h3.44v3.44h-3.44z"/><path d="m101.94 59.05h3.44v3.44h-3.44z"/><path d="m96.78 64.97h3.44v3.44h-3.44z"/><path d="m87.81 78.02h3.44v3.44h-3.44z"/><path d="m72.81 100.13h3.44v3.44h-3.44z"/><path d="m86.09 103.48h3.44v3.44h-3.44z"/><path d="m60.1 103.48h3.44v3.44h-3.44z"/><path d="m79.03 86h3.44v3.44h-3.44z"/><path d="m76.25 91.16h3.44v3.44h-3.44z"/><path d="m84.6 89.44h3.44v3.44h-3.44z"/><path d="m96.78 78.02h3.44v3.44h-3.44z"/><path d="m91.63 75h3.44v3.44h-3.44z"/><path d="m63.53 54.34h3.44v6.43h-3.44z"/><path d="m65.25 66.69h3.44v13.76h-3.44z"/><path d="m79.46 93.25h3.44v13.76h-3.44z"/><path d="m43.51 87.04h13.76v3.44h-13.76z"/><path d="m65.93 97.81h3.44v5.76h-3.44z"/><path d="m43.6 68.57h3.44v6.43h-3.44z"/><path d="m53.73 66.69h3.44v6.43h-3.44z"/><path d="m43.96 59.81h6.43v3.44h-6.43z"/><path d="m49.49 63.25h6.43v3.44h-6.43z"/><path d="m71.56 54.34h3.44v6.43h-3.44z"/><path d="m101.94 64.3h3.44v6.43h-3.44z"/><path d="m99.62 75h6.43v3.44h-6.43z"/><path d="m93.35 58.73h3.44v6.43h-3.44z"/><path d="m77.97 64.07h6.43v3.44h-6.43z"/><path d="m81.18 70.73h6.43v3.44h-6.43z"/><path d="m99.62 87.04h6.43v3.44h-6.43z"/><path d="m86.31 86h6.43v3.44h-6.43z"/><path d="m98.26 81.46h6.43v3.44h-6.43z"/><path d="m75.29 80.44h6.43v3.44h-6.43z"/><path d="m53.91 81h5.38v2.88h-5.38z"/><path d="m63.76 84.28h4.93v3.44h-4.93z"/><path d="m60.55 94.37h6.43v3.44h-6.43z"/><path d="m71.09 43.13h3.44v6.43h-3.44z"/><path d="m79.05 43.08h3.4v3.44h-3.4z"/></g></svg>