<svg id="Layer_1" height="512" viewBox="0 0 150 150" width="512" xmlns="http://www.w3.org/2000/svg" data-name="Layer 1"><circle cx="75" cy="75" fill="#709584" r="64"/><path d="m103.68 38.35h-57.36v66.16 3.97 3.17l3.15-3.17h.07l3.15 3.17 3.14-3.17h.08l3.14 3.17 3.15-3.17h.08l3.14 3.17 3.15-3.17h.07l3.15 3.17 3.15-3.17h.07l3.15 3.17 3.15-3.17h.07l3.15 3.17 3.14-3.17h.08l3.14 3.17 3.15-3.17h.08l3.14 3.17 3.15-3.17h.07l3.15 3.17v-3.17h.05z" fill="#ebf0f3"/><g fill="#d5d6db"><path d="m54.09 48.16h41.82v5.11h-41.82z"/><path d="m54.09 57.72h16.45v2.01h-16.45z"/><path d="m54.09 63.3h16.45v2.01h-16.45z"/><path d="m54.09 85.58h19.48v2.01h-19.48z"/><path d="m76.43 85.58h19.48v2.01h-19.48z"/><path d="m54.09 91.12h19.48v2.01h-19.48z"/><path d="m76.43 91.12h19.48v2.01h-19.48z"/><path d="m54.09 96.65h19.48v2.01h-19.48z"/><path d="m76.43 96.65h19.48v2.01h-19.48z"/><path d="m54.09 68.88h41.82v2.01h-41.82z"/><path d="m54.09 75.46h12.38v5.55h-12.38z"/><path d="m68.81 75.46h12.38v5.55h-12.38z"/><path d="m83.53 75.46h12.38v5.55h-12.38z"/></g><path d="m79.19 64.47v-6.24h.83v3.09l3.1-3.09h1.12l-2.62 2.53 2.73 3.71h-1.09l-2.22-3.16-1.02 1v2.16z" fill="#3a556a"/><path d="m88 62v-.73h2.65v2.33a4.78 4.78 0 0 1 -1.26.73 3.77 3.77 0 0 1 -1.33.24 3.57 3.57 0 0 1 -1.67-.39 2.54 2.54 0 0 1 -1.17-1.18 3.51 3.51 0 0 1 -.39-1.66 3.76 3.76 0 0 1 .39-1.7 2.51 2.51 0 0 1 1.09-1.18 3.52 3.52 0 0 1 1.69-.34 3.36 3.36 0 0 1 1.22.22 2.06 2.06 0 0 1 .78.66 2.68 2.68 0 0 1 .47 1l-.74.21a2.39 2.39 0 0 0 -.35-.75 1.47 1.47 0 0 0 -.6-.44 2.16 2.16 0 0 0 -.86-.16 2.68 2.68 0 0 0 -.92.14 2 2 0 0 0 -.66.45 2.43 2.43 0 0 0 -.4.62 3.48 3.48 0 0 0 -.23 1.26 3 3 0 0 0 .29 1.39 1.85 1.85 0 0 0 .84.84 2.61 2.61 0 0 0 1.17.27 2.72 2.72 0 0 0 1-.21 2.54 2.54 0 0 0 .78-.44v-1.18z" fill="#3a556a"/></svg>