<svg id="Layer_1" height="512" viewBox="0 0 150 150" width="512" xmlns="http://www.w3.org/2000/svg" data-name="Layer 1"><circle cx="75" cy="75" fill="#2f4859" r="64"/><path d="m102 38.64h-54.01v70.4h.02v2.32l2.08-2.11 2.08 2.11 2.08-2.11 2.08 2.11 2.07-2.11 2.08 2.11 2.08-2.11 2.08 2.11 2.08-2.11 2.07 2.11 2.08-2.11 2.08 2.11 2.05-2.09 2.06 2.09 2.08-2.11 2.08 2.11 2.07-2.11 2.08 2.11 2.08-2.11 2.08 2.11 2.08-2.11 2.07 2.11 2.08-2.11 2.08 2.11 2.08-2.11 2.08 2.11v-2.32z" fill="#ebf0f3"/><path d="m54.65 46.09h39.15v4.76h-39.15z" fill="#44c4a1"/><g fill="#d5d6db"><path d="m54.65 56.4h39.15v2.38h-39.15z"/><path d="m54.65 64.78h39.15v2.38h-39.15z"/><path d="m54.65 73.17h39.15v2.38h-39.15z"/><path d="m54.65 81.55h39.15v2.38h-39.15z"/><path d="m54.65 89.94h39.15v2.38h-39.15z"/><path d="m54.65 98.32h19.58v2.38h-19.58z"/></g><path d="m78.22 103.31a.35.35 0 0 1 -.27-.14.34.34 0 0 1 .06-.48 13.88 13.88 0 0 1 1.36-.9 12.83 12.83 0 0 0 1.33-.89l.1-.08a4 4 0 0 1 -.49-.16 1.66 1.66 0 0 1 -.84-.7 1.6 1.6 0 0 1 -.16-.72 7.82 7.82 0 0 1 .36-3.08 4.62 4.62 0 0 1 2-2.47 1.85 1.85 0 0 1 2.52.28 2.06 2.06 0 0 1 .18 1.38 9.88 9.88 0 0 1 -2 4.87 1.89 1.89 0 0 0 .34-.09 2.46 2.46 0 0 0 1.49-1.38.33.33 0 0 1 .4-.21.34.34 0 0 1 .26.37.76.76 0 0 0 .24.6 1.06 1.06 0 0 0 .82.32 1.58 1.58 0 0 0 1.17-.92 1.27 1.27 0 0 1 .13-.32.35.35 0 0 1 .63.29l-.11.27a.87.87 0 0 0 .23.72 1.4 1.4 0 0 0 1 .36 4.56 4.56 0 0 1 1.39-3 .75.75 0 0 1 1-.17.71.71 0 0 1 .24.41 2.74 2.74 0 0 1 -2 3.38 3.59 3.59 0 0 0 .22 1 .37.37 0 0 1 0 .31.37.37 0 0 1 -.27.16c-2.33.16-4.68.37-7 .63a.34.34 0 0 1 -.38-.3.36.36 0 0 1 .31-.39c2.16-.24 4.37-.44 6.57-.6a5 5 0 0 1 -.11-.69 2 2 0 0 1 -1.48-.57 1.5 1.5 0 0 1 -.29-.42 2.07 2.07 0 0 1 -1.2.59 1.8 1.8 0 0 1 -1.38-.52l-.2-.25a3.16 3.16 0 0 1 -1.48 1 3.63 3.63 0 0 1 -1.23.18c-.18.17-.36.33-.55.48a13.58 13.58 0 0 1 -1.4.93c-.46.29-.89.55-1.29.86zm4.66-9.31a1.84 1.84 0 0 0 -.9.25 4 4 0 0 0 -1.66 2.12 7 7 0 0 0 -.32 2.82 1 1 0 0 0 .08.45 1 1 0 0 0 .5.38 3.49 3.49 0 0 0 .84.23 8.92 8.92 0 0 0 2.23-5 1.46 1.46 0 0 0 -.09-.92.74.74 0 0 0 -.68-.33zm8.05 3.59-.12.09a3.88 3.88 0 0 0 -1.16 2.39 2.05 2.05 0 0 0 1.28-2.47z" fill="#3a556a"/></svg>