<svg id="Layer_1" height="512" viewBox="0 0 150 150" width="512" xmlns="http://www.w3.org/2000/svg" data-name="Layer 1"><circle cx="75" cy="75" fill="#fe7058" r="64"/><path d="m79.52 55.14v-5.6l-4.52 2.23-4.52-2.23v5.6l-2.71 1.2v14.27h15.01v-14.03z" fill="#f7be56"/><path d="m81 55.78-.62-.28-.81-.36a6 6 0 0 1 -8.94.11l-.11-.11-.54.24-.83.36v14.87h11.85z" fill="#27a2db"/><path d="m91 78.75h-32l1-18a1.73 1.73 0 0 1 1-1.39l9-3.95-.25.28 5.41 15 5.08-15.39.1.2 8.66 3.83a1.73 1.73 0 0 1 1 1.39z" fill="#3a556a"/><path d="m79.52 54.54-4.42 16.07 5.24-6.35-.18-2.33 1.59-1.17v-4.63z" fill="#64798a"/><path d="m70.48 54.34 4.62 16.27-5.32-6.35.19-2.33-1.6-1.17v-4.63z" fill="#64798a"/><path d="m81.65 48.32s-2.21 4.32-6.31 4.4-6.17-3.65-6.83-6.7a13.45 13.45 0 0 1 .88-7c.14-.14 1.81-3.49 2-3.62a19.67 19.67 0 0 1 2.24-1.28c.18 0 3.31 1.85 4.5 2.52s3.75 3.21 3.88 3.87 1 3.4 1 3.66-1.36 4.15-1.36 4.15z" fill="#fcd462"/><path d="m83.77 41.9c-1.06-5.64-6.57-10.83-10.69-8.61 0 0-1.43-1.17-2.77 1.08s-3.52 3.63-4.31 8.38.46 7.57 4.67 9.33v-.68-1.09c-.37-.4-2.42-2.86-1.19-7.56a20.29 20.29 0 0 1 3.6-7.75 15.53 15.53 0 0 0 7.36 5.41 8.7 8.7 0 0 1 -1 10.41v1.88c.31-.24 3.88-3.05 4.28-4.29s1.11-.87.05-6.51z" fill="#3a556a"/><path d="m85.57 76.43h-21.14a2.37 2.37 0 0 1 -2.36-1.75l-1.86-10.68a2 2 0 0 1 2.06-2.41h25.46a2 2 0 0 1 2.06 2.41l-1.86 10.68a2.37 2.37 0 0 1 -2.36 1.75z" fill="#e1e6e9"/><path d="m40.45 79.97h69.1v37.26h-69.1z" fill="#f7be56"/><path d="m34.23 75.44h81.54v6.46h-81.54z" fill="#fcd462"/><path d="m46.08 86.09h57.83v24.76h-57.83z" fill="#e5aa4a"/></svg>