<svg id="Layer_1" height="512" viewBox="0 0 150 150" width="512" xmlns="http://www.w3.org/2000/svg" data-name="Layer 1"><circle cx="75" cy="75" fill="#334d5c" r="64"/><path d="m105.83 43h-20.33l-10.26 5.67-10.74-5.67h-20.33a3 3 0 0 0 -3 3v58a3 3 0 0 0 3 3h61.66a3 3 0 0 0 3-3v-58a3 3 0 0 0 -3-3z" fill="#fcd462"/><path d="m85.5 60.62-2.53-1.77-2.75 1.77-2.4-1.77-2.82 1.77-2.7-1.77-2.75 1.77-2.81-1.77-2.24 1.77v-17.59h21z" fill="#ebf0f3"/><g fill="#3a556a"><path d="m49.56 96.55-1.24-1.74-1.24 1.74h.7v4.26h1.08v-4.26z"/><path d="m52.49 96.55-1.25-1.74-1.24 1.74h.7v4.26h1.08v-4.26z"/><path d="m58.68 96.7v-1.89h-1.12l-.59.8.61.54-.83 1.16.37-.9-.75-.76.56-.84h-1.37v1.89a1.56 1.56 0 0 0 1.35 1.55v1.44a.78.78 0 0 1 -.78.78h-.13a.18.18 0 0 0 -.17.17.17.17 0 0 0 .17.17h2.34a.17.17 0 0 0 .17-.17.18.18 0 0 0 -.17-.17h-.18a.78.78 0 0 1 -.78-.78v-1.44a1.56 1.56 0 0 0 1.3-1.55z"/><path d="m64.58 95.17v-.24l-.12-.12-.12.12v.24a3 3 0 0 0 -2.9 3c0-.06.17-.12.39-.12s.39.06.39.12c0-.09.25-.16.55-.16s.5 0 .55.13c.08-.15.49-.27 1-.29v2.4a.32.32 0 0 1 -.32.32.32.32 0 0 1 -.32-.32v-.33l-.12-.12-.12.12v.33a.56.56 0 0 0 1.12 0v-2.4c.57 0 1 .17 1 .34 0-.09.25-.16.55-.16s.56.07.56.16c0-.06.17-.12.39-.12s.39.06.39.12a3 3 0 0 0 -2.87-3.02z"/><path d="m60.89 94h-14.89v7.54h22.23v-7.54zm-7.54 7.34h-7.14v-7.1h7.14zm7.34 0h-7.14v-7.1h7.14zm7.34 0h-7.14v-7.1h7.11z"/><path d="m69.42 73.37-5.64 1.25 1.22 1.01-3.54 5.09-.03.03 3.06 2.42 1.93-2.45 1.81-2.4.98.82z"/><path d="m76.63 66.67-2.48 3.14-2.55 3.21-3.03-2.44 3.09-3.91z"/><path d="m86.31 80.75-.13.11-2.92 2.31-1.94-2.45-2.21-3.45 3.43-2.43 3.75 5.88z"/><path d="m70.1 80.72v3.89h-5.71l-3.03-3.89z"/><path d="m79.47 70.26-2.84-3.59h-4.97l2.49 3.14 2.2 2.79-1.17.88 5.57 1.53.08-5.77z"/><path d="m75.94 80.72-.02-1.58-4.53 3.58 4.61 3.48-.02-1.59h7.28l2.92-3.75.11-.14z"/></g></svg>