<svg id="Layer_1" height="512" viewBox="0 0 150 150" width="512" xmlns="http://www.w3.org/2000/svg" data-name="Layer 1"><circle cx="75" cy="75" fill="#fcd462" r="64"/><path d="m101.02 46.8h1.25v14.5h-1.25z" fill="#3a556a"/><path d="m101.65 77.17a3 3 0 0 1 -.65-5.91v-3.93a.65.65 0 1 1 1.3 0v4.51a.65.65 0 0 1 -.65.65 1.69 1.69 0 1 0 1.69 1.69.65.65 0 0 1 1.3 0 3 3 0 0 1 -2.99 2.99z" fill="#3a556a"/><path d="m107.54 63-2.35-4a1.36 1.36 0 0 0 -1.19-.69h-4.7a1.36 1.36 0 0 0 -1.19.69l-2.35 4a1.36 1.36 0 0 0 0 1.38l2.35 4.06a1.36 1.36 0 0 0 1.19.69h4.7a1.36 1.36 0 0 0 1.19-.69l2.35-4.06a1.36 1.36 0 0 0 0-1.38z" fill="#27a2db"/><path d="m101.65 61.3a2.43 2.43 0 1 0 2.43 2.43 2.43 2.43 0 0 0 -2.43-2.43z" fill="#3a556a"/><path d="m103 44.56h-32.95v4.44h32.95a2.24 2.24 0 1 0 0-4.48z" fill="#3a556a"/><path d="m94.76 49.34h-52.49v-6.55h44.94z" fill="#e56353"/><path d="m57.44 39.67a2.59 2.59 0 0 0 -2.59 2.58v9.88h5.15v-9.88a2.59 2.59 0 0 0 -2.56-2.58z" fill="#3a556a"/><path d="m62.74 61.41a.49.49 0 0 0 -.55-.11l-4-4 4.58-4.58a.51.51 0 0 0 -.77-.72l-4.58 4.58-4.56-4.58a.51.51 0 0 0 -.72.72l4.58 4.58-4 4a.5.5 0 0 0 -.55.11.52.52 0 0 0 -.09.58.5.5 0 0 0 .45.72h.19l4 4-4 4a.53.53 0 0 0 -.55.11 1.91 1.91 0 0 0 0 1.16.51.51 0 0 0 .36.15h.19l4 4-4 4a.51.51 0 0 0 -.55.11.52.52 0 0 0 -.09.58.5.5 0 0 0 .09.57.51.51 0 0 0 .36.15h.19l4 4-4 4a.52.52 0 0 0 -.55.12.5.5 0 0 0 -.09.57.52.52 0 0 0 .09.58.51.51 0 0 0 .36.15h.19l4 4-4.58 4.58a.51.51 0 1 0 .72.72l4.58-4.58 4.56 4.66a.51.51 0 0 0 .72-.72l-4.56-4.62 4-4h.19a.51.51 0 0 0 .46-.73.49.49 0 0 0 -.1-.57.51.51 0 0 0 -.55-.12l-4-4 4-4h.19a.51.51 0 0 0 .36-.15.49.49 0 0 0 .1-.57.51.51 0 0 0 -.65-.69l-4-4 4-4h.19a1 1 0 0 0 .36-1.31.53.53 0 0 0 -.55-.11l-4-4 4-4h.19a.51.51 0 0 0 .36-.15.49.49 0 0 0 .1-.57.51.51 0 0 0 -.07-.62zm-1.3 28.91-4 4-4-4 4-4zm0-9.44-4 4-4-4 4-4zm0-9.45-4 4-4-4 4-4zm-8-9.44 4-4 4 4-4 4z" fill="#2f4859"/><path d="m63.14 105.08h-11.41v-53.65h11.41zm-10-1.35h8.69v-50.94h-8.74z" fill="#3a556a"/><path d="m42.27 103.73h30.61v6.6h-30.61z" fill="#3a556a"/><path d="m57.41 44.56a1.36 1.36 0 1 0 1.35 1.35 1.36 1.36 0 0 0 -1.35-1.35z" fill="#e1e6e9"/></svg>