<svg id="Layer_1" height="512" viewBox="0 0 150 150" width="512" xmlns="http://www.w3.org/2000/svg" data-name="Layer 1"><circle cx="75" cy="75" fill="#709584" r="64"/><path d="m74.92 7.55-.42-.6-.43.6h.24v1.47h.37v-1.47z" fill="#3a556a"/><path d="m75.93 7.55-.43-.6-.42.6h.24v1.47h.37v-1.47z" fill="#3a556a"/><path d="m99.07 40h-20l-10.07 5.49-10.57-5.49h-20a3 3 0 0 0 -2.95 2.95v57a3 3 0 0 0 2.95 2.94h60.64a3 3 0 0 0 3-2.94v-57a3 3 0 0 0 -3-2.95z" fill="#fcd462"/><path d="m79.08 56.63-2.49-1.74-2.7 1.74-2.36-1.74-2.77 1.74-2.66-1.74-2.71 1.74-2.76-1.74-2.2 1.74v-16.68h20.65z" fill="#ebf0f3"/><g fill="#3a556a"><path d="m47.38 88.83-3-4.2-3 4.2h1.7v10.3h2.6v-10.3z"/><path d="m54.45 88.83-3-4.2-3 4.2h1.7v10.3h2.61v-10.3z"/><path d="m67.13 89.2v-4.57h-2.7l-1.43 1.93 1.45 1.3-2 2.82.9-2.19-1.8-1.84 1.34-2h-3.31v4.55a3.78 3.78 0 0 0 3.27 3.8v3.48a1.88 1.88 0 0 1 -1.85 1.83h-.43a.41.41 0 1 0 0 .82h5.65a.41.41 0 0 0 0-.82h-.43a1.88 1.88 0 0 1 -1.89-1.88v-3.43a3.79 3.79 0 0 0 3.23-3.8z"/><path d="m101.48 84a13 13 0 1 0 13 13 13 13 0 0 0 -13-13z"/></g><path d="m101.48 86.36a10.67 10.67 0 1 0 10.66 10.64 10.67 10.67 0 0 0 -10.66-10.64z" fill="#ebf0f3"/><path d="m104.19 92.78h-3.37v-2.3l-4.56 3.34 4.56 3.33v-2.06h3.36a2.06 2.06 0 0 1 0 4.11h-8.89v2.32h8.89a4.38 4.38 0 0 0 0-8.75z" fill="#e56353"/></svg>