<svg id="Layer_1" height="512" viewBox="0 0 150 150" width="512" xmlns="http://www.w3.org/2000/svg" data-name="Layer 1"><circle cx="75" cy="75" fill="#334d5c" r="64"/><path d="m115.06 72.79c0-.63-.06-1.27-.14-1.9a15.32 15.32 0 0 0 -.21-1.64c-.08-.71-.2-1.41-.35-2.11-.08-.45-.18-.9-.3-1.33s-.15-.73-.25-1.08-.24-.86-.35-1.27-.18-.53-.26-.8a40.25 40.25 0 0 0 -26.58-26.1c-.63-.19-1.27-.37-1.92-.52a36.08 36.08 0 0 0 -5.59-1c-.69-.08-1.37-.14-2.06-.16s-1.37-.06-2-.06-1.39 0-2 .06-1.37.08-2.06.16-1.33.13-2 .25-1.31.22-2 .35c-.45.08-.88.18-1.31.3l-1 .21-1.6.47c-.47.16-.94.3-1.39.47l-.51.18a40.19 40.19 0 0 0 -24.45 25.6l-.06.16c-.19.62-.37 1.25-.53 1.89s-.31 1.3-.45 1.94-.25 1.31-.35 2-.19 1.31-.25 2v.14a17.62 17.62 0 0 0 -.14 1.76c-.06.76-.08 1.53-.08 2.29s0 1.47.06 2.19.08 1.27.16 1.92.13 1.35.25 2 .22 1.31.35 2c.24 1.15.53 2.27.86 3.38.12.41.26.84.4 1.25 0 .1.05.2.09.3a40.19 40.19 0 0 0 24.22 24.68c.53.2 1.08.37 1.62.55s.82.25 1.23.37c1.06.3 2.12.55 3.19.75.49.11 1 .19 1.49.27h.22c.62.1 1.27.17 1.89.23s1.37.14 2.06.16 1.37.06 2 .06 1.39 0 2-.06 1.37-.08 2.06-.16 1.33-.13 2-.25 1.33-.22 2-.35c.45-.08.9-.2 1.35-.32l.7-.17c.47-.12.94-.26 1.39-.39a40.05 40.05 0 0 0 26.35-25.14c.17-.53.35-1 .53-1.58a42.25 42.25 0 0 0 1.33-6 11.63 11.63 0 0 0 .13-1.17c.12-.84.18-1.68.22-2.52 0-.67.06-1.33.06-2s.04-1.54-.02-2.26zm-18.06-5.58c.13.42.27.83.39 1.24s.23.84.33 1.27.18.8.25 1.23.14.92.2 1.39c0 .27.06.57.08.86a17.8 17.8 0 0 1 .05 1.8v1.19a5 5 0 0 1 -.06.77 8.3 8.3 0 0 1 -.1 1 22.84 22.84 0 0 1 -.53 2.88 13.88 13.88 0 0 1 -.41 1.35 15.6 15.6 0 0 1 -.55 1.54c-.15.38-.31.75-.48 1.1s-.3.63-.47.94a2.29 2.29 0 0 1 -.16.31 23.43 23.43 0 0 1 -11.15 10.24c-.37.16-.72.29-1.1.43a8.46 8.46 0 0 1 -.84.31 21.92 21.92 0 0 1 -5 1.08 7.3 7.3 0 0 1 -.95.08c-.49 0-1 .06-1.51.06a17.41 17.41 0 0 1 -1.78-.08c-.31 0-.61 0-.9-.08a5.94 5.94 0 0 1 -.86-.12c-.41-.06-.8-.13-1.21-.21s-.9-.2-1.33-.32a12 12 0 0 1 -1.33-.41h-.2l-1.31-.49-.16-.06c-.68-.32-1.37-.63-2-1-.16-.08-.31-.18-.47-.25a23.47 23.47 0 0 1 -9-9.33v-.1a12 12 0 0 1 -.56-1.14c-.2-.41-.38-.84-.55-1.29a20.53 20.53 0 0 1 -.84-2.66c-.1-.39-.2-.78-.28-1.17s-.11-.63-.15-.94q-.12-.77-.18-1.53a5.9 5.9 0 0 1 -.06-.86c0-.39 0-.8 0-1.19a16.12 16.12 0 0 1 .08-1.7 7.45 7.45 0 0 1 .08-.94c0-.47.12-.94.2-1.41a8.38 8.38 0 0 1 .23-1.13c.08-.41.2-.82.31-1.24s.22-.72.34-1.07.31-.88.48-1.31.32-.77.49-1.14a23.36 23.36 0 0 1 9.47-10.25c.43-.25.86-.49 1.31-.7s.73-.35 1.1-.51a2.8 2.8 0 0 1 .58-.23 8.85 8.85 0 0 1 .96-.42c.47-.16 1-.32 1.45-.46l1-.25c.49-.12 1-.19 1.51-.27a5.94 5.94 0 0 1 .86-.12c.29 0 .59-.06.9-.08a17.41 17.41 0 0 1 1.83-.12q.77 0 1.53.06c.33 0 .64 0 1 .08a24.51 24.51 0 0 1 2.59.41l1 .25c.38.1.75.2 1.12.32h.1a8.93 8.93 0 0 1 1 .39c.37.14.75.29 1.1.45a23.44 23.44 0 0 1 11.56 11.19c.36.78.67 1.56 1 2.36z" fill="#ebf0f3"/><path d="m105 63.71a32 32 0 0 0 -19.44-18.91 31.93 31.93 0 0 0 -23.33.86 32 32 0 0 0 -17.23 18.34 32.07 32.07 0 0 0 .37 23 32 32 0 0 0 17 17.37 32 32 0 0 0 23.21.88 31.93 31.93 0 0 0 21.42-30.25 31.77 31.77 0 0 0 -2-11.29zm-6.74 12.48a5 5 0 0 1 -.06.77 8.3 8.3 0 0 1 -.1 1 22.84 22.84 0 0 1 -.53 2.88c-.13.45-.25.9-.41 1.35a15.6 15.6 0 0 1 -.55 1.54c-.15.38-.31.73-.48 1.1s-.3.63-.47.94a2.29 2.29 0 0 1 -.16.31 23.43 23.43 0 0 1 -11.11 10.24c-.35.16-.72.31-1.1.45a6.94 6.94 0 0 1 -.84.31 21.92 21.92 0 0 1 -5 1.08 7.3 7.3 0 0 1 -.95.08c-.49 0-1 .06-1.51.06a17.41 17.41 0 0 1 -1.78-.08c-.29 0-.61 0-.9-.08a5.94 5.94 0 0 1 -.86-.12c-.41-.06-.8-.13-1.21-.21s-.9-.2-1.33-.32a12 12 0 0 1 -1.33-.41h-.2l-1.31-.49-.16-.06c-.68-.32-1.37-.63-2-1-.16-.08-.31-.18-.47-.25a23.47 23.47 0 0 1 -9-9.33v-.1c-.21-.37-.39-.77-.56-1.14s-.38-.86-.55-1.29a22.89 22.89 0 0 1 -.84-2.66c-.1-.39-.2-.78-.28-1.17s-.11-.63-.15-.94q-.12-.77-.18-1.53a5.9 5.9 0 0 1 -.06-.86c0-.39 0-.8 0-1.19a16.12 16.12 0 0 1 .08-1.7 7.45 7.45 0 0 1 .08-.94c0-.47.12-.94.2-1.41a8.38 8.38 0 0 1 .23-1.13c.08-.41.2-.82.31-1.24s.22-.72.34-1.07.31-.88.48-1.31.34-.77.51-1.14a23.36 23.36 0 0 1 9.47-10.25c.43-.25.86-.49 1.31-.7s.73-.35 1.1-.51a2.8 2.8 0 0 1 .58-.23 8.85 8.85 0 0 1 .94-.44c.47-.16 1-.32 1.45-.46l1-.25c.49-.12 1-.19 1.51-.27a5.94 5.94 0 0 1 .86-.12c.29 0 .59-.06.9-.08a17.41 17.41 0 0 1 1.83-.12q.77 0 1.53.06c.33 0 .64 0 1 .08a24.51 24.51 0 0 1 2.59.41l1 .25c.38.1.75.2 1.12.32h.1c.35.11.7.25 1 .39s.75.29 1.1.45a23.44 23.44 0 0 1 11.56 11.19c.37.76.7 1.56 1 2.36.13.42.27.83.39 1.24s.23.84.33 1.27.18.82.25 1.23.14.92.2 1.39c0 .27.06.57.08.86a17.8 17.8 0 0 1 .05 1.8c0 .41-.02.8-.04 1.19z" fill="#d5d6db"/><g fill="#e56353"><path d="m54.4 85.88-9.07 1.12-8.33 1c0-.1-.06-.2-.09-.3-.14-.41-.28-.84-.4-1.25-.33-1.11-.62-2.23-.86-3.38-.13-.67-.25-1.31-.35-2s-.19-1.35-.25-2-.12-1.27-.16-1.92-.06-1.45-.06-2.19 0-1.53.08-2.29a17.62 17.62 0 0 1 .17-1.67v-.12c.06-.64.15-1.31.25-2s.22-1.31.35-2 .28-1.29.45-1.94.34-1.27.53-1.89v-.16l8.34 1.11 8.95 1.11c-.17.37-.35.77-.51 1.14s-.33.88-.48 1.31-.24.72-.34 1.07-.23.83-.31 1.24a8.38 8.38 0 0 0 -.25 1.13c-.08.47-.16.94-.2 1.41a7.45 7.45 0 0 0 -.08.94 16.12 16.12 0 0 0 -.08 1.65v1.19a6.11 6.11 0 0 0 .06.86q.06.77.18 1.53c.06.31.1.63.15.94s.18.78.28 1.17a22.89 22.89 0 0 0 .84 2.66c.17.43.35.86.55 1.29s.35.77.56 1.14z"/><path d="m86.52 113.44c-.45.13-.92.27-1.39.39l-.7.17c-.45.12-.9.24-1.35.32-.65.13-1.31.25-2 .35s-1.33.19-2 .25-1.37.14-2.06.16-1.37.06-2 .06-1.39 0-2-.06-1.37-.08-2.06-.16-1.27-.13-1.89-.23h-.22c-.51-.08-1-.16-1.49-.27-1.07-.2-2.13-.45-3.19-.75-.41-.12-.82-.23-1.23-.37s-1.09-.35-1.62-.55l1-8.35 1.13-9.15c.16.07.31.17.47.25.66.37 1.35.68 2 1l.16.06 1.31.49h.2a12 12 0 0 0 1.33.41c.43.12.88.22 1.33.32s.8.15 1.21.21a6.35 6.35 0 0 0 .86.12c.29 0 .61.06.9.08a17.41 17.41 0 0 0 1.78.08c.51 0 1 0 1.51-.06a7.3 7.3 0 0 0 .95-.08 21.92 21.92 0 0 0 5-1.08 6.94 6.94 0 0 0 .84-.31c.38-.14.75-.29 1.1-.45l1.11 8.92z"/><path d="m86.62 36.56-1.06 8.24-1.13 8.9c-.35-.16-.73-.31-1.1-.45s-.7-.28-1-.39h-.1c-.37-.12-.74-.22-1.12-.32l-1-.25a24.51 24.51 0 0 0 -2.59-.41c-.31 0-.62-.06-1-.08q-.77-.06-1.53-.06a17.41 17.41 0 0 0 -1.78.08c-.31 0-.61 0-.9.08a5.94 5.94 0 0 0 -.86.12c-.51.08-1 .15-1.51.27l-1 .25c-.49.14-1 .3-1.45.46a8.85 8.85 0 0 0 -1.08.41 2.8 2.8 0 0 0 -.58.23c-.37.16-.75.33-1.1.51s-.88.45-1.31.7l-1.15-9.15-1.06-8.35.51-.18c.45-.17.92-.31 1.39-.47l1.6-.47 1-.21c.43-.12.86-.22 1.31-.3.65-.13 1.29-.25 2-.35s1.33-.19 2-.25 1.37-.14 2.06-.16 1.37-.06 2-.06 1.39 0 2 .06 1.37.08 2.06.16a35.68 35.68 0 0 1 5.59 1c.62.07 1.27.25 1.89.44z"/><path d="m115.14 75c0 .67 0 1.33-.06 2 0 .84-.1 1.68-.22 2.52a11.63 11.63 0 0 1 -.13 1.17 42.25 42.25 0 0 1 -1.33 6c-.18.55-.36 1-.53 1.58l-8.28-1-9.09-1.2a2.29 2.29 0 0 0 .16-.31c.17-.31.33-.63.47-.94s.33-.72.48-1.1a15.6 15.6 0 0 0 .55-1.54c.16-.45.28-.9.41-1.35a22.84 22.84 0 0 0 .53-2.83 8.3 8.3 0 0 0 .1-1 5 5 0 0 0 .06-.77c0-.39 0-.78 0-1.19a17.8 17.8 0 0 0 -.08-1.8c0-.29 0-.59-.08-.86-.06-.47-.12-.92-.2-1.39s-.15-.82-.25-1.23-.22-.86-.33-1.27-.26-.82-.39-1.24c-.3-.8-.63-1.6-1-2.36l9-1.14 8.25-1.05c.08.27.18.53.26.8s.23.84.35 1.27.17.7.25 1.08.22.88.3 1.33c.15.7.27 1.4.35 2.11a15.32 15.32 0 0 1 .21 1.64c.08.63.12 1.27.14 1.9s.1 1.43.1 2.17z"/></g></svg>