<svg id="Layer_1" height="512" viewBox="0 0 150 150" width="512" xmlns="http://www.w3.org/2000/svg" data-name="Layer 1"><circle cx="75" cy="75" fill="#fcd462" r="64"/><path d="m72.41 59.93h5.18v51.87h-5.18z" fill="#2f4859"/><path d="m44.79 112.23v4.21a.86.86 0 0 0 .86.87h11.81a.87.87 0 0 0 .87-.87v-4.21z" fill="#2f4859"/><path d="m91.67 112.23v4.21a.87.87 0 0 0 .87.87h11.81a.86.86 0 0 0 .86-.87v-4.21z" fill="#2f4859"/><rect fill="#3a556a" height="7.43" rx="1.4" width="66.62" x="41.69" y="106.59"/><path d="m75 32.69a17.46 17.46 0 1 0 17.46 17.46 17.46 17.46 0 0 0 -17.46-17.46z" fill="#3a556a"/><circle cx="75" cy="50.15" fill="#ebf0f3" r="12.9"/><path d="m74.49 38.47h1.01v2.35h-1.01z" fill="#3a556a"/><path d="m74.49 59.49h1.01v2.35h-1.01z" fill="#3a556a"/><path d="m84.33 49.65h2.35v1.01h-2.35z" fill="#3a556a"/><path d="m63.32 49.65h2.35v1.01h-2.35z" fill="#3a556a"/><path d="m81.26 42.22h2.35v1.01h-2.35z" fill="#3a556a" transform="matrix(.707 -.707 .707 .707 -6.07 70.8)"/><path d="m66.4 57.08h2.35v1.01h-2.35z" fill="#3a556a" transform="matrix(.707 -.707 .707 .707 -20.92 64.68)"/><path d="m81.92 56.41h1.01v2.35h-1.01z" fill="#3a556a" transform="matrix(.707 -.707 .707 .707 -16.58 75.15)"/><path d="m67.06 41.55h1.01v2.35h-1.01z" fill="#3a556a" transform="matrix(.707 -.707 .707 .707 -10.43 60.27)"/><circle cx="75" cy="50.15" fill="#2f4859" r="1.96"/><path d="m75 41.87-1.32 11.07h2.64z" fill="#2f4859"/><path d="m89.6 76.31h-9.6l-5 1.22-5-1.22h-9.6a1.42 1.42 0 0 0 -1.4 1.42v27.44a1.43 1.43 0 0 0 1.42 1.42h29.18a1.43 1.43 0 0 0 1.4-1.42v-27.44a1.42 1.42 0 0 0 -1.4-1.42z" fill="#dc8744"/><path d="m79.97 87.25-1.2-.84-1.3.84-1.14-.84-1.33.84-1.28-.84-1.3.84-1.33-.84-1.06.84v-10.94h9.94z" fill="#ebf0f3"/><path d="m61.94 98.25h11.39v5.67h-11.39z" fill="#fff"/><g fill="#3a556a"><path d="m62.54 98.89h.24v4.4h-.24z"/><path d="m63.22 98.89h.55v4.4h-.55z"/><path d="m64.17 98.89h.13v4.4h-.13z"/><path d="m64.54 98.89h.3v4.4h-.3z"/><path d="m65.2 98.89h.24v4.4h-.24z"/><path d="m65.88 98.89h.55v4.4h-.55z"/><path d="m66.83 98.89h.13v4.4h-.13z"/><path d="m67.2 98.89h.3v4.4h-.3z"/><path d="m67.78 98.89h.24v4.4h-.24z"/><path d="m68.46 98.89h.55v4.4h-.55z"/><path d="m69.41 98.89h.13v4.4h-.13z"/><path d="m69.78 98.89h.3v4.4h-.3z"/><path d="m70.44 98.89h.24v4.4h-.24z"/><path d="m71.12 98.89h.55v4.4h-.55z"/><path d="m72.06 98.89h.13v4.4h-.13z"/><path d="m72.44 98.89h.3v4.4h-.3z"/></g></svg>