<svg id="Layer_1" height="512" viewBox="0 0 150 150" width="512" xmlns="http://www.w3.org/2000/svg" data-name="Layer 1"><circle cx="75" cy="75" fill="#fe7058" r="64"/><path d="m87 107.23h-.52l3.87-52.92h-30.73l3.86 52.92h-.48a2.12 2.12 0 0 0 -2.12 2.12v6.2a2.12 2.12 0 0 0 2.12 2.12h24a2.12 2.12 0 0 0 2.12-2.12v-6.2a2.12 2.12 0 0 0 -2.12-2.12z" fill="#3e6b82"/><path d="m87 107.23h-24a2.12 2.12 0 0 0 -2.12 2.12v6.2a2.12 2.12 0 0 0 2.12 2.12h24a2.12 2.12 0 0 0 2.12-2.12v-6.2a2.12 2.12 0 0 0 -2.12-2.12z" fill="#3a556a"/><path d="m97.41 33.21a286.6 286.6 0 0 0 -44.82 0 5.86 5.86 0 0 0 -4.82 4.1 44.6 44.6 0 0 0 0 20.49 5.86 5.86 0 0 0 4.82 4.1 289.06 289.06 0 0 0 44.82 0 5.86 5.86 0 0 0 4.82-4.1 44.6 44.6 0 0 0 0-20.49 5.86 5.86 0 0 0 -4.82-4.1z" fill="#3a556a"/><rect fill="#64798a" height="19.04" rx="1.24" width="41.11" x="54.44" y="37.6"/><g fill="#3a556a"><rect height="8.91" rx="1.33" width="19.23" x="65.38" y="42.67"/><path d="m71.44 75.24h7.11v16.88h-7.11z"/></g></svg>