<svg id="Layer_1" height="512" viewBox="0 0 150 150" width="512" xmlns="http://www.w3.org/2000/svg" data-name="Layer 1"><circle cx="75" cy="75" fill="#fe7058" r="64"/><path d="m67.46 93.08h4.98l32.1-49.15-1.29-8.08-34.94 43.14 4.29 6.11z" fill="#d5d6db"/><path d="m82.54 93.08-5.14-7.98 4.29-6.11-34.94-43.14-1.29 8.08 32.1 49.15z" fill="#e1e6e9"/><path d="m70 89.09-4.75 7.38a7.67 7.67 0 0 0 -3.4-4.7c-4.37-2.62-10.78 0-14.31 6s-2.83 12.8 1.54 15.41 10.78 0 14.3-6a15.59 15.59 0 0 0 .77-1.45l9.35-14.27zm-8.8 16.78c-2.87 4.81-7.75 7.18-10.91 5.3s-3.38-7.31-.51-12.12 7.76-7.19 10.92-5.3 3.38 7.3.5 12.12z" fill="#3a556a"/><path d="m102.43 97.73c-3.53-5.91-9.94-8.58-14.31-6a7.67 7.67 0 0 0 -3.4 4.7l-4.86-7.54-3.35 2.54 9.31 14.27a15.59 15.59 0 0 0 .77 1.45c3.52 5.9 9.93 8.57 14.3 6s5.11-9.52 1.54-15.42zm-2.72 13.44c-3.16 1.88-8-.49-10.91-5.3s-2.65-10.24.5-12.12 8 .48 10.92 5.3 2.64 10.23-.51 12.12z" fill="#3a556a"/><path d="m75.08 76.5a2.1 2.1 0 1 0 2.09 2.1 2.1 2.1 0 0 0 -2.09-2.1z" fill="#d5d6db"/></svg>