<svg id="Layer_1" height="512" viewBox="0 0 150 150" width="512" xmlns="http://www.w3.org/2000/svg" data-name="Layer 1"><path d="m139 75a64 64 0 1 1 -64-64 64 64 0 0 1 64 64" fill="#fe7058"/><path d="m51.66 56.87a4.52 4.52 0 1 1 6-6.07h18.2a1.13 1.13 0 0 1 1.14 1.13v21.68a1.12 1.12 0 0 1 -1.12 1.12h-23.1a1.12 1.12 0 0 1 -1.12-1.12zm12.16-14.51a21.46 21.46 0 1 0 15.18 6.28 21.38 21.38 0 0 0 -15.18-6.28" fill="#fe9482"/><path d="m75.85 50.8h-7.61l-3.84 2.11-4-2.11h-7.62a1.13 1.13 0 0 0 -1.12 1.13v21.68a1.12 1.12 0 0 0 1.12 1.12h23.07a1.12 1.12 0 0 0 1.15-1.12v-21.68a1.13 1.13 0 0 0 -1.12-1.13" fill="#fcd462"/><path d="m68.24 57.28-.94-.67-1.03.67-.9-.67-1.06.67-1.01-.67-1.03.67-1.04-.67-.84.67v-6.48h7.85z" fill="#ebf0f3"/><g fill="#3a556a"><path d="m55.37 70.02-.67-.93-.66.93h.37v2.28h.58v-2.28z"/><path d="m56.93 70.02-.66-.93-.67.93h.38v2.28h.57v-2.28z"/><path d="m60.24 70.1v-1h-.6l-.31.43.32.29-.44.62.2-.49-.4-.4.29-.45h-.73v1a.83.83 0 0 0 .72.83v.77a.41.41 0 0 1 -.41.42h-.1l-.09.09.09.09h1.22l.09-.09-.09-.09h-.09a.42.42 0 0 1 -.42-.42v-.77a.82.82 0 0 0 .75-.83z"/><path d="m63.39 69.29v-.13l-.06-.07-.07.07v.13a1.61 1.61 0 0 0 -1.55 1.61s.1-.06.21-.06.21 0 .21.06.13-.09.3-.09a.44.44 0 0 1 .29.07.8.8 0 0 1 .54-.15v1.27a.17.17 0 0 1 -.17.17.18.18 0 0 1 -.17-.17v-.18l-.06-.06-.06.06v.18a.3.3 0 1 0 .59 0v-1.28c.31 0 .54.08.54.18 0-.05.13-.09.3-.09s.29 0 .29.09.1-.06.21-.06.21 0 .21.06a1.61 1.61 0 0 0 -1.55-1.61z"/><path d="m61.42 68.68h-8v4h11.92v-4zm-4 3.92h-3.84v-3.81h3.81zm3.92 0h-3.84v-3.81h3.81zm3.92 0h-3.84v-3.81h3.81z"/></g><path d="m83.15 78.79h6.34v15.06h-6.34z" fill="#e1e6e9" transform="matrix(.707 -.707 .707 .707 -35.76 86.33)"/><path d="m45.07 45.07a26.51 26.51 0 1 0 37.5 0 26.53 26.53 0 0 0 -37.5 0m33.93 33.93a21.46 21.46 0 1 1 0-30.36 21.46 21.46 0 0 1 0 30.36" fill="#3a556a"/><path d="m82.46 90.18 20.91 20.91a5.46 5.46 0 0 0 7.72-7.72l-20.91-20.91z" fill="#3a556a"/><path d="m90.8 81.84-9 9a1.34 1.34 0 1 0 1.89 1.9l9-9a1.32 1.32 0 0 0 0-1.89 1.34 1.34 0 0 0 -1.89-.01z" fill="#3a556a"/><path d="m53.58 48.25a4.52 4.52 0 0 0 -1.92 8.62v-4.94a1.13 1.13 0 0 1 1.12-1.13h4.87a4.52 4.52 0 0 0 -4.07-2.55" fill="#feafa1"/><path d="m57.65 50.8h-4.87a1.13 1.13 0 0 0 -1.12 1.13v4.94a4.53 4.53 0 0 0 6-6.07" fill="#fddf89"/><path d="m59.78 56.72a2.28 2.28 0 1 0 1 .24l-.4.32v-.48a2.49 2.49 0 0 0 -.61-.08" fill="#fddf89"/><path d="m60.39 56.8v.48l.4-.32a2 2 0 0 0 -.4-.16" fill="#f0f4f6"/></svg>