<svg id="Layer_1" height="512" viewBox="0 0 150 150" width="512" xmlns="http://www.w3.org/2000/svg" data-name="Layer 1"><circle cx="75" cy="75" fill="#fe7058" r="64"/><path d="m96.9 115.85-2.16-16.1 11.05-14.22-1.41-25.95a1.65 1.65 0 0 0 -2.25-1.45 6.12 6.12 0 0 0 -3.85 5.41l-.74 16.88-8.82 11.34 1.09-9.08 3.06-5.35a3.8 3.8 0 0 0 -3.22-5.7l-6.94 9.37-3.29 11.28 1.26 23.57z" fill="#fcd462"/><path d="m53.1 115.85 2.16-16.1-11-14.22 1.41-25.95a1.65 1.65 0 0 1 2.25-1.45 6.12 6.12 0 0 1 3.85 5.41l.74 16.88 8.82 11.34-1.09-9.08-3.06-5.35a3.8 3.8 0 0 1 3.22-5.7l6.89 9.37 3.29 11.27-1.26 23.57z" fill="#fcd462"/><path d="m75.4 30.26-20.18 4.87v12a31.28 31.28 0 0 0 5.35 17.76 29.41 29.41 0 0 0 14.83 11.24 29.4 29.4 0 0 0 14.84-11.21 31.27 31.27 0 0 0 5.34-17.76v-12z" fill="#3a556a"/><path d="m89.18 37.47-5-1.19-4-1-4.4-1.06-.35-.09-6.06 1.46-10.37 2.51v9.06a30.69 30.69 0 0 0 .22 3.61 28.43 28.43 0 0 0 .93 4.53 26.18 26.18 0 0 0 1.37 3.7 25 25 0 0 0 2.16 3.8l.08.12a26.68 26.68 0 0 0 2.24 2.76 24.93 24.93 0 0 0 3.24 2.93 23.46 23.46 0 0 0 3 2 26.5 26.5 0 0 0 3.13 1.49 25.57 25.57 0 0 0 11.72-9.32 26.6 26.6 0 0 0 4.41-11.39 29.46 29.46 0 0 0 .3-4.23v-9.06z" fill="#ebf0f3"/><g fill="#d5d6db"><path d="m75.76 34.24-16.54 16.53a30.69 30.69 0 0 1 -.22-3.61v-1.16l10.35-10.39 6.06-1.46z"/><path d="m84.21 36.28-22.69 22.72a26.18 26.18 0 0 1 -1.37-3.68l20-20z"/><path d="m91.8 38.1v1.78l-25.8 25.8a26.68 26.68 0 0 1 -2.24-2.78l25.42-25.43z"/><path d="m91.8 46.05v1.11a29.46 29.46 0 0 1 -.3 4.23l-19.22 19.22a23.46 23.46 0 0 1 -3-2z"/></g><path d="m78.51 105.24h19.83v14.5h-19.83z" fill="#3a556a"/><path d="m51.77 105.24h19.83v14.5h-19.83z" fill="#3a556a"/></svg>