<svg id="Layer_1" height="512" viewBox="0 0 150 150" width="512" xmlns="http://www.w3.org/2000/svg" data-name="Layer 1"><circle cx="75" cy="75" fill="#fcd462" r="64"/><path d="m71.17 34.13h7.66v10.37h-7.66z" fill="#3a556a"/><path d="m71.17 37.02h7.66v2.3h-7.66z" fill="#e56353"/><path d="m58.84 43.31h32.33v11.81h-32.33z" fill="#e1e6e9"/><path d="m49.57 55.36h50.86v23.47h-50.86z" fill="#ebf0f3"/><g fill="#3a556a"><rect height="4.63" rx=".5" width="57.08" x="46.46" y="52.8"/><path d="m63.74 45.48a1.14 1.14 0 0 0 -1.14 1.13v3a1.14 1.14 0 1 0 2.27 0v-3a1.14 1.14 0 0 0 -1.13-1.13z"/><path d="m69.37 45.48a1.14 1.14 0 0 0 -1.14 1.13v3a1.14 1.14 0 1 0 2.27 0v-3a1.14 1.14 0 0 0 -1.13-1.13z"/><path d="m75 45.48a1.13 1.13 0 0 0 -1.13 1.13v3a1.13 1.13 0 1 0 2.26 0v-3a1.13 1.13 0 0 0 -1.13-1.13z"/><path d="m80.63 45.48a1.14 1.14 0 0 0 -1.13 1.13v3a1.14 1.14 0 1 0 2.27 0v-3a1.14 1.14 0 0 0 -1.14-1.13z"/><path d="m86.26 45.48a1.14 1.14 0 0 0 -1.13 1.13v3a1.14 1.14 0 1 0 2.27 0v-3a1.14 1.14 0 0 0 -1.14-1.13z"/><path d="m56.56 69.92a2.28 2.28 0 0 1 -2.28-2.28v-4.55a2.28 2.28 0 0 1 4.56 0v4.55a2.28 2.28 0 0 1 -2.28 2.28z"/><path d="m65.88 69.92a2.28 2.28 0 0 1 -2.28-2.28v-4.55a2.28 2.28 0 0 1 4.56 0v4.55a2.28 2.28 0 0 1 -2.28 2.28z"/><path d="m75.2 69.92a2.28 2.28 0 0 1 -2.28-2.28v-4.55a2.28 2.28 0 0 1 4.56 0v4.55a2.28 2.28 0 0 1 -2.28 2.28z"/><path d="m84.53 69.92a2.28 2.28 0 0 1 -2.28-2.28v-4.55a2.28 2.28 0 1 1 4.55 0v4.55a2.28 2.28 0 0 1 -2.27 2.28z"/><path d="m93.85 69.92a2.28 2.28 0 0 1 -2.28-2.28v-4.55a2.28 2.28 0 0 1 4.56 0v4.55a2.28 2.28 0 0 1 -2.28 2.28z"/></g><path d="m75 67.09-33.14 10.72a93.09 93.09 0 0 1 21.21 38.06h23.86a93.09 93.09 0 0 1 21.21-38.06z" fill="#e05b49"/><path d="m75 67.09v48.78h11.93a93.09 93.09 0 0 1 21.21-38.06z" fill="#d15241"/><path d="m75 115.87v-48.78l-33.14 10.72a93.09 93.09 0 0 1 21.21 38.06z" fill="#e05b49"/></svg>