<svg id="Layer_1" height="512" viewBox="0 0 150 150" width="512" xmlns="http://www.w3.org/2000/svg" data-name="Layer 1"><circle cx="75" cy="75" fill="#fe7058" r="64"/><path d="m81.79 39.77h-13.28a5 5 0 0 0 -5 4.95v17.38a2 2 0 0 0 1.62 1.9 6.79 6.79 0 0 1 5.19 5.81 28.69 28.69 0 0 1 -4.38 19.58v9.87h18.42v-9.84a28.64 28.64 0 0 1 -4.36-19.58 6.78 6.78 0 0 1 5.17-5.84 2 2 0 0 0 1.56-1.93v-17.35a5 5 0 0 0 -4.94-4.95z" fill="#3a556a"/><path d="m42.89 105.19h64.21v5.04h-64.21z" fill="#3a556a"/><rect fill="#fcd462" height="10.08" rx=".81" width="68.94" x="40.53" y="96.16"/></svg>