<svg id="Layer_1" height="512" viewBox="0 0 150 150" width="512" xmlns="http://www.w3.org/2000/svg" data-name="Layer 1"><circle cx="75" cy="75" fill="#fe7058" r="64"/><path d="m91.26 118h-.16l-16.1-.53.06-2.2 16.14.48a3.17 3.17 0 0 0 2.91-1.75l7.89-15.59 2 1-7.93 15.59a5.41 5.41 0 0 1 -4.81 3z" fill="#3a556a"/><path d="m110.93 76.46a11.32 11.32 0 0 1 -3.23 7.7l3.23 1.4a74.72 74.72 0 0 0 2.07-9.78c.29-3.23-2.07.68-2.07.68z" fill="#64798a"/><path d="m106.09 80.72a5.54 5.54 0 0 0 -1.42-2.93c-1.22-1.24-5.9-2.23-7.53 0s-9.26 23.08-9.26 23.08-.5 2.85.92 4.07 4.37 2.85 6.92 1.93 5.19-4 5.19-4l4.47-15.56z" fill="#3a556a"/><path d="m110.17 84.3-3-1.47v-1.53a1.59 1.59 0 0 0 -.53-1.17l-.91-.8-11 27.81h1.09a1.57 1.57 0 0 0 1.13-.49l.82-.87 4.37.94a1.9 1.9 0 0 0 2.19-1.21l6.87-18.84a1.92 1.92 0 0 0 -1.03-2.37z" fill="#ebf0f3"/><path d="m39.07 76.46a11.32 11.32 0 0 0 3.23 7.7l-3.23 1.4a74.72 74.72 0 0 1 -2.07-9.78c-.29-3.23 2.07.68 2.07.68z" fill="#64798a"/><path d="m43.91 80.72a5.54 5.54 0 0 1 1.42-2.93c1.22-1.24 5.9-2.23 7.53 0s9.26 23.08 9.26 23.08.51 2.85-.92 4.07-4.37 2.85-6.92 1.93-5.19-4-5.19-4l-4.47-15.53z" fill="#3a556a"/><path d="m39.83 84.3 3.05-1.47v-1.53a1.58 1.58 0 0 1 .52-1.17l.91-.8 11 27.81h-1.07a1.57 1.57 0 0 1 -1.13-.49l-.82-.87-4.37.94a1.9 1.9 0 0 1 -2.19-1.21l-6.87-18.84a1.92 1.92 0 0 1 .97-2.37z" fill="#ebf0f3"/><g fill="#3a556a"><path d="m101.81 38.41s-8.06-8.74-26.81-9.41c-18.75.64-26.81 9.38-26.81 9.38-14.14 10.62-13.39 31.7-12.97 36.9a1.28 1.28 0 0 0 1.28 1.18h2.78a1.28 1.28 0 0 0 1.28-1.38c-.29-3.88-.55-15.25 5.08-25.7 4.71-8.74 16.6-12.45 23.72-13.93a27.83 27.83 0 0 1 11.28 0c7.12 1.48 19 5.19 23.72 13.93 5.63 10.45 5.37 21.82 5.08 25.7a1.28 1.28 0 0 0 1.28 1.38h2.78a1.28 1.28 0 0 0 1.28-1.18c.42-5.2 1.22-26.28-12.97-36.87z"/><ellipse cx="75.97" cy="116.19" rx="6.24" ry="4.77"/></g></svg>