<svg id="Layer_1" height="512" viewBox="0 0 150 150" width="512" xmlns="http://www.w3.org/2000/svg" data-name="Layer 1"><circle cx="75" cy="75" fill="#fcd462" r="64"/><circle cx="75" cy="75" fill="#ebf0f3" r="40.28"/><circle cx="75" cy="75" fill="#e56353" r="33.86"/><circle cx="75" cy="75" fill="#ebf0f3" r="27.03"/><circle cx="75" cy="75" fill="#e56353" r="19.35"/><circle cx="75" cy="75" fill="#ebf0f3" r="12.69"/><circle cx="75" cy="75" fill="#e56353" r="4.37"/><path d="m74.3 75.94a1.91 1.91 0 0 1 0-2.71l26.78-26.79a1.92 1.92 0 0 1 2.72 2.72l-26.8 26.78a1.93 1.93 0 0 1 -2.7 0z" fill="#3a556a"/><g fill="#27a2db"><path d="m97.12 61.67-6.57-.86 10.7-10.7 6.57.87z"/><path d="m88.57 53.12.87 6.57 10.69-10.7-.86-6.57z"/></g></svg>