<svg id="Layer_1" height="512" viewBox="0 0 150 150" width="512" xmlns="http://www.w3.org/2000/svg" data-name="Layer 1"><circle cx="75" cy="75" fill="#21b3a9" r="64"/><path d="m91.17 58.23h-10.66l-5.38 3-5.64-3h-10.66a1.57 1.57 0 0 0 -1.57 1.57v30.4a1.57 1.57 0 0 0 1.57 1.57h32.34a1.57 1.57 0 0 0 1.57-1.57v-30.4a1.57 1.57 0 0 0 -1.57-1.57z" fill="#fcd462"/><path d="m80.51 67.13-1.33-.93-1.44.93-1.26-.93-1.48.93-1.42-.93-1.44.93-1.47-.93-1.18.93v-8.9h11.02z" fill="#ebf0f3"/><g fill="#3a556a"><path d="m64.36 83.18-1.22-1.72-1.23 1.72h.69v4.21h1.07v-4.21z"/><path d="m67.26 83.18-1.23-1.72-1.23 1.72h.7v4.21h1.06v-4.21z"/><path d="m77.32 83.21v-2.08h-1.23l-.65.88.66.59-.91 1.28.41-1-.82-.83.61-.92h-1.51v2.08a1.72 1.72 0 0 0 1.49 1.7v1.59a.87.87 0 0 1 -.86.86h-.2a.18.18 0 0 0 -.18.18.19.19 0 0 0 .18.19h2.57a.19.19 0 0 0 .19-.19.18.18 0 0 0 -.19-.18h-.19a.86.86 0 0 1 -.86-.86v-1.59a1.72 1.72 0 0 0 1.49-1.7z"/><path d="m69.23 89.07h-9.29v-9.29h9.29zm-8.76-.53h8.22v-8.22h-8.22z"/><path d="m80.24 89.07h-9.24v-9.29h9.28zm-8.75-.53h8.22v-8.22h-8.22z"/><path d="m104.38 87.15v17.23h-17.24v4.11h21.36v-21.34zm-58.76 0h-4.12v21.34h21.36v-4.11h-17.24zm-4.12-45.64v21.35h4.12v-17.24h17.24v-4.11zm45.64 0v4.11h17.24v17.24h4.12v-21.35z"/></g><path d="m101.42 73.06h17.72v3.88h-17.72z" fill="#e56353"/><path d="m30.86 73.06h17.72v3.88h-17.72z" fill="#e56353"/><path d="m73.06 101.42h3.88v17.72h-3.88z" fill="#e56353"/><path d="m73.06 30.86h3.88v17.72h-3.88z" fill="#e56353"/></svg>