<svg id="Layer_1" height="512" viewBox="0 0 150 150" width="512" xmlns="http://www.w3.org/2000/svg" data-name="Layer 1"><circle cx="75" cy="75" fill="#fe7058" r="64"/><path d="m96.24 88.54-19-8.42v-11.22l-9.07 4.48-9.11-4.48v11.22l-19.06 8.42a3.4 3.4 0 0 0 -2 2.78l-1.94 19.83h64.13l-1.94-19.83a3.4 3.4 0 0 0 -2.01-2.78z" fill="#f7be56"/><path d="m80.08 81.4-1.24-.55v-.01l-1.65-.72-8.83 2.59-9.3-2.59-1.09.48-1.66.73v29.82h23.77z" fill="#e1e6e9"/><path d="m100.19 111.15h-64.14l1.95-19.83a3.46 3.46 0 0 1 2-2.79l18-7.93-.49.57 10.85 30 10.3-30.71.21.4 17.4 7.68a3.43 3.43 0 0 1 2 2.79z" fill="#2f4859"/><path d="m78.84 46.46-4.84-2.3-5.78-.53h-.12l-5.78.53-4.82 2.3-1.1 14.8 3.42 10.4a5.42 5.42 0 0 0 1.8 2.57l2.49 2a5.45 5.45 0 0 0 3.38 1.18h1.71a5.47 5.47 0 0 0 3.46-1.24l2.34-1.92a5.53 5.53 0 0 0 1.74-2.59l3.24-10.4z" fill="#fcd462"/><path d="m79.49 60.5s1.27-4.07 2.73-2.9-.39 4.9-1.37 6.21-.06 3.74-2.38 2.17" fill="#fcd462"/><path d="m57.53 60.5s-1.27-4.07-2.73-2.9.39 4.9 1.37 6.21.06 3.74 2.38 2.17" fill="#fcd462"/><path d="m79.48 60.5h.78s.71-10.61.4-14-3.15-2.94-3.15-2.94.16-4.14-4.63-4.61-13.52-.23-15.65 5.68-.47 15.82-.47 15.82l1.1-.42s.24-10.89 1-11.74 5.54-1.43 9.14-1.12 7.26-1.09 8.68.78 2.51 8 2.59 8.95.21 3.6.21 3.6z" fill="#3a556a"/><path d="m70.04 82.69h-3.34l-1.67 2.89 1.67 2.9h3.34l1.67-2.9z" fill="#2d93ba"/><path d="m78.84 80.84v.01l-6.87 8.04-3.61-6.16-3.59 6.16-6.87-8.04.07-.25 1.09-4.05 9.3 6.16 8.83-6.16z" fill="#ebf0f3"/><path d="m72.34 106.03-4.01 5.12-3.96-5.12 2.29-18.18h3.39z" fill="#2d93ba"/><path d="m78.2 79.17-9.87 31.98 10.51-12.73-.37-4.69 3.2-2.34v-9.29z" fill="#3a556a"/><path d="m58.3 79.17 10.03 31.98-10.67-12.73.36-4.69-3.19-2.34v-9.29z" fill="#3a556a"/><path d="m105.36 75.08h-18.93v36.07h27.52v-27.48z" fill="#ebf0f3"/><path d="m89.96 83.97h5.13v5.13h-5.13z" fill="#27a2db"/><path d="m89.96 92.6h5.13v5.13h-5.13z" fill="#44c4a1"/><path d="m89.96 101.74h5.13v5.13h-5.13z" fill="#e56353"/><g fill="#d5d6db"><path d="m96.93 84.6h13.5v.68h-13.5z"/><path d="m96.93 86.2h13.5v.68h-13.5z"/><path d="m96.93 87.8h13.5v.68h-13.5z"/><path d="m96.93 93.23h13.5v.68h-13.5z"/><path d="m96.93 94.83h13.5v.68h-13.5z"/><path d="m96.93 96.43h13.5v.68h-13.5z"/><path d="m96.93 102.36h13.5v.68h-13.5z"/><path d="m96.93 103.97h13.5v.68h-13.5z"/><path d="m96.93 105.57h13.5v.68h-13.5z"/><path d="m105.36 83.67h8.59l-8.59-8.59z"/></g><path d="m92.18 88.06-1.44-1.44.66-.65.78.78 1.69-1.7.66.66z" fill="#ebf0f3"/><path d="m92.18 97.01-1.44-1.44.66-.65.78.77 1.69-1.69.66.66z" fill="#ebf0f3"/><path d="m92.18 105.96-1.44-1.44.66-.66.78.78 1.69-1.69.66.66z" fill="#ebf0f3"/></svg>