<svg id="Layer_1" height="512" viewBox="0 0 150 150" width="512" xmlns="http://www.w3.org/2000/svg" data-name="Layer 1"><circle cx="75" cy="75" fill="#d5d6db" r="64"/><rect fill="#3a556a" height="72.4" rx="5.42" width="66.91" x="41.54" y="38.8"/><path d="m66.23 50.33a4.48 4.48 0 0 0 -3.43-4.78 25.55 25.55 0 0 0 -11 0 4.48 4.48 0 0 0 -3.43 4.81 272.15 272.15 0 0 1 0 48.61 4.5 4.5 0 0 0 3.74 4.87 32.38 32.38 0 0 0 10.35 0 4.49 4.49 0 0 0 3.74-4.84 289.63 289.63 0 0 1 .03-48.67z" fill="#64798a"/><path d="m71.44 46.67h29.08v13.61h-29.08z" fill="#64798a"/><path d="m73.76 48.98h24.44v8.97h-24.44z" fill="#27a2db"/><rect fill="#64798a" height="2.83" rx=".61" width="8.72" x="71.44" y="64.8"/><rect fill="#64798a" height="2.83" rx=".61" width="8.72" x="81.62" y="64.8"/><rect fill="#e56353" height="2.83" rx=".61" width="8.72" x="91.8" y="64.8"/><g fill="#64798a"><rect height="2.83" rx=".61" width="8.72" x="71.44" y="69.55"/><rect height="6.21" rx=".61" width="8.72" x="71.44" y="75"/><rect height="6.21" rx=".61" width="8.72" x="81.62" y="75"/><rect height="6.21" rx=".61" width="8.72" x="91.8" y="75"/><rect height="6.21" rx=".61" width="8.72" x="71.44" y="83.13"/><rect height="6.21" rx=".61" width="8.72" x="81.62" y="83.13"/><rect height="6.21" rx=".61" width="8.72" x="91.8" y="83.13"/><rect height="6.21" rx=".61" width="8.72" x="71.44" y="91.26"/><rect height="6.21" rx=".61" width="8.72" x="81.62" y="91.26"/><rect height="6.21" rx=".61" width="8.72" x="91.8" y="91.26"/><rect height="2.83" rx=".61" width="8.72" x="81.62" y="69.55"/><rect height="2.83" rx=".61" width="8.72" x="91.8" y="69.55"/></g></svg>