<svg id="Layer_1" height="512" viewBox="0 0 150 150" width="512" xmlns="http://www.w3.org/2000/svg" data-name="Layer 1"><circle cx="75" cy="75" fill="#d5d6db" r="64"/><g fill="#2f4859"><path d="m69.49 100.46h11.02v18.06h-11.02z"/><path d="m89.93 37.91v17.8l2.75-.58h4.9v-2a15.6 15.6 0 0 1 3.82-10.22l2.54-2.91v-2.09z"/><path d="m89.93 76.92 2.75-.57h4.9v-2a15.56 15.56 0 0 1 3.82-10.21l2.54-2.93v-2.09h-14z"/><path d="m89.93 98.13 2.75-.57h4.9v-2a15.57 15.57 0 0 1 3.82-10.21l2.54-2.93v-2.09h-14z"/><path d="m46.06 37.91v2.09l2.54 2.92a15.6 15.6 0 0 1 3.82 10.22v2h4.9l2.75.58v-17.81z"/><path d="m46.06 61.23 2.54 2.93a15.56 15.56 0 0 1 3.82 10.21v2h4.9l2.75.57v-17.82h-14z"/><path d="m46.06 82.44 2.54 2.93a15.57 15.57 0 0 1 3.82 10.21v2h4.9l2.75.57v-17.82h-14z"/></g><path d="m56.84 31.48h36.32v71.58h-36.32z" fill="#3a556a"/><circle cx="75" cy="46.06" fill="#e56353" r="8.15"/><circle cx="75" cy="67.27" fill="#44c4a1" r="8.15"/><path d="m75 80.33a8.16 8.16 0 1 0 8.15 8.15 8.15 8.15 0 0 0 -8.15-8.15z" fill="#fcd462"/></svg>