<svg id="Layer_1" height="512" viewBox="0 0 150 150" width="512" xmlns="http://www.w3.org/2000/svg" data-name="Layer 1"><circle cx="75" cy="75" fill="#d5d6db" r="64"/><path d="m103 43a2.41 2.41 0 0 0 -1.3-2.05c-10-5.16-22.63-6.68-26.43-7-3.31.29-16.45 1.74-26.79 7.06a2.46 2.46 0 0 0 -1.32 1.99l-1.22 22.27 6.14 18.18h40.92l11.2-18.18z" fill="#3a556a"/><path d="m98.56 43h-47a1.51 1.51 0 0 0 -1.51 1.51v10.9a1.51 1.51 0 0 0 1.51 1.52h47a1.51 1.51 0 0 0 1.51-1.52v-10.93a1.51 1.51 0 0 0 -1.51-1.48z" fill="#27a2db"/><path d="m104.2 65.27-29.13 8.18-29.13-8.18v18.18h58.26z" fill="#64798a"/><path d="m75.32 65.78a5.89 5.89 0 1 0 5.89 5.89 5.89 5.89 0 0 0 -5.89-5.89z" fill="#e56353"/><path d="m75.32 67.74a3.93 3.93 0 1 0 3.93 3.93 3.93 3.93 0 0 0 -3.93-3.93z" fill="#ebf0f3"/><path d="m106.79 82.79h-63.58a1.77 1.77 0 0 0 -1.77 1.77v6.44a1.77 1.77 0 0 0 1.77 1.77h1.27v8.69l.86 1.91h59.32l.86-1.91v-8.72h1.27a1.77 1.77 0 0 0 1.77-1.74v-6.44a1.77 1.77 0 0 0 -1.77-1.77z" fill="#3a556a"/><path d="m44.5 101.47 5.43 12.1 25 2.59v.01h.07.07v-.01l25-2.59 5.43-12.1z" fill="#e56353"/><path d="m58.02 88.81h33.97v12.66h-33.97z" fill="#2f4859"/><g fill="#3a556a"><path d="m52.08 105.35h1.78v6.61h-1.78z"/><path d="m56.1 105.35h1.78v6.61h-1.78z"/><path d="m60.13 105.35h1.78v7.28h-1.78z"/><path d="m64.15 105.35h1.78v7.64h-1.78z"/><path d="m68.18 105.35h1.78v7.98h-1.78z"/><path d="m72.2 105.35h1.78v8.74h-1.78z"/><path d="m96.14 105.35h1.78v6.61h-1.78z"/><path d="m92.11 105.35h1.78v6.61h-1.78z"/><path d="m88.09 105.35h1.78v7.28h-1.78z"/><path d="m84.06 105.35h1.78v7.64h-1.78z"/><path d="m80.04 105.35h1.78v7.98h-1.78z"/><path d="m76.01 105.35h1.78v8.74h-1.78z"/></g><path d="m100.05 85.15a2.89 2.89 0 1 0 2.88 2.85 2.88 2.88 0 0 0 -2.88-2.85z" fill="#ebf0f3"/><path d="m50.07 85.15a2.89 2.89 0 1 0 2.93 2.85 2.88 2.88 0 0 0 -2.93-2.85z" fill="#ebf0f3"/></svg>