<svg id="Layer_1" height="512" viewBox="0 0 150 150" width="512" xmlns="http://www.w3.org/2000/svg" data-name="Layer 1"><circle cx="75" cy="75" fill="#fcd462" r="64"/><path d="m113.39 52-4.62 2.78a39.36 39.36 0 0 1 -57.43 51.66h6.66v-5.39h-16v16h5.39v-6.81a44.74 44.74 0 0 0 66-58.23z" fill="#3a556a"/><path d="m75 35.65a39.1 39.1 0 0 1 23.65 7.9h-6.85v5.38h16v-15.93h-5.39v6.68a44.74 44.74 0 0 0 -66.49 57.11l4.7-2.62a39.37 39.37 0 0 1 34.38-58.52z" fill="#3a556a"/><path d="m66.19 79.8v5.2h33.17a1.35 1.35 0 0 0 1.35-1.35v-3.85z" fill="#2f4859"/><path d="m98.72 57.75h-30.81a1.72 1.72 0 0 0 -1.72 1.72v8.19h-2.58v13.1h37.1v-21a2 2 0 0 0 -1.99-2.01z" fill="#27a2db"/><path d="m56.07 86.38-9.01-1h-.95-.33l.12-6.58h11.91z" fill="#2f4859"/><path d="m66.19 67.12v17.74a1.53 1.53 0 0 1 -1.52 1.52h-8.61a8.9 8.9 0 0 0 -.68-3.87l-.09-.2a5.25 5.25 0 0 0 -2.56-2.56l-.18-.08c-.35-.13-6.44 5.71-6.44 5.71h-1.54v-2.64c0-.43 0-.85 0-1.27l.43-3.77a1.85 1.85 0 0 1 1.4-1.63l5.6-1.38a1.8 1.8 0 0 0 1.22-1l2.78-5.55a1.85 1.85 0 0 1 1.65-1z" fill="#e56353"/><path d="m62.9 69.24h-5.24a.49.49 0 0 0 -.49.38l-1.12 4.55a.51.51 0 0 0 .49.63h6.36a.51.51 0 0 0 .51-.51v-4.55a.5.5 0 0 0 -.51-.5z" fill="#ebf0f3"/><path d="m50.64 82.94a2.44 2.44 0 1 0 2.43 2.44 2.43 2.43 0 0 0 -2.43-2.44z" fill="#ebf0f3"/><path d="m57.34 86.31a5.32 5.32 0 0 0 .13-1.2 5.68 5.68 0 0 0 -5.68-5.68 5.92 5.92 0 0 0 -5.68 5.95h.94z" fill="#2f4859"/><path d="m83.8 81.18a4.74 4.74 0 1 0 4.74 4.74 4.74 4.74 0 0 0 -4.74-4.74z" fill="#3a556a"/><path d="m83.8 83.49a2.43 2.43 0 1 0 2.43 2.43 2.43 2.43 0 0 0 -2.43-2.43z" fill="#ebf0f3"/><path d="m51.79 80.48a4.74 4.74 0 1 0 4.74 4.74 4.74 4.74 0 0 0 -4.74-4.74z" fill="#3a556a"/><path d="m51.79 82.79a2.43 2.43 0 1 0 2.43 2.43 2.43 2.43 0 0 0 -2.43-2.43z" fill="#ebf0f3"/></svg>