<svg id="Layer_1" height="512" viewBox="0 0 150 150" width="512" xmlns="http://www.w3.org/2000/svg" data-name="Layer 1"><circle cx="75" cy="75" fill="#21b3a9" r="64"/><path d="m68.21 112.79a8.15 8.15 0 0 1 -8.14-8.14v-3.65a1.34 1.34 0 0 1 2.67 0v3.61a5.47 5.47 0 0 0 10.94 0v-71.03a1.34 1.34 0 0 1 2.67 0v71.07a8.15 8.15 0 0 1 -8.14 8.14z" fill="#d5d6db"/><path d="m73.68 94.21v10.44a5.47 5.47 0 0 1 -10.94 0v-3.65a1.34 1.34 0 0 0 -2.67 0v3.61a8.14 8.14 0 0 0 16.28 0v-10.4z" fill="#3a556a"/><path d="m115.81 70.25a21.7 21.7 0 0 0 -8.46-1.63c-6.23 0-11.57 2.35-13.83 5.7l-.08-.08c-3.1-3.31-10.28-5.62-18.67-5.62-8 0-14.86 2.09-18.19 5.15a4 4 0 0 0 -.3.28c-2.35-3.2-7.58-5.43-13.64-5.43a21.61 21.61 0 0 0 -8.45 1.63 41.71 41.71 0 0 1 81.62 0z" fill="#2f4859"/><path d="m93.44 74.24c-3.1-3.31-10.28-5.62-18.67-5.62-8 0-14.86 2.09-18.19 5.15 1.11-20.62 8.94-36.6 18.42-36.6s17.4 16.22 18.44 37.07z" fill="#64798a"/><path d="m92.85 80.72h-11.77l-5.94 3.28-6.22-3.27h-11.77a1.74 1.74 0 0 0 -1.74 1.74v33.53a1.73 1.73 0 0 0 1.74 1.73h35.7a1.73 1.73 0 0 0 1.74-1.73v-33.54a1.74 1.74 0 0 0 -1.74-1.74z" fill="#fcd462"/><path d="m81.08 90.55-1.47-1.03-1.59 1.03-1.39-1.03-1.63 1.03-1.56-1.03-1.6 1.03-1.62-1.03-1.3 1.03v-9.83h12.16z" fill="#ebf0f3"/><g fill="#3a556a"><path d="m64.02 106.34-2.34-3.28-2.34 3.28h1.32v8.03h2.04v-8.03z"/><path d="m69.54 106.34-2.34-3.28-2.34 3.28h1.32v8.03h2.03v-8.03z"/></g></svg>