<svg id="Layer_1" height="512" viewBox="0 0 150 150" width="512" xmlns="http://www.w3.org/2000/svg" data-name="Layer 1"><circle cx="75" cy="75" fill="#709584" r="64"/><path d="m111.98 106.83h-73.96v-43.22l38.53-20.11 35.43 20.11z" fill="#ebf0f3"/><path d="m118.39 63.73-9.88-4.36 1.14-1.52-11.71-4.25 1.18-1.56-11.58-4.2 1.12-1.47-13.66-5.22-13.66 5.22 1.12 1.47-11.58 4.2 1.18 1.56-11.71 4.25 1.14 1.52-9.88 4.36 2.98 4.94 40.41-21.97 40.41 21.97z" fill="#e56353"/><path d="m56.03 75.6h37.95v30.36h-37.95z" fill="#3a556a"/><path d="m74 93.53h-3.62l-1.81 1-1.89-1h-3.59a.53.53 0 0 0 -.53.53v10.22a.53.53 0 0 0 .53.53h10.91a.53.53 0 0 0 .53-.53v-10.22a.53.53 0 0 0 -.53-.53z" fill="#f7be56"/><path d="m70.38 97.61-.44-.31-.49.31-.42-.31-.5.31-.48-.31-.48.31-.5-.31-.39.31v-4.08h3.7z" fill="#ebf0f3"/><g fill="#3a556a"><path d="m64.7 101.8-.59-.83-.59.83h.33v2.03h.52v-2.03z"/><path d="m66.1 101.8-.59-.83-.59.83h.33v2.03h.52v-2.03z"/><path d="m68.29 101.87v-.87h-.53l-.28.38.28.26-.39.55.18-.43-.36-.36.26-.4h-.65v.9a.75.75 0 0 0 .65.74v.69a.37.37 0 0 1 -.38.37h-.07l-.08.08.08.08h1.1l.09-.08-.09-.08h-.1a.36.36 0 0 1 -.37-.37v-.69a.75.75 0 0 0 .66-.77z"/></g><path d="m86.91 93.53h-3.59l-1.81 1-1.89-1h-3.62a.53.53 0 0 0 -.53.53v10.22a.53.53 0 0 0 .53.53h10.91a.53.53 0 0 0 .53-.53v-10.22a.53.53 0 0 0 -.53-.53z" fill="#f7be56"/><path d="m83.32 97.61-.44-.31-.49.31-.42-.31-.5.31-.48-.31-.48.31-.5-.31-.39.31v-4.08h3.7z" fill="#ebf0f3"/><path d="m77.64 101.8-.59-.83-.59.83h.33v2.03h.52v-2.03z" fill="#3a556a"/><path d="m79.04 101.8-.59-.83-.59.83h.33v2.03h.52v-2.03z" fill="#3a556a"/><path d="m81.23 101.87v-.87h-.53l-.28.38.28.26-.39.55.18-.43-.36-.36.26-.4h-.65v.9a.75.75 0 0 0 .65.74v.69a.37.37 0 0 1 -.38.37h-.08l-.08.08.08.08h1.07l.09-.08-.09-.08a.37.37 0 0 1 -.38-.37v-.69a.75.75 0 0 0 .61-.77z" fill="#3a556a"/><path d="m79.93 82.25h-3.58l-1.81 1-1.9-1h-3.58a.53.53 0 0 0 -.53.53v10.22a.53.53 0 0 0 .53.53h10.87a.53.53 0 0 0 .53-.53v-10.22a.53.53 0 0 0 -.53-.53z" fill="#fcd462"/><path d="m76.35 86.33-.45-.31-.48.31-.43-.31-.49.31-.48-.31-.49.31-.49-.31-.4.31v-4.08h3.71z" fill="#ebf0f3"/><path d="m70.67 90.52-.59-.83-.6.83h.34v2.04h.51v-2.04z" fill="#3a556a"/><path d="m72.07 90.52-.6-.83-.59.83h.34v2.04h.51v-2.04z" fill="#3a556a"/><path d="m74.26 90.59v-.9h-.54l-.28.38.29.26-.4.56.18-.44-.36-.36.27-.4h-.66v.9a.75.75 0 0 0 .65.74v.67a.38.38 0 0 1 -.37.38h-.04l-.08.08.08.08h1.12l.08-.08-.08-.08h-.12a.38.38 0 0 1 -.37-.38v-.69a.74.74 0 0 0 .63-.72z" fill="#3a556a"/><path d="m32.69 104.81h84.62v4.04h-84.62z" fill="#e1e6e9"/></svg>