<svg id="Layer_1" height="512" viewBox="0 0 150 150" width="512" xmlns="http://www.w3.org/2000/svg" data-name="Layer 1"><circle cx="75" cy="75" fill="#334d5c" r="64"/><path d="m73.15 68.05h-8.78l-4.43 2.44-4.64-2.44h-8.78a1.3 1.3 0 0 0 -1.3 1.3v25a1.3 1.3 0 0 0 1.3 1.29h26.63a1.3 1.3 0 0 0 1.3-1.29v-25a1.3 1.3 0 0 0 -1.3-1.3z" fill="#fcd462"/><path d="m64.37 75.66-1.09-.77-1.19.77-1.04-.77-1.21.77-1.17-.77-1.19.77-1.21-.77-.97.77v-7.61h9.07z" fill="#ebf0f3"/><path d="m52.28 85.18-2.36-3.31-2.37 3.31h1.34v8.11h2.05v-8.11z" fill="#3a556a"/><path d="m57.85 85.18-2.36-3.31-2.36 3.31h1.33v8.11h2.06v-8.11z" fill="#3a556a"/><path d="m103.48 68.05h-8.78l-4.43 2.44-4.64-2.44h-8.78a1.3 1.3 0 0 0 -1.3 1.3v25a1.3 1.3 0 0 0 1.3 1.29h26.63a1.3 1.3 0 0 0 1.3-1.29v-25a1.3 1.3 0 0 0 -1.3-1.3z" fill="#fcd462"/><path d="m94.7 75.66-1.09-.77-1.19.77-1.04-.77-1.21.77-1.17-.77-1.19.77-1.21-.77-.97.77v-7.61h9.07z" fill="#ebf0f3"/><path d="m82.61 85.18-2.36-3.31-2.37 3.31h1.34v8.11h2.05v-8.11z" fill="#3a556a"/><path d="m88.18 85.18-2.36-3.31-2.37 3.31h1.34v8.11h2.06v-8.11z" fill="#3a556a"/><path d="m88.29 40.42h-8.78l-4.44 2.44-4.64-2.44h-8.78a1.3 1.3 0 0 0 -1.3 1.3v25a1.3 1.3 0 0 0 1.3 1.29h26.64a1.29 1.29 0 0 0 1.29-1.29v-25a1.3 1.3 0 0 0 -1.29-1.3z" fill="#f7be56"/><path d="m79.5 48.02-1.09-.76-1.19.76-1.03-.76-1.22.76-1.17-.76-1.19.76-1.21-.76-.97.76v-7.6h9.07z" fill="#ebf0f3"/><path d="m67.41 57.55-2.36-3.31-2.36 3.31h1.33v8.11h2.06v-8.11z" fill="#3a556a"/><path d="m72.98 57.55-2.36-3.31-2.36 3.31h1.33v8.11h2.06v-8.11z" fill="#3a556a"/><g fill="#cc763b"><path d="m34.21 97.94h12.85v10.03h-12.85z"/><path d="m57.12 97.94h12.85v10.03h-12.85z"/><path d="m80.03 97.94h12.85v10.03h-12.85z"/><path d="m102.94 97.94h12.85v10.03h-12.85z"/></g><path d="m30.13 95.68h89.74v3.22h-89.74z" fill="#dc8744"/><path d="m30.13 106.36h89.74v3.22h-89.74z" fill="#dc8744"/></svg>