<svg id="Layer_1" height="512" viewBox="0 0 150 150" width="512" xmlns="http://www.w3.org/2000/svg" data-name="Layer 1"><circle cx="75" cy="75" fill="#21b3a9" r="64"/><path d="m45.27 45.35h1.03v26.45h-1.03z" fill="#2f4859"/><path d="m47.64 43.02h1.52v8h-1.52z" fill="#3a556a" transform="matrix(.574 -.819 .819 .574 -17.88 59.68)"/><path d="m53.3 86.6-7.5-8.15-.15-.07-.14.06-7.57 7.93-.27-.26 7.56-7.93a.62.62 0 0 1 .43-.18.57.57 0 0 1 .42.19l7.5 8.15z" fill="#3a556a"/><path d="m53.42 85.46h-5l-2.54 1.4-2.66-1.4h-5a.74.74 0 0 0 -.74.75v14.35a.75.75 0 0 0 .74.75h15.2a.75.75 0 0 0 .74-.75v-14.35a.74.74 0 0 0 -.74-.75z" fill="#fcd462"/><path d="m48.38 89.23-.63-.44-.68.44-.59-.44-.7.44-.67-.44-.68.44-.7-.44-.55.44v-3.77h5.2z" fill="#ebf0f3"/><path d="m43.08 98.25v-.68h-.39l-.21.29.21.19-.29.41.13-.32-.27-.27.2-.3h-.46v.68a.54.54 0 0 0 .48.54v.51a.27.27 0 0 1 -.27.28h-.07l-.06.06.06.06h.83l.06-.06-.06-.06h-.06a.28.28 0 0 1 -.28-.28v-.51a.54.54 0 0 0 .45-.54z" fill="#3a556a"/><path d="m45.17 97.7v-.08-.05l-.05.05v.08a1.07 1.07 0 0 0 -1 1.07h.14.13s.09-.06.2-.06.18 0 .19.05.17-.09.35-.1v.85l-.11.11-.11-.11v-.12.12a.2.2 0 0 0 .4 0v-.85c.2 0 .36.06.36.12s.08-.06.19-.06.2 0 .2.06h.14.14a1.08 1.08 0 0 0 -1.17-1.08z" fill="#3a556a"/><path d="m48.19 76.29c-1.26.58-.69 2.51-1.84 2.64s-1.64-.49-1.64-1.29 1.08-1.4 1.49-1.92a1.2 1.2 0 0 0 .24-1v-.54h-1.16v.79c-.24.65-.71.33-1.81 1.54a2.44 2.44 0 0 0 1.79 3.9 2.55 2.55 0 0 0 3-2.59c0-.55.11-.75.22-.83a.34.34 0 0 0 .17-.29v-.06a.33.33 0 0 0 -.46-.35z" fill="#3a556a"/><path d="m49.07 69.19-.78-.78a.93.93 0 0 0 -.65-.27h-3.64a.91.91 0 0 0 -.65.27l-.83.83a.91.91 0 0 0 -.27.66v2.77a.91.91 0 0 0 .27.65c.27.28.5.5.78.78a.91.91 0 0 0 .65.27h3.72a.93.93 0 0 0 .65-.27l.78-.78a1 1 0 0 0 .27-.66v-2.82a.93.93 0 0 0 -.3-.65z" fill="#e56353"/><circle cx="45.78" cy="71.36" fill="#e1e6e9" r="1.92"/><g fill="#3a556a"><path d="m104.2 78.91-8.46 11.45-47.45-38.75 5-6.7zm-8.83 8.5 5.9-8-47.55-31.71-2.62 3.55z"/><path d="m53.67 46.26h1.03v9.5h-1.03z" transform="matrix(.989 -.149 .149 .989 -6.98 8.62)"/><path d="m49.43 50.49h9.5v1.03h-9.5z" transform="matrix(.989 -.148 .148 .989 -6.96 8.6)"/><path d="m59.07 50.25h1.03v9.5h-1.03z" transform="matrix(.989 -.148 .148 .989 -7.51 9.46)"/><path d="m54.84 54.49h9.51v1.03h-9.51z" transform="matrix(.989 -.148 .148 .989 -7.5 9.44)"/><path d="m65.01 53.7h1.03v11.38h-1.03z" transform="matrix(.989 -.148 .148 .989 -8.05 10.33)"/><path d="m59.83 58.88h11.38v1.03h-11.38z" transform="matrix(.989 -.148 .148 .989 -8.09 10.38)"/><path d="m70.96 57.14h1.03v13.31h-1.03z" transform="matrix(.989 -.149 .149 .989 -8.69 11.33)"/><path d="m64.82 63.28h13.31v1.02h-13.31z" transform="matrix(.989 -.148 .148 .989 -8.66 11.3)"/><path d="m78.11 62.42h1.02v13.31h-1.02z" transform="matrix(.989 -.149 .149 .989 -9.39 12.45)"/><path d="m71.97 68.56h13.31v1.03h-13.31z" transform="matrix(.989 -.148 .148 .989 -9.37 12.42)"/><path d="m85.54 67.41h1.03v14.31h-1.03z" transform="matrix(.989 -.148 .148 .989 -10.07 13.53)"/><path d="m78.89 74.05h14.31v1.02h-14.31z" transform="matrix(.99 -.15 .15 .99 -10.11 13.59)"/><path d="m93.15 72.21h1.03v15.96h-1.03z" transform="matrix(.989 -.148 .148 .989 -10.82 14.71)"/><path d="m85.68 79.68h15.96v1.03h-15.96z" transform="matrix(.989 -.148 .148 .989 -10.86 14.78)"/></g><path d="m99.33 75.73a7.64 7.64 0 0 0 -7.64 7.64v21.81h15.31v-21.81a7.64 7.64 0 0 0 -7.67-7.64z" fill="#e56353"/><path d="m99.33 79.91a3.11 3.11 0 1 0 3.1 3.1 3.1 3.1 0 0 0 -3.1-3.1z" fill="#ebf0f3"/><path d="m99.33 75.63a7.64 7.64 0 0 0 -7.64 7.65v21.81h15.31v-21.81a7.64 7.64 0 0 0 -7.67-7.65z" fill="#e56353"/><path d="m99.33 79.81a3.11 3.11 0 1 0 3.1 3.11 3.1 3.1 0 0 0 -3.1-3.11z" fill="#ebf0f3"/><circle cx="45.78" cy="44.91" fill="#3a556a" r="3.79"/><path d="m45.78 43a1.9 1.9 0 1 0 1.9 1.9 1.9 1.9 0 0 0 -1.9-1.9z" fill="#ebf0f3"/><path d="m85.28 103.49h27.33v5.39h-27.33z" fill="#2f4859"/></svg>