<svg id="Layer_1" height="512" viewBox="0 0 150 150" width="512" xmlns="http://www.w3.org/2000/svg" data-name="Layer 1"><circle cx="75" cy="75" fill="#89c5cd" r="64"/><path d="m75.16 116.61a9.78 9.78 0 0 1 -1.89-19.38v-8.39a1.89 1.89 0 0 1 3.78 0v10.1a1.89 1.89 0 0 1 -1.89 1.89 6 6 0 1 0 6 6 1.89 1.89 0 1 1 3.78 0 9.8 9.8 0 0 1 -9.78 9.78z" fill="#3a556a"/><path d="m88.49 50.84h-3.78v-13.46a.21.21 0 0 0 -.22-.21h-19a.21.21 0 0 0 -.22.21v13.46h-3.76v-13.46a4 4 0 0 1 4-4h19a4 4 0 0 1 4 4z" fill="#3a556a"/><circle cx="75" cy="68.79" fill="#3a556a" r="23.22"/><path d="m75 50a18.84 18.84 0 1 0 18.84 18.79 18.84 18.84 0 0 0 -18.84-18.79z" fill="#ebf0f3"/><g fill="#3a556a"><path d="m74.84 50.84h.33v2.32h-.33z"/><path d="m74.84 84.43h.33v2.32h-.33z"/><path d="m90.64 68.63h2.32v.33h-2.32z"/><path d="m57.04 68.63h2.32v.33h-2.32z"/><path d="m85.72 56.75h2.32v.33h-2.32z" transform="matrix(.706 -.708 .708 .706 -14.78 78.21)"/><path d="m61.96 80.51h2.32v.33h-2.32z" transform="matrix(.708 -.706 .706 .708 -38.54 68.15)"/><path d="m86.72 79.51h.33v2.32h-.33z" transform="matrix(.707 -.707 .707 .707 -31.6 85.06)"/><path d="m62.96 55.76h.33v2.32h-.33z" transform="matrix(.706 -.708 .708 .706 -21.75 61.39)"/><path d="m68.41 52.11h.33v2.32h-.33z" transform="matrix(.923 -.384 .384 .923 -15.2 30.41)"/><path d="m81.27 83.16h.33v2.32h-.33z" transform="matrix(.924 -.383 .383 .924 -26.07 37.58)"/><path d="m89.36 62.2h2.31v.33h-2.31z" transform="matrix(.924 -.383 .383 .924 -16.98 39.39)"/><path d="m58.32 75.06h2.31v.33h-2.31z" transform="matrix(.924 -.383 .383 .924 -24.26 28.49)"/><path d="m80.27 53.11h2.32v.33h-2.32z" transform="matrix(.384 -.923 .923 .384 .97 108)"/><path d="m67.41 84.15h2.32v.33h-2.32z" transform="matrix(.383 -.924 .924 .383 -35.57 115.4)"/><path d="m90.36 74.06h.33v2.31h-.33z" transform="matrix(.382 -.924 .924 .382 -13.59 130.12)"/><path d="m59.32 61.21h.33v2.31h-.33z" transform="matrix(.382 -.924 .924 .382 -20.88 93.49)"/><path d="m76.81 62.42-1.81-5.51-1.81 5.51h.91l-.91 10.74h3.62l-.91-10.74z"/></g><path d="m75 66.47a2.32 2.32 0 1 0 2.32 2.32 2.32 2.32 0 0 0 -2.32-2.32z" fill="#e56353"/><circle cx="75" cy="68.79" fill="#3a556a" r="1.47"/></svg>