<svg id="Layer_1" height="512" viewBox="0 0 150 150" width="512" xmlns="http://www.w3.org/2000/svg" data-name="Layer 1"><circle cx="75" cy="75" fill="#334d5c" r="64"/><path d="m122.57 75a2.16 2.16 0 0 0 -2.16-2.16h-90.82a2.16 2.16 0 0 0 0 4.32h90.82a2.16 2.16 0 0 0 2.16-2.16z" fill="#fcd462"/><path d="m75 122.57a2.16 2.16 0 0 0 2.16-2.16v-90.82a2.16 2.16 0 1 0 -4.32 0v90.82a2.16 2.16 0 0 0 2.16 2.16z" fill="#fcd462"/><path d="m108.64 108.64a2.17 2.17 0 0 0 0-3.06l-64.22-64.22a2.16 2.16 0 0 0 -3.06 3.06l64.22 64.22a2.17 2.17 0 0 0 3.06 0z" fill="#fcd462"/><path d="m41.36 108.64a2.17 2.17 0 0 0 3.06 0l64.22-64.22a2.16 2.16 0 0 0 -3.06-3.06l-64.22 64.22a2.15 2.15 0 0 0 0 3.06z" fill="#fcd462"/><path d="m110.05 113.78-9-9 3.72-3.72 9 9a2.63 2.63 0 0 1 -3.72 3.72z" fill="#e1e6e9"/><path d="m49 45.26-3.75 3.74-9-9a2.63 2.63 0 0 1 3.72-3.72z" fill="#e1e6e9"/><path d="m113.77 39.94-9 9-3.77-3.68 9-9a2.62 2.62 0 1 1 3.71 3.71z" fill="#e1e6e9"/><path d="m36.22 113.77a2.62 2.62 0 0 1 0-3.71l9-9 3.78 3.69-9 9a2.63 2.63 0 0 1 -3.78.02z" fill="#e1e6e9"/><path d="m75 62a13 13 0 1 0 13 13 13 13 0 0 0 -13-13z" fill="#dc8744"/><path d="m75 68.63a6.37 6.37 0 1 0 6.37 6.37 6.37 6.37 0 0 0 -6.37-6.37z" fill="#ebf0f3"/><path d="m75 39.53a35.47 35.47 0 1 0 35.48 35.47 35.47 35.47 0 0 0 -35.48-35.47zm0 62.4a26.94 26.94 0 1 1 26.94-26.93 26.94 26.94 0 0 1 -26.94 26.93z" fill="#dc8744"/><g fill="#fcd462"><circle cx="75" cy="43.88" r="1.5"/><circle cx="75" cy="106.29" r="1.5"/><path d="m107.7 75.09a1.5 1.5 0 1 0 -1.49 1.49 1.5 1.5 0 0 0 1.49-1.49z"/><path d="m45.29 75.09a1.5 1.5 0 1 0 -1.5 1.49 1.5 1.5 0 0 0 1.5-1.49z"/><path d="m98.12 52a1.49 1.49 0 1 0 -2.12 2.08 1.5 1.5 0 0 0 2.11 0 1.48 1.48 0 0 0 .01-2.08z"/><path d="m54 96.1a1.49 1.49 0 0 0 -2.11 2.11 1.5 1.5 0 0 0 2.11 0 1.48 1.48 0 0 0 0-2.11z"/><path d="m98.12 98.21a1.49 1.49 0 1 0 -2.11 0 1.5 1.5 0 0 0 2.11 0z"/><path d="m54 54.08a1.49 1.49 0 1 0 -2.11 0 1.5 1.5 0 0 0 2.11 0z"/></g></svg>