<svg id="Layer_1" height="512" viewBox="0 0 150 150" width="512" xmlns="http://www.w3.org/2000/svg" data-name="Layer 1"><circle cx="75" cy="75" fill="#21b3a9" r="64"/><path d="m109.35 108.62h-69.85v-37.09l34.93-5.8 34.92 5.8z" fill="#ebf0f3"/><path d="m113.26 71.91-38.82-7.99h-.01-.01l-38.83 7.99.75 3.62 38.09-7.84 38.09 7.84z" fill="#e56353"/><path d="m50.75 82.59h47.35v26.03h-47.35z" fill="#3a556a"/><path d="m111 52.73c-1.43 1.41-2.87-2.69-4.3-2.22.76-1.77 3.06.14 3.38-2.73-.78 1.86-3.68-1.38-4.82-.4 0-1.92 2.87-1 2.07-3.81 0 2-3.93.13-4.6 1.49-.73-1.81 2.26-2.08.45-4.33.76 1.87-3.58 1.62-3.69 3.13-1.35-1.39 1.3-2.78-1.23-4.17 1.41 1.44-2.69 2.87-2.22 4.3-1.77-.76.14-3.06-2.72-3.38 1.85.79-1.39 3.68-.41 4.82-1.92 0-1-2.87-3.81-2.07 2 0 .13 3.94 1.49 4.6-1.81.74-2.07-2.25-4.33-.45 1.86-.76 1.62 3.59 3.13 3.7-1.39 1.34-2.78-1.3-4.17 1.23 1.43-1.42 2.87 2.69 4.3 2.21-.76 1.77-3.06-.14-3.37 2.73.78-1.85 3.67 1.38 4.82.4 0 1.93-2.88 1-2.08 3.81 0-2 3.93-.12 4.61-1.49.73 1.81-2.27 2.08-.46 4.34-.75-1.87 3.59-1.62 3.69-3.14 1.35 1.4-1.29 2.78 1.23 4.17-1.41-1.43 2.7-2.86 2.22-4.3 1.77.77-.14 3.06 2.73 3.38-1.86-.79 1.38-3.67.4-4.82 1.93 0 1 2.88 3.81 2.07-2 0-.13-3.93-1.49-4.61 1.81-.72 2.08 2.27 4.33.46-1.86.76-1.62-3.58-3.12-3.69 1.37-1.35 2.77 1.29 4.16-1.23zm-12.9 8.33a8.48 8.48 0 1 1 8.48-8.48 8.47 8.47 0 0 1 -8.48 8.48z" fill="#fcd462"/><circle cx="98.1" cy="52.58" fill="#fcd462" r="7.31"/><path d="m74.28 96.43h-3.66l-1.85 1-1.93-1h-3.66a.54.54 0 0 0 -.54.54v10.44a.54.54 0 0 0 .54.54h11.1a.54.54 0 0 0 .54-.54v-10.41a.54.54 0 0 0 -.54-.57z" fill="#fcd462"/><path d="m70.62 99.48-.45-.31-.5.31-.43-.31-.51.31-.48-.31-.5.31-.51-.31-.4.31v-3.05h3.78z" fill="#ebf0f3"/><g fill="#3a556a"><path d="m64.23 106.09-.35-.49-.36.49h.21v1.22h.3v-1.22z"/><path d="m65.07 106.09-.36-.49-.35.49h.2v1.22h.31v-1.22z"/><path d="m66.28 106.14v-.54h-.28l-.17.22.17.18-.23.33.1-.26-.21-.22.16-.23h-.39v.54a.44.44 0 0 0 .38.44v.4a.22.22 0 0 1 -.22.22v.05h.67v-.05h-.06a.22.22 0 0 1 -.22-.22v-.41a.45.45 0 0 0 .3-.45z"/><path d="m67.43 105.7v-.07.07a.87.87 0 0 0 -.83.86h.11.11.16.15s.14-.07.29-.08v.41.27l-.1.09-.09-.09v-.1.1l.15.16.16-.16v-.27-.41c.17 0 .29.05.29.1h.16.16.11.11a.87.87 0 0 0 -.94-.88z"/></g><path d="m84.57 98.88h-2.88l-1.46.8-1.52-.8h-2.89a.42.42 0 0 0 -.42.42v8.22a.42.42 0 0 0 .42.43h8.75a.42.42 0 0 0 .42-.43v-8.22a.42.42 0 0 0 -.42-.42z" fill="#fcd462"/><path d="m81.69 101.28-.36-.25-.39.25-.34-.25-.4.25-.39-.25-.39.25-.39-.25-.32.25v-2.4h2.98z" fill="#ebf0f3"/><path d="m76.65 106.49-.27-.39-.28.39h.15v.95h.25v-.95z" fill="#3a556a"/><path d="m77.31 106.49-.28-.39-.28.39h.16v.95h.24v-.95z" fill="#3a556a"/><path d="m78.26 106.52v-.42h-.26l-.13.18.14.12-.19.26.08-.21-.16-.17.12-.18h-.31v.42a.35.35 0 0 0 .31.35v.32a.18.18 0 0 1 -.18.18h.53a.18.18 0 0 1 -.18-.18v-.32a.35.35 0 0 0 .23-.35z" fill="#3a556a"/><path d="m79.17 106.18v-.06.06a.67.67 0 0 0 -.65.67h.09.08.13.12a.33.33 0 0 1 .23-.06v.32.22l-.07.07-.07-.07v-.08.08l.13.12.12-.12v-.22-.32c.13 0 .23 0 .23.07h.13.12.09.09a.67.67 0 0 0 -.77-.68z" fill="#3a556a"/><path d="m35.59 107.92h78.81v2.39h-78.81z" fill="#d5d6db"/></svg>