<svg id="Layer_1" height="512" viewBox="0 0 150 150" width="512" xmlns="http://www.w3.org/2000/svg" data-name="Layer 1"><circle cx="75" cy="75" fill="#d5d6db" r="64"/><path d="m87 105h-24c1.39-5 1.49-9.49 0-13.33h24c-1.65 4.27-1.45 8.74 0 13.33z" fill="#2f4859"/><rect fill="#3a556a" height="51.02" rx="2.18" width="73.32" x="38.34" y="43.36"/><path d="m42.75 47.78h64.49v38.35h-64.49z" fill="#27a2db"/><path d="m75 88.07a1.81 1.81 0 1 0 1.81 1.81 1.81 1.81 0 0 0 -1.81-1.81z" fill="#2f4859"/><path d="m94.18 102.29h-37.79a2.18 2.18 0 0 0 0 4.35h37.79a2.18 2.18 0 0 0 0-4.35z" fill="#3a556a"/><path d="m79.06 72.23v-5.02l-4.06 2.01-4.06-2.01v5.02l-2.44 1.08v12.82h13.49v-12.6z" fill="#f7be56"/><path d="m80.35 72.81-.55-.25-.74-.33a5.38 5.38 0 0 1 -8 .11l-.1-.11-.48.22-.75.33v13.35h10.62z" fill="#e1e6e9"/><path d="m89.36 86.13h-28.72l.87-8.88a1.54 1.54 0 0 1 .9-1.25l8-3.55-.22.26 4.85 13.42 4.62-13.75.09.18 7.84 3.44a1.54 1.54 0 0 1 .9 1.25z" fill="#d15241"/><path d="m79.06 71.7-3.97 14.43 4.71-5.7-.17-2.1 1.43-1.05v-4.16z" fill="#e56353"/><path d="m70.94 71.52 4.15 14.61-4.78-5.7.17-2.1-1.43-1.05v-4.16z" fill="#e56353"/><path d="m82.29 64.51a9.46 9.46 0 0 0 .35-1.51 10.57 10.57 0 0 0 .1-1.39c0-4.91-3.65-8.89-8.15-8.89s-8.14 4-8.14 8.89a9.38 9.38 0 0 0 .62 3.37c.19 1.85-.24 4-4.26 1.2 0 0 3.21 12.22 8.76 3.64l-.63-.88v-5.53h4.46v1.34h.85v-1.13h2.75v4.36l-1.29 1.8c5.55 8.58 8.76-3.64 8.76-3.64-4.28 2.97-4.47.3-4.18-1.63z" fill="#3a556a"/><path d="m74.64 58.14c-1.31 5.94-5.48 2.76-5.48 6.16s2.45 6.15 5.48 6.15 5.47-2.75 5.47-6.15-4.82-9.11-5.47-6.16z" fill="#fcd462"/><path d="m80.71 63.66a.31.31 0 0 0 -.31-.32.32.32 0 0 0 -.32.32 4.71 4.71 0 0 1 -1.31 3 4.42 4.42 0 0 1 -2.32 1.13 1.47 1.47 0 0 0 -1.37-.79 1.23 1.23 0 1 0 0 2.42 1.4 1.4 0 0 0 1.44-1 5 5 0 0 0 2.7-1.32 5.29 5.29 0 0 0 1.49-3.44z" fill="#2f4859"/><path d="m104.43 54.39h-15.07v8.95h2.92v4.99l3.56-4.99h8.59z" fill="#ebf0f3"/><g fill="#64798a"><path d="m93.44 57.55a1.1 1.1 0 1 0 1.1 1.1 1.09 1.09 0 0 0 -1.1-1.1z"/><path d="m96.9 57.55a1.1 1.1 0 1 0 1.1 1.1 1.1 1.1 0 0 0 -1.1-1.1z"/><path d="m100.35 57.55a1.1 1.1 0 1 0 1.09 1.1 1.1 1.1 0 0 0 -1.09-1.1z"/></g></svg>