<svg id="Layer_1" height="512" viewBox="0 0 150 150" width="512" xmlns="http://www.w3.org/2000/svg" data-name="Layer 1"><circle cx="75" cy="75" fill="#334d5c" r="64"/><path d="m43.1 41.4h63.8a.75.75 0 0 1 .75.75v65.71a.75.75 0 0 1 -.75.75h-63.8a.74.74 0 0 1 -.74-.74v-65.73a.75.75 0 0 1 .74-.74z" fill="#f7be56"/><path d="m45.15 44.45h10.82v61.09h-10.82z" fill="#fcd462"/><path d="m57.37 44.45h10.82v61.09h-10.82z" fill="#fcd462"/><path d="m69.59 44.45h10.82v61.09h-10.82z" fill="#fcd462"/><path d="m81.81 44.45h10.82v61.09h-10.82z" fill="#fcd462"/><path d="m94.03 44.45h10.82v61.09h-10.82z" fill="#fcd462"/><path d="m42.35 106.94 48.2-63.88h17.09l-48.19 63.88z" fill="#f7be56"/><path d="m58.76 105.55 46.09-61.1h-13.61l-46.09 61.1z" fill="#fcd462"/><g fill="#f7be56"><path d="m95.59 46.32a1.18 1.18 0 1 0 1.17 1.18 1.18 1.18 0 0 0 -1.17-1.18z"/><path d="m75 46.32a1.18 1.18 0 1 0 1.17 1.18 1.17 1.17 0 0 0 -1.17-1.18z"/><path d="m62.78 46.32a1.18 1.18 0 1 0 1.22 1.18 1.17 1.17 0 0 0 -1.22-1.18z"/><path d="m50.56 46.32a1.18 1.18 0 1 0 1.17 1.18 1.18 1.18 0 0 0 -1.17-1.18z"/><path d="m53.52 101.57a1.18 1.18 0 1 0 1.18 1.18 1.18 1.18 0 0 0 -1.18-1.18z"/><circle cx="75" cy="102.75" r="1.17"/><circle cx="87.22" cy="102.75" r="1.17"/><path d="m99.44 101.57a1.18 1.18 0 1 0 1.18 1.18 1.17 1.17 0 0 0 -1.18-1.18z"/></g></svg>