<?xml version="1.0"?>
<svg xmlns="http://www.w3.org/2000/svg" id="Layer_1" data-name="Layer 1" viewBox="0 0 150 150" width="512" height="512"><circle cx="75" cy="75" r="64" fill="#fe7058"/><path d="M83.77,83.76c-13.44,13.44-38,34.34-44.95,27.42s14-31.51,27.41-44.95,38-34.33,45-27.41S97.2,70.33,83.77,83.76ZM69.61,69.61C49.21,90,40.94,105.35,42.23,107.85c2.42,1.21,17.76-7.06,38.16-27.46,20.25-20.24,28.54-35.51,27.41-38.19C105.12,41.07,89.85,49.36,69.61,69.61Z" fill="#3a556a"/><path d="M109.92,55.75c-1.83-2-3.64-4-5.4-6a2.56,2.56,0,0,1-.65-1.84A72.45,72.45,0,0,0,96.08,42C92,39.36,87,38,82.26,37.12c-5.91-1.08-14.34,2.36-19.75-.67-.34.11-.68.2-1,.32a40.54,40.54,0,1,0,49.92,20.4c-.12-.25-.26-.48-.38-.72A2.37,2.37,0,0,1,109.92,55.75Z" fill="#ebf0f3"/><path d="M102.2,64.48a.69.69,0,0,0-.47,0,4.11,4.11,0,0,0-.56.27c-.15.09-.23.13-.26.32a1.93,1.93,0,0,1-.08.47.4.4,0,0,1-.29.2c-.22,0-.23-.06-.39-.11s-.43.06-.62.1a2.63,2.63,0,0,1-.39.06.92.92,0,0,0-.35.3l-.54.55-.61.6c-.18.18-.32.43-.55.55a2,2,0,0,1-.85.11,2.25,2.25,0,0,0-.36.06,2,2,0,0,1-.53.14.71.71,0,0,1-.51-.32,2.52,2.52,0,0,0-.72-.62c-.16-.09-.44-.24-.6-.12a3.41,3.41,0,0,0-.38.38l-.3.31c-.11.1-.2.25-.33.31-.36.17-.84-.08-1.18-.18-.17,0-.46-.19-.63-.14s-.18.17-.26.24a10,10,0,0,0-.77.82.6.6,0,0,1-.47.31c-.12,0-.21,0-.34,0a1,1,0,0,1-.42,0L88.17,69a2.12,2.12,0,0,0-.43-.06A1.25,1.25,0,0,0,87,69c-.42.24-.64.7-1,1s-.49.6-.73.67-.43-.14-.62,0a1.54,1.54,0,0,0-.43.74c-.14.3-.45.42-.68.64a1.54,1.54,0,0,1-.68.44,1.58,1.58,0,0,0-.66.23c-.27.24-.51.53-.77.78l-.27.27a2,2,0,0,0-.48.53c0,.11,0,.25-.08.36l-.1.14c0,.13,0,.27,0,.4a1.87,1.87,0,0,0-.2.48c0,.29.11.5-.07.77a1.67,1.67,0,0,0-.18.28c-.05.11,0,.21-.12.32a2.26,2.26,0,0,1-.35.34,1.89,1.89,0,0,1-.31.25,7.41,7.41,0,0,1-1,.19c-.23.08-.46.11-.7.17a2.32,2.32,0,0,0-.65.18l-.23.2a1,1,0,0,1-.47.17,5.6,5.6,0,0,0-.9.21.83.83,0,0,1-.73.07c-.21-.09-.4-.22-.6-.32a2.07,2.07,0,0,1-.45-.21,2.13,2.13,0,0,1-.33-.34c-.18-.27,0-1.1-.52-.7a4.16,4.16,0,0,0-.42.42,1.33,1.33,0,0,0-.36.45,8.24,8.24,0,0,1-.24.85,2.28,2.28,0,0,1-.47.51,1,1,0,0,1-.35.27.68.68,0,0,1-.75-.17,1.29,1.29,0,0,1-.53-.85,3.15,3.15,0,0,1,0-.81c0-.31,0-.62.07-.93s.06-.34-.09-.5-.31-.34-.59-.35-.41.21-.59.4-.65.52-.7.88a.51.51,0,0,0,.11.37,1.34,1.34,0,0,1,.16.45,5,5,0,0,1,.24.68c0,.33.1.47-.12.73a6.14,6.14,0,0,1-.5.52c-.18.18-.35.45-.59.56a2.41,2.41,0,0,1-.9.21,1.33,1.33,0,0,1-.89-.25c-.33-.31-.64-.64-1-1a9.73,9.73,0,0,1-.84-.86,3.17,3.17,0,0,0-.29-.35.92.92,0,0,1-.23-.29,1.64,1.64,0,0,1,.08-.95,1.17,1.17,0,0,1,.27-.56c.13-.16.29-.28.41-.44a3,3,0,0,0,.43-.86l.12-.18a1.57,1.57,0,0,0,.08-.29c.09-.21.38-.41.53-.56.3-.3.28-1,.33-1.37a4.06,4.06,0,0,1,.1-.78,2.81,2.81,0,0,0,.28-.78.64.64,0,0,1,.22-.57.3.3,0,0,1,.39-.06c.15,0,.26.2.41.25s.22,0,.34,0c.36,0,.61.42.94.51a3.55,3.55,0,0,0,.46,0,.74.74,0,0,0,.33,0,1.21,1.21,0,0,0,.41-.34l.43-.42a2.46,2.46,0,0,0,.39-.4c.18-.27-.07-.58-.13-.86a.94.94,0,0,0-.3-.57c-.16-.17-.33-.33-.5-.49a.61.61,0,0,0-.52-.26,2,2,0,0,1-.76-.18.65.65,0,0,1-.14-.69.63.63,0,0,0,.19-.4,1.48,1.48,0,0,0-.09-.51c-.09-.3-.12-.6-.18-.9s-.16-.47,0-.68.48-.42.39-.83a3,3,0,0,0-.28-.87c-.14-.25-.43-.37-.53-.66,0-.11,0-.09,0-.21l-.23-.22a.76.76,0,0,1-.15-.62c.13-.45.69-.58.75-1.06l0-.23a.31.31,0,0,0,0-.28,1.24,1.24,0,0,0-.35-.37l-.31-.31-.42-.42c-.15-.15-.42-.21-.3-.44a2.42,2.42,0,0,1,.51-.55,1.48,1.48,0,0,1,.36-.3,2.72,2.72,0,0,0,.67-.48c.19-.19.53-.4.61-.65a2.26,2.26,0,0,0,0-.44.44.44,0,0,0-.08-.29c-.11-.15-.19-.32-.38-.37a1.42,1.42,0,0,0-1.12.19c-.25.21-.45.5-.7.71a1.19,1.19,0,0,1-.73.32c-.51,0-.83-.32-1.19-.62-.17-.15-.3-.25-.27-.5a1.77,1.77,0,0,1,.63-1c.16-.15.33-.42.53-.5s.21,0,.3,0l.16-.07c.24-.12.4,0,.57.16a5.18,5.18,0,0,0,.74.74A1.48,1.48,0,0,0,68,54.63a1.32,1.32,0,0,0,.44-.47,2.12,2.12,0,0,0,.06-.87c0-.22-.09-.24-.18-.41a1.14,1.14,0,0,0-.35-.49,1,1,0,0,0-.71-.07,1,1,0,0,0-.32.1c-.18.1-.25.26-.46.32s-.46,0-.69,0-.33.18-.49,0a1.6,1.6,0,0,1-.23-.78.6.6,0,0,0-.11-.43.66.66,0,0,0-.46-.18,1.33,1.33,0,0,0-.49.28,3.36,3.36,0,0,0-.43.31c-.21.19-.39.4-.59.59s-.24.31-.38.33-.26-.17-.37-.28L62,52.43l-.24-.18a1.44,1.44,0,0,0-.46,0,10.35,10.35,0,0,1-1.35.16c-.3,0-.54-.07-.77.16a.74.74,0,0,0-.21.65c0,.23.27.43.1.65a5.66,5.66,0,0,1-.49.49c-.27.24-.47-.06-.66-.25a.9.9,0,0,1-.31-.69,1.1,1.1,0,0,1,0-.36.9.9,0,0,1,.31-.41c.22-.21,0-.32-.14-.48s-.31-.31-.46-.46a1,1,0,0,0-.86-.25c-.35.05-.6.41-.83.65a1.45,1.45,0,0,1-.36.34,1.84,1.84,0,0,1-.57.09,1.38,1.38,0,0,1-.7,0,5.48,5.48,0,0,0-.61-.22,3,3,0,0,1-.38-.09c-.14-.07-.18-.16-.35-.21-.37-.11-.59.27-.82.5-.3-.24.07-.62.15-.85a1.94,1.94,0,0,1,.2-.54,3.89,3.89,0,0,1,.43-.48,4,4,0,0,1,.89-.75,1,1,0,0,1,.58-.08c.29,0,.68.23,1,.07a2.83,2.83,0,0,1,.28-.2.82.82,0,0,1,.38-.06c.45,0,.92,0,1.36,0s.39-.41.75-.43a2.6,2.6,0,0,1,.56.06c.2,0,.37.15.56.18a.39.39,0,0,0,.29,0,2.86,2.86,0,0,1,1-.27,2.23,2.23,0,0,1,.45.08c.15,0,.18.12.3.17a1.13,1.13,0,0,0,1-.2,1.46,1.46,0,0,1,.33-.22c.14,0,.25,0,.32-.17a.62.62,0,0,0,0-.48l-.12-.14a.7.7,0,0,1-.14-.27l-.1-.13-.21,0a1,1,0,0,0-.48.07c-.11,0-.2.16-.33.18a1.88,1.88,0,0,1-.53-.06c0-.38.21-.64.31-1a.83.83,0,0,0-.13-.63,4.64,4.64,0,0,0-.73-.74c-.21-.22-.41-.44-.6-.67s-.27-.41-.56-.42a2.82,2.82,0,0,0-1.21.24l-.23.09-.29,0c-.2.06-.3.26-.48.36a1.2,1.2,0,0,0-.4.26,1.81,1.81,0,0,1-1.21.45,1.66,1.66,0,0,0-1.13.65l-.94.94c-.28.28-.6.56-.87.86s-.38.64-.64.91-.52.48-.76.74a1.89,1.89,0,0,0-.41.84,1.1,1.1,0,0,1-.35.52,3.31,3.31,0,0,0-.27.26,2.37,2.37,0,0,0-.36,1.25c0,.14-.06.28-.08.42s-.18.48-.28.71,0,.24-.07.35a2.88,2.88,0,0,0,.23.81,1.87,1.87,0,0,0,.45.9l.21.14v.25a1.61,1.61,0,0,1-.58.84c-.28.09-.74-.51-.86-.71.19-.36.58-.46.45-1,0-.16-.1-.3-.26-.35a1.48,1.48,0,0,0-.75.09c-.27.08-.48.25-.73.35s-.27,0-.39.1a1.55,1.55,0,0,0-.55.63,1.63,1.63,0,0,0-.09.76,3.29,3.29,0,0,0,.12.64c0,.13.23.28.25.42a.58.58,0,0,1-.21.38,2.65,2.65,0,0,0-.38.6l-.12.26a.22.22,0,0,1-.24.06.48.48,0,0,0-.31,0l-.34.3c-.21.23-.43.45-.65.67a1.08,1.08,0,0,1-.55.39,4.21,4.21,0,0,1-.94,0,4.43,4.43,0,0,1-.89-.12,1.84,1.84,0,0,1-.76-.57l-.22-.21c-.12-.12-.11-.21-.11-.38a1.79,1.79,0,0,1,.71-1.16c.36-.36.72-.71,1.07-1.08a2.18,2.18,0,0,1,.53-.42,3.11,3.11,0,0,0,.69-.44c.19-.18.37-.39.56-.57a1.84,1.84,0,0,0,.33-.52c.19-.38.51-.64.73-1s.23-.76.44-1.09a4.16,4.16,0,0,0,.28-.51A4,4,0,0,1,47,51.84a1.42,1.42,0,0,0,.32-.37,3.86,3.86,0,0,0,.12-.42c0-.13,0-.22,0-.34s.31-.41.45-.55l.23-.22c.16-.19,0-.48.06-.7s-.23-.49-.44-.7-.51-.6-.84-.54l-.14.08a.75.75,0,0,1-.25.09c-.22,0-.3.17-.46.33-.34.35-.69.71-1.05,1A6.41,6.41,0,0,0,44,51a8.88,8.88,0,0,1-1.57,1.73L41.1,54.1a3.27,3.27,0,0,0-.56.68,4.59,4.59,0,0,0-.47,1.12,7.18,7.18,0,0,1-.34,1c-.08.14-.2.21-.28.35s-.08.36-.18.53-.21.22-.26.44,0,.52-.09.77a1.67,1.67,0,0,0,0,.39c0,.14.08.27.1.41a3.11,3.11,0,0,1,0,.61,3,3,0,0,1-.2.82c-.06.17-.14.32-.21.48a4.69,4.69,0,0,1-.24.75l-.19.22A1.74,1.74,0,0,0,38,63c-.1.22-.31.35-.44.55s-.08.25-.15.36l-.15.17a2.9,2.9,0,0,0-.47.59,5.54,5.54,0,0,0-.23.89c0,.21-.13.4-.16.61s0,.64-.09,1a2.41,2.41,0,0,0-.09.75l0,.22c0,.12,0,.21,0,.32a.9.9,0,0,0,.34.52c.12.13.22.28.39.2l.23-.24.32-.32c.1-.1.19-.25.33-.3.37-.12.43.28.35.52s-.2.57-.3.85-.31.62-.39,1a1,1,0,0,1-.15.39.48.48,0,0,0-.13.42c.15.61.9.47,1.27.18a7.89,7.89,0,0,0,.74-.66,3.14,3.14,0,0,0,.59-1.91,1.32,1.32,0,0,1,.43-.7c.18-.18.4-.53.69-.48a1.18,1.18,0,0,1,.72.74c0,.18,0,.35.06.54a.6.6,0,0,0,.22.35,1,1,0,0,1,.28.65,1.77,1.77,0,0,0,.06.69,3.11,3.11,0,0,0,.54.55c.17.17.42.22.62.37a5.93,5.93,0,0,1,.44.43c.16.17.35.33.5.51s.21.44.38.63a1.73,1.73,0,0,1,.36.48c.09.21.15.44.22.66a7.79,7.79,0,0,1,.31.85,2.77,2.77,0,0,1,0,.76c0,.24-.11.45-.12.68a8.51,8.51,0,0,0,.06,1c0,.42.43.68.71,1a1.91,1.91,0,0,0,.49.41l.23.09a1.33,1.33,0,0,1,.48.28,4.22,4.22,0,0,0,1,.76,2.64,2.64,0,0,0,.73.11c.41,0,.81,0,1.1.32a2.73,2.73,0,0,1,.37.64.55.55,0,0,1,0,.25c0,.28,0,.31.24.52s.49.5.74.75a1.08,1.08,0,0,0,.48.31.62.62,0,0,1,.25.11c.19.11.28,0,.48,0a1.94,1.94,0,0,1,.42.07c.21.05.47,0,.67.06s.2.19.36.23a2.12,2.12,0,0,0,.61.07,1.7,1.7,0,0,1,.45,0l.08,0a1,1,0,0,0,.58,0,.93.93,0,0,0,.4-.33c.08-.09.11-.17.25-.14l.29.14c.1,0,.14.14.27.16a1.7,1.7,0,0,0,.31-.06.58.58,0,0,1,.26.06c.2,0,.17,0,.33-.12s.35-.39.55-.42.34.21.5.32a2.43,2.43,0,0,1,.52.54,3.69,3.69,0,0,0,.69.62c.16.11.27.28.42.39a3.18,3.18,0,0,0,.4.23,2,2,0,0,0,.68.08c.26,0,.27,0,.49-.14s.27,0,.41-.06.26-.14.44-.17.47,0,.7,0a3.05,3.05,0,0,0,.67-.13c.13,0,.23-.12.36-.16a4.17,4.17,0,0,1,.58-.24,2.44,2.44,0,0,1,.47,0,4.51,4.51,0,0,0,.72-.12,3.29,3.29,0,0,1,.43-.09h.46c.14-.07.28-.13.41-.21a2.55,2.55,0,0,0,.43-.23c.1-.09.19-.21.29-.31a4.76,4.76,0,0,0,.54-.56,1.78,1.78,0,0,1,.65-.57c.12-.06.29-.19.43-.16s.32.21.46.28a4.23,4.23,0,0,0,1.07.12c.2,0,.27.06.41-.09l.17-.18c.19-.19.47-.36.54-.63,0-.1,0-.22,0-.31s.36-.06.54-.08.24-.07.37-.22a.53.53,0,0,1,.45-.19.66.66,0,0,1,.45.13.36.36,0,0,0,.45,0c.29-.21.48-.75.89-.43a.8.8,0,0,0,1,.07,1.79,1.79,0,0,0,.27-.28,1.31,1.31,0,0,1,.49-.27,2.3,2.3,0,0,1,.5-.24c.2,0,.39,0,.59-.09a1.52,1.52,0,0,0,.57-.28c.24-.2.45-.46.67-.68s.19-.19.29-.29a1,1,0,0,1,.62-.37,20.16,20.16,0,0,1,1.25,4,.32.32,0,0,0-.34.12c0,.1,0,.21,0,.31a3.11,3.11,0,0,1-.07.44.78.78,0,0,0,0,.54,1.24,1.24,0,0,0,.34.47c.3.28.58.57.87.86a1.19,1.19,0,0,1,.35.45.89.89,0,0,0,.14.35,1.19,1.19,0,0,1,.11.41,1,1,0,0,0,.23.71l.33.32c.2.2.42.54.71.61a3.44,3.44,0,0,0,.85,0,4.43,4.43,0,0,0,.51-.06l.57-.08c.28,0,.55,0,.82,0s.42-.11.64-.1a3.64,3.64,0,0,0,.57,0,.94.94,0,0,1,.37-.07.21.21,0,0,1,.24.11.31.31,0,0,0,.29.16c.36.07.73.11,1.09.21a2.32,2.32,0,0,0,.83.12,5.77,5.77,0,0,1,.72,0,1.76,1.76,0,0,0,.76,0l.14-.12.37-.11a2.05,2.05,0,0,1,.74-.07.74.74,0,0,1,.56.27c.2.19.39.39.58.58a2.32,2.32,0,0,1,.44.5,2.46,2.46,0,0,1,.25.75c0,.16.09.33.14.49a1.45,1.45,0,0,1,0,.36c0,.54.18,1,.26,1.58a1.37,1.37,0,0,1,.17.17,2.65,2.65,0,0,1,.3.58,3.35,3.35,0,0,0,.31.63.79.79,0,0,1,.27.45c.07.37.41.63.51,1a3.15,3.15,0,0,0,.17.6,4.82,4.82,0,0,0,.58,1.21c.1.12.25.21.34.34s.06.23.15.33l.21.19c.12.15.1.36.17.53s.18.35.26.53.11.34.17.51l.09.14a2.69,2.69,0,0,1,.22.62c.14.35.5.58.76.85.11.11.17.24.27.35a2.89,2.89,0,0,0,.35.35l.16.18,0,.15a2.23,2.23,0,0,0,.51.55,4.77,4.77,0,0,0,.6.59.45.45,0,0,0,.47,0,2.44,2.44,0,0,0,.62-.25,2.26,2.26,0,0,0,.46-.56,2.17,2.17,0,0,1,.19-.33.71.71,0,0,0,.27-.35,3.38,3.38,0,0,0,.14-.69,1.19,1.19,0,0,0-.15-.71,4.75,4.75,0,0,1-.17-.49,1.07,1.07,0,0,0-.17-.49.89.89,0,0,1-.25-.75l-.29,1.37c-.13-.14,0-.47,0-.64s0-.36-.06-.54.11-.31.12-.48a.6.6,0,0,0-.22-.4c-.11-.11-.17-.14-.2-.29v-.23l-.11-.26c-.12-.21-.12-.26,0-.47s.18-.22.14-.36-.2-.15,0-.33.25-.17.28-.36c.08-.43-.4-.67-.2-1.1a1.68,1.68,0,0,1,.39-.41c.09-.1.27-.21.33-.33a.34.34,0,0,0,0-.31.45.45,0,0,1,0-.34,2.37,2.37,0,0,0-.2-1.26c.26-.22.6.07.87-.23s.07-.4-.05-.63-.38-.45-.39-.63c0-.41.88-.17.7-.71-.07-.19-.33-.34-.47-.48a1.73,1.73,0,0,1-.49-.62c.1-.06,0-.09,0-.19,0-.39-.11-.35.39-.54l.66-.12.43-.1c.19-.11.13-.28.09-.45s-.06-.33-.1-.49-.08-.16-.1-.25,0-.15,0-.25a.78.78,0,0,0-.16-.6.79.79,0,0,1-.15-.51c0-.22-.07-.44-.06-.67a1.71,1.71,0,0,1,.3-.66c.15-.27,0-.52-.21-.76a2.36,2.36,0,0,1-.28-.42c0-.1,0-.19-.1-.29a.47.47,0,0,1,.06-.61.76.76,0,0,0,.16-.49,1.28,1.28,0,0,0,0-.39,5,5,0,0,1-.18-.63c0-.19.08-.38.08-.57a5.63,5.63,0,0,1,.05-.59c0-.18,0-.37,0-.55a1,1,0,0,1,.41-.77,1.62,1.62,0,0,0,.45-1c0-.24.13-.42.2-.65a.67.67,0,0,0,0-.42,3.57,3.57,0,0,0-.11-.47,4.94,4.94,0,0,0-.3-.49,1.54,1.54,0,0,0-.28-.29c-.19-.22-.15-.38-.24-.65a.68.68,0,0,0-.21-.34,1.48,1.48,0,0,1-.34-.32,1.61,1.61,0,0,1-.13-.65,1.45,1.45,0,0,0-.08-.36c0-.14,0-.27-.07-.42a1,1,0,0,0-.25-.42c-.07-.09-.18-.16-.24-.25a.9.9,0,0,1-.09-.51,4.64,4.64,0,0,0,0-.65c0-.15-.11-.17-.2-.27a1,1,0,0,1-.4-.71,1.63,1.63,0,0,1,0-.54,2.14,2.14,0,0,0,0-.62c0-.27,0-.55-.07-.82l0-.25a1.16,1.16,0,0,0-.35-.47c-.3-.31-.61-.61-.92-.92S102.44,64.54,102.2,64.48Z" fill="#27a2db"/><path d="M61.49,36.77l.53.36a5.34,5.34,0,0,1,.88.77c.42.44,1,1.33,1.66,1.37.84,0,1.14-1,2-.92a10,10,0,0,1,1.33.54,3.31,3.31,0,0,0,1.35.17,2.55,2.55,0,0,1,1,.17c.58.13.65-.07,1.14-.29a1.53,1.53,0,0,1,1.89.15c.56.46,1.49.93,2.16.44s1-1.16,1.59-1.57a1.4,1.4,0,0,1,.75-.27c.43.05.37.33.67.59s.75.17,1.11.31.78.63,1.3.84a6,6,0,0,0,2.61.44,7.61,7.61,0,0,1,2.72.25c.75.23,1.29,1.2,1.69,1.79a4.41,4.41,0,0,1,.46.82c.16.5-.14,1.39.24,1.77a3.55,3.55,0,0,0,1.7.49c.75.06,1.56-.27,2.28.1a6.9,6.9,0,0,1,.83.69,3.68,3.68,0,0,0,2.45.35,3.64,3.64,0,0,1,1.14-.05c.5.13.84.68,1.18,1a11.56,11.56,0,0,0,1.31,1.39c.66.42,1.2-.13,2,.25a8.07,8.07,0,0,1,1.46,1.46c.85.93,1.59,1.88,2.48,2.77a18.83,18.83,0,0,0,2.92,2.73,8,8,0,0,0,3,1.43h.19A40.58,40.58,0,0,0,61.49,36.77Z" fill="#27a2db"/><path d="M111.18,38.82c5.9,5.9-8.43,24.64-21.11,38.37L86.7,73.82c15.67-16.91,22.11-29.23,21.1-31.62Z" fill="#3a556a"/><path d="M81.23,82.52,68.65,83.59l4.1,4.09c-16.5,15.06-28.42,21.22-30.52,20.17l0-.06-3.39,3.39c5.75,5.74,23.68-7.7,37.3-20.13l4,4Z" fill="#3a556a"/></svg>
