<svg id="Layer_1" height="512" viewBox="0 0 150 150" width="512" xmlns="http://www.w3.org/2000/svg" data-name="Layer 1"><circle cx="75" cy="75" fill="#fe7058" r="64"/><path d="m88.17 40.92h-11l-5.53 3-5.8-3h-11a1.61 1.61 0 0 0 -1.61 1.61v31.27a1.61 1.61 0 0 0 1.61 1.62h33.33a1.61 1.61 0 0 0 1.62-1.62v-31.27a1.61 1.61 0 0 0 -1.62-1.61z" fill="#f7be56"/><path d="m88.17 40.92h-11l-5.53 3-5.8-3h-11a1.61 1.61 0 0 0 -1.61 1.61v31.27a1.61 1.61 0 0 0 1.61 1.62h33.33a1.61 1.61 0 0 0 1.62-1.62v-31.27a1.61 1.61 0 0 0 -1.62-1.61z" fill="#fcd462"/><path d="m89.79 42.53v31.27a1.61 1.61 0 0 1 -1.62 1.62h-33.27a1.61 1.61 0 0 1 -1.59-1.36h33.27a1.62 1.62 0 0 0 1.62-1.62v-31.27a2 2 0 0 0 0-.25 1.61 1.61 0 0 1 1.59 1.61z" fill="#f7be56"/><path d="m77.2 49.11-1.36-.95-1.49.95-1.29-.95-1.52.95-1.46-.95-1.49.95-1.51-.95-1.21.95v-8.19h11.33z" fill="#ebf0f3"/><path d="m73.38 74.58h-11l-5.53 3-5.8-3h-11a1.61 1.61 0 0 0 -1.55 1.62v31.26a1.61 1.61 0 0 0 1.61 1.62h33.27a1.61 1.61 0 0 0 1.62-1.62v-31.26a1.61 1.61 0 0 0 -1.62-1.62z" fill="#f7be56"/><path d="m73.38 74.58h-11l-5.53 3-5.8-3h-11a1.61 1.61 0 0 0 -1.55 1.62v31.26a1.61 1.61 0 0 0 1.61 1.62h33.27a1.61 1.61 0 0 0 1.62-1.62v-31.26a1.61 1.61 0 0 0 -1.62-1.62z" fill="#fcd462"/><path d="m75 76.19v31.28a1.61 1.61 0 0 1 -1.62 1.61h-33.27a1.61 1.61 0 0 1 -1.59-1.36h33.27a1.62 1.62 0 0 0 1.62-1.62v-31.27-.25a1.6 1.6 0 0 1 1.59 1.61z" fill="#f7be56"/><path d="m62.41 82.78-1.36-.96-1.49.96-1.29-.96-1.52.96-1.46-.96-1.49.96-1.51-.96-1.21.96v-8.2h11.33z" fill="#ebf0f3"/><path d="m60.21 92.35v-4.2h-2.48l-1.31 1.78 1.34 1.19-1.84 2.59.83-2-1.66-1.71 1.24-1.86h-3v4.2a3.47 3.47 0 0 0 3 3.44v3.22a1.74 1.74 0 0 1 -1.74 1.73h-.39a.37.37 0 1 0 0 .74h5.18a.37.37 0 1 0 0-.74h-.4a1.73 1.73 0 0 1 -1.77-1.73v-3.21a3.47 3.47 0 0 0 3-3.44z" fill="#3a556a"/><path d="m109.89 74.58h-11l-5.54 3-5.79-3h-11a1.61 1.61 0 0 0 -1.56 1.62v31.26a1.61 1.61 0 0 0 1.62 1.62h33.27a1.61 1.61 0 0 0 1.61-1.62v-31.26a1.61 1.61 0 0 0 -1.61-1.62z" fill="#f7be56"/><path d="m109.89 74.58h-11l-5.54 3-5.79-3h-11a1.61 1.61 0 0 0 -1.56 1.62v31.26a1.61 1.61 0 0 0 1.62 1.62h33.27a1.61 1.61 0 0 0 1.61-1.62v-31.26a1.61 1.61 0 0 0 -1.61-1.62z" fill="#fcd462"/><path d="m111.5 76.19v31.28a1.61 1.61 0 0 1 -1.62 1.61h-33.26a1.62 1.62 0 0 1 -1.6-1.36h33.27a1.62 1.62 0 0 0 1.62-1.62v-31.27-.25a1.6 1.6 0 0 1 1.59 1.61z" fill="#f7be56"/><path d="m98.92 82.78-1.37-.96-1.48.96-1.3-.96-1.52.96-1.45-.96-1.49.96-1.51-.96-1.21.96v-8.2h11.33z" fill="#ebf0f3"/><g fill="#3a556a"><path d="m71.81 53.82v-.55a.27.27 0 0 0 -.27-.27.28.28 0 0 0 -.28.27v.55a6.78 6.78 0 0 0 -6.51 6.78c0-.15.39-.26.88-.26s.87.11.87.26c0-.21.56-.37 1.25-.37a1.76 1.76 0 0 1 1.22.3v-.05c.18-.34 1.11-.6 2.27-.64v5.39a.71.71 0 0 1 -1.42 0v-.75a.27.27 0 0 0 -.54 0v.75a1.26 1.26 0 1 0 2.51 0v-5.39c1.28 0 2.27.37 2.27.76 0-.21.56-.37 1.24-.37s1.25.16 1.25.37c0-.15.39-.26.88-.26s.87.11.87.26a6.78 6.78 0 0 0 -6.49-6.78z"/><path d="m92.79 91.14-2.64-3.7-2.63 3.7h1.49v9.05h2.29v-9.05z"/><path d="m99.01 91.14-2.64-3.7-2.64 3.7h1.5v9.05h2.29v-9.05z"/></g></svg>