<svg id="Layer_1" height="512" viewBox="0 0 150 150" width="512" xmlns="http://www.w3.org/2000/svg" data-name="Layer 1"><circle cx="75" cy="75" fill="#ea6453" r="64"/><path d="m80.9 69.28h-7l-3.52 1.93-3.69-1.93h-7a1 1 0 0 0 -1 1v19.9a1 1 0 0 0 1 1h21.21a1 1 0 0 0 1-1v-19.87a1 1 0 0 0 -1-1.03z" fill="#f7be56"/><path d="m73.93 75.31-.87-.6-.94.6-.83-.6-.96.6-.93-.6-.94.6-.97-.6-.77.6v-6.03h7.21z" fill="#fcd462"/><path d="m64.44 84.97-1.27-1.77-1.26 1.77h.71v4.34h1.1v-4.34z" fill="#3a556a"/><path d="m67.42 84.97-1.26-1.77-1.27 1.77h.72v4.34h1.09v-4.34z" fill="#3a556a"/><path d="m105.22 69.28h-7l-3.52 1.93-3.68-1.93h-7a1 1 0 0 0 -1 1v19.9a1 1 0 0 0 1 1h21.14a1 1 0 0 0 1-1v-19.87a1 1 0 0 0 -.94-1.03z" fill="#f7be56"/><path d="m98.25 75.31-.87-.6-.94.6-.82-.6-.97.6-.93-.6-.94.6-.96-.6-.77.6v-6.03h7.2z" fill="#fcd462"/><path d="m88.76 84.97-1.26-1.77-1.27 1.77h.72v4.34h1.1v-4.34z" fill="#3a556a"/><path d="m91.74 84.97-1.26-1.77-1.27 1.77h.72v4.34h1.1v-4.34z" fill="#3a556a"/><path d="m92.5 47.26h-7l-3.5 1.93-3.68-1.93h-7a1 1 0 0 0 -1 1v19.9a1 1 0 0 0 1 1h21.18a1 1 0 0 0 1-1v-19.87a1 1 0 0 0 -1-1.03z" fill="#fcd462"/><path d="m85.53 53.29-.87-.61-.94.61-.83-.61-.96.61-.93-.61-.94.61-.97-.61-.76.61v-6.03h7.2z" fill="#f7be56"/><path d="m76.03 62.72-1.34-1.87-1.33 1.87h.75v4.57h1.16v-4.57z" fill="#3a556a"/><path d="m79.17 62.72-1.33-1.87-1.34 1.87h.76v4.57h1.16v-4.57z" fill="#3a556a"/><path d="m111.38 91.25h-59.47v-36.11l-9.91-9.88-2.24 2.23 8.79 8.79v40.72a1.55 1.55 0 0 0 1.55 1.55h61.26a1.5 1.5 0 0 0 1.5-1.51v-4.28a1.51 1.51 0 0 0 -1.48-1.51z" fill="#27a2db"/><path d="m37.72 43.19a2 2 0 0 0 0 2.89l6.68 6.68 2.89-2.88-6.69-6.69a2 2 0 0 0 -2.88 0z" fill="#3a556a"/><path d="m62.11 93.18a7.12 7.12 0 1 0 7.12 7.11 7.11 7.11 0 0 0 -7.12-7.11z" fill="#3a556a"/><path d="m62.11 96.69a3.6 3.6 0 1 0 3.6 3.6 3.6 3.6 0 0 0 -3.6-3.6z" fill="#ebf0f3"/><path d="m99.67 93.18a7.12 7.12 0 1 0 7.12 7.11 7.11 7.11 0 0 0 -7.12-7.11z" fill="#3a556a"/><path d="m99.67 96.69a3.6 3.6 0 1 0 3.6 3.6 3.6 3.6 0 0 0 -3.6-3.6z" fill="#ebf0f3"/></svg>