<?xml version="1.0" encoding="iso-8859-1"?>
<!-- Generator: Adobe Illustrator 19.0.0, SVG Export Plug-In . SVG Version: 6.00 Build 0)  -->
<svg version="1.1" id="Capa_1" xmlns="http://www.w3.org/2000/svg" xmlns:xlink="http://www.w3.org/1999/xlink" x="0px" y="0px"
	 viewBox="0 0 512 512" style="enable-background:new 0 0 512 512;" xml:space="preserve">
<circle style="fill:#77DD00;" cx="256" cy="256" r="256"/>
<path style="fill:#66BB00;" d="M512,256c0-0.116-0.004-0.231-0.004-0.347L393,136.658h-55.333l-36-36.533L227,118l-16.667,18.658
	L119,191.458l18.267,18L173,292l-35.733,119.875l99.401,99.401C243.05,511.753,249.496,512,256,512C397.385,512,512,397.385,512,256
	z"/>
<polygon style="fill:#5A5A5A;" points="301.667,100.124 301.667,145.791 283.4,145.791 283.4,118.391 228.6,118.391 228.6,145.791 
	210.333,145.791 210.333,100.124 "/>
<polygon style="fill:#444444;" points="283.4,118.391 256,118.391 256,100.124 301.667,100.124 301.667,145.791 283.4,145.791 "/>
<path style="fill:#D3D3D8;" d="M137.267,173.191v238.684h237.467V173.191H137.267z"/>
<rect x="256" y="173.19" style="fill:#BABAC0;" width="118.73" height="238.68"/>
<g>
	<path style="fill:#E7E7E7;" d="M119,136.658v54.8h274v-54.8H119z"/>
	<rect x="246.87" y="209.72" style="fill:#E7E7E7;" width="18.267" height="165.01"/>
	<rect x="192.07" y="209.72" style="fill:#E7E7E7;" width="18.267" height="165.01"/>
</g>
<g>
	<rect x="301.67" y="209.72" style="fill:#D3D3D8;" width="18.267" height="165.01"/>
	<rect x="256" y="209.72" style="fill:#D3D3D8;" width="9.133" height="165.01"/>
	<rect x="256" y="136.66" style="fill:#D3D3D8;" width="137" height="54.8"/>
</g>
<g>
</g>
<g>
</g>
<g>
</g>
<g>
</g>
<g>
</g>
<g>
</g>
<g>
</g>
<g>
</g>
<g>
</g>
<g>
</g>
<g>
</g>
<g>
</g>
<g>
</g>
<g>
</g>
<g>
</g>
</svg>
