<svg id="Icons" enable-background="new 0 0 512 512" height="512" viewBox="0 0 512 512" width="512" xmlns="http://www.w3.org/2000/svg"><g><g><ellipse cx="255.997" cy="256" fill="#00b661" rx="255.997" ry="256"/><path d="m470.676 116.419c62.277 95.64 54.633 224.797-26.119 312.733-95.627 104.134-257.575 111.029-361.707 15.402-32.967-30.275-56.182-67.194-69.491-106.827 1.304-.459 2.645-.87 4.011-1.218 21.641-5.529 44.303 5.439 61.236 19.998 13.356 11.491 25.353 25.808 42.123 31.202 24.721 7.971 51.991-6.807 67.583-27.571 15.591-20.778 22.52-46.552 31.123-71.06 8.432-24.026 19.013-47.804 35.865-66.895 16.853-19.077 40.822-33.084 66.283-33.178 13.736-.04 28.871 3.541 40.219-4.19 9.251-6.304 12.762-18.421 12.83-29.613.075-11.2-2.611-22.261-2.727-33.459-.156-16.3 7.556-34.796 23.343-38.858 10.949-2.816 22.451 2.194 31.669 8.758 9.218 6.551 17.319 14.805 27.43 19.895 5.112 2.563 10.652 4.189 16.329 4.881z" fill="#00a151"/></g><g><g><g><path d="m485.824 301.33v67.58c-3.65 7.44-7.7 14.74-12.14 21.88-2.3 3.71-4.71 7.37-7.22 10.99h-139.458c-1.52 0-2.75-1.23-2.75-2.75v-97.7c0-1.52 1.23-2.75 2.75-2.75h156.078c1.51 0 2.74 1.23 2.74 2.75z" fill="#eea47d"/><path d="m485.824 301.33v67.58c-3.65 7.44-7.7 14.74-12.14 21.88h-131.808c-3.66 0-6.63-2.97-6.63-6.63v-85.58h147.838c1.51 0 2.74 1.23 2.74 2.75z" fill="#f5b890"/><path d="m485.824 301.33v67.58c-5.55 11.3-12.01 22.29-19.36 32.87h-21.08v-103.2h37.699c1.511 0 2.741 1.23 2.741 2.75z" fill="#d48d77"/><path d="m473.684 390.79c-2.3 3.71-4.71 7.37-7.22 10.99h-21.08v-10.99z" fill="#c17e62"/></g><g fill="#3e4e60"><path d="m408.035 340.582v14.442h7.532v-14.442h5.624l-9.39-16.263-9.39 16.263z"/><path d="m426.461 325.516v29.508h7.532v-29.508h5.624l-9.39-16.262-9.39 16.262z"/></g><path d="m372.581 298.582h19.462v42h-19.462z" fill="#bf5e39"/></g><g><g><path d="m459.678 214.39v81.89c0 1.271-1.031 2.302-2.302 2.302h-130.816c-1.271 0-2.302-1.031-2.302-2.302v-81.89c0-1.271 1.031-2.302 2.302-2.302h130.816c1.271 0 2.302 1.031 2.302 2.302z" fill="#eea47d"/><path d="m459.678 214.39v74.978h-120.655c-3.066 0-5.552-2.486-5.552-5.552v-71.729h123.904c1.272.001 2.303 1.032 2.303 2.303z" fill="#f5b890"/><path d="m457.376 212.088h-31.591v86.495h31.591c1.271 0 2.302-1.031 2.302-2.302v-81.891c0-1.271-1.031-2.302-2.302-2.302z" fill="#d48d77"/><path d="m457.376 298.583h-31.591v-9.214h33.893v6.912c0 1.271-1.031 2.302-2.302 2.302z" fill="#c17e62"/></g><g fill="#3e4e60"><path d="m394.476 247.29v12.105h6.313v-12.105h4.714l-7.87-13.63-7.871 13.63z"/><path d="m409.919 234.663v24.732h6.314v-24.732h4.714l-7.871-13.631-7.87 13.631z"/></g><path d="m364.76 212.088h16.312v35.202h-16.312z" fill="#bf5e39"/></g><g><g><path d="m353.45 134.767v173.783c0 .969-.786 1.755-1.754 1.755h-99.703c-.969 0-1.754-.786-1.754-1.755v-173.783c0-.969.786-1.755 1.754-1.755h99.703c.968.001 1.754.786 1.754 1.755z" fill="#eea47d"/><path d="m353.45 134.767v168.514h-91.958c-2.337 0-4.231-1.894-4.231-4.231v-166.037h94.435c.968 0 1.754.785 1.754 1.754z" fill="#f5b890"/><path d="m351.695 133.013h-24.078v177.292h24.078c.969 0 1.754-.786 1.754-1.754v-173.784c0-.969-.785-1.754-1.754-1.754z" fill="#d48d77"/><path d="m351.695 310.305h-24.078v-7.023h25.832v5.268c0 .969-.785 1.755-1.754 1.755z" fill="#c17e62"/></g><g fill="#3e4e60"><path d="m303.755 159.843v9.225h4.812v-9.225h3.593l-5.999-10.389-5.999 10.389z"/><path d="m315.526 150.218v18.85h4.812v-18.85h3.592l-5.998-10.388-5.999 10.388z"/></g><path d="m281.107 133.013h12.433v26.83h-12.433z" fill="#bf5e39"/></g><g><g><path d="m353.753 313.051v97.703c0 1.517-1.23 2.747-2.746 2.747h-156.077c-1.517 0-2.746-1.23-2.746-2.747v-97.703c0-1.517 1.23-2.746 2.746-2.746h156.077c1.516-.001 2.746 1.229 2.746 2.746z" fill="#eea47d"/><path d="m353.753 313.051v89.457h-143.953c-3.658 0-6.624-2.965-6.624-6.624v-85.58h147.83c1.517 0 2.747 1.23 2.747 2.747z" fill="#f5b890"/><path d="m351.006 310.304h-37.692v103.197h37.692c1.517 0 2.746-1.23 2.746-2.746v-97.704c0-1.517-1.229-2.747-2.746-2.747z" fill="#d48d77"/><path d="m351.006 413.501h-37.692v-10.994h40.438v8.247c0 1.517-1.229 2.747-2.746 2.747z" fill="#c17e62"/></g><g fill="#3e4e60"><path d="m275.96 352.304v14.442h7.533v-14.442h5.624l-9.39-16.263-9.391 16.263z"/><path d="m294.386 337.238v29.508h7.533v-29.508h5.624l-9.39-16.262-9.391 16.262z"/></g><path d="m240.507 310.304h19.462v42h-19.462z" fill="#bf5e39"/></g></g><g><g><path d="m185.056 99.397 47.063 175.642c.516 1.926-.625 3.911-2.557 4.429l-132.122 35.403c-1.932.518-3.913-.631-4.429-2.557l-47.063-175.643c-.516-1.926.625-3.911 2.557-4.429l132.122-35.402c1.932-.518 3.913.631 4.429 2.557z" fill="#9f482c"/><path d="m185.056 99.397 47.063 175.642c.516 1.926-.625 3.911-2.557 4.429l-124.401 33.333c-1.932.518-3.913-.631-4.429-2.557l-47.063-175.642c-.516-1.926.625-3.911 2.557-4.429l124.401-33.333c1.932-.518 3.913.631 4.429 2.557z" fill="#a75c37"/></g><path d="m219.788 272.999-109.396 29.313c-1.39.372-2.818-.452-3.19-1.842l-43.043-160.637c-.372-1.39.452-2.818 1.842-3.19l109.396-29.313c1.39-.372 2.818.452 3.19 1.842l43.042 160.638c.373 1.388-.452 2.817-1.841 3.189z" fill="#fff"/><path d="m153.33 103.324 2.48 9.254c1.205 4.496-1.459 9.119-5.961 10.325l-52.539 14.078c-4.502 1.206-9.12-1.465-10.325-5.961l-2.48-9.254c-1.206-4.502 1.459-9.119 5.961-10.325l52.539-14.078c4.501-1.207 9.118 1.459 10.325 5.961z" fill="#6db7e2"/><path d="m153.33 103.324 2.48 9.254c1.205 4.496-1.459 9.119-5.961 10.325l-44.954 12.046c-4.496 1.205-9.12-1.465-10.325-5.961l-2.48-9.254c-1.206-4.502 1.465-9.12 5.961-10.325l44.954-12.046c4.501-1.207 9.118 1.459 10.325 5.961z" fill="#79c7fd"/><g><path d="m135.42 99.395-37.37 10.013 1.499-6.192 2.523-10.436c.549-2.26 1.687-4.281 3.254-5.886 1.573-1.606 3.562-2.799 5.807-3.4 1.43-.383 2.894-.507 4.324-.389 3.059.249 5.981 1.604 8.167 3.901l7.403 7.776z" fill="#6db7e2"/><path d="m135.42 99.395-29.107 7.799 4.022-16.628c.549-2.26 1.687-4.281 3.254-5.886.571-.581 1.193-1.108 1.868-1.575 3.059.249 5.981 1.604 8.167 3.901z" fill="#79c7fd"/><path d="m135.42 99.395-37.37 10.013 1.499-6.191 31.478-8.435z" fill="#5daad1"/></g><g><path d="m165.723 229.197h28.517v28.518h-28.517z" fill="#cde6f6" transform="matrix(.966 -.259 .259 .966 -56.879 54.879)"/><g><path d="m188.202 250.001c-.666 2.335-3.267 3.515-5.463 2.479l-14.026-6.618c-1.693-.799-2.419-2.82-1.62-4.514s2.819-2.42 4.513-1.62l6.802 3.209c2.196 1.036 4.797-.144 5.463-2.479l5.969-20.931c.513-1.8 2.386-2.845 4.191-2.331 1.8.513 2.844 2.39 2.331 4.191z" fill="#00a151"/></g></g><g><path d="m153.579 183.878h28.517v28.518h-28.517z" fill="#cde6f6" transform="matrix(.966 -.259 .259 .966 -45.563 50.192)"/><g><path d="m176.059 204.682c-.666 2.335-3.267 3.515-5.463 2.479l-14.026-6.618c-1.693-.799-2.419-2.82-1.62-4.514s2.819-2.42 4.513-1.62l6.802 3.209c2.196 1.036 4.797-.144 5.463-2.479l5.969-20.931c.513-1.8 2.386-2.845 4.191-2.331 1.8.514 2.844 2.39 2.331 4.191z" fill="#00a151"/></g></g><g><path d="m140.5 138.81h28.517v28.518h-28.517z" fill="#cde6f6" transform="matrix(.966 -.259 .259 .966 -34.344 45.271)"/><g><path d="m162.979 159.613c-.666 2.335-3.267 3.515-5.463 2.479l-14.026-6.618c-1.693-.799-2.419-2.82-1.62-4.514s2.819-2.42 4.513-1.62l6.802 3.209c2.196 1.036 4.797-.144 5.463-2.479l5.969-20.931c.513-1.8 2.386-2.845 4.191-2.331 1.8.513 2.844 2.39 2.331 4.191z" fill="#00a151"/></g></g><g fill="#3e4e60"><path d="m81.94 161.364h51.527v8.626h-51.527z" transform="matrix(.966 -.259 .259 .966 -39.211 33.521)"/><path d="m94.083 206.683h51.527v8.626h-51.527z" transform="matrix(.966 -.259 .259 .966 -50.527 38.209)"/><path d="m106.226 252.003h51.527v8.626h-51.527z" transform="matrix(.966 -.259 .259 .966 -61.843 42.896)"/></g></g></g></svg>