<?xml version="1.0" encoding="UTF-8" standalone="no"?>
<svg
   xmlns:dc="http://purl.org/dc/elements/1.1/"
   xmlns:cc="http://creativecommons.org/ns#"
   xmlns:rdf="http://www.w3.org/1999/02/22-rdf-syntax-ns#"
   xmlns:svg="http://www.w3.org/2000/svg"
   xmlns="http://www.w3.org/2000/svg"
   xmlns:sodipodi="http://sodipodi.sourceforge.net/DTD/sodipodi-0.dtd"
   xmlns:inkscape="http://www.inkscape.org/namespaces/inkscape"
   id="Layer_1"
   height="512"
   viewBox="0 0 150 150"
   width="512"
   data-name="Layer 1"
   version="1.1"
   sodipodi:docname="excluir.svg"
   inkscape:version="0.92.3 (2405546, 2018-03-11)">
  <metadata
     id="metadata37">
    <rdf:RDF>
      <cc:Work
         rdf:about="">
        <dc:format>image/svg+xml</dc:format>
        <dc:type
           rdf:resource="http://purl.org/dc/dcmitype/StillImage" />
        <dc:title />
      </cc:Work>
    </rdf:RDF>
  </metadata>
  <defs
     id="defs35">
    <clipPath
       clipPathUnits="userSpaceOnUse"
       id="clipPath97">
      <g
         id="use99"
         inkscape:label="Clip">
        <path
           d="M 105.83,43 H 85.5 L 75.24,48.67 64.5,43 H 44.17 a 3,3 0 0 0 -3,3 v 58 a 3,3 0 0 0 3,3 h 61.66 a 3,3 0 0 0 3,-3 V 46 a 3,3 0 0 0 -3,-3 z"
           id="path33"
           inkscape:connector-curvature="0"
           style="fill:#fcd462" />
        <path
           d="m 85.5,60.62 -2.53,-1.77 -2.75,1.77 -2.4,-1.77 -2.82,1.77 -2.7,-1.77 -2.75,1.77 -2.81,-1.77 -2.24,1.77 V 43.03 h 21 z"
           id="path35"
           inkscape:connector-curvature="0"
           style="fill:#ebf0f3" />
        <g
           id="g59"
           style="fill:#3a556a">
          <path
             d="m 49.56,96.55 -1.24,-1.74 -1.24,1.74 h 0.7 v 4.26 h 1.08 v -4.26 z"
             id="path37"
             inkscape:connector-curvature="0" />
          <path
             d="M 52.49,96.55 51.24,94.81 50,96.55 h 0.7 v 4.26 h 1.08 v -4.26 z"
             id="path39"
             inkscape:connector-curvature="0" />
          <path
             d="m 58.68,96.7 v -1.89 h -1.12 l -0.59,0.8 0.61,0.54 -0.83,1.16 0.37,-0.9 -0.75,-0.76 0.56,-0.84 h -1.37 v 1.89 a 1.56,1.56 0 0 0 1.35,1.55 v 1.44 a 0.78,0.78 0 0 1 -0.78,0.78 H 56 a 0.18,0.18 0 0 0 -0.17,0.17 0.17,0.17 0 0 0 0.17,0.17 h 2.34 a 0.17,0.17 0 0 0 0.17,-0.17 0.18,0.18 0 0 0 -0.17,-0.17 h -0.18 a 0.78,0.78 0 0 1 -0.78,-0.78 v -1.44 a 1.56,1.56 0 0 0 1.3,-1.55 z"
             id="path41"
             inkscape:connector-curvature="0" />
          <path
             d="m 64.58,95.17 v -0.24 l -0.12,-0.12 -0.12,0.12 v 0.24 a 3,3 0 0 0 -2.9,3 c 0,-0.06 0.17,-0.12 0.39,-0.12 0.22,0 0.39,0.06 0.39,0.12 0,-0.09 0.25,-0.16 0.55,-0.16 0.3,0 0.5,0 0.55,0.13 0.08,-0.15 0.49,-0.27 1,-0.29 v 2.4 a 0.32,0.32 0 0 1 -0.32,0.32 0.32,0.32 0 0 1 -0.32,-0.32 v -0.33 l -0.12,-0.12 -0.12,0.12 v 0.33 a 0.56,0.56 0 0 0 1.12,0 v -2.4 c 0.57,0 1,0.17 1,0.34 0,-0.09 0.25,-0.16 0.55,-0.16 0.3,0 0.56,0.07 0.56,0.16 0,-0.06 0.17,-0.12 0.39,-0.12 0.22,0 0.39,0.06 0.39,0.12 a 3,3 0 0 0 -2.87,-3.02 z"
             id="path43"
             inkscape:connector-curvature="0" />
          <path
             d="M 60.89,94 H 46 v 7.54 H 68.23 V 94 Z m -7.54,7.34 h -7.14 v -7.1 h 7.14 z m 7.34,0 h -7.14 v -7.1 h 7.14 z m 7.34,0 h -7.14 v -7.1 H 68 Z"
             id="path45"
             inkscape:connector-curvature="0" />
          <path
             d="m 69.42,73.37 -5.64,1.25 1.22,1.01 -3.54,5.09 -0.03,0.03 3.06,2.42 1.93,-2.45 1.81,-2.4 0.98,0.82 z"
             id="path47"
             inkscape:connector-curvature="0" />
          <path
             d="m 76.63,66.67 -2.48,3.14 -2.55,3.21 -3.03,-2.44 3.09,-3.91 z"
             id="path49"
             inkscape:connector-curvature="0" />
          <path
             d="m 86.31,80.75 -0.13,0.11 -2.92,2.31 -1.94,-2.45 -2.21,-3.45 3.43,-2.43 3.75,5.88 z"
             id="path51"
             inkscape:connector-curvature="0" />
          <path
             d="m 70.1,80.72 v 3.89 h -5.71 l -3.03,-3.89 z"
             id="path53"
             inkscape:connector-curvature="0" />
          <path
             d="m 79.47,70.26 -2.84,-3.59 h -4.97 l 2.49,3.14 2.2,2.79 -1.17,0.88 5.57,1.53 0.08,-5.77 z"
             id="path55"
             inkscape:connector-curvature="0" />
          <path
             d="M 75.94,80.72 75.92,79.14 71.39,82.72 76,86.2 75.98,84.61 h 7.28 l 2.92,-3.75 0.11,-0.14 z"
             id="path57"
             inkscape:connector-curvature="0" />
        </g>
      </g>
    </clipPath>
    <clipPath
       clipPathUnits="userSpaceOnUse"
       id="clipPath69">
      <g
         inkscape:label="Clip"
         id="use71">
        <path
           style="fill:#f7be56"
           inkscape:connector-curvature="0"
           id="path71"
           d="m 80.9,69.28 h -7 l -3.52,1.93 -3.69,-1.93 h -7 a 1,1 0 0 0 -1,1 v 19.9 a 1,1 0 0 0 1,1 H 80.9 a 1,1 0 0 0 1,-1 V 70.31 a 1,1 0 0 0 -1,-1.03 z" />
        <path
           style="fill:#fcd462"
           inkscape:connector-curvature="0"
           id="path73"
           d="m 73.93,75.31 -0.87,-0.6 -0.94,0.6 -0.83,-0.6 -0.96,0.6 -0.93,-0.6 -0.94,0.6 -0.97,-0.6 -0.77,0.6 v -6.03 h 7.21 z" />
        <path
           style="fill:#3a556a"
           inkscape:connector-curvature="0"
           id="path75"
           d="m 64.44,84.97 -1.27,-1.77 -1.26,1.77 h 0.71 v 4.34 h 1.1 v -4.34 z" />
        <path
           style="fill:#3a556a"
           inkscape:connector-curvature="0"
           id="path77"
           d="m 67.42,84.97 -1.26,-1.77 -1.27,1.77 h 0.72 v 4.34 h 1.09 v -4.34 z" />
        <path
           style="fill:#f7be56"
           inkscape:connector-curvature="0"
           id="path79"
           d="m 105.22,69.28 h -7 l -3.52,1.93 -3.68,-1.93 h -7 a 1,1 0 0 0 -1,1 v 19.9 a 1,1 0 0 0 1,1 h 21.14 a 1,1 0 0 0 1,-1 V 70.31 a 1,1 0 0 0 -0.94,-1.03 z" />
        <path
           style="fill:#fcd462"
           inkscape:connector-curvature="0"
           id="path81"
           d="m 98.25,75.31 -0.87,-0.6 -0.94,0.6 -0.82,-0.6 -0.97,0.6 -0.93,-0.6 -0.94,0.6 -0.96,-0.6 -0.77,0.6 v -6.03 h 7.2 z" />
        <path
           style="fill:#3a556a"
           inkscape:connector-curvature="0"
           id="path83"
           d="M 88.76,84.97 87.5,83.2 86.23,84.97 h 0.72 v 4.34 h 1.1 v -4.34 z" />
        <path
           style="fill:#3a556a"
           inkscape:connector-curvature="0"
           id="path85"
           d="m 91.74,84.97 -1.26,-1.77 -1.27,1.77 h 0.72 v 4.34 h 1.1 v -4.34 z" />
        <path
           style="fill:#fcd462"
           inkscape:connector-curvature="0"
           id="path87"
           d="m 92.5,47.26 h -7 L 82,49.19 78.32,47.26 h -7 a 1,1 0 0 0 -1,1 v 19.9 a 1,1 0 0 0 1,1 H 92.5 a 1,1 0 0 0 1,-1 V 48.29 a 1,1 0 0 0 -1,-1.03 z" />
        <path
           style="fill:#f7be56"
           inkscape:connector-curvature="0"
           id="path89"
           d="m 85.53,53.29 -0.87,-0.61 -0.94,0.61 -0.83,-0.61 -0.96,0.61 -0.93,-0.61 -0.94,0.61 -0.97,-0.61 -0.76,0.61 v -6.03 h 7.2 z" />
        <path
           style="fill:#3a556a"
           inkscape:connector-curvature="0"
           id="path91"
           d="m 76.03,62.72 -1.34,-1.87 -1.33,1.87 h 0.75 v 4.57 h 1.16 v -4.57 z" />
        <path
           style="fill:#3a556a"
           inkscape:connector-curvature="0"
           id="path93"
           d="m 79.17,62.72 -1.33,-1.87 -1.34,1.87 h 0.76 v 4.57 h 1.16 v -4.57 z" />
        <path
           style="fill:#27a2db"
           inkscape:connector-curvature="0"
           id="path95"
           d="M 111.38,91.25 H 51.91 V 55.14 L 42,45.26 l -2.24,2.23 8.79,8.79 V 97 a 1.55,1.55 0 0 0 1.55,1.55 h 61.26 a 1.5,1.5 0 0 0 1.5,-1.51 v -4.28 a 1.51,1.51 0 0 0 -1.48,-1.51 z" />
        <path
           style="fill:#3a556a"
           inkscape:connector-curvature="0"
           id="path97"
           d="m 37.72,43.19 a 2,2 0 0 0 0,2.89 l 6.68,6.68 2.89,-2.88 -6.69,-6.69 a 2,2 0 0 0 -2.88,0 z" />
        <path
           style="fill:#3a556a"
           inkscape:connector-curvature="0"
           id="path99"
           d="m 62.11,93.18 a 7.12,7.12 0 1 0 7.12,7.11 7.11,7.11 0 0 0 -7.12,-7.11 z" />
        <path
           style="fill:#ebf0f3"
           inkscape:connector-curvature="0"
           id="path101"
           d="m 62.11,96.69 a 3.6,3.6 0 1 0 3.6,3.6 3.6,3.6 0 0 0 -3.6,-3.6 z" />
        <path
           style="fill:#3a556a"
           inkscape:connector-curvature="0"
           id="path103"
           d="m 99.67,93.18 a 7.12,7.12 0 1 0 7.12,7.11 7.11,7.11 0 0 0 -7.12,-7.11 z" />
        <path
           style="fill:#ebf0f3"
           inkscape:connector-curvature="0"
           id="path105"
           d="m 99.67,96.69 a 3.6,3.6 0 1 0 3.6,3.6 3.6,3.6 0 0 0 -3.6,-3.6 z" />
      </g>
    </clipPath>
  </defs>
  <sodipodi:namedview
     pagecolor="#ffffff"
     bordercolor="#666666"
     borderopacity="1"
     objecttolerance="10"
     gridtolerance="10"
     guidetolerance="10"
     inkscape:pageopacity="0"
     inkscape:pageshadow="2"
     inkscape:window-width="640"
     inkscape:window-height="480"
     id="namedview33"
     showgrid="false"
     inkscape:zoom="0.4609375"
     inkscape:cx="256"
     inkscape:cy="256"
     inkscape:window-x="530"
     inkscape:window-y="86"
     inkscape:window-maximized="0"
     inkscape:current-layer="Layer_1" />
  <circle
     cx="75"
     cy="75"
     fill="#334d5c"
     r="64"
     id="circle2" />
  <circle
     style="fill:#f44336;stroke-width:2.72245741"
     cx="113.44809"
     cy="122.29343"
     id="circle16"
     r="17.695974" />
  <g
     transform="matrix(2.7224576,0,0,2.7224576,65.805084,74.650424)"
     style="fill:#ffffff"
     id="g24">
    <path
       inkscape:connector-curvature="0"
       d="m 20.207,18.793 c 0.391,0.391 0.391,1.023 0,1.414 -0.195,0.195 -0.451,0.293 -0.707,0.293 -0.256,0 -0.512,-0.098 -0.707,-0.293 L 17.5,18.914 16.207,20.207 C 16.012,20.402 15.756,20.5 15.5,20.5 c -0.256,0 -0.512,-0.098 -0.707,-0.293 -0.391,-0.391 -0.391,-1.023 0,-1.414 L 16.086,17.5 14.793,16.207 c -0.391,-0.391 -0.391,-1.023 0,-1.414 0.391,-0.391 1.023,-0.391 1.414,0 l 1.293,1.293 1.293,-1.293 c 0.391,-0.391 1.023,-0.391 1.414,0 0.391,0.391 0.391,1.023 0,1.414 L 18.914,17.5 Z"
       id="path18-5" />
    <circle
       cx="12.5"
       cy="4.5"
       r="1.5"
       id="circle20" />
    <circle
       cx="5.5"
       cy="4.5"
       r="1.5"
       id="circle22" />
  </g>
  <path
     inkscape:connector-curvature="0"
     style="fill:#d43a2f;stroke-width:2.72245741"
     d="m 113.44809,104.59745 c -9.75729,0 -17.695969,7.93869 -17.695969,17.69597 0,9.75729 7.938679,17.69598 17.695969,17.69598 v -13.84642 l -3.52014,3.52014 c -0.53087,0.53088 -1.22782,0.79768 -1.92477,0.79768 -0.69695,0 -1.3939,-0.2668 -1.92478,-0.79768 -1.06448,-1.06448 -1.06448,-2.78508 0,-3.84956 l 3.52014,-3.52014 -3.52014,-3.52013 c -1.06448,-1.06448 -1.06448,-2.78508 0,-3.84956 0.53088,-0.53088 1.22783,-0.79768 1.92478,-0.79768 0.69695,0 1.3939,0.2668 1.92477,0.79768 l 3.52014,3.52014 z"
     id="path30" />
  <path
     inkscape:connector-curvature="0"
     style="fill:#dedede;stroke-width:2.72245741"
     d="m 108.00318,114.12605 c -0.69695,0 -1.3939,0.2668 -1.92478,0.79768 -1.06448,1.06448 -1.06448,2.78508 0,3.84956 l 3.52014,3.52013 -3.52014,3.52014 c -1.06448,1.06448 -1.06448,2.78508 0,3.84956 0.53088,0.53088 1.22783,0.79768 1.92478,0.79768 0.69695,0 1.3939,-0.2668 1.92477,-0.79768 l 3.52014,-3.52014 v -7.69911 l -3.52014,-3.52014 c -0.53087,-0.53088 -1.22782,-0.79768 -1.92477,-0.79768 z"
     id="path32" />
  <path
     style="fill:#f7be56"
     inkscape:connector-curvature="0"
     id="path4"
     d="m 80.918613,68.00984 h -7 l -3.52,1.93 -3.69,-1.93 h -7 a 1,1 0 0 0 -1,1 v 19.9 a 1,1 0 0 0 1,1 h 21.21 a 1,1 0 0 0 1,-1 v -19.87 a 1,1 0 0 0 -1,-1.03 z" />
  <path
     style="fill:#fcd462"
     inkscape:connector-curvature="0"
     id="path6"
     d="m 73.948613,74.03984 -0.87,-0.6 -0.94,0.6 -0.83,-0.6 -0.96,0.6 -0.93,-0.6 -0.94,0.6 -0.97,-0.6 -0.77,0.6 v -6.03 h 7.21 z" />
  <path
     style="fill:#3a556a"
     inkscape:connector-curvature="0"
     id="path8"
     d="m 64.458613,83.69984 -1.27,-1.77 -1.26,1.77 h 0.71 v 4.34 h 1.1 v -4.34 z" />
  <path
     style="fill:#3a556a"
     inkscape:connector-curvature="0"
     id="path10"
     d="m 67.438613,83.69984 -1.26,-1.77 -1.27,1.77 h 0.72 v 4.34 h 1.09 v -4.34 z" />
  <path
     style="fill:#f7be56"
     inkscape:connector-curvature="0"
     id="path12"
     d="m 105.23861,68.00984 h -6.999997 l -3.52,1.93 -3.68,-1.93 h -7 a 1,1 0 0 0 -1,1 v 19.9 a 1,1 0 0 0 1,1 h 21.139997 a 1,1 0 0 0 1,-1 v -19.87 a 1,1 0 0 0 -0.94,-1.03 z" />
  <path
     style="fill:#fcd462"
     inkscape:connector-curvature="0"
     id="path14"
     d="m 98.268613,74.03984 -0.87,-0.6 -0.94,0.6 -0.82,-0.6 -0.97,0.6 -0.93,-0.6 -0.94,0.6 -0.96,-0.6 -0.77,0.6 v -6.03 h 7.2 z" />
  <path
     style="fill:#3a556a"
     inkscape:connector-curvature="0"
     id="path16"
     d="m 88.778613,83.69984 -1.26,-1.77 -1.27,1.77 h 0.72 v 4.34 h 1.1 v -4.34 z" />
  <path
     style="fill:#3a556a"
     inkscape:connector-curvature="0"
     id="path18"
     d="m 91.758613,83.69984 -1.26,-1.77 -1.27,1.77 h 0.72 v 4.34 h 1.1 v -4.34 z" />
  <path
     style="fill:#fcd462"
     inkscape:connector-curvature="0"
     id="path20"
     d="m 92.518613,45.98984 h -7 l -3.5,1.93 -3.68,-1.93 h -7 a 1,1 0 0 0 -1,1 v 19.9 a 1,1 0 0 0 1,1 h 21.18 a 1,1 0 0 0 1,-1 v -19.87 a 1,1 0 0 0 -1,-1.03 z" />
  <path
     style="fill:#f7be56"
     inkscape:connector-curvature="0"
     id="path22"
     d="m 85.548613,52.01984 -0.87,-0.61 -0.94,0.61 -0.83,-0.61 -0.96,0.61 -0.93,-0.61 -0.94,0.61 -0.97,-0.61 -0.76,0.61 v -6.03 h 7.2 z" />
  <path
     style="fill:#3a556a"
     inkscape:connector-curvature="0"
     id="path24"
     d="m 76.048613,61.44984 -1.34,-1.87 -1.33,1.87 h 0.75 v 4.57 h 1.16 v -4.57 z" />
  <path
     style="fill:#3a556a"
     inkscape:connector-curvature="0"
     id="path26"
     d="m 79.188613,61.44984 -1.33,-1.87 -1.34,1.87 h 0.76 v 4.57 h 1.16 v -4.57 z" />
  <path
     style="fill:#27a2db"
     inkscape:connector-curvature="0"
     id="path28"
     d="M 111.39861,89.97984 H 51.928613 v -36.11 l -9.91,-9.88 -2.24,2.23 8.79,8.79 v 40.72 a 1.55,1.55 0 0 0 1.55,1.55 h 61.259997 a 1.5,1.5 0 0 0 1.5,-1.51 v -4.28 a 1.51,1.51 0 0 0 -1.48,-1.51 z" />
  <path
     style="fill:#3a556a"
     inkscape:connector-curvature="0"
     id="path30-3"
     d="m 37.738613,41.91984 a 2,2 0 0 0 0,2.89 l 6.68,6.68 2.89,-2.88 -6.69,-6.69 a 2,2 0 0 0 -2.88,0 z" />
  <path
     style="fill:#3a556a"
     inkscape:connector-curvature="0"
     id="path32-6"
     d="m 62.128613,91.90984 a 7.12,7.12 0 1 0 7.12,7.11 7.11,7.11 0 0 0 -7.12,-7.11 z" />
  <path
     style="fill:#ebf0f3"
     inkscape:connector-curvature="0"
     id="path34"
     d="m 62.128613,95.41984 a 3.6,3.6 0 1 0 3.6,3.6 3.6,3.6 0 0 0 -3.6,-3.6 z" />
  <path
     style="fill:#3a556a"
     inkscape:connector-curvature="0"
     id="path36"
     d="m 99.688613,91.90984 a 7.12,7.12 0 1 0 7.119997,7.11 7.11,7.11 0 0 0 -7.119997,-7.11 z" />
  <path
     style="fill:#ebf0f3"
     inkscape:connector-curvature="0"
     id="path38"
     d="m 99.688613,95.41984 a 3.6,3.6 0 1 0 3.599997,3.6 3.6,3.6 0 0 0 -3.599997,-3.6 z" />
</svg>
