<?xml version="1.0" encoding="UTF-8" standalone="no"?>
<svg
   xmlns:dc="http://purl.org/dc/elements/1.1/"
   xmlns:cc="http://creativecommons.org/ns#"
   xmlns:rdf="http://www.w3.org/1999/02/22-rdf-syntax-ns#"
   xmlns:svg="http://www.w3.org/2000/svg"
   xmlns="http://www.w3.org/2000/svg"
   xmlns:sodipodi="http://sodipodi.sourceforge.net/DTD/sodipodi-0.dtd"
   xmlns:inkscape="http://www.inkscape.org/namespaces/inkscape"
   id="Layer_1"
   height="512"
   viewBox="0 0 150 150"
   width="512"
   data-name="Layer 1"
   version="1.1"
   sodipodi:docname="picturee.svg"
   inkscape:version="0.92.3 (2405546, 2018-03-11)">
  <metadata
     id="metadata37">
    <rdf:RDF>
      <cc:Work
         rdf:about="">
        <dc:format>image/svg+xml</dc:format>
        <dc:type
           rdf:resource="http://purl.org/dc/dcmitype/StillImage" />
        <dc:title />
      </cc:Work>
    </rdf:RDF>
  </metadata>
  <defs
     id="defs35">
    <clipPath
       clipPathUnits="userSpaceOnUse"
       id="clipPath97">
      <g
         id="use99"
         inkscape:label="Clip">
        <path
           d="M 105.83,43 H 85.5 L 75.24,48.67 64.5,43 H 44.17 a 3,3 0 0 0 -3,3 v 58 a 3,3 0 0 0 3,3 h 61.66 a 3,3 0 0 0 3,-3 V 46 a 3,3 0 0 0 -3,-3 z"
           id="path33"
           inkscape:connector-curvature="0"
           style="fill:#fcd462" />
        <path
           d="m 85.5,60.62 -2.53,-1.77 -2.75,1.77 -2.4,-1.77 -2.82,1.77 -2.7,-1.77 -2.75,1.77 -2.81,-1.77 -2.24,1.77 V 43.03 h 21 z"
           id="path35"
           inkscape:connector-curvature="0"
           style="fill:#ebf0f3" />
        <g
           id="g59"
           style="fill:#3a556a">
          <path
             d="m 49.56,96.55 -1.24,-1.74 -1.24,1.74 h 0.7 v 4.26 h 1.08 v -4.26 z"
             id="path37"
             inkscape:connector-curvature="0" />
          <path
             d="M 52.49,96.55 51.24,94.81 50,96.55 h 0.7 v 4.26 h 1.08 v -4.26 z"
             id="path39"
             inkscape:connector-curvature="0" />
          <path
             d="m 58.68,96.7 v -1.89 h -1.12 l -0.59,0.8 0.61,0.54 -0.83,1.16 0.37,-0.9 -0.75,-0.76 0.56,-0.84 h -1.37 v 1.89 a 1.56,1.56 0 0 0 1.35,1.55 v 1.44 a 0.78,0.78 0 0 1 -0.78,0.78 H 56 a 0.18,0.18 0 0 0 -0.17,0.17 0.17,0.17 0 0 0 0.17,0.17 h 2.34 a 0.17,0.17 0 0 0 0.17,-0.17 0.18,0.18 0 0 0 -0.17,-0.17 h -0.18 a 0.78,0.78 0 0 1 -0.78,-0.78 v -1.44 a 1.56,1.56 0 0 0 1.3,-1.55 z"
             id="path41"
             inkscape:connector-curvature="0" />
          <path
             d="m 64.58,95.17 v -0.24 l -0.12,-0.12 -0.12,0.12 v 0.24 a 3,3 0 0 0 -2.9,3 c 0,-0.06 0.17,-0.12 0.39,-0.12 0.22,0 0.39,0.06 0.39,0.12 0,-0.09 0.25,-0.16 0.55,-0.16 0.3,0 0.5,0 0.55,0.13 0.08,-0.15 0.49,-0.27 1,-0.29 v 2.4 a 0.32,0.32 0 0 1 -0.32,0.32 0.32,0.32 0 0 1 -0.32,-0.32 v -0.33 l -0.12,-0.12 -0.12,0.12 v 0.33 a 0.56,0.56 0 0 0 1.12,0 v -2.4 c 0.57,0 1,0.17 1,0.34 0,-0.09 0.25,-0.16 0.55,-0.16 0.3,0 0.56,0.07 0.56,0.16 0,-0.06 0.17,-0.12 0.39,-0.12 0.22,0 0.39,0.06 0.39,0.12 a 3,3 0 0 0 -2.87,-3.02 z"
             id="path43"
             inkscape:connector-curvature="0" />
          <path
             d="M 60.89,94 H 46 v 7.54 H 68.23 V 94 Z m -7.54,7.34 h -7.14 v -7.1 h 7.14 z m 7.34,0 h -7.14 v -7.1 h 7.14 z m 7.34,0 h -7.14 v -7.1 H 68 Z"
             id="path45"
             inkscape:connector-curvature="0" />
          <path
             d="m 69.42,73.37 -5.64,1.25 1.22,1.01 -3.54,5.09 -0.03,0.03 3.06,2.42 1.93,-2.45 1.81,-2.4 0.98,0.82 z"
             id="path47"
             inkscape:connector-curvature="0" />
          <path
             d="m 76.63,66.67 -2.48,3.14 -2.55,3.21 -3.03,-2.44 3.09,-3.91 z"
             id="path49"
             inkscape:connector-curvature="0" />
          <path
             d="m 86.31,80.75 -0.13,0.11 -2.92,2.31 -1.94,-2.45 -2.21,-3.45 3.43,-2.43 3.75,5.88 z"
             id="path51"
             inkscape:connector-curvature="0" />
          <path
             d="m 70.1,80.72 v 3.89 h -5.71 l -3.03,-3.89 z"
             id="path53"
             inkscape:connector-curvature="0" />
          <path
             d="m 79.47,70.26 -2.84,-3.59 h -4.97 l 2.49,3.14 2.2,2.79 -1.17,0.88 5.57,1.53 0.08,-5.77 z"
             id="path55"
             inkscape:connector-curvature="0" />
          <path
             d="M 75.94,80.72 75.92,79.14 71.39,82.72 76,86.2 75.98,84.61 h 7.28 l 2.92,-3.75 0.11,-0.14 z"
             id="path57"
             inkscape:connector-curvature="0" />
        </g>
      </g>
    </clipPath>
  </defs>
  <sodipodi:namedview
     pagecolor="#ffffff"
     bordercolor="#666666"
     borderopacity="1"
     objecttolerance="10"
     gridtolerance="10"
     guidetolerance="10"
     inkscape:pageopacity="0"
     inkscape:pageshadow="2"
     inkscape:window-width="640"
     inkscape:window-height="480"
     id="namedview33"
     showgrid="false"
     inkscape:zoom="0.4609375"
     inkscape:cx="256"
     inkscape:cy="256"
     inkscape:window-x="651"
     inkscape:window-y="107"
     inkscape:window-maximized="0"
     inkscape:current-layer="Layer_1" />
  <circle
     cx="75"
     cy="75"
     fill="#334d5c"
     r="64"
     id="circle2" />
  <rect
     x="35.364799"
     y="46.654503"
     style="fill:#ffffff;stroke-width:0.22660494"
     width="77.045677"
     height="58.597771"
     id="rect6" />
  <rect
     x="43.901009"
     y="54.143795"
     style="fill:#35ccff;stroke-width:0.22660494"
     width="59.975536"
     height="43.61692"
     id="rect10" />
  <rect
     x="74.000946"
     y="54.143795"
     style="fill:#00baff;stroke-width:0.22660494"
     width="29.873329"
     height="43.61692"
     id="rect12" />
  <polygon
     transform="matrix(0.22660494,0,0,0.22660494,15.876778,17.941392)"
     style="fill:#9b3e29"
     points="373.726,352.238 284.984,212.786 256.5,251.862 256.5,352.238 "
     id="polygon16" />
  <polygon
     transform="matrix(0.22660494,0,0,0.22660494,15.876778,17.941392)"
     style="fill:#ff6838"
     points="207.667,237 281,352.238 123.667,352.238 "
     id="polygon18" />
  <circle
     style="fill:#ffdc00;stroke-width:0.22660494"
     cx="92.997238"
     cy="63.790367"
     r="6.6470032"
     id="circle22" />
</svg>
