<svg id="Layer_1" enable-background="new 0 0 512 512" height="512" viewBox="0 0 512 512" width="512" xmlns="http://www.w3.org/2000/svg"><g><g><g><g><g><g><g><g><g><g><g><g><circle cx="256" cy="256" fill="#ff5f1c" r="256"/></g></g></g></g></g></g></g></g></g></g></g><path d="m512 256c0-19.371-2.165-38.234-6.242-56.374l-109.515-109.515-16.424 5.069-56.721-55.028-124.765 23.848-15 51-67.576 43.402 16.151 16.19-4.967 256.756 74.891 74.891c17.463 3.762 35.581 5.761 54.168 5.761 141.385 0 256-114.615 256-256z" fill="#ff2034"/><g><g><path d="m218.765 100.32h-30v-60.167h134.333l.137 60.037-30 .068-.069-30.106h-74.401z" fill="#8d8a94"/></g><g><path d="m323.23 100.19-30 .07-.02-10.15-.04-19.96h-37.17v-30h67.1l.11 49.96z" fill="#57545c"/></g><path d="m157.07 430.889h197.859v30h-197.859z" fill="#cac7cd"/><path d="m256 430.89h98.93v30h-98.93z" fill="#8d8a94"/><path d="m126.942 148.036h258.116v283.311h-258.116z" fill="#fff"/><path d="m256 148.04h129.06v283.31h-129.06z" fill="#cac7cd"/><g><path d="m181.157 387.735c-13.003 0-23.544-10.541-23.544-23.544v-137.226c0-13.003 10.541-23.544 23.544-23.544 13.003 0 23.544 10.541 23.544 23.544v137.227c0 13.002-10.541 23.543-23.544 23.543z" fill="#cac7cd"/><path d="m256 387.735c-13.003 0-23.544-10.541-23.544-23.544v-137.226c0-13.003 10.541-23.544 23.544-23.544 13.003 0 23.544 10.541 23.544 23.544v137.227c0 13.002-10.541 23.543-23.544 23.543z" fill="#cac7cd"/><g fill="#8d8a94"><path d="m279.54 226.293v137.23c0 13.667-10.54 24.217-23.54 24.217v-184.32c6.5 0 12.38 2.64 16.64 6.9s6.9 10.14 6.9 15.973z"/><path d="m330.843 387.735c-13.003 0-23.544-10.541-23.544-23.544v-137.226c0-13.003 10.541-23.544 23.544-23.544 13.003 0 23.544 10.541 23.544 23.544v137.227c0 13.002-10.541 23.543-23.544 23.543z"/></g></g><path d="m115.757 90.111h280.486v68.29h-280.486z" fill="#cac7cd"/><path d="m256 90.11h140.24v68.29h-140.24z" fill="#8d8a94"/></g></g></svg>